<?xml version="1.0" encoding="UTF-8" standalone="no"?>
<svg
   xmlns:dc="http://purl.org/dc/elements/1.1/"
   xmlns:cc="http://creativecommons.org/ns#"
   xmlns:rdf="http://www.w3.org/1999/02/22-rdf-syntax-ns#"
   xmlns:svg="http://www.w3.org/2000/svg"
   xmlns="http://www.w3.org/2000/svg"
   xmlns:sodipodi="http://sodipodi.sourceforge.net/DTD/sodipodi-0.dtd"
   xmlns:inkscape="http://www.inkscape.org/namespaces/inkscape"
   viewBox="23.6 167.1 359.43539 290.95945"
   version="1.1"
   id="svg18"
   sodipodi:docname="logo.svg"
   inkscape:export-filename="C:\Users\ReenigneArcher\LaunchBox\Themes\RecalBigBox\Resources\Platforms\Final Burn Alpha\logo.png"
   inkscape:export-xdpi="65.988579"
   inkscape:export-ydpi="65.988579"
   inkscape:version="0.92.4 (5da689c313, 2019-01-14)">
  <metadata
     id="metadata24">
    <rdf:RDF>
      <cc:Work
         rdf:about="">
        <dc:format>image/svg+xml</dc:format>
        <dc:type
           rdf:resource="http://purl.org/dc/dcmitype/StillImage" />
      </cc:Work>
    </rdf:RDF>
  </metadata>
  <defs
     id="defs22" />
  <sodipodi:namedview
     pagecolor="#ffffff"
     bordercolor="#666666"
     borderopacity="1"
     objecttolerance="10"
     gridtolerance="10"
     guidetolerance="10"
     inkscape:pageopacity="0"
     inkscape:pageshadow="2"
     inkscape:window-width="1920"
     inkscape:window-height="1017"
     id="namedview20"
     showgrid="false"
     inkscape:zoom="0.79012809"
     inkscape:cx="179.7177"
     inkscape:cy="145.47972"
     inkscape:window-x="-8"
     inkscape:window-y="-8"
     inkscape:window-maximized="1"
     inkscape:current-layer="svg18" />
  <path
     fill="#cf8a61"
     d="M381.76732 282.93851c.0634-.88765 0-1.7119 0-2.47274v-49.13784c0-.82425-.0634-1.7119-.25362-2.53615-4.75527-17.75303-13.25136-33.22352-27.45379-45.14341-11.66627-9.82757-24.98104-15.28029-40.38813-15.28029H27.97485c-1.01446 0-2.02891-.0634-3.10678 0v37.21796c.76085.31701 1.45829.57063 2.09232.82424 5.00889 1.5851 10.01778 3.17019 15.09008 4.75528 50.59612 16.04113 101.19225 32.01885 151.85178 48.05998 23.90318 7.54504 47.80637 15.15348 71.70955 22.69851 1.52169.44383 3.10678.88765 4.62847.88765 36.3303.0634 72.724.0634 109.0543.0634.76085.0634 1.6485.1268 2.47275.0634zm-140.88295-2.40934c-32.58949-10.3348-64.92536-20.60619-97.64165-30.94099V393.3243c-14.07561 7.10121-27.96102 14.13901-41.78302 21.05001v42.41706h170.87289V374.3666h-31.44822v-93.83743zm11.03224 11.28585v72.28018h129.6605v-72.28018h-129.6605z"
     id="path2" />
  <path
     d="M273.60066 458.05944H100.19163v-44.44597l41.78302-21.05002V247.87628l100.17779 31.76524v93.45701h31.44822v84.96091zm-170.87288-2.53615h168.33673v-79.88862h-31.44822v-94.15444l-95.1689-30.18015v142.78506l-41.78302 21.05002.0634 40.38813zm280.18082-90.16001H250.71194v-74.81633H382.9086v74.81633zm-129.72392-2.53615h127.18776V293.0831H253.18468v69.74403zm127.75839-78.62055h-44.57278c-26.43933 0-46.79191 0-66.13002-.0634-1.7119 0-3.4238-.44383-5.00889-.95105l-46.22128-14.64625c-8.49609-2.66296-16.99218-5.38931-25.48827-8.05227-35.69627-11.28585-71.39253-22.63511-107.0888-33.92096l-47.04552-14.89986c-4.24804-1.33148-8.49609-2.66296-12.74413-4.05784-.50723-.19021-1.01446-.38042-1.45829-.57063-.25361-.0634-.44382-.19021-.69744-.25361l-.82425-.31702v-39.24687l1.20467-.0634c.76085-.0634 1.45829 0 2.15573 0h286.58457c15.09008 0 28.97548 5.26251 41.21239 15.59731 13.56838 11.47606 22.69851 26.43933 27.83421 45.77744.25363 1.01446.31703 2.09233.31703 2.85317v49.83528c0 .57063.063 1.20467 0 1.83871l-.063 1.07786-1.07788.0634h-.88765zm-1.58509-2.53614h1.20467v-50.34251c0-.63404 0-1.45829-.19021-2.21913-5.00889-18.83089-13.88541-33.41374-27.07337-44.50938-11.79308-9.95437-25.10785-14.96326-39.56389-14.96326H26.19955v35.12563c.44383.19021.82425.31702 1.26807.44382 4.24805 1.33148 8.4961 2.72636 12.74414 4.05784l47.04552 14.89986c35.69627 11.28585 71.39253 22.63511 107.0888 33.92096 8.49609 2.66296 16.99218 5.38931 25.48827 8.05227l46.22127 14.64625c1.39488.44382 2.91657.82424 4.24805.88765 19.33812 0 39.6907.0634 66.13002.0634h37.85199l5.0723-.0634z"
     id="path4" />
  <path
     fill="#cf8a61"
     d="M381.76732 282.93851l-113.36576-.0634-243.53349-77.16227v-37.34476c1.07787-.0634 112.3513 0 167.00526 0h121.79845c15.40709 0 28.78526 5.45272 40.38813 15.28029 14.20243 11.98329 22.69852 27.39038 27.45379 45.14341.19021.82425.25362 1.7119.25362 2.53615.0634 16.42155 0 51.61058 0 51.61058z"
     id="path6" />
  <path
     d="M383.0354 284.20658l-114.82405-.0634-.19021-.0634L23.6 206.6005v-39.43709l1.20467-.0634h288.8037c15.09008 0 28.97548 5.2625 41.21239 15.5973 13.56838 11.47607 22.69851 26.43933 27.83421 45.77745.25363 1.01446.31703 2.09232.31703 2.85317v51.54718l.063 1.33147zm-114.38023-2.59955l111.90748.0634v-50.34251c0-.63404 0-1.45829-.19021-2.21913-5.00889-18.83089-13.88541-33.41374-27.07337-44.50938-11.79308-9.95437-25.10785-14.96326-39.56389-14.96326H26.19955v35.18903l242.45562 76.78184z"
     id="path8" />
  <path
     fill="#cf8a61"
     d="M240.88437 280.52917v93.83743h31.44822v82.42477H101.4597v-42.41706c13.7586-6.9744 27.644-13.9488 41.78302-21.05001V249.58818c32.71629 10.3982 65.05216 20.60619 97.64165 30.94099z"
     id="path10" />
  <path
     d="M273.60066 458.05944H100.19163v-44.44597l41.78302-21.05002V247.87628l100.17779 31.76524v93.45701h31.44822v84.96091zm-170.87288-2.53615h168.33673v-79.88862h-31.44822v-94.15444l-95.1689-30.18015v142.78506l-41.78302 21.05002.0634 40.38813z"
     id="path12" />
  <path
     fill="#cf8a61"
     d="M251.91661 291.81502h129.6605v72.28018h-129.6605v-72.28018z"
     id="path14" />
  <path
     d="M382.9086 365.36328H250.71194v-74.81633H382.9086v74.81633zm-129.72392-2.53615h127.18776V293.0831H253.18468v69.74403z"
     id="path16" />
</svg>
