<svg xmlns="http://www.w3.org/2000/svg" viewBox="0 0 171.16 105.162"><path d="M121.484 21.123c-14.597 0-26.43 11.833-26.43 26.429s11.833 26.43 26.43 26.43 26.43-11.833 26.43-26.43-11.833-26.429-26.43-26.429zm0 39.892c-7.438 0-13.466-6.029-13.466-13.466 0-7.437 6.028-13.466 13.466-13.466s13.467 6.029 13.467 13.466c0 7.437-6.03 13.466-13.467 13.466z"/><path d="M168.949 67.349c1.515 1.557 1.99 2.076 1.99 2.076s.259.173.216.908 0 24.178 0 24.912c0 .735-.216.735-.433.995-.216.26-1.773 2.076-1.773 2.076V67.349zM2.21 67.349C.696 68.906.22 69.425.22 69.425s-.259.173-.216.908c.043.735 0 24.178 0 24.912 0 .735.216.735.432.995s1.773 2.076 1.773 2.076V67.349z" fill="#d9dadb"/><path d="M166.442 0H4.648a3.081 3.081 0 00-3.072 3.073v99.017a3.081 3.081 0 003.072 3.072h161.793a3.082 3.082 0 003.072-3.072V3.073A3.08 3.08 0 00166.442 0zM44.953 102.919a3.639 3.639 0 110-7.277 3.639 3.639 0 010 7.277zm4.722-46.234c-5.046 0-9.136-4.09-9.136-9.136s4.09-9.135 9.136-9.135a9.136 9.136 0 010 18.271zm15.639 41.821a1.32 1.32 0 01-1.316 1.316h-4.024a1.32 1.32 0 01-1.317-1.316v-3.638a1.32 1.32 0 011.317-1.316h4.024a1.32 1.32 0 011.316 1.316v3.638zM99.273 47.29c0 .07-.139.127-.308.127H72.194c-.169 0-.307-.057-.307-.127v-5.187c0-.07.138-.127.307-.127h26.771c.169 0 .308.057.308.127v5.187zm13.23 51.216a1.32 1.32 0 01-1.316 1.316h-4.024a1.32 1.32 0 01-1.317-1.316v-3.638a1.32 1.32 0 011.317-1.316h4.024c.725 0 1.316.592 1.316 1.316v3.638zm13.704 4.413a3.64 3.64 0 110-7.279 3.64 3.64 0 010 7.279zm-4.723-46.234c-5.045 0-9.135-4.09-9.135-9.136s4.09-9.135 9.135-9.135a9.135 9.135 0 110 18.271z" fill="#e9e8e4"/><path d="M49.676 26.788c-11.468 0-20.765 9.297-20.765 20.765s9.297 20.765 20.765 20.765 20.765-9.296 20.765-20.765c0-11.468-9.297-20.765-20.765-20.765zm0 34.231c-7.438 0-13.467-6.029-13.467-13.466 0-7.437 6.029-13.466 13.467-13.466s13.466 6.029 13.466 13.466c0 7.437-6.028 13.466-13.466 13.466z"/><path d="M121.484 37.922c-5.316 0-9.627 4.31-9.627 9.627 0 5.317 4.311 9.627 9.627 9.627 5.317 0 9.628-4.31 9.628-9.627 0-5.317-4.311-9.627-9.628-9.627zm.589 17.655v-1.753h-1.144v1.756a8.044 8.044 0 01-6.119-3.526l1.521-.878-.572-.99-1.521.878a8.018 8.018 0 01-.806-3.514c0-1.27.294-2.47.817-3.538l1.504.868.571-.99-1.5-.866a8.045 8.045 0 016.093-3.503v1.711h1.144v-1.711a8.047 8.047 0 016.082 3.503l-1.484.856.572.991 1.486-.858a8.02 8.02 0 01.817 3.537 8.008 8.008 0 01-.796 3.495l-1.503-.868-.571.99 1.505.87a8.037 8.037 0 01-6.096 3.54zM49.675 37.922c-5.317 0-9.628 4.31-9.628 9.627 0 5.317 4.311 9.627 9.628 9.627s9.627-4.31 9.627-9.627a9.626 9.626 0 00-9.627-9.627zm.555 17.658v-1.756h-1.144v1.753a8.047 8.047 0 01-6.098-3.541l1.506-.87-.572-.99-1.503.868a8.019 8.019 0 01-.796-3.495 8.02 8.02 0 01.818-3.537l1.486.858.573-.99-1.483-.856a8.043 8.043 0 016.081-3.503v1.711h1.144V39.52a8.044 8.044 0 016.094 3.503l-1.501.866.572.99 1.503-.868a8.021 8.021 0 01.818 3.538c0 1.26-.29 2.452-.806 3.514l-1.522-.877-.571.99 1.521.878a8.046 8.046 0 01-6.12 3.526z" fill="#e2e2df"/><path d="M144.702 105.162c-1.052-4.787-4.57-21.569-4.946-23.224-.387-1.703-1.084-3.097-3.252-3.097H34.656c-2.168 0-2.864 1.394-3.252 3.097-.376 1.654-3.895 18.437-4.946 23.224h1.612a4919.07 4919.07 0 004.657-21.9c.535-2.563 1.084-3.097 3.252-3.097h99.202c2.167 0 2.716.534 3.251 3.097.479 2.291 3.386 16.036 4.658 21.9h1.612z" fill="#d9dadb"/><path d="M158.833 14.732c-.144-.165-5.323-5.571-5.546-5.809-.155-.167-.408-.171-.408-.171H18.282s-.253.004-.409.171c-.223.238-5.402 5.644-5.546 5.809-.223.256-.178.418-.178.418v57.916a.44.44 0 00.439.438h145.983a.44.44 0 00.438-.438V15.151c.001 0 .046-.162-.176-.419zM132.6 47.549c0 6.114-5.002 11.116-11.116 11.116H49.675c-6.113 0-11.115-5.002-11.115-11.116s5.002-11.116 11.115-11.116h71.809c6.114.001 11.116 5.003 11.116 11.116z" fill-rule="evenodd" clip-rule="evenodd" fill="#7a9ca5"/><path d="M99.39 41.635H71.77c-.175 0-.317.064-.317.143v5.836c0 .079.143.143.317.143h27.62c.174 0 .316-.064.316-.143v-5.836c.001-.079-.142-.143-.316-.143zm-.117 5.655c0 .07-.139.127-.308.127H72.194c-.169 0-.307-.057-.307-.127v-5.187c0-.07.138-.127.307-.127h26.771c.169 0 .308.057.308.127v5.187z" fill="#b4b4b5"/><path d="M121.484 36.434H49.675c-6.139 0-11.115 4.976-11.115 11.115s4.977 11.116 11.115 11.116h71.809c6.14 0 11.116-4.977 11.116-11.116s-4.976-11.115-11.116-11.115zM49.658 56.685a9.153 9.153 0 110-18.306 9.153 9.153 0 010 18.306zm50.049-9.071c0 .079-.143.143-.316.143H71.77c-.175 0-.317-.064-.317-.143v-5.836c0-.079.143-.143.317-.143h27.62c.174 0 .316.064.316.143v5.836zm21.777 9.071a9.153 9.153 0 110-18.306 9.153 9.153 0 010 18.306z" fill-rule="evenodd" clip-rule="evenodd" fill="#e9e8e4"/><circle cx="7.261" cy="5.726" r="3.025" fill="#dbdbdb"/><g fill="#8e8e8e"><path d="M7.505 8.021h-.487a.279.279 0 01-.278-.278V3.709c0-.153.125-.278.278-.278h.487c.153 0 .278.125.278.278v4.034a.279.279 0 01-.278.278z"/><path d="M9.556 5.483v.487a.279.279 0 01-.278.278H5.244a.279.279 0 01-.278-.278v-.487c0-.153.125-.278.278-.278h4.034c.153 0 .278.125.278.278z"/></g><circle cx="163.788" cy="5.726" r="3.025" fill="#dbdbdb"/><g fill="#8e8e8e"><path d="M164.032 8.021h-.487a.279.279 0 01-.278-.278V3.709c0-.153.125-.278.278-.278h.487c.153 0 .278.125.278.278v4.034a.279.279 0 01-.278.278z"/><path d="M166.083 5.483v.487a.279.279 0 01-.278.278h-4.034a.279.279 0 01-.278-.278v-.487c0-.153.125-.278.278-.278h4.034c.153 0 .278.125.278.278z"/></g><circle cx="163.788" cy="99.437" r="3.025" fill="#dbdbdb"/><g fill="#8e8e8e"><path d="M164.032 101.732h-.487a.279.279 0 01-.278-.278V97.42c0-.153.125-.278.278-.278h.487c.153 0 .278.125.278.278v4.034a.28.28 0 01-.278.278z"/><path d="M166.083 99.193v.487a.279.279 0 01-.278.278h-4.034a.279.279 0 01-.278-.278v-.487c0-.153.125-.278.278-.278h4.034c.153 0 .278.125.278.278z"/></g><circle cx="7.261" cy="99.437" r="3.025" fill="#dbdbdb"/><g fill="#8e8e8e"><path d="M7.505 101.732h-.487a.279.279 0 01-.278-.278V97.42c0-.153.125-.278.278-.278h.487c.153 0 .278.125.278.278v4.034a.28.28 0 01-.278.278z"/><path d="M9.556 99.193v.487a.279.279 0 01-.278.278H5.244a.279.279 0 01-.278-.278v-.487c0-.153.125-.278.278-.278h4.034c.153 0 .278.125.278.278z"/></g><circle cx="85.545" cy="87" r="3.025" fill="#dbdbdb"/><g fill="#8e8e8e"><path d="M85.789 89.295h-.487a.279.279 0 01-.278-.278v-4.034c0-.153.125-.278.278-.278h.487c.153 0 .278.125.278.278v4.034a.279.279 0 01-.278.278z"/><path d="M87.84 86.757v.487a.279.279 0 01-.278.278h-4.034a.279.279 0 01-.278-.278v-.487c0-.153.125-.278.278-.278h4.034a.278.278 0 01.278.278z"/></g><g><path d="M68.186 11.256v2.809h-.324v-2.809h-.887v-.297h2.098v.297h-.887zM69.401 13.317l-.262.747h-.347l1.13-3.106h.274l1.13 3.106h-.346l-.261-.747h-1.318zm.657-1.9l-.563 1.621h1.13l-.567-1.621zM73.982 14.064h-.328l-1.607-2.503v2.503h-.328v-3.106h.328l1.607 2.494v-2.494h.328v3.106zM74.638 12.912v-.806c0-.411.098-.712.293-.903.195-.19.457-.286.787-.286.327 0 .588.095.781.286.193.191.291.492.291.903v.806c0 .411-.098.712-.293.902-.195.191-.456.286-.783.286-.33 0-.592-.095-.785-.286-.194-.19-.291-.491-.291-.902zm1.823-.792c0-.604-.247-.905-.743-.905-.249 0-.437.071-.563.213s-.188.373-.188.691v.81c0 .303.063.523.191.662.127.138.313.207.56.207.496 0 .743-.29.743-.869v-.809zM81.092 14.064h-.328v-2.431l-.878 1.81h-.252l-.883-1.81v2.431h-.328v-3.106h.328l1.009 2.093 1.004-2.093h.328v3.106zM82.091 13.317l-.262.747h-.347l1.13-3.106h.274l1.13 3.106h-.346l-.261-.747h-1.318zm.657-1.9l-.563 1.621h1.13l-.567-1.621zM84.196 13.187h.324c.042.411.288.617.738.617.234 0 .412-.049.533-.148.122-.099.183-.243.183-.432 0-.171-.048-.3-.145-.387-.096-.087-.241-.147-.437-.18l-.351-.059c-.252-.042-.446-.128-.581-.259-.135-.131-.202-.314-.202-.552 0-.273.091-.486.274-.639.183-.153.425-.229.725-.229.276 0 .502.071.678.214.175.143.279.359.313.65h-.324c-.036-.387-.26-.581-.671-.581-.213 0-.379.05-.497.151s-.178.238-.178.412c0 .153.046.272.138.358.091.085.229.145.416.178l.36.063c.261.045.46.135.599.27.138.135.207.326.207.572 0 .282-.095.5-.284.655-.188.154-.448.231-.778.231-.313 0-.557-.076-.733-.229-.178-.154-.28-.379-.307-.676zM87.751 11.256v2.809h-.324v-2.809h-.887v-.297h2.098v.297h-.887zM89.362 12.336h1.333v.297h-1.333v1.135h1.558v.297h-1.886v-3.106h1.886v.297h-1.558v1.08zM91.824 12.701v1.364h-.328v-3.106h1.152c.291 0 .52.076.687.228.166.151.249.367.249.646 0 .222-.058.405-.175.549s-.281.24-.491.288l.734 1.396h-.379l-.702-1.364h-.747zm.797-.284c.201 0 .357-.05.468-.151.111-.101.167-.244.167-.43 0-.192-.055-.337-.164-.435s-.267-.146-.471-.146h-.797v1.161h.797zM96.284 11.886c0 .279-.088.498-.264.657-.175.159-.413.239-.713.239h-.788v1.283h-.328v-3.106h1.116c.303 0 .542.08.716.241s.261.389.261.686zm-.328 0c0-.213-.059-.371-.176-.475s-.284-.155-.5-.155h-.761v1.229h.761c.216 0 .383-.049.5-.148s.176-.25.176-.451zM96.869 13.317l-.262.747h-.347l1.13-3.106h.274l1.13 3.106h-.347l-.261-.747h-1.317zm.656-1.9l-.563 1.621h1.13l-.567-1.621zM99.083 12.912v-.806c0-.411.1-.712.297-.903.198-.19.464-.286.797-.286.21 0 .396.039.557.117.16.078.284.189.371.333s.13.311.13.5v.014h-.328v-.014a.61.61 0 00-.195-.477c-.131-.117-.309-.175-.534-.175-.249 0-.438.07-.569.211-.13.141-.195.372-.195.693v.81c0 .579.256.869.77.869.225 0 .402-.058.531-.173a.604.604 0 00.193-.475v-.018h.319v.018c0 .291-.095.522-.283.693-.189.171-.444.257-.766.257-.333 0-.599-.095-.797-.286-.199-.19-.298-.491-.298-.902zM102.218 13.209v.855h-.328v-3.106h.328v1.81l1.437-1.81h.392l-.981 1.211 1.121 1.895h-.383l-.95-1.639-.636.784zM52.626 16.655v2.809h-.324v-2.809h-.887v-.297h2.098v.297h-.887zM53.71 18.312v-.806c0-.411.098-.712.293-.903.195-.19.457-.286.787-.286.327 0 .588.095.781.286.193.191.291.492.291.903v.806c0 .411-.098.712-.293.902-.195.191-.456.286-.783.286-.33 0-.592-.095-.785-.286-.194-.19-.291-.491-.291-.902zm1.824-.792c0-.603-.247-.904-.743-.904-.249 0-.437.071-.563.213-.126.143-.188.373-.188.691v.811c0 .303.063.523.191.662.127.138.313.207.56.207.496 0 .743-.29.743-.869v-.811zM57.824 16.358v2.809h1.549v.297h-1.877v-3.106h.328zM59.637 18.312v-.806c0-.411.098-.712.293-.903.195-.19.457-.286.787-.286.327 0 .588.095.781.286.193.191.29.492.29.903v.806c0 .411-.097.712-.292.902-.195.191-.456.286-.783.286-.33 0-.592-.095-.785-.286-.194-.19-.291-.491-.291-.902zm1.823-.792c0-.603-.248-.904-.743-.904-.249 0-.437.071-.563.213-.126.143-.188.373-.188.691v.811c0 .303.063.523.191.662.127.138.313.207.56.207.495 0 .743-.29.743-.869v-.811zM62.725 18.717l-.262.747h-.347l1.13-3.106h.274l1.13 3.106h-.347l-.261-.747h-1.317zm.657-1.9l-.563 1.621h1.13l-.567-1.621zM66.105 16.358c.33 0 .592.095.785.286.193.191.29.492.29.903v.729c0 .411-.097.712-.29.903-.193.19-.455.286-.785.286h-1.063v-3.106h1.063zm.742 1.936v-.734c0-.315-.063-.544-.191-.688-.127-.144-.31-.216-.547-.216h-.733v2.512h.733c.492-.001.738-.292.738-.874zM69.7 16.655v2.809h-.324v-2.809h-.887v-.297h2.098v.297H69.7zM71.909 19.464h-.328v-1.305l-.928-1.801h.355l.734 1.49.738-1.49h.355l-.928 1.805v1.301zM75.32 17.286c0 .279-.088.498-.264.657-.175.159-.413.239-.713.239h-.788v1.283h-.328v-3.106h1.116c.303 0 .542.08.716.241s.261.389.261.686zm-.328 0c0-.213-.059-.371-.176-.475-.117-.104-.284-.156-.5-.156h-.761v1.229h.761c.216 0 .383-.049.5-.148s.176-.249.176-.45zM76.152 17.736h1.333v.297h-1.333v1.135h1.558v.297h-1.886v-3.106h1.886v.297h-1.558v1.08zM80.406 17.754v.297h-1.238v-.297h1.238zM81.943 18.312v-.806c0-.411.1-.712.297-.903.198-.19.464-.286.797-.286.21 0 .396.039.557.117.16.078.284.189.371.333s.131.311.131.5v.014h-.329v-.014a.61.61 0 00-.195-.477c-.131-.117-.309-.175-.534-.175-.249 0-.438.07-.569.211-.13.141-.195.372-.195.693v.811c0 .579.256.869.77.869.225 0 .402-.058.531-.173a.604.604 0 00.193-.475v-.018h.319v.018c0 .291-.095.522-.283.693-.189.171-.444.257-.766.257-.333 0-.599-.095-.797-.286-.198-.191-.298-.492-.298-.903zM85.08 16.358v2.809h1.549v.297h-1.877v-3.106h.328zM86.893 18.312v-.806c0-.411.098-.712.293-.903.195-.19.457-.286.787-.286.327 0 .588.095.781.286.193.191.29.492.29.903v.806c0 .411-.097.712-.292.902-.195.191-.456.286-.783.286-.33 0-.592-.095-.785-.286-.194-.19-.291-.491-.291-.902zm1.823-.792c0-.603-.248-.904-.743-.904-.249 0-.437.071-.563.213-.126.143-.188.373-.188.691v.811c0 .303.063.523.191.662.127.138.313.207.56.207.495 0 .743-.29.743-.869v-.811zM89.981 18.717l-.262.747h-.347l1.13-3.106h.274l1.13 3.106h-.346l-.261-.747h-1.318zm.657-1.9l-.563 1.621h1.13l-.567-1.621zM93.361 16.358c.33 0 .592.095.785.286.193.191.29.492.29.903v.729c0 .411-.097.712-.29.903-.193.19-.455.286-.785.286h-1.063v-3.106h1.063zm.742 1.936v-.734c0-.315-.063-.544-.191-.688-.127-.144-.31-.216-.547-.216h-.733v2.512h.733c.492-.001.738-.292.738-.874zM94.966 17.236v-.756l.297-.279v1.036h-.297zm.617 0v-.756l.297-.279v1.036h-.297zM96.807 17.745h1.333v.297h-1.333v1.422h-.328v-3.106h1.886v.297h-1.558v1.09zM99.268 16.358v3.106h-.328v-3.106h.328zM100.353 16.358v2.809h1.549v.297h-1.877v-3.106h.328zM102.733 17.736h1.333v.297h-1.333v1.135h1.558v.297h-1.886v-3.106h1.886v.297h-1.558v1.08zM107.13 19.464h-.328l-1.607-2.503v2.503h-.328v-3.106h.328l1.607 2.494v-2.494h.328v3.106zM108.129 18.717l-.262.747h-.347l1.13-3.106h.274l1.13 3.106h-.347l-.261-.747h-1.317zm.658-1.9l-.563 1.621h1.13l-.567-1.621zM113.116 19.464h-.328v-2.431l-.878 1.81h-.252l-.883-1.81v2.431h-.328v-3.106h.328l1.009 2.093 1.004-2.093h.328v3.106zM114.163 17.736h1.333v.297h-1.333v1.135h1.558v.297h-1.886v-3.106h1.886v.297h-1.558v1.08zM116.085 18.586h.324c.042.411.288.617.738.617.234 0 .412-.049.533-.148.122-.099.183-.243.183-.432 0-.171-.048-.3-.145-.387-.096-.087-.241-.147-.437-.18l-.351-.059c-.252-.042-.446-.128-.581-.259-.135-.131-.202-.314-.202-.552 0-.273.091-.486.274-.639.183-.153.425-.229.725-.229.276 0 .502.071.678.214.175.143.279.359.313.65h-.324c-.036-.387-.26-.581-.671-.581-.213 0-.379.05-.497.151s-.178.238-.178.412c0 .153.046.272.138.358.091.085.229.145.416.178l.36.063c.261.045.46.135.599.27.138.135.207.326.207.572 0 .282-.095.5-.284.655-.188.154-.448.231-.778.231-.313 0-.557-.076-.733-.229-.179-.153-.28-.378-.307-.676zM118.929 16.354v.756l-.298.279v-1.035h.298zm.616 0v.756l-.297.279v-1.035h.297zM33.5 23.145h1.332v.297H33.5v1.422h-.328v-3.106h1.886v.297H33.5v1.09zM35.96 21.758v3.106h-.328v-3.106h.328zM37.045 21.758v2.809h1.549v.297h-1.877v-3.106h.328zM39.425 23.136h1.333v.297h-1.333v1.135h1.558v.297h-1.886v-3.106h1.886v.297h-1.558v1.08zM43.823 24.864h-.328l-1.607-2.503v2.503h-.328v-3.106h.328l1.607 2.494v-2.494h.328v3.106zM44.821 24.117l-.261.747h-.347l1.13-3.106h.274l1.13 3.106H46.4l-.261-.747h-1.318zm.657-1.9l-.563 1.621h1.13l-.567-1.621zM49.808 24.864h-.329v-2.431l-.877 1.81h-.253l-.882-1.81v2.431h-.328v-3.106h.328l1.008 2.093 1.004-2.093h.329v3.106zM50.856 23.136h1.332v.297h-1.332v1.135h1.558v.297h-1.886v-3.106h1.886v.297h-1.558v1.08zM52.777 23.986h.324c.043.411.288.617.738.617.234 0 .412-.049.534-.148.121-.099.182-.243.182-.432 0-.171-.048-.3-.144-.387-.097-.087-.242-.147-.437-.18l-.352-.059c-.252-.042-.445-.128-.581-.259-.135-.131-.202-.314-.202-.552 0-.273.092-.486.274-.639.184-.153.425-.229.725-.229.276 0 .502.071.678.214s.28.359.313.65h-.323c-.036-.387-.26-.581-.671-.581-.213 0-.379.05-.498.151a.514.514 0 00-.178.412c0 .153.046.272.138.358s.23.145.416.178l.36.063c.261.045.461.135.599.27.139.135.207.326.207.572 0 .282-.095.5-.283.655-.189.154-.449.231-.779.231-.312 0-.557-.076-.733-.229-.177-.153-.28-.378-.307-.676zM55.72 22.929v.414h-.396v-.414h.396zm0 1.521v.414h-.396v-.414h.396zM57.232 23.712v-.806c0-.411.1-.712.297-.903.198-.19.464-.286.797-.286.21 0 .396.039.557.117.16.078.284.189.371.333s.131.311.131.5v.014h-.329v-.014a.61.61 0 00-.195-.477c-.131-.117-.309-.175-.534-.175-.249 0-.438.07-.569.211-.13.141-.195.372-.195.693v.81c0 .579.256.869.77.869.225 0 .402-.058.531-.173a.604.604 0 00.193-.475v-.018h.319v.018c0 .291-.095.522-.283.693-.189.171-.444.257-.766.257-.333 0-.599-.095-.797-.286-.198-.19-.298-.491-.298-.902zM59.977 23.712v-.806c0-.411.1-.712.297-.903.198-.19.464-.286.797-.286.21 0 .396.039.557.117.16.078.284.189.371.333s.13.311.13.5v.014H61.8v-.014a.61.61 0 00-.195-.477c-.131-.117-.309-.175-.534-.175-.249 0-.438.07-.569.211-.13.141-.195.372-.195.693v.81c0 .579.256.869.77.869.225 0 .402-.058.531-.173a.604.604 0 00.193-.475v-.018h.319v.018c0 .291-.095.522-.283.693-.189.171-.444.257-.766.257-.333 0-.599-.095-.797-.286-.197-.19-.297-.491-.297-.902zM65.198 24.864h-.292l-.688-2.696-.671 2.696h-.293l-.797-3.106h.32l.63 2.575.607-2.575h.419l.63 2.575.607-2.575h.307l-.779 3.106zM66.696 23.5v1.364h-.328v-3.106h1.152c.291 0 .52.076.687.228.166.151.25.367.25.646 0 .222-.059.405-.176.549s-.281.24-.491.288l.734 1.396h-.379l-.702-1.365h-.747zm.797-.283c.201 0 .357-.05.468-.151.111-.101.167-.244.167-.43 0-.192-.055-.337-.164-.435s-.267-.146-.471-.146h-.797v1.161h.797zM69.427 21.758v3.106h-.328v-3.106h.328zM71.07 22.056v2.809h-.324v-2.809h-.887v-.297h2.098v.297h-.887zM72.68 23.136h1.333v.297H72.68v1.135h1.558v.297h-1.886v-3.106h1.886v.297H72.68v1.08zM75.142 23.5v1.364h-.328v-3.106h1.152c.291 0 .52.076.687.228.166.151.249.367.249.646 0 .222-.058.405-.175.549s-.281.24-.491.288l.734 1.396h-.379l-.702-1.365h-.747zm.797-.283c.201 0 .357-.05.468-.151.111-.101.167-.244.167-.43 0-.192-.055-.337-.164-.435s-.267-.146-.471-.146h-.797v1.161h.797zM77.685 24.446v.756l-.298.279v-1.035h.298zM79.196 23.712v-.806c0-.411.1-.712.297-.903.198-.19.464-.286.797-.286.21 0 .396.039.557.117.16.078.284.189.371.333s.13.311.13.5v.014h-.328v-.014a.61.61 0 00-.195-.477c-.131-.117-.309-.175-.534-.175-.249 0-.438.07-.569.211-.13.141-.195.372-.195.693v.81c0 .579.256.869.77.869.225 0 .402-.058.531-.173a.604.604 0 00.193-.475v-.018h.319v.018c0 .291-.095.522-.283.693-.189.171-.444.257-.766.257-.333 0-.599-.095-.797-.286-.199-.19-.298-.491-.298-.902zM81.941 23.712v-.806c0-.411.1-.712.297-.903.198-.19.464-.286.797-.286.21 0 .396.039.557.117.16.078.284.189.371.333s.131.311.131.5v.014h-.329v-.014a.61.61 0 00-.195-.477c-.131-.117-.309-.175-.534-.175-.249 0-.438.07-.569.211-.13.141-.195.372-.195.693v.81c0 .579.256.869.77.869.225 0 .402-.058.531-.173a.604.604 0 00.193-.475v-.018h.319v.018c0 .291-.095.522-.283.693-.189.171-.444.257-.766.257-.333 0-.599-.095-.797-.286-.198-.19-.298-.491-.298-.902zM87.418 24.864h-.328v-2.431l-.878 1.81h-.252l-.883-1.81v2.431h-.327v-3.106h.328l1.009 2.093 1.004-2.093h.328v3.106zM88.418 24.117l-.262.747h-.347l1.13-3.106h.274l1.13 3.106h-.347l-.261-.747h-1.317zm.656-1.9l-.563 1.621h1.13l-.567-1.621zM91.099 21.758v3.106h-.328v-3.106h.328zM92.183 21.758v2.809h1.549v.297h-1.877v-3.106h.328zM94.564 23.136h1.333v.297h-1.333v1.135h1.558v.297h-1.886v-3.106h1.886v.297h-1.558v1.08zM97.025 23.5v1.364h-.328v-3.106h1.152c.291 0 .52.076.687.228.166.151.249.367.249.646 0 .222-.058.405-.175.549s-.281.24-.491.288l.734 1.396h-.379l-.702-1.365h-.747zm.797-.283c.201 0 .357-.05.468-.151.111-.101.167-.244.167-.43 0-.192-.055-.337-.164-.435s-.267-.146-.471-.146h-.797v1.161h.797zM99.568 24.446v.756l-.298.279v-1.035h.298zM101.08 23.712v-.806c0-.411.1-.712.297-.903.198-.19.464-.286.797-.286.21 0 .396.039.557.117.16.078.284.189.371.333s.131.311.131.5v.014h-.329v-.014a.61.61 0 00-.195-.477c-.131-.117-.309-.175-.534-.175-.249 0-.438.07-.569.211-.13.141-.195.372-.195.693v.81c0 .579.256.869.77.869.225 0 .402-.058.531-.173a.604.604 0 00.193-.475v-.018h.319v.018c0 .291-.095.522-.283.693-.189.171-.444.257-.766.257-.333 0-.599-.095-.797-.286-.199-.19-.298-.491-.298-.902zM103.825 23.712v-.806c0-.411.1-.712.297-.903.198-.19.464-.286.797-.286.21 0 .396.039.557.117.16.078.284.189.371.333s.13.311.13.5v.014h-.328v-.014a.61.61 0 00-.195-.477c-.131-.117-.309-.175-.534-.175-.249 0-.438.07-.569.211-.13.141-.195.372-.195.693v.81c0 .579.256.869.77.869.225 0 .402-.058.531-.173a.604.604 0 00.193-.475v-.018h.319v.018c0 .291-.095.522-.283.693-.189.171-.444.257-.766.257-.333 0-.599-.095-.797-.286-.199-.19-.298-.491-.298-.902zM109.301 24.864h-.328v-2.431l-.878 1.81h-.252l-.883-1.81v2.431h-.328v-3.106h.328l1.009 2.093 1.004-2.093h.328v3.106zM110.349 23.136h1.333v.297h-1.333v1.135h1.558v.297h-1.886v-3.106h1.886v.297h-1.558v1.08zM112.811 23.5v1.364h-.328v-3.106h1.152c.291 0 .52.076.687.228.166.151.25.367.25.646 0 .222-.059.405-.176.549s-.281.24-.491.288l.734 1.396h-.379l-.702-1.364h-.747zm.797-.283c.201 0 .357-.05.468-.151.111-.101.167-.244.167-.43 0-.192-.055-.337-.164-.435s-.267-.146-.471-.146h-.797v1.161h.797zM115.115 23.712v-.806c0-.411.099-.712.295-.903.196-.19.46-.286.79-.286.213 0 .399.039.559.117s.282.188.369.331.13.307.13.493v.018h-.328v-.018a.597.597 0 00-.196-.471c-.13-.115-.307-.173-.528-.173-.249 0-.438.071-.567.213s-.193.373-.193.691v.81c0 .579.255.869.765.869.237 0 .418-.064.543-.193.124-.129.187-.335.187-.617v-.237h-.743v-.284h1.072v.464c0 .408-.097.705-.289.891-.191.186-.451.279-.778.279-.33 0-.594-.095-.79-.286-.2-.19-.298-.491-.298-.902zM118.251 23.136h1.333v.297h-1.333v1.135h1.558v.297h-1.886v-3.106h1.886v.297h-1.558v1.08zM120.712 23.5v1.364h-.328v-3.106h1.152c.291 0 .52.076.687.228.166.151.249.367.249.646 0 .222-.058.405-.175.549s-.281.24-.491.288l.734 1.396h-.379l-.701-1.365h-.748zm.797-.283c.201 0 .357-.05.468-.151.111-.101.167-.244.167-.43 0-.192-.055-.337-.164-.435s-.267-.146-.471-.146h-.797v1.161h.797zM123.256 24.446v.756l-.298.279v-1.035h.298zM124.767 23.712v-.806c0-.411.1-.712.297-.903.198-.19.464-.286.797-.286.21 0 .396.039.557.117.16.078.284.189.371.333s.131.311.131.5v.014h-.329v-.014a.61.61 0 00-.195-.477c-.131-.117-.309-.175-.534-.175-.249 0-.438.07-.569.211-.13.141-.195.372-.195.693v.81c0 .579.256.869.77.869.225 0 .402-.058.531-.173a.604.604 0 00.193-.475v-.018h.319v.018c0 .291-.095.522-.283.693-.189.171-.444.257-.766.257-.333 0-.599-.095-.797-.286-.198-.19-.298-.491-.298-.902zM127.512 23.712v-.806c0-.411.1-.712.297-.903.198-.19.464-.286.797-.286.21 0 .396.039.557.117.16.078.284.189.371.333s.13.311.13.5v.014h-.328v-.014a.61.61 0 00-.195-.477c-.131-.117-.309-.175-.534-.175-.249 0-.438.07-.569.211-.13.141-.195.372-.195.693v.81c0 .579.256.869.77.869.225 0 .402-.058.531-.173a.604.604 0 00.193-.475v-.018h.319v.018c0 .291-.095.522-.283.693-.189.171-.444.257-.766.257-.333 0-.599-.095-.797-.286-.198-.19-.298-.491-.298-.902zM130.649 23.145h1.333v.297h-1.333v1.422h-.328v-3.106h1.886v.297h-1.558v1.09zM133.11 21.758v3.106h-.328v-3.106h.328zM134.195 21.758v2.809h1.549v.297h-1.877v-3.106h.328zM136.575 23.136h1.333v.297h-1.333v1.135h1.558v.297h-1.886v-3.106h1.886v.297h-1.558v1.08zM31.369 29.112v-.806c0-.411.099-.712.297-.903.198-.19.464-.286.797-.286.21 0 .396.039.556.117a.867.867 0 01.372.333c.087.144.13.311.13.5v.014h-.328v-.014a.607.607 0 00-.196-.477c-.13-.117-.308-.175-.533-.175-.249 0-.438.07-.569.211-.131.141-.196.372-.196.693v.81c0 .579.257.869.771.869.225 0 .401-.058.531-.173a.604.604 0 00.193-.475v-.018h.319v.018c0 .291-.095.522-.283.693-.189.171-.444.257-.766.257-.333 0-.599-.095-.797-.286-.2-.19-.298-.491-.298-.902zM34.114 29.112v-.806c0-.411.099-.712.297-.903.198-.19.464-.286.797-.286.21 0 .396.039.556.117a.867.867 0 01.372.333c.087.144.13.311.13.5v.014h-.328v-.014a.607.607 0 00-.196-.477c-.13-.117-.308-.175-.533-.175-.249 0-.438.07-.569.211s-.196.372-.196.693v.81c0 .579.257.869.771.869.225 0 .401-.058.531-.173a.604.604 0 00.193-.475v-.018h.319v.018c0 .291-.095.522-.283.693-.189.171-.444.257-.766.257-.333 0-.599-.095-.797-.286-.2-.19-.298-.491-.298-.902zM36.858 29.112v-.806c0-.411.1-.712.298-.903.198-.19.463-.286.797-.286.21 0 .395.039.556.117.16.078.284.189.371.333s.131.311.131.5v.014h-.329v-.014a.61.61 0 00-.195-.477c-.131-.117-.309-.175-.533-.175-.249 0-.439.07-.57.211-.13.141-.195.372-.195.693v.81c0 .579.257.869.77.869.226 0 .402-.058.531-.173a.604.604 0 00.193-.475v-.018h.32v.018c0 .291-.095.522-.284.693-.188.171-.444.257-.765.257-.334 0-.599-.095-.797-.286-.199-.19-.299-.491-.299-.902zM39.946 29.518l-.262.747h-.346l1.129-3.106h.275l1.13 3.106h-.347l-.262-.747h-1.317zm.657-1.9l-.563 1.621h1.13l-.567-1.621zM42.591 27.159v2.809h1.549v.297h-1.877v-3.106h.328zM44.405 29.112v-.806c0-.411.099-.712.297-.903.198-.19.464-.286.797-.286.21 0 .396.039.556.117a.867.867 0 01.372.333c.087.144.13.311.13.5v.014h-.328v-.014a.607.607 0 00-.196-.477c-.13-.117-.308-.175-.533-.175-.249 0-.438.07-.569.211s-.196.372-.196.693v.81c0 .579.257.869.771.869.225 0 .401-.058.531-.173a.604.604 0 00.193-.475v-.018h.319v.018c0 .291-.095.522-.283.693-.189.171-.444.257-.766.257-.333 0-.599-.095-.797-.286-.2-.19-.298-.491-.298-.902zM47.388 29.846v.756l-.297.279v-1.035h.297zM50.026 27.159c.33 0 .592.095.785.286.193.191.29.492.29.903v.729c0 .411-.097.712-.29.903-.193.19-.455.286-.785.286h-1.063V27.16h1.063zm.742 1.935v-.734c0-.315-.063-.544-.191-.688-.127-.144-.31-.216-.547-.216h-.733v2.512h.733c.492 0 .738-.292.738-.874zM52.086 28.901v1.364h-.328v-3.106h1.152c.291 0 .52.076.687.228.166.151.25.367.25.646 0 .222-.059.405-.176.549s-.281.24-.491.288l.734 1.396h-.379l-.702-1.364h-.747zm.797-.284c.201 0 .357-.05.468-.151.111-.101.167-.244.167-.43 0-.192-.055-.337-.164-.435s-.267-.146-.471-.146h-.797v1.161h.797zM54.733 29.518l-.262.747h-.347l1.13-3.106h.274l1.13 3.106h-.347l-.261-.747h-1.317zm.657-1.9l-.563 1.621h1.13l-.567-1.621zM57.415 27.159v3.106h-.328v-3.106h.328zM60.434 30.265h-.328l-1.607-2.503v2.503h-.329v-3.106h.328l1.607 2.494v-2.494h.328v3.106zM62.041 27.456v2.809h-.324v-2.809h-.887v-.297h2.098v.297h-.887zM63.651 28.901v1.364h-.328v-3.106h1.152c.291 0 .52.076.687.228.166.151.25.367.25.646 0 .222-.059.405-.176.549s-.281.24-.491.288l.734 1.396H65.1l-.702-1.364h-.747zm.797-.284c.201 0 .357-.05.468-.151.111-.101.167-.244.167-.43 0-.192-.055-.337-.164-.435s-.267-.146-.471-.146h-.797v1.161h.797zM65.956 29.112v-.806c0-.411.098-.712.293-.903.195-.19.457-.286.787-.286.327 0 .588.095.781.286.193.191.29.492.29.903v.806c0 .411-.097.712-.292.902-.195.191-.456.286-.783.286-.33 0-.592-.095-.785-.286-.195-.19-.291-.491-.291-.902zm1.823-.792c0-.604-.248-.905-.743-.905-.249 0-.437.071-.563.213s-.188.373-.188.691v.81c0 .303.063.523.191.662.127.138.313.207.56.207.495 0 .743-.29.743-.869v-.809zM68.939 29.846v.756l-.298.279v-1.035h.298zM71.577 27.159c.33 0 .592.095.785.286.193.191.29.492.29.903v.729c0 .411-.097.712-.29.903-.193.19-.455.286-.785.286h-1.063V27.16h1.063zm.742 1.935v-.734c0-.315-.063-.544-.191-.688-.127-.144-.31-.216-.547-.216h-.733v2.512h.733c.492 0 .738-.292.738-.874zM73.636 28.901v1.364h-.328v-3.106h1.152c.291 0 .52.076.687.228.166.151.249.367.249.646 0 .222-.058.405-.175.549s-.281.24-.491.288l.734 1.396h-.379l-.702-1.364h-.747zm.797-.284c.201 0 .357-.05.468-.151.111-.101.167-.244.167-.43 0-.192-.055-.337-.164-.435s-.267-.146-.471-.146h-.797v1.161h.797zM76.284 29.518l-.262.747h-.347l1.13-3.106h.274l1.13 3.106h-.347l-.261-.747h-1.317zm.657-1.9l-.563 1.621h1.13l-.567-1.621zM78.497 29.112v-.806c0-.411.099-.712.295-.903.196-.19.46-.286.79-.286.213 0 .399.039.559.117a.879.879 0 01.369.331c.087.143.13.307.13.493v.018h-.328v-.018a.597.597 0 00-.196-.471c-.13-.115-.307-.173-.528-.173-.249 0-.438.071-.567.213s-.193.373-.193.691v.81c0 .579.255.869.765.869.237 0 .418-.064.543-.193.124-.129.187-.335.187-.617v-.237h-.743v-.284h1.071v.464c0 .408-.096.705-.287.891-.192.186-.452.279-.779.279-.33 0-.594-.095-.79-.286-.2-.19-.298-.491-.298-.902zM81.242 29.112v-.806c0-.411.098-.712.293-.903.195-.19.457-.286.787-.286.327 0 .588.095.781.286.193.191.291.492.291.903v.806c0 .411-.098.712-.293.902-.195.191-.456.286-.783.286-.33 0-.592-.095-.785-.286-.195-.19-.291-.491-.291-.902zm1.823-.792c0-.604-.247-.905-.743-.905-.249 0-.437.071-.563.213s-.188.373-.188.691v.81c0 .303.063.523.191.662.127.138.313.207.56.207.496 0 .743-.29.743-.869v-.809zM86.314 30.265h-.328l-1.607-2.503v2.503h-.329v-3.106h.328l1.607 2.494v-2.494h.328v3.106zM87.21 29.846v.756l-.298.279v-1.035h.298zM88.72 29.112v-.806c0-.411.1-.712.297-.903.198-.19.464-.286.797-.286.21 0 .396.039.557.117.16.078.284.189.371.333s.131.311.131.5v.014h-.329v-.014a.61.61 0 00-.195-.477c-.131-.117-.309-.175-.534-.175-.249 0-.438.07-.569.211-.13.141-.195.372-.195.693v.81c0 .579.256.869.77.869.225 0 .402-.058.531-.173a.604.604 0 00.193-.475v-.018h.319v.018c0 .291-.095.522-.283.693-.189.171-.444.257-.766.257-.333 0-.599-.095-.797-.286-.198-.19-.298-.491-.298-.902zM91.465 29.112v-.806c0-.411.098-.712.293-.903.195-.19.457-.286.787-.286.327 0 .588.095.781.286.193.191.29.492.29.903v.806c0 .411-.097.712-.292.902-.195.191-.456.286-.783.286-.33 0-.592-.095-.785-.286-.194-.19-.291-.491-.291-.902zm1.824-.792c0-.604-.248-.905-.743-.905-.249 0-.437.071-.563.213s-.188.373-.188.691v.81c0 .303.063.523.191.662.127.138.313.207.56.207.495 0 .743-.29.743-.869v-.809zM94.414 29.792a1.04 1.04 0 01-.14-.54v-2.093h.333v2.066c0 .237.066.426.2.565.134.14.313.209.538.209.222 0 .4-.07.535-.209.136-.139.203-.328.203-.565v-2.066h.328v2.093c0 .204-.046.385-.137.542-.092.157-.219.28-.381.367s-.345.13-.549.13-.388-.043-.55-.13a.963.963 0 01-.38-.369zM97.46 28.901v1.364h-.328v-3.106h1.152c.291 0 .52.076.687.228.166.151.25.367.25.646 0 .222-.059.405-.176.549s-.281.24-.491.288l.734 1.396h-.379l-.702-1.364h-.747zm.796-.284c.201 0 .357-.05.468-.151.111-.101.167-.244.167-.43 0-.192-.055-.337-.164-.435s-.267-.146-.471-.146h-.796v1.161h.796zM100.191 27.159v3.106h-.328v-3.106h.328zM101.275 28.536h1.333v.297h-1.333v1.135h1.558v.297h-1.886v-3.106h1.886v.297h-1.558v1.08zM103.737 28.901v1.364h-.328v-3.106h1.152c.291 0 .52.076.687.228.166.151.25.367.25.646 0 .222-.059.405-.176.549s-.281.24-.491.288l.734 1.396h-.379l-.702-1.364h-.747zm.797-.284c.201 0 .357-.05.468-.151.111-.101.167-.244.167-.43 0-.192-.055-.337-.164-.435s-.267-.146-.471-.146h-.797v1.161h.797zM106.28 29.846v.756l-.298.279v-1.035h.298zM108.742 27.456v2.809h-.324v-2.809h-.887v-.297h2.098v.297h-.887zM109.825 29.112v-.806c0-.411.098-.712.293-.903.195-.19.457-.286.787-.286.327 0 .588.095.781.286.193.191.29.492.29.903v.806c0 .411-.097.712-.292.902-.195.191-.456.286-.783.286-.33 0-.592-.095-.785-.286-.195-.19-.291-.491-.291-.902zm1.823-.792c0-.604-.248-.905-.743-.905-.249 0-.437.071-.563.213s-.188.373-.188.691v.81c0 .303.063.523.191.662.127.138.313.207.56.207.495 0 .743-.29.743-.869v-.809zM115.045 30.265h-.292l-.688-2.696-.671 2.696h-.293l-.797-3.106h.32l.63 2.575.607-2.575h.419l.63 2.575.607-2.575h.307l-.779 3.106zM116.543 28.536h1.333v.297h-1.333v1.135h1.558v.297h-1.886v-3.106h1.886v.297h-1.558v1.08zM119.005 28.901v1.364h-.328v-3.106h1.152c.291 0 .52.076.687.228.166.151.249.367.249.646 0 .222-.058.405-.175.549s-.281.24-.491.288l.734 1.396h-.379l-.702-1.364h-.747zm.797-.284c.201 0 .357-.05.468-.151.111-.101.167-.244.167-.43 0-.192-.055-.337-.164-.435s-.267-.146-.471-.146h-.797v1.161h.797zM121.548 29.846v.756l-.298.279v-1.035h.298zM123.059 29.112v-.806c0-.411.099-.712.295-.903.196-.19.46-.286.79-.286.213 0 .399.039.559.117a.879.879 0 01.369.331c.087.143.13.307.13.493v.018h-.328v-.018a.597.597 0 00-.196-.471c-.13-.115-.307-.173-.528-.173-.249 0-.438.071-.567.213s-.193.373-.193.691v.81c0 .579.255.869.765.869.237 0 .418-.064.543-.193.124-.129.187-.335.187-.617v-.237h-.743v-.284h1.071v.464c0 .408-.096.705-.287.891-.192.186-.452.279-.779.279-.33 0-.594-.095-.79-.286-.199-.19-.298-.491-.298-.902zM125.804 29.112v-.806c0-.411.098-.712.293-.903.195-.19.457-.286.787-.286.327 0 .588.095.781.286.193.191.291.492.291.903v.806c0 .411-.098.712-.293.902-.195.191-.456.286-.783.286-.33 0-.592-.095-.785-.286-.194-.19-.291-.491-.291-.902zm1.823-.792c0-.604-.247-.905-.743-.905-.249 0-.437.071-.563.213s-.188.373-.188.691v.81c0 .303.063.523.191.662.127.138.313.207.56.207.496 0 .743-.29.743-.869v-.809zM128.941 27.159v2.809h1.549v.297h-1.877v-3.106h.328zM132.056 27.159c.33 0 .592.095.785.286.193.191.29.492.29.903v.729c0 .411-.097.712-.29.903-.193.19-.455.286-.785.286h-1.063V27.16h1.063zm.742 1.935v-.734c0-.315-.063-.544-.191-.688-.127-.144-.31-.216-.547-.216h-.733v2.512h.733c.492 0 .738-.292.738-.874zM134.85 27.159c.33 0 .592.095.785.286.193.191.29.492.29.903v.729c0 .411-.097.712-.29.903-.193.19-.455.286-.785.286h-1.063V27.16h1.063zm.742 1.935v-.734c0-.315-.063-.544-.191-.688-.127-.144-.31-.216-.547-.216h-.733v2.512h.733c.492 0 .738-.292.738-.874zM136.947 27.159v3.106h-.328v-3.106h.328zM137.639 29.112v-.806c0-.411.099-.712.295-.903.196-.19.46-.286.79-.286.213 0 .399.039.559.117a.879.879 0 01.369.331c.087.143.13.307.13.493v.018h-.328v-.018a.597.597 0 00-.196-.471c-.13-.115-.307-.173-.528-.173-.249 0-.438.071-.567.213s-.193.373-.193.691v.81c0 .579.255.869.765.869.237 0 .418-.064.543-.193.124-.129.187-.335.187-.617v-.237h-.743v-.284h1.071v.464c0 .408-.096.705-.287.891-.192.186-.452.279-.779.279-.33 0-.594-.095-.79-.286-.199-.19-.298-.491-.298-.902z"/></g><g><path d="M33.457 66.36v2.81h1.549v.297h-1.877V66.36h.328zM35.873 66.36v3.106h-.328V66.36h.328zM36.566 68.314v-.806c0-.411.099-.712.297-.903.198-.19.464-.285.797-.285.21 0 .396.039.556.117a.86.86 0 01.372.333c.087.144.13.311.13.499v.014h-.328v-.013a.608.608 0 00-.196-.477c-.13-.117-.308-.176-.533-.176-.249 0-.438.07-.569.212-.131.141-.196.372-.196.693v.81c0 .579.257.869.771.869.225 0 .401-.058.531-.174a.603.603 0 00.193-.475v-.018h.319v.018c0 .291-.095.522-.283.693-.189.171-.444.257-.766.257-.333 0-.599-.096-.797-.286s-.298-.49-.298-.902zM39.703 67.738h1.332v.297h-1.332v1.135h1.558v.297h-1.886V66.36h1.886v.298h-1.558v1.08zM44.1 69.467h-.329l-1.607-2.503v2.503h-.328V66.36h.328l1.607 2.494V66.36h.329v3.107zM44.607 68.589h.324c.042.411.288.616.738.616.234 0 .412-.049.533-.148.122-.099.183-.243.183-.432 0-.171-.048-.3-.144-.388-.097-.087-.242-.146-.438-.18l-.351-.059c-.252-.042-.445-.128-.581-.259-.135-.131-.202-.314-.202-.552 0-.272.092-.485.274-.639.184-.153.425-.229.725-.229.276 0 .502.071.678.214s.279.359.313.65h-.324c-.036-.388-.259-.581-.67-.581-.214 0-.379.051-.498.151a.512.512 0 00-.178.411c0 .153.046.272.138.358.091.085.23.145.416.178l.36.063c.261.046.461.136.599.271s.207.325.207.571c0 .282-.095.501-.283.655-.189.154-.449.231-.779.231-.312 0-.557-.076-.733-.229-.177-.151-.28-.376-.307-.673zM47.604 67.738h1.333v.297h-1.333v1.135h1.558v.297h-1.886V66.36h1.886v.298h-1.558v1.08zM50.799 66.36c.33 0 .592.096.786.286.193.19.29.491.29.902v.729c0 .411-.097.712-.29.902-.194.19-.456.286-.786.286h-1.062V66.36h1.062zm.744 1.936v-.733c0-.315-.063-.545-.191-.688-.128-.145-.31-.216-.547-.216h-.733v2.512h.733c.491-.001.738-.293.738-.875zM54.395 66.658v2.809h-.324v-2.809h-.887v-.298h2.098v.298h-.887zM55.479 68.314v-.806c0-.411.098-.712.293-.903.195-.19.457-.285.787-.285.327 0 .588.095.781.285.193.191.291.492.291.903v.806c0 .411-.098.712-.293.902s-.456.286-.783.286c-.33 0-.592-.096-.785-.286-.194-.19-.291-.49-.291-.902zm1.823-.792c0-.604-.247-.905-.743-.905-.249 0-.437.071-.563.214s-.188.373-.188.691v.81c0 .304.063.523.191.662.127.138.313.207.56.207.496 0 .743-.29.743-.869v-.81zM60.151 66.658v2.809h-.324v-2.809h-.887v-.298h2.098v.298h-.887zM61.366 68.72l-.262.747h-.347l1.13-3.106h.274l1.13 3.106h-.347l-.261-.747h-1.317zm.656-1.901l-.563 1.621h1.13l-.567-1.621zM65.947 69.467h-.328l-1.607-2.503v2.503h-.328V66.36h.328l1.607 2.494V66.36h.328v3.107zM66.603 68.314v-.806c0-.411.098-.712.293-.903.195-.19.457-.285.787-.285.327 0 .588.095.781.285.193.191.29.492.29.903v.806c0 .411-.097.712-.292.902s-.456.286-.783.286c-.33 0-.592-.096-.785-.286-.194-.19-.291-.49-.291-.902zm1.823-.792c0-.604-.248-.905-.743-.905-.249 0-.437.071-.563.214s-.188.373-.188.691v.81c0 .304.063.523.191.662.127.138.313.207.56.207.495 0 .743-.29.743-.869v-.81zM73.057 69.467h-.328v-2.431l-.878 1.81h-.252l-.883-1.81v2.431h-.328V66.36h.328l1.009 2.094 1.004-2.094h.328v3.107zM74.14 66.36v3.106h-.328V66.36h.328zM74.834 68.314v-.806c0-.411.1-.712.297-.903.198-.19.464-.285.797-.285.21 0 .396.039.557.117.16.078.284.188.371.333.087.144.13.311.13.499v.014h-.328v-.013a.61.61 0 00-.195-.477c-.131-.117-.309-.176-.534-.176-.249 0-.438.07-.569.212-.13.141-.195.372-.195.693v.81c0 .579.256.869.77.869.225 0 .402-.058.531-.174a.603.603 0 00.193-.475v-.018h.319v.018c0 .291-.095.522-.283.693-.189.171-.444.257-.766.257-.333 0-.599-.096-.797-.286-.199-.19-.298-.49-.298-.902zM77.97 68.103v1.364h-.328V66.36h1.152c.291 0 .52.076.687.228.166.151.25.367.25.646a.845.845 0 01-.176.549.855.855 0 01-.491.288l.734 1.396h-.379l-.702-1.364h-.747zm.797-.284c.201 0 .357-.051.468-.151.111-.101.167-.243.167-.43 0-.192-.055-.337-.164-.435s-.267-.146-.471-.146h-.797v1.161h.797zM80.274 68.314v-.806c0-.411.098-.712.293-.903.195-.19.457-.285.787-.285.327 0 .588.095.781.285.193.191.291.492.291.903v.806c0 .411-.098.712-.293.902s-.456.286-.783.286c-.33 0-.592-.096-.785-.286-.194-.19-.291-.49-.291-.902zm1.823-.792c0-.604-.247-.905-.743-.905-.249 0-.437.071-.563.214s-.188.373-.188.691v.81c0 .304.063.523.191.662.127.138.313.207.56.207.496 0 .743-.29.743-.869v-.81zM83.019 68.314v-.806c0-.411.1-.712.297-.903.198-.19.464-.285.797-.285.21 0 .396.039.557.117.16.078.284.188.371.333.087.144.13.311.13.499v.014h-.328v-.013a.61.61 0 00-.195-.477c-.131-.117-.309-.176-.534-.176-.249 0-.438.07-.569.212-.13.141-.195.372-.195.693v.81c0 .579.256.869.77.869.225 0 .402-.058.531-.174a.603.603 0 00.193-.475v-.018h.319v.018c0 .291-.095.522-.283.693-.189.171-.444.257-.766.257-.333 0-.599-.096-.797-.286-.198-.19-.298-.49-.298-.902zM85.763 68.314v-.806c0-.411.098-.712.293-.903.195-.19.457-.285.787-.285.327 0 .588.095.781.285.193.191.29.492.29.903v.806c0 .411-.097.712-.292.902s-.456.286-.783.286c-.33 0-.592-.096-.785-.286-.194-.19-.291-.49-.291-.902zm1.823-.792c0-.604-.248-.905-.743-.905-.249 0-.437.071-.563.214s-.188.373-.188.691v.81c0 .304.063.523.191.662.127.138.313.207.56.207.495 0 .743-.29.743-.869v-.81zM91.241 69.467h-.328v-2.431l-.878 1.81h-.252l-.883-1.81v2.431h-.328V66.36h.328l1.009 2.094 1.004-2.094h.328v3.107zM94.053 67.288c0 .279-.088.498-.264.657-.175.159-.413.238-.713.238h-.788v1.283h-.328V66.36h1.116c.303 0 .542.08.716.241.174.161.261.39.261.687zm-.328 0c0-.213-.059-.371-.176-.475s-.284-.155-.5-.155h-.761v1.229h.761c.216 0 .383-.05.5-.148.118-.1.176-.25.176-.451zM94.697 68.994a1.04 1.04 0 01-.14-.54V66.36h.333v2.066c0 .237.066.426.2.564a.71.71 0 00.538.21c.222 0 .4-.07.535-.21.136-.139.203-.327.203-.564V66.36h.328v2.094c0 .204-.046.385-.137.542-.092.157-.219.28-.381.367s-.345.13-.549.13-.388-.043-.55-.13-.287-.21-.38-.369zM98.301 66.658v2.809h-.324v-2.809h-.887v-.298h2.098v.298h-.887zM99.912 67.738h1.333v.297h-1.333v1.135h1.558v.297h-1.886V66.36h1.886v.298h-1.558v1.08zM102.373 68.103v1.364h-.328V66.36h1.152c.291 0 .52.076.687.228.166.151.25.367.25.646a.845.845 0 01-.176.549.855.855 0 01-.491.288l.734 1.396h-.379l-.702-1.364h-.747zm.796-.284c.201 0 .357-.051.468-.151.111-.101.167-.243.167-.43 0-.192-.055-.337-.164-.435s-.267-.146-.471-.146h-.797v1.161h.797zM107.81 67.288c0 .279-.088.498-.264.657-.175.159-.413.238-.713.238h-.788v1.283h-.328V66.36h1.116c.303 0 .542.08.716.241.174.161.261.39.261.687zm-.328 0c0-.213-.059-.371-.176-.475s-.284-.155-.5-.155h-.761v1.229h.761c.216 0 .383-.05.5-.148.117-.1.176-.25.176-.451zM108.641 68.103v1.364h-.328V66.36h1.152c.291 0 .52.076.687.228.166.151.249.367.249.646a.844.844 0 01-.175.549.855.855 0 01-.491.288l.734 1.396h-.379l-.702-1.364h-.747zm.797-.284c.201 0 .357-.051.468-.151.111-.101.167-.243.167-.43 0-.192-.055-.337-.164-.435s-.267-.146-.471-.146h-.797v1.161h.797zM110.946 68.314v-.806c0-.411.098-.712.293-.903.195-.19.457-.285.787-.285.327 0 .588.095.781.285.193.191.291.492.291.903v.806c0 .411-.098.712-.293.902s-.456.286-.783.286c-.33 0-.592-.096-.785-.286-.194-.19-.291-.49-.291-.902zm1.823-.792c0-.604-.247-.905-.743-.905-.249 0-.437.071-.563.214s-.188.373-.188.691v.81c0 .304.063.523.191.662.127.138.313.207.56.207.496 0 .743-.29.743-.869v-.81zM114.816 66.36c.33 0 .592.096.785.286s.29.491.29.902v.729c0 .411-.097.712-.29.902s-.455.286-.785.286h-1.063V66.36h1.063zm.742 1.936v-.733c0-.315-.063-.545-.191-.688-.127-.145-.31-.216-.547-.216h-.733v2.512h.733c.492-.001.738-.293.738-.875zM116.688 68.994a1.04 1.04 0 01-.14-.54V66.36h.333v2.066c0 .237.066.426.2.564a.71.71 0 00.538.21c.222 0 .4-.07.535-.21.136-.139.203-.327.203-.564V66.36h.328v2.094c0 .204-.046.385-.137.542-.092.157-.219.28-.381.367s-.345.13-.549.13-.388-.043-.55-.13a.976.976 0 01-.38-.369zM119.342 68.314v-.806c0-.411.1-.712.297-.903.198-.19.464-.285.797-.285.21 0 .396.039.557.117.16.078.284.188.371.333a.948.948 0 01.131.499v.014h-.329v-.013a.61.61 0 00-.195-.477c-.131-.117-.309-.176-.534-.176-.249 0-.438.07-.569.212-.13.141-.195.372-.195.693v.81c0 .579.256.869.77.869.225 0 .402-.058.531-.174a.603.603 0 00.193-.475v-.018h.319v.018c0 .291-.095.522-.283.693-.189.171-.444.257-.766.257-.333 0-.599-.096-.797-.286-.198-.19-.298-.49-.298-.902zM123.038 66.658v2.809h-.324v-2.809h-.887v-.298h2.098v.298h-.887zM124.108 68.589h.324c.042.411.288.616.738.616.234 0 .412-.049.533-.148.122-.099.183-.243.183-.432 0-.171-.048-.3-.145-.388-.096-.087-.241-.146-.437-.18l-.351-.059c-.252-.042-.446-.128-.581-.259s-.202-.314-.202-.552c0-.272.091-.485.274-.639.183-.153.425-.229.725-.229.276 0 .502.071.678.214.175.143.279.359.313.65h-.324c-.036-.388-.26-.581-.671-.581-.213 0-.379.051-.497.151s-.178.237-.178.411c0 .153.046.272.137.358.092.085.23.145.417.178l.36.063c.261.046.46.136.599.271.138.135.207.325.207.571 0 .282-.095.501-.284.655-.188.154-.448.231-.778.231-.313 0-.557-.076-.733-.229-.178-.151-.28-.376-.307-.673zM127.69 68.314v-.806c0-.411.1-.712.297-.903.198-.19.464-.285.797-.285.21 0 .396.039.557.117.16.078.284.188.371.333a.948.948 0 01.131.499v.014h-.329v-.013a.61.61 0 00-.195-.477c-.131-.117-.309-.176-.534-.176-.249 0-.438.07-.569.212-.13.141-.195.372-.195.693v.81c0 .579.256.869.77.869.225 0 .402-.058.531-.174a.603.603 0 00.193-.475v-.018h.319v.018c0 .291-.095.522-.283.693-.189.171-.444.257-.766.257-.333 0-.599-.096-.797-.286-.198-.19-.298-.49-.298-.902zM130.434 68.314v-.806c0-.411.098-.712.293-.903.195-.19.457-.285.787-.285.327 0 .588.095.781.285.193.191.291.492.291.903v.806c0 .411-.098.712-.293.902s-.456.286-.783.286c-.33 0-.592-.096-.785-.286-.194-.19-.291-.49-.291-.902zm1.823-.792c0-.604-.247-.905-.743-.905-.249 0-.437.071-.563.214s-.188.373-.188.691v.81c0 .304.063.523.191.662.127.138.313.207.56.207.496 0 .743-.29.743-.869v-.81zM133.571 68.103v1.364h-.328V66.36h1.152c.291 0 .52.076.687.228.166.151.249.367.249.646a.844.844 0 01-.175.549.855.855 0 01-.491.288l.734 1.396h-.379l-.702-1.364h-.747zm.797-.284c.201 0 .357-.051.468-.151.111-.101.167-.243.167-.43 0-.192-.055-.337-.164-.435s-.267-.146-.471-.146h-.797v1.161h.797zM138.031 67.288c0 .279-.088.498-.264.657-.175.159-.413.238-.713.238h-.788v1.283h-.328V66.36h1.116c.303 0 .542.08.716.241.174.161.261.39.261.687zm-.328 0c0-.213-.059-.371-.176-.475s-.284-.155-.5-.155h-.761v1.229h.761c.216 0 .383-.05.5-.148.117-.1.176-.25.176-.451z"/></g><g><path d="M23.415 43.817h.324c.042.411.288.617.738.617.234 0 .412-.049.533-.148.122-.099.183-.243.183-.432 0-.171-.048-.3-.145-.387-.096-.087-.241-.147-.437-.18l-.351-.059c-.252-.042-.446-.128-.581-.259-.135-.131-.202-.314-.202-.552 0-.273.091-.486.274-.639.183-.153.425-.229.725-.229.276 0 .502.071.678.214.175.143.279.359.313.65h-.324c-.036-.387-.26-.581-.671-.581-.213 0-.379.05-.497.151s-.178.238-.178.412c0 .153.046.272.138.358.091.085.229.145.416.178l.36.063c.261.045.46.135.599.27.138.135.207.326.207.572 0 .282-.095.5-.284.655-.188.154-.448.231-.778.231-.313 0-.557-.076-.733-.229-.179-.153-.28-.378-.307-.676zM26.448 41.589v3.106h-.328v-3.106h.328zM28.266 41.589c.33 0 .592.095.785.286.193.191.29.492.29.903v.729c0 .411-.097.712-.29.903-.193.19-.455.286-.785.286h-1.063V41.59h1.063zm.742 1.936v-.734c0-.315-.063-.544-.191-.688-.127-.144-.31-.216-.547-.216h-.733v2.512h.733c.492-.001.738-.292.738-.874zM30.327 42.967h1.333v.297h-1.333v1.135h1.558v.297h-1.886V41.59h1.886v.297h-1.558v1.08zM33.3 42.368v-.369l.531-.41h.329v3.106h-.324v-2.728l-.536.401z"/></g><g><path d="M135.415 43.817h.324c.042.411.288.617.738.617.234 0 .412-.049.533-.148.122-.099.183-.243.183-.432 0-.171-.048-.3-.145-.387-.096-.087-.241-.147-.437-.18l-.351-.059c-.252-.042-.446-.128-.581-.259-.135-.131-.202-.314-.202-.552 0-.273.091-.486.274-.639.183-.153.425-.229.725-.229.276 0 .502.071.678.214.175.143.279.359.313.65h-.324c-.036-.387-.26-.581-.671-.581-.213 0-.379.05-.497.151s-.178.238-.178.412c0 .153.046.272.138.358.091.085.229.145.416.178l.36.063c.261.045.46.135.599.27.138.135.207.326.207.572 0 .282-.095.5-.284.655-.188.154-.448.231-.778.231-.313 0-.557-.076-.733-.229-.179-.153-.28-.378-.307-.676zM138.448 41.589v3.106h-.328v-3.106h.328zM140.266 41.589c.33 0 .592.095.785.286.193.191.29.492.29.903v.729c0 .411-.097.712-.29.903-.193.19-.455.286-.785.286h-1.063V41.59h1.063zm.742 1.936v-.734c0-.315-.063-.544-.191-.688-.127-.144-.31-.216-.547-.216h-.733v2.512h.733c.492-.001.738-.292.738-.874zM142.327 42.967h1.333v.297h-1.333v1.135h1.558v.297h-1.886V41.59h1.886v.297h-1.558v1.08zM145.3 42.368v-.369l.531-.41h.329v3.106h-.324v-2.728l-.536.401z"/></g></svg>