<?xml version="1.0" encoding="UTF-8" standalone="no"?>
<svg
   xmlns:dc="http://purl.org/dc/elements/1.1/"
   xmlns:cc="http://creativecommons.org/ns#"
   xmlns:rdf="http://www.w3.org/1999/02/22-rdf-syntax-ns#"
   xmlns:svg="http://www.w3.org/2000/svg"
   xmlns="http://www.w3.org/2000/svg"
   xmlns:xlink="http://www.w3.org/1999/xlink"
   xmlns:sodipodi="http://sodipodi.sourceforge.net/DTD/sodipodi-0.dtd"
   xmlns:inkscape="http://www.inkscape.org/namespaces/inkscape"
   viewBox="0 0 500 188.1"
   version="1.1"
   id="svg1176"
   sodipodi:docname="consolegame.svg"
   inkscape:export-filename="C:\Users\ReenigneArcher\LaunchBox\Themes\RecalBigBox\Resources\Platforms\Commodore Amiga 1200\consolegame.png"
   inkscape:export-xdpi="137.79904"
   inkscape:export-ydpi="137.79904"
   inkscape:version="0.92.4 (5da689c313, 2019-01-14)">
  <metadata
     id="metadata1180">
    <rdf:RDF>
      <cc:Work
         rdf:about="">
        <dc:format>image/svg+xml</dc:format>
        <dc:type
           rdf:resource="http://purl.org/dc/dcmitype/StillImage" />
      </cc:Work>
    </rdf:RDF>
  </metadata>
  <sodipodi:namedview
     pagecolor="#ffffff"
     bordercolor="#666666"
     borderopacity="1"
     objecttolerance="10"
     gridtolerance="10"
     guidetolerance="10"
     inkscape:pageopacity="0"
     inkscape:pageshadow="2"
     inkscape:window-width="1920"
     inkscape:window-height="1017"
     id="namedview1178"
     showgrid="false"
     inkscape:zoom="0.568"
     inkscape:cx="250"
     inkscape:cy="94.050003"
     inkscape:window-x="-8"
     inkscape:window-y="-8"
     inkscape:window-maximized="1"
     inkscape:current-layer="svg1176" />
  <path
     fill="#CFD0CF"
     d="M5.5 91.1H1.2C.1 91.1 0 91 0 89.3V1.7C0 .4.2 0 1.7 0h366.5c3.1 0 3.2.2 3.2 3.2v18.1c0 .4 0 .4-.4.4h-2c-.4 0-.5.1-.5.4v60.8h4.2c.6 0 .6.2.6.4v7c0 .6-.1.7-.9.7H5.5z"
     id="path2" />
  <path
     fill="none"
     stroke="#9B9A9A"
     stroke-width="1.247"
     stroke-miterlimit="10"
     d="M3.6 91.1V43.9c0-1.4 0-2.3 2.3-2.3h362.6"
     id="path4" />
  <path
     fill="#CFD0CF"
     d="M7.9 188.1c-3.6 0-4.3-2.8-4.3-5.4V43.9c0-1.4 0-2.3 2.3-2.3H369c2.3 0 2.3.9 2.3 2.3v138.8c0 2.6-.7 5.4-4.3 5.4H7.9z"
     id="path6" />
  <path
     fill="#0C0C0D"
     d="M134.9 65.3h94.5c.2 0 .4.2.4.4v14.6c0 .2-.2.4-.4.4h-94.5c-.2 0-.4-.2-.4-.4V65.6c0-.2.1-.3.4-.3zm-100.7 0h94.2c.2 0 .4.2.4.4v14.6c0 .2-.2.4-.4.4H34.2c-.2 0-.4-.2-.4-.4V65.6c0-.2.1-.3.4-.3zm-23.2 0h14.3c.2 0 .4.2.4.4v14.6c0 .2-.2.4-.4.4H11c-.2 0-.4-.2-.4-.4V65.6c0-.2.2-.3.4-.3zm222.3 86.3v13.1c0 .2-.2.4-.4.4H22.6c-.2 0-.4-.2-.4-.4v-13.2s.5-1.7-1.3-1.7H10.8c-.2 0-.4-.2-.4-.4v-60c0-.2.2-.4.4-.4h232c.2 0 .4.2.4.4v60c0 .2-.2.4-.4.4h-8c-2 0-1.5 1.8-1.5 1.8zm63.5-46.6c.2 0 .4-.2.4-.4V89.4c0-.2-.2-.4-.4-.4h-45.7c-.2 0-.4.2-.4.4v15.2c0 .2.2.4.4.4h45.7zm67.4 60.2c.2 0 .4-.2.4-.4V89.4c0-.2-.2-.4-.4-.4h-60.4c-.2 0-.4.2-.4.4v75.4c0 .2.2.4.4.4h60.4zM282 132.1v-13.4c0-.2-.2-.4-.4-.4h-15.3c-.2 0-.4.2-.4.4v13.4s.2 1.1-1.2 1.1h-13.6c-.2 0-.4.2-.4.4v15.8c0 .2.2.4.4.4h45.7c.2 0 .4-.2.4-.4v-15.8c0-.2-.2-.4-.4-.4H283c-1.5 0-1-1.1-1-1.1z"
     id="path8" />
  <path
     fill="#9B9A9A"
     d="M152 119.8h12.1c.5 0 .9.4.9.9V133c0 .5-.4.9-.9.9H152c-.5 0-.9-.4-.9-.9v-12.3c-.1-.5.4-.9.9-.9z"
     id="path10" />
  <path
     fill="#CFD0CF"
     d="M153.8 121.2h8.4c.5 0 .9.4.9.9v8.4c0 .5-.4.9-.9.9h-8.4c-.5 0-.9-.4-.9-.9V122c0-.4.4-.8.9-.8z"
     id="path12" />
  <path
     fill="#9B9A9A"
     d="M166.9 119.8H179c.5 0 .9.4.9.9V133c0 .5-.4.9-.9.9h-12.1c-.5 0-.9-.4-.9-.9v-12.3c0-.5.4-.9.9-.9z"
     id="path14" />
  <path
     fill="#CFD0CF"
     d="M168.7 121.2h8.4c.5 0 .9.4.9.9v8.4c0 .5-.4.9-.9.9h-8.4c-.5 0-.9-.4-.9-.9V122c0-.4.4-.8.9-.8z"
     id="path16" />
  <path
     fill="#9B9A9A"
     d="M181.8 119.8h12.1c.5 0 .9.4.9.9V133c0 .5-.4.9-.9.9h-12.1c-.5 0-.9-.4-.9-.9v-12.3c0-.5.4-.9.9-.9z"
     id="path18" />
  <path
     fill="#CFD0CF"
     d="M183.6 121.2h8.4c.5 0 .9.4.9.9v8.4c0 .5-.4.9-.9.9h-8.4c-.5 0-.9-.4-.9-.9V122c0-.4.4-.8.9-.8z"
     id="path20" />
  <path
     fill="#9B9A9A"
     d="M196.7 119.8h12.1c.5 0 .9.4.9.9V133c0 .5-.4.9-.9.9h-12.1c-.5 0-.9-.4-.9-.9v-12.3c0-.5.4-.9.9-.9z"
     id="path22" />
  <path
     fill="#CFD0CF"
     d="M198.5 121.2h8.4c.5 0 .9.4.9.9v8.4c0 .5-.4.9-.9.9h-8.4c-.5 0-.9-.4-.9-.9V122c0-.4.4-.8.9-.8z"
     id="path24" />
  <path
     fill="#9B9A9A"
     d="M211.6 119.8h12.1c.5 0 .9.4.9.9V133c0 .5-.4.9-.9.9h-12.1c-.5 0-.9-.4-.9-.9v-12.3c0-.5.4-.9.9-.9z"
     id="path26" />
  <path
     fill="#CFD0CF"
     d="M213.4 121.2h8.4c.5 0 .9.4.9.9v8.4c0 .5-.4.9-.9.9h-8.4c-.5 0-.9-.4-.9-.9V122c.1-.4.4-.8.9-.8z"
     id="path28" />
  <path
     fill="#9B9A9A"
     d="M252.5 134.3h12.1c.5 0 .9.4.9.9v12.3c0 .5-.4.9-.9.9h-12.1c-.5 0-.9-.4-.9-.9v-12.3c0-.6.4-.9.9-.9z"
     id="path30" />
  <path
     fill="#CFD0CF"
     d="M254.3 135.6h8.4c.5 0 .9.4.9.9v8.4c0 .5-.4.9-.9.9h-8.4c-.5 0-.9-.4-.9-.9v-8.4c0-.5.4-.9.9-.9z"
     id="path32" />
  <path
     fill="#9B9A9A"
     d="M283.3 134.3h12.2c.5 0 .9.4.9.9v12.3c0 .5-.4.9-.9.9h-12.1c-.5 0-.9-.4-.9-.9v-12.3c-.1-.6.3-.9.8-.9z"
     id="path34" />
  <path
     fill="#CFD0CF"
     d="M285.2 135.6h8.4c.5 0 .9.4.9.9v8.4c0 .5-.4.9-.9.9h-8.4c-.5 0-.9-.4-.9-.9v-8.4c-.1-.5.4-.9.9-.9z"
     id="path36" />
  <path
     fill="#9B9A9A"
     d="M267.9 134.3H280c.5 0 .9.4.9.9v12.3c0 .5-.4.9-.9.9h-12.1c-.5 0-.9-.4-.9-.9v-12.3c0-.6.4-.9.9-.9z"
     id="path38" />
  <path
     fill="#CFD0CF"
     d="M269.8 135.6h8.4c.5 0 .9.4.9.9v8.4c0 .5-.4.9-.9.9h-8.4c-.5 0-.9-.4-.9-.9v-8.4c-.1-.5.4-.9.9-.9z"
     id="path40" />
  <path
     fill="#9B9A9A"
     d="M267.9 119.2H280c.5 0 .9.4.9.9v12.3c0 .5-.4.9-.9.9h-12.1c-.5 0-.9-.4-.9-.9v-12.3c0-.5.4-.9.9-.9z"
     id="path42" />
  <path
     fill="#CFD0CF"
     d="M269.8 120.6h8.4c.5 0 .9.4.9.9v8.4c0 .5-.4.9-.9.9h-8.4c-.5 0-.9-.4-.9-.9v-8.4c-.1-.5.4-.9.9-.9z"
     id="path44" />
  <path
     fill="#9B9A9A"
     d="M305.3 105h12.1c.5 0 .9.4.9.9v12.3c0 .5-.4.9-.9.9h-12.1c-.5 0-.9-.4-.9-.9v-12.3c0-.5.4-.9.9-.9z"
     id="path46" />
  <path
     fill="#CFD0CF"
     d="M307.2 106.4h8.4c.5 0 .9.4.9.9v8.4c0 .5-.4.9-.9.9h-8.4c-.5 0-.9-.4-.9-.9v-8.4c-.1-.5.4-.9.9-.9z"
     id="path48" />
  <path
     fill="#9B9A9A"
     d="M320.5 105h12.1c.5 0 .9.4.9.9v12.3c0 .5-.4.9-.9.9h-12.1c-.5 0-.9-.4-.9-.9v-12.3c-.1-.5.4-.9.9-.9z"
     id="path50" />
  <path
     fill="#CFD0CF"
     d="M322.3 106.4h8.4c.5 0 .9.4.9.9v8.4c0 .5-.4.9-.9.9h-8.4c-.5 0-.9-.4-.9-.9v-8.4c0-.5.4-.9.9-.9z"
     id="path52" />
  <path
     fill="#9B9A9A"
     d="M335.5 105h12.1c.5 0 .9.4.9.9v12.3c0 .5-.4.9-.9.9h-12.1c-.5 0-.9-.4-.9-.9v-12.3c.1-.5.5-.9.9-.9z"
     id="path54" />
  <path
     fill="#CFD0CF"
     d="M337.4 106.4h8.4c.5 0 .9.4.9.9v8.4c0 .5-.4.9-.9.9h-8.4c-.5 0-.9-.4-.9-.9v-8.4c0-.5.4-.9.9-.9z"
     id="path56" />
  <path
     fill="#9B9A9A"
     d="M305.3 119.9h12.1c.5 0 .9.4.9.9v12.3c0 .5-.4.9-.9.9h-12.1c-.5 0-.9-.4-.9-.9v-12.3c0-.4.4-.9.9-.9z"
     id="path58" />
  <path
     fill="#CFD0CF"
     d="M307.2 121.3h8.4c.5 0 .9.4.9.9v8.4c0 .5-.4.9-.9.9h-8.4c-.5 0-.9-.4-.9-.9v-8.4c-.1-.5.4-.9.9-.9z"
     id="path60" />
  <path
     fill="#9B9A9A"
     d="M320.5 119.9h12.1c.5 0 .9.4.9.9v12.3c0 .5-.4.9-.9.9h-12.1c-.5 0-.9-.4-.9-.9v-12.3c-.1-.4.4-.9.9-.9z"
     id="path62" />
  <path
     fill="#CFD0CF"
     d="M322.3 121.3h8.4c.5 0 .9.4.9.9v8.4c0 .5-.4.9-.9.9h-8.4c-.5 0-.9-.4-.9-.9v-8.4c0-.5.4-.9.9-.9z"
     id="path64" />
  <path
     fill="#9B9A9A"
     d="M335.5 119.9h12.1c.5 0 .9.4.9.9v12.3c0 .5-.4.9-.9.9h-12.1c-.5 0-.9-.4-.9-.9v-12.3c.1-.4.5-.9.9-.9z"
     id="path66" />
  <path
     fill="#CFD0CF"
     d="M337.4 121.3h8.4c.5 0 .9.4.9.9v8.4c0 .5-.4.9-.9.9h-8.4c-.5 0-.9-.4-.9-.9v-8.4c0-.5.4-.9.9-.9z"
     id="path68" />
  <path
     fill="#9B9A9A"
     d="M305.3 135.2h12.1c.5 0 .9.4.9.9v12.3c0 .5-.4.9-.9.9h-12.1c-.5 0-.9-.4-.9-.9v-12.3c0-.5.4-.9.9-.9z"
     id="path70" />
  <path
     fill="#CFD0CF"
     d="M307.2 136.6h8.4c.5 0 .9.4.9.9v8.4c0 .5-.4.9-.9.9h-8.4c-.5 0-.9-.4-.9-.9v-8.4c-.1-.6.4-.9.9-.9z"
     id="path72" />
  <path
     fill="#9B9A9A"
     d="M320.5 135.2h12.1c.5 0 .9.4.9.9v12.3c0 .5-.4.9-.9.9h-12.1c-.5 0-.9-.4-.9-.9v-12.3c-.1-.5.4-.9.9-.9z"
     id="path74" />
  <path
     fill="#CFD0CF"
     d="M322.3 136.6h8.4c.5 0 .9.4.9.9v8.4c0 .5-.4.9-.9.9h-8.4c-.5 0-.9-.4-.9-.9v-8.4c0-.6.4-.9.9-.9z"
     id="path76" />
  <path
     fill="#9B9A9A"
     d="M335.5 135.2h12.1c.5 0 .9.4.9.9v12.3c0 .5-.4.9-.9.9h-12.1c-.5 0-.9-.4-.9-.9v-12.3c.1-.5.5-.9.9-.9z"
     id="path78" />
  <path
     fill="#CFD0CF"
     d="M337.4 136.6h8.4c.5 0 .9.4.9.9v8.4c0 .5-.4.9-.9.9h-8.4c-.5 0-.9-.4-.9-.9v-8.4c0-.6.4-.9.9-.9z"
     id="path80" />
  <path
     fill="#9B9A9A"
     d="M305.3 150.4h27.2c.5 0 .9.4.9.9v12.3c0 .5-.4.9-.9.9h-27.2c-.5 0-.9-.4-.9-.9v-12.3c0-.5.4-.9.9-.9z"
     id="path82" />
  <path
     fill="#CFD0CF"
     d="M307.2 151.8h23.6c.5 0 .9.4.9.9v8.4c0 .5-.4.9-.9.9h-23.6c-.5 0-.9-.4-.9-.9v-8.4c-.1-.5.4-.9.9-.9z"
     id="path84" />
  <path
     fill="#9B9A9A"
     d="M335.5 150.4h12.1c.5 0 .9.4.9.9v12.3c0 .5-.4.9-.9.9h-12.1c-.5 0-.9-.4-.9-.9v-12.3c.1-.5.5-.9.9-.9z"
     id="path86" />
  <path
     fill="#CFD0CF"
     d="M337.4 151.8h8.4c.5 0 .9.4.9.9v8.4c0 .5-.4.9-.9.9h-8.4c-.5 0-.9-.4-.9-.9v-8.4c0-.5.4-.9.9-.9z"
     id="path88" />
  <path
     fill="#9B9A9A"
     d="M137.1 119.8h12.1c.5 0 .9.4.9.9V133c0 .5-.4.9-.9.9h-12.1c-.5 0-.9-.4-.9-.9v-12.3c-.1-.5.4-.9.9-.9z"
     id="path90" />
  <path
     fill="#CFD0CF"
     d="M138.9 121.2h8.4c.5 0 .9.4.9.9v8.4c0 .5-.4.9-.9.9h-8.4c-.5 0-.9-.4-.9-.9V122c0-.4.4-.8.9-.8z"
     id="path92" />
  <path
     fill="#9B9A9A"
     d="M122.2 119.8h12.1c.5 0 .9.4.9.9V133c0 .5-.4.9-.9.9h-12.1c-.5 0-.9-.4-.9-.9v-12.3c-.1-.5.4-.9.9-.9z"
     id="path94" />
  <path
     fill="#CFD0CF"
     d="M124 121.2h8.4c.5 0 .9.4.9.9v8.4c0 .5-.4.9-.9.9H124c-.5 0-.9-.4-.9-.9V122c0-.4.4-.8.9-.8z"
     id="path96" />
  <path
     fill="#9B9A9A"
     d="M107.3 119.8h12.1c.5 0 .9.4.9.9V133c0 .5-.4.9-.9.9h-12.1c-.5 0-.9-.4-.9-.9v-12.3c-.1-.5.4-.9.9-.9z"
     id="path98" />
  <path
     fill="#CFD0CF"
     d="M109.1 121.2h8.4c.5 0 .9.4.9.9v8.4c0 .5-.4.9-.9.9h-8.4c-.5 0-.9-.4-.9-.9V122c0-.4.4-.8.9-.8z"
     id="path100" />
  <path
     fill="#9B9A9A"
     d="M92.3 119.8h12.1c.5 0 .9.4.9.9V133c0 .5-.4.9-.9.9H92.3c-.5 0-.9-.4-.9-.9v-12.3c0-.5.5-.9.9-.9z"
     id="path102" />
  <path
     fill="#CFD0CF"
     d="M94.2 121.2h8.4c.5 0 .9.4.9.9v8.4c0 .5-.4.9-.9.9h-8.4c-.5 0-.9-.4-.9-.9V122c0-.4.4-.8.9-.8z"
     id="path104" />
  <path
     fill="#9B9A9A"
     d="M77.4 119.8h12.1c.5 0 .9.4.9.9V133c0 .5-.4.9-.9.9H77.4c-.5 0-.9-.4-.9-.9v-12.3c0-.5.4-.9.9-.9z"
     id="path106" />
  <path
     fill="#CFD0CF"
     d="M79.3 121.2h8.4c.5 0 .9.4.9.9v8.4c0 .5-.4.9-.9.9h-8.4c-.5 0-.9-.4-.9-.9V122c0-.4.4-.8.9-.8z"
     id="path108" />
  <path
     fill="#9B9A9A"
     d="M62.5 119.8h12.1c.5 0 .9.4.9.9V133c0 .5-.4.9-.9.9H62.5c-.5 0-.9-.4-.9-.9v-12.3c0-.5.4-.9.9-.9z"
     id="path110" />
  <path
     fill="#CFD0CF"
     d="M64.4 121.2h8.4c.5 0 .9.4.9.9v8.4c0 .5-.4.9-.9.9h-8.4c-.5 0-.9-.4-.9-.9V122c0-.4.4-.8.9-.8z"
     id="path112" />
  <path
     fill="#9B9A9A"
     d="M47.6 119.8h12.1c.5 0 .9.4.9.9V133c0 .5-.4.9-.9.9H47.6c-.5 0-.9-.4-.9-.9v-12.3c0-.5.4-.9.9-.9z"
     id="path114" />
  <path
     fill="#CFD0CF"
     d="M49.5 121.2h8.4c.5 0 .9.4.9.9v8.4c0 .5-.4.9-.9.9h-8.4c-.5 0-.9-.4-.9-.9V122c0-.4.4-.8.9-.8z"
     id="path116" />
  <path
     fill="#9B9A9A"
     d="M144.5 134.8h12.1c.5 0 .9.4.9.9V148c0 .5-.4.9-.9.9h-12.1c-.5 0-.9-.4-.9-.9v-12.3c0-.5.5-.9.9-.9z"
     id="path118" />
  <path
     fill="#CFD0CF"
     d="M146.4 136.2h8.4c.5 0 .9.4.9.9v8.4c0 .5-.4.9-.9.9h-8.4c-.5 0-.9-.4-.9-.9v-8.4c0-.5.4-.9.9-.9z"
     id="path120" />
  <path
     fill="#9B9A9A"
     d="M159.4 134.8h12.1c.5 0 .9.4.9.9V148c0 .5-.4.9-.9.9h-12.1c-.5 0-.9-.4-.9-.9v-12.3c0-.5.4-.9.9-.9z"
     id="path122" />
  <path
     fill="#CFD0CF"
     d="M161.3 136.2h8.4c.5 0 .9.4.9.9v8.4c0 .5-.4.9-.9.9h-8.4c-.5 0-.9-.4-.9-.9v-8.4c0-.5.4-.9.9-.9z"
     id="path124" />
  <path
     fill="#9B9A9A"
     d="M174.3 134.8h12.1c.5 0 .9.4.9.9V148c0 .5-.4.9-.9.9h-12.1c-.5 0-.9-.4-.9-.9v-12.3c0-.5.4-.9.9-.9z"
     id="path126" />
  <path
     fill="#CFD0CF"
     d="M176.2 136.2h8.4c.5 0 .9.4.9.9v8.4c0 .5-.4.9-.9.9h-8.4c-.5 0-.9-.4-.9-.9v-8.4c0-.5.4-.9.9-.9z"
     id="path128" />
  <path
     fill="#9B9A9A"
     d="M189.2 134.8h12.1c.5 0 .9.4.9.9V148c0 .5-.4.9-.9.9h-12.1c-.5 0-.9-.4-.9-.9v-12.3c0-.5.4-.9.9-.9z"
     id="path130" />
  <path
     fill="#CFD0CF"
     d="M191.1 136.2h8.4c.5 0 .9.4.9.9v8.4c0 .5-.4.9-.9.9h-8.4c-.5 0-.9-.4-.9-.9v-8.4c0-.5.4-.9.9-.9z"
     id="path132" />
  <path
     fill="#9B9A9A"
     d="M129.6 134.8h12.1c.5 0 .9.4.9.9V148c0 .5-.4.9-.9.9h-12.1c-.5 0-.9-.4-.9-.9v-12.3c0-.5.4-.9.9-.9z"
     id="path134" />
  <path
     fill="#CFD0CF"
     d="M131.5 136.2h8.4c.5 0 .9.4.9.9v8.4c0 .5-.4.9-.9.9h-8.4c-.5 0-.9-.4-.9-.9v-8.4c0-.5.4-.9.9-.9z"
     id="path136" />
  <path
     fill="#9B9A9A"
     d="M114.7 134.8h12.1c.5 0 .9.4.9.9V148c0 .5-.4.9-.9.9h-12.1c-.5 0-.9-.4-.9-.9v-12.3c0-.5.4-.9.9-.9z"
     id="path138" />
  <path
     fill="#CFD0CF"
     d="M116.6 136.2h8.4c.5 0 .9.4.9.9v8.4c0 .5-.4.9-.9.9h-8.4c-.5 0-.9-.4-.9-.9v-8.4c0-.5.4-.9.9-.9z"
     id="path140" />
  <path
     fill="#9B9A9A"
     d="M99.8 134.8h12.1c.5 0 .9.4.9.9V148c0 .5-.4.9-.9.9H99.8c-.5 0-.9-.4-.9-.9v-12.3c0-.5.4-.9.9-.9z"
     id="path142" />
  <path
     fill="#CFD0CF"
     d="M101.7 136.2h8.4c.5 0 .9.4.9.9v8.4c0 .5-.4.9-.9.9h-8.4c-.5 0-.9-.4-.9-.9v-8.4c-.1-.5.4-.9.9-.9z"
     id="path144" />
  <path
     fill="#9B9A9A"
     d="M84.9 134.8H97c.5 0 .9.4.9.9V148c0 .5-.4.9-.9.9H84.9c-.5 0-.9-.4-.9-.9v-12.3c0-.5.4-.9.9-.9z"
     id="path146" />
  <path
     fill="#CFD0CF"
     d="M86.8 136.2h8.4c.5 0 .9.4.9.9v8.4c0 .5-.4.9-.9.9h-8.4c-.5 0-.9-.4-.9-.9v-8.4c-.1-.5.4-.9.9-.9z"
     id="path148" />
  <path
     fill="#9B9A9A"
     d="M70 134.8h12.1c.5 0 .9.4.9.9V148c0 .5-.4.9-.9.9H70c-.5 0-.9-.4-.9-.9v-12.3c0-.5.4-.9.9-.9z"
     id="path150" />
  <path
     fill="#CFD0CF"
     d="M71.9 136.2h8.4c.5 0 .9.4.9.9v8.4c0 .5-.4.9-.9.9h-8.4c-.5 0-.9-.4-.9-.9v-8.4c-.1-.5.4-.9.9-.9z"
     id="path152" />
  <path
     fill="#9B9A9A"
     d="M55.1 134.8h12.1c.5 0 .9.4.9.9V148c0 .5-.4.9-.9.9H55.1c-.5 0-.9-.4-.9-.9v-12.3c0-.5.4-.9.9-.9z"
     id="path154" />
  <path
     fill="#CFD0CF"
     d="M57 136.2h8.4c.5 0 .9.4.9.9v8.4c0 .5-.4.9-.9.9H57c-.5 0-.9-.4-.9-.9v-8.4c-.1-.5.4-.9.9-.9z"
     id="path156" />
  <path
     fill="#9B9A9A"
     d="M40.2 134.8h12.1c.5 0 .9.4.9.9V148c0 .5-.4.9-.9.9H40.2c-.5 0-.9-.4-.9-.9v-12.3c0-.5.4-.9.9-.9z"
     id="path158" />
  <path
     fill="#CFD0CF"
     d="M42 136.2h8.5c.5 0 .9.4.9.9v8.4c0 .5-.4.9-.9.9H42c-.5 0-.9-.4-.9-.9v-8.4c0-.5.4-.9.9-.9z"
     id="path160" />
  <path
     fill="#9B9A9A"
     d="M62.5 149.8h131.2c.5 0 .9.4.9.9V163c0 .5-.4.9-.9.9H62.5c-.5 0-.9-.4-.9-.9v-12.3c0-.5.4-.9.9-.9z"
     id="path162" />
  <path
     fill="#CFD0CF"
     d="M64.4 151.2h127.5c.5 0 .9.4.9.9v8.4c0 .5-.4.9-.9.9H64.4c-.5 0-.9-.4-.9-.9v-8.4c0-.5.4-.9.9-.9z"
     id="path164" />
  <path
     fill="#9B9A9A"
     d="M147.7 104.8h12.1c.5 0 .9.4.9.9V118c0 .5-.4.9-.9.9h-12.1c-.5 0-.9-.4-.9-.9v-12.3c.1-.5.4-.9.9-.9z"
     id="path166" />
  <path
     fill="#CFD0CF"
     d="M149.6 106.2h8.4c.5 0 .9.4.9.9v8.4c0 .5-.4.9-.9.9h-8.4c-.5 0-.9-.4-.9-.9v-8.4c0-.5.4-.9.9-.9z"
     id="path168" />
  <path
     fill="#9B9A9A"
     d="M162.6 104.8h12.1c.5 0 .9.4.9.9V118c0 .5-.4.9-.9.9h-12.1c-.5 0-.9-.4-.9-.9v-12.3c.1-.5.4-.9.9-.9z"
     id="path170" />
  <path
     fill="#CFD0CF"
     d="M164.5 106.2h8.4c.5 0 .9.4.9.9v8.4c0 .5-.4.9-.9.9h-8.4c-.5 0-.9-.4-.9-.9v-8.4c0-.5.4-.9.9-.9z"
     id="path172" />
  <path
     fill="#9B9A9A"
     d="M177.6 104.8h12.1c.5 0 .9.4.9.9V118c0 .5-.4.9-.9.9h-12.1c-.5 0-.9-.4-.9-.9v-12.3c0-.5.4-.9.9-.9z"
     id="path174" />
  <path
     fill="#CFD0CF"
     d="M179.4 106.2h8.4c.5 0 .9.4.9.9v8.4c0 .5-.4.9-.9.9h-8.4c-.5 0-.9-.4-.9-.9v-8.4c0-.5.4-.9.9-.9z"
     id="path176" />
  <path
     fill="#9B9A9A"
     d="M192.5 104.8h12.1c.5 0 .9.4.9.9V118c0 .5-.4.9-.9.9h-12.1c-.5 0-.9-.4-.9-.9v-12.3c-.1-.5.4-.9.9-.9z"
     id="path178" />
  <path
     fill="#CFD0CF"
     d="M194.3 106.2h8.4c.5 0 .9.4.9.9v8.4c0 .5-.4.9-.9.9h-8.4c-.5 0-.9-.4-.9-.9v-8.4c0-.5.4-.9.9-.9z"
     id="path180" />
  <path
     fill="#9B9A9A"
     d="M207.4 104.8h12.1c.5 0 .9.4.9.9V118c0 .5-.4.9-.9.9h-12.1c-.5 0-.9-.4-.9-.9v-12.3c-.1-.5.4-.9.9-.9z"
     id="path182" />
  <path
     fill="#CFD0CF"
     d="M209.2 106.2h8.4c.5 0 .9.4.9.9v8.4c0 .5-.4.9-.9.9h-8.4c-.5 0-.9-.4-.9-.9v-8.4c0-.5.4-.9.9-.9z"
     id="path184" />
  <path
     fill="#9B9A9A"
     d="M132.8 104.8h12.1c.5 0 .9.4.9.9V118c0 .5-.4.9-.9.9h-12.1c-.5 0-.9-.4-.9-.9v-12.3c.1-.5.4-.9.9-.9z"
     id="path186" />
  <path
     fill="#CFD0CF"
     d="M134.7 106.2h8.4c.5 0 .9.4.9.9v8.4c0 .5-.4.9-.9.9h-8.4c-.5 0-.9-.4-.9-.9v-8.4c0-.5.4-.9.9-.9z"
     id="path188" />
  <path
     fill="#9B9A9A"
     d="M118.2 104.8h12.1c.5 0 .9.4.9.9V118c0 .5-.4.9-.9.9h-12.1c-.5 0-.9-.4-.9-.9v-12.3c-.1-.5.4-.9.9-.9z"
     id="path190" />
  <path
     fill="#CFD0CF"
     d="M120 106.2h8.4c.5 0 .9.4.9.9v8.4c0 .5-.4.9-.9.9H120c-.5 0-.9-.4-.9-.9v-8.4c0-.5.4-.9.9-.9z"
     id="path192" />
  <path
     fill="#9B9A9A"
     d="M103 104.8h12.1c.5 0 .9.4.9.9V118c0 .5-.4.9-.9.9H103c-.5 0-.9-.4-.9-.9v-12.3c.1-.5.4-.9.9-.9z"
     id="path194" />
  <path
     fill="#CFD0CF"
     d="M104.9 106.2h8.4c.5 0 .9.4.9.9v8.4c0 .5-.4.9-.9.9h-8.4c-.5 0-.9-.4-.9-.9v-8.4c0-.5.4-.9.9-.9z"
     id="path196" />
  <path
     fill="#9B9A9A"
     d="M88.1 104.8h12.1c.5 0 .9.4.9.9V118c0 .5-.4.9-.9.9H88.1c-.5 0-.9-.4-.9-.9v-12.3c.1-.5.4-.9.9-.9z"
     id="path198" />
  <path
     fill="#CFD0CF"
     d="M90 106.2h8.4c.5 0 .9.4.9.9v8.4c0 .5-.4.9-.9.9H90c-.5 0-.9-.4-.9-.9v-8.4c0-.5.4-.9.9-.9z"
     id="path200" />
  <path
     fill="#9B9A9A"
     d="M73.2 104.8h12.1c.5 0 .9.4.9.9V118c0 .5-.4.9-.9.9H73.2c-.5 0-.9-.4-.9-.9v-12.3c.1-.5.4-.9.9-.9z"
     id="path202" />
  <path
     fill="#CFD0CF"
     d="M75.1 106.2h8.4c.5 0 .9.4.9.9v8.4c0 .5-.4.9-.9.9h-8.4c-.5 0-.9-.4-.9-.9v-8.4c0-.5.4-.9.9-.9z"
     id="path204" />
  <path
     fill="#9B9A9A"
     d="M58.3 104.8h12.1c.5 0 .9.4.9.9V118c0 .5-.4.9-.9.9H58.3c-.5 0-.9-.4-.9-.9v-12.3c0-.5.4-.9.9-.9z"
     id="path206" />
  <path
     fill="#CFD0CF"
     d="M60.2 106.2h8.4c.5 0 .9.4.9.9v8.4c0 .5-.4.9-.9.9h-8.4c-.5 0-.9-.4-.9-.9v-8.4c0-.5.4-.9.9-.9z"
     id="path208" />
  <path
     fill="#9B9A9A"
     d="M43.4 104.8h12.1c.5 0 .9.4.9.9V118c0 .5-.4.9-.9.9H43.4c-.5 0-.9-.4-.9-.9v-12.3c0-.5.4-.9.9-.9z"
     id="path210" />
  <path
     fill="#CFD0CF"
     d="M45.3 106.2h8.4c.5 0 .9.4.9.9v8.4c0 .5-.4.9-.9.9h-8.4c-.5 0-.9-.4-.9-.9v-8.4c0-.5.4-.9.9-.9z"
     id="path212" />
  <path
     fill="#9B9A9A"
     d="M140 89.9h12.1c.5 0 .9.4.9.9v12.3c0 .5-.4.9-.9.9H140c-.5 0-.9-.4-.9-.9V90.8c0-.5.4-.9.9-.9z"
     id="path214" />
  <path
     fill="#CFD0CF"
     d="M141.9 91.3h8.4c.5 0 .9.4.9.9v8.4c0 .5-.4.9-.9.9h-8.4c-.5 0-.9-.4-.9-.9v-8.4c0-.6.4-.9.9-.9z"
     id="path216" />
  <path
     fill="#9B9A9A"
     d="M155 89.9h12.1c.5 0 .9.4.9.9v12.3c0 .5-.4.9-.9.9H155c-.5 0-.9-.4-.9-.9V90.8c-.1-.5.4-.9.9-.9z"
     id="path218" />
  <path
     fill="#CFD0CF"
     d="M156.8 91.3h8.4c.5 0 .9.4.9.9v8.4c0 .5-.4.9-.9.9h-8.4c-.5 0-.9-.4-.9-.9v-8.4c0-.6.4-.9.9-.9z"
     id="path220" />
  <path
     fill="#9B9A9A"
     d="M169.9 89.9H182c.5 0 .9.4.9.9v12.3c0 .5-.4.9-.9.9h-12.1c-.5 0-.9-.4-.9-.9V90.8c-.1-.5.4-.9.9-.9z"
     id="path222" />
  <path
     fill="#CFD0CF"
     d="M171.7 91.3h8.5c.5 0 .9.4.9.9v8.4c0 .5-.4.9-.9.9h-8.4c-.5 0-.9-.4-.9-.9v-8.4c-.1-.6.3-.9.8-.9z"
     id="path224" />
  <path
     fill="#9B9A9A"
     d="M184.8 89.9h12.1c.5 0 .9.4.9.9v12.3c0 .5-.4.9-.9.9h-12.1c-.5 0-.9-.4-.9-.9V90.8c-.1-.5.4-.9.9-.9z"
     id="path226" />
  <path
     fill="#CFD0CF"
     d="M186.6 91.3h8.4c.5 0 .9.4.9.9v8.4c0 .5-.4.9-.9.9h-8.4c-.5 0-.9-.4-.9-.9v-8.4c0-.6.4-.9.9-.9z"
     id="path228" />
  <path
     fill="#9B9A9A"
     d="M199.7 89.9h12.1c.5 0 .9.4.9.9v12.3c0 .5-.4.9-.9.9h-12.1c-.5 0-.9-.4-.9-.9V90.8c-.1-.5.4-.9.9-.9z"
     id="path230" />
  <path
     fill="#CFD0CF"
     d="M201.5 91.3h8.4c.5 0 .9.4.9.9v8.4c0 .5-.4.9-.9.9h-8.4c-.5 0-.9-.4-.9-.9v-8.4c0-.6.4-.9.9-.9z"
     id="path232" />
  <path
     fill="#9B9A9A"
     d="M214.6 89.9h12.1c.5 0 .9.4.9.9v12.3c0 .5-.4.9-.9.9h-12.1c-.5 0-.9-.4-.9-.9V90.8c-.1-.5.4-.9.9-.9z"
     id="path234" />
  <path
     fill="#CFD0CF"
     d="M216.4 91.3h8.4c.5 0 .9.4.9.9v8.4c0 .5-.4.9-.9.9h-8.4c-.5 0-.9-.4-.9-.9v-8.4c0-.6.4-.9.9-.9z"
     id="path236" />
  <path
     fill="#9B9A9A"
     d="M125.1 89.9h12.1c.5 0 .9.4.9.9v12.3c0 .5-.4.9-.9.9h-12.1c-.5 0-.9-.4-.9-.9V90.8c0-.5.4-.9.9-.9z"
     id="path238" />
  <path
     fill="#CFD0CF"
     d="M127 91.3h8.4c.5 0 .9.4.9.9v8.4c0 .5-.4.9-.9.9H127c-.5 0-.9-.4-.9-.9v-8.4c0-.6.4-.9.9-.9z"
     id="path240" />
  <path
     fill="#9B9A9A"
     d="M110.2 89.9h12.1c.5 0 .9.4.9.9v12.3c0 .5-.4.9-.9.9h-12.1c-.5 0-.9-.4-.9-.9V90.8c0-.5.4-.9.9-.9z"
     id="path242" />
  <path
     fill="#CFD0CF"
     d="M112.1 91.3h8.4c.5 0 .9.4.9.9v8.4c0 .5-.4.9-.9.9h-8.4c-.5 0-.9-.4-.9-.9v-8.4c-.1-.6.4-.9.9-.9z"
     id="path244" />
  <path
     fill="#9B9A9A"
     d="M95.3 89.9h12.1c.5 0 .9.4.9.9v12.3c0 .5-.4.9-.9.9H95.3c-.5 0-.9-.4-.9-.9V90.8c0-.5.4-.9.9-.9z"
     id="path246" />
  <path
     fill="#CFD0CF"
     d="M97.2 91.3h8.4c.5 0 .9.4.9.9v8.4c0 .5-.4.9-.9.9h-8.4c-.5 0-.9-.4-.9-.9v-8.4c-.1-.6.4-.9.9-.9z"
     id="path248" />
  <path
     fill="#9B9A9A"
     d="M80.4 89.9h12.1c.5 0 .9.4.9.9v12.3c0 .5-.4.9-.9.9H80.4c-.5 0-.9-.4-.9-.9V90.8c0-.5.4-.9.9-.9z"
     id="path250" />
  <path
     fill="#CFD0CF"
     d="M82.3 91.3h8.4c.5 0 .9.4.9.9v8.4c0 .5-.4.9-.9.9h-8.4c-.5 0-.9-.4-.9-.9v-8.4c-.1-.6.4-.9.9-.9z"
     id="path252" />
  <path
     fill="#9B9A9A"
     d="M65.5 89.9h12.1c.5 0 .9.4.9.9v12.3c0 .5-.4.9-.9.9H65.5c-.5 0-.9-.4-.9-.9V90.8c0-.5.4-.9.9-.9z"
     id="path254" />
  <path
     fill="#CFD0CF"
     d="M67.4 91.3h8.4c.5 0 .9.4.9.9v8.4c0 .5-.4.9-.9.9h-8.4c-.5 0-.9-.4-.9-.9v-8.4c-.1-.6.4-.9.9-.9z"
     id="path256" />
  <path
     fill="#9B9A9A"
     d="M50.6 89.9h12.1c.5 0 .9.4.9.9v12.3c0 .5-.4.9-.9.9H50.6c-.5 0-.9-.4-.9-.9V90.8c0-.5.4-.9.9-.9z"
     id="path258" />
  <path
     fill="#CFD0CF"
     d="M52.4 91.3h8.4c.5 0 .9.4.9.9v8.4c0 .5-.4.9-.9.9h-8.4c-.5 0-.9-.4-.9-.9v-8.4c0-.6.5-.9.9-.9z"
     id="path260" />
  <path
     fill="#9B9A9A"
     d="M35.7 89.9h12.1c.5 0 .9.4.9.9v12.3c0 .5-.4.9-.9.9H35.7c-.5 0-.9-.4-.9-.9V90.8c0-.5.4-.9.9-.9z"
     id="path262" />
  <path
     fill="#CFD0CF"
     d="M37.5 91.3h8.4c.5 0 .9.4.9.9v8.4c0 .5-.4.9-.9.9h-8.4c-.5 0-.9-.4-.9-.9v-8.4c.1-.6.4-.9.9-.9z"
     id="path264" />
  <path
     fill="#60605D"
     d="M12.2 134.8h25c.5 0 .9.4.9.9V148c0 .5-.4.9-.9.9h-25c-.5 0-.9-.4-.9-.9v-12.3c-.1-.5.4-.9.9-.9z"
     id="path266" />
  <path
     fill="#868580"
     d="M14 136.2h21.3c.5 0 .9.4.9.9v8.4c0 .5-.4.9-.9.9H14c-.5 0-.9-.4-.9-.9v-8.4c0-.5.4-.9.9-.9z"
     id="path268" />
  <path
     fill="#60605D"
     d="M204.1 134.8h37.6c.5 0 .9.4.9.9V148c0 .5-.4.9-.9.9h-37.6c-.5 0-.9-.4-.9-.9v-12.3c-.1-.5.4-.9.9-.9z"
     id="path270" />
  <path
     fill="#868580"
     d="M205.9 136.2h33.9c.5 0 .9.4.9.9v8.4c0 .5-.4.9-.9.9h-33.9c-.5 0-.9-.4-.9-.9v-8.4c0-.5.4-.9.9-.9z"
     id="path272" />
  <path
     fill="#60605D"
     d="M24.2 149.8h16.7c.5 0 .9.4.9.9V163c0 .5-.4.9-.9.9H24.2c-.5 0-.9-.4-.9-.9v-12.3c0-.5.4-.9.9-.9z"
     id="path274" />
  <path
     fill="#868580"
     d="M26 151.2h13c.5 0 .9.4.9.9v8.4c0 .5-.4.9-.9.9H26c-.5 0-.9-.4-.9-.9v-8.4c0-.5.4-.9.9-.9z"
     id="path276" />
  <path
     fill="#60605D"
     d="M43.4 149.8h16.7c.5 0 .9.4.9.9V163c0 .5-.4.9-.9.9H43.4c-.5 0-.9-.4-.9-.9v-12.3c0-.5.4-.9.9-.9z"
     id="path278" />
  <path
     fill="#868580"
     d="M45.3 151.2h13c.5 0 .9.4.9.9v8.4c0 .5-.4.9-.9.9h-13c-.5 0-.9-.4-.9-.9v-8.4c0-.5.4-.9.9-.9z"
     id="path280" />
  <path
     fill="#60605D"
     d="M252.5 89.9h20.2c.5 0 .9.4.9.9v12.3c0 .5-.4.9-.9.9h-20.2c-.5 0-.9-.4-.9-.9V90.8c0-.5.4-.9.9-.9z"
     id="path282" />
  <path
     fill="#868580"
     d="M254.3 91.3h16.5c.5 0 .9.4.9.9v8.4c0 .5-.4.9-.9.9h-16.5c-.5 0-.9-.4-.9-.9v-8.4c0-.6.4-.9.9-.9z"
     id="path284" />
  <path
     fill="#60605D"
     d="M275.2 89.9h20.3c.5 0 .9.4.9.9v12.3c0 .5-.4.9-.9.9h-20.2c-.5 0-.9-.4-.9-.9V90.8c-.1-.5.3-.9.8-.9z"
     id="path286" />
  <path
     fill="#868580"
     d="M277.1 91.3h16.5c.5 0 .9.4.9.9v8.4c0 .5-.4.9-.9.9h-16.5c-.5 0-.9-.4-.9-.9v-8.4c0-.6.4-.9.9-.9z"
     id="path288" />
  <path
     fill="#60605D"
     d="M196.4 149.8h16.1c.5 0 .9.4.9.9V163c0 .5-.4.9-.9.9h-16.1c-.5 0-.9-.4-.9-.9v-12.3c0-.5.4-.9.9-.9z"
     id="path290" />
  <path
     fill="#868580"
     d="M198.3 151.2h12.4c.5 0 .9.4.9.9v8.4c0 .5-.4.9-.9.9h-12.4c-.5 0-.9-.4-.9-.9v-8.4c0-.5.4-.9.9-.9z"
     id="path292" />
  <path
     fill="#60605D"
     d="M215.4 149.8h16.1c.5 0 .9.4.9.9V163c0 .5-.4.9-.9.9h-16.1c-.5 0-.9-.4-.9-.9v-12.3c-.1-.5.4-.9.9-.9z"
     id="path294" />
  <path
     fill="#868580"
     d="M217.2 151.2h12.4c.5 0 .9.4.9.9v8.4c0 .5-.4.9-.9.9h-12.4c-.5 0-.9-.4-.9-.9v-8.4c0-.5.4-.9.9-.9z"
     id="path296" />
  <path
     fill="#60605D"
     d="M12.2 119.8H30c.5 0 .9.4.9.9V133c0 .5-.4.9-.9.9H12.2c-.5 0-.9-.4-.9-.9v-12.3c-.1-.5.4-.9.9-.9z"
     id="path298" />
  <path
     fill="#868580"
     d="M14 121.2h14c.5 0 .9.4.9.9v8.4c0 .5-.4.9-.9.9H14c-.5 0-.9-.4-.9-.9V122c0-.4.4-.8.9-.8z"
     id="path300" />
  <path
     fill="#60605D"
     d="M32.8 119.8h12c.5 0 .9.4.9.9V133c0 .5-.4.9-.9.9h-12c-.5 0-.9-.4-.9-.9v-12.3c.1-.5.5-.9.9-.9z"
     id="path302" />
  <path
     fill="#868580"
     d="M34.7 121.2H43c.5 0 .9.4.9.9v8.4c0 .5-.4.9-.9.9h-8.3c-.5 0-.9-.4-.9-.9V122c0-.4.4-.8.9-.8z"
     id="path304" />
  <path
     fill="#60605D"
     d="M229.4 89.9h12c.5 0 .9.4.9.9v12.3c0 .5-.4.9-.9.9h-12c-.5 0-.9-.4-.9-.9V90.8c.1-.5.4-.9.9-.9z"
     id="path306" />
  <path
     fill="#868580"
     d="M231.3 91.3h8.3c.5 0 .9.4.9.9v8.4c0 .5-.4.9-.9.9h-8.3c-.5 0-.9-.4-.9-.9v-8.4c0-.6.4-.9.9-.9z"
     id="path308" />
  <path
     fill="#60605D"
     d="M12.2 104.8h28.5c.5 0 .9.4.9.9V118c0 .5-.4.9-.9.9H12.2c-.5 0-.9-.4-.9-.9v-12.3c-.1-.5.4-.9.9-.9z"
     id="path310" />
  <path
     fill="#868580"
     d="M14 106.2h24.9c.5 0 .9.4.9.9v8.4c0 .5-.4.9-.9.9H14c-.5 0-.9-.4-.9-.9v-8.4c0-.5.4-.9.9-.9z"
     id="path312" />
  <path
     fill="#60605D"
     d="M12.2 89.9H33c.5 0 .9.4.9.9v12.3c0 .5-.4.9-.9.9H12.2c-.5 0-.9-.4-.9-.9V90.8c-.1-.5.4-.9.9-.9z"
     id="path314" />
  <path
     fill="#868580"
     d="M14 91.3h17.1c.5 0 .9.4.9.9v8.4c0 .5-.4.9-.9.9H14c-.5 0-.9-.4-.9-.9v-8.4c0-.6.4-.9.9-.9z"
     id="path316" />
  <path
     fill="#60605D"
     d="M222.4 104.8h19c.5 0 .9.4.9.9V133c0 .5-.4.9-.9.9h-14.6c-.5 0-.9-.4-.9-.9v-11.7c0-1.5-.9-2-2.3-2-1.9 0-2.1-1.1-2.1-1.9v-11.7c0-.5.5-.9.9-.9z"
     id="path318" />
  <path
     fill="#868580"
     d="M224.2 106.2h15.5c.5 0 .9.4.9.9v23.5c0 .5-.4.9-.9.9h-11.1c-.5 0-.9-.4-.9-.9v-10.3c0-1.2-1.2-1.9-2.2-1.9-1.9 0-2.1-1.3-2.1-1.9V107c-.1-.5.3-.8.8-.8z"
     id="path320" />
  <path
     fill="#60605D"
     d="M12.1 65.9h12.1c.5 0 .9.4.9.9v12.3c0 .5-.4.9-.9.9H12.1c-.5 0-.9-.4-.9-.9V66.8c0-.5.4-.9.9-.9z"
     id="path322" />
  <path
     fill="#868580"
     d="M13.9 67.3h8.4c.5 0 .9.4.9.9v8.4c0 .5-.4.9-.9.9h-8.4c-.5 0-.9-.4-.9-.9v-8.4c0-.6.4-.9.9-.9z"
     id="path324" />
  <path
     fill="#60605D"
     d="M35.3 65.9h16.3c.5 0 .9.4.9.9v12.3c0 .5-.4.9-.9.9H35.3c-.5 0-.9-.4-.9-.9V66.8c.1-.5.4-.9.9-.9z"
     id="path326" />
  <path
     fill="#868580"
     d="M37.2 67.3h12.7c.5 0 .9.4.9.9v8.4c0 .5-.4.9-.9.9H37.2c-.5 0-.9-.4-.9-.9v-8.4c0-.6.4-.9.9-.9z"
     id="path328" />
  <path
     fill="#60605D"
     d="M54.3 65.9h16.3c.5 0 .9.4.9.9v12.3c0 .5-.4.9-.9.9H54.3c-.5 0-.9-.4-.9-.9V66.8c0-.5.4-.9.9-.9z"
     id="path330" />
  <path
     fill="#868580"
     d="M56.1 67.3h12.7c.5 0 .9.4.9.9v8.4c0 .5-.4.9-.9.9H56.1c-.5 0-.9-.4-.9-.9v-8.4c0-.6.4-.9.9-.9z"
     id="path332" />
  <path
     fill="#60605D"
     d="M73.2 65.9h16.3c.5 0 .9.4.9.9v12.3c0 .5-.4.9-.9.9H73.2c-.5 0-.9-.4-.9-.9V66.8c0-.5.4-.9.9-.9z"
     id="path334" />
  <path
     fill="#868580"
     d="M75 67.3h12.7c.5 0 .9.4.9.9v8.4c0 .5-.4.9-.9.9H75c-.5 0-.9-.4-.9-.9v-8.4c.1-.6.5-.9.9-.9z"
     id="path336" />
  <path
     fill="#60605D"
     d="M92.1 65.9h16.3c.5 0 .9.4.9.9v12.3c0 .5-.4.9-.9.9H92.1c-.5 0-.9-.4-.9-.9V66.8c.1-.5.4-.9.9-.9z"
     id="path338" />
  <path
     fill="#868580"
     d="M94 67.3h12.7c.5 0 .9.4.9.9v8.4c0 .5-.4.9-.9.9H94c-.5 0-.9-.4-.9-.9v-8.4c0-.6.4-.9.9-.9z"
     id="path340" />
  <path
     fill="#60605D"
     d="M111.1 65.9h16.3c.5 0 .9.4.9.9v12.3c0 .5-.4.9-.9.9h-16.3c-.5 0-.9-.4-.9-.9V66.8c0-.5.4-.9.9-.9z"
     id="path342" />
  <path
     fill="#868580"
     d="M112.9 67.3h12.7c.5 0 .9.4.9.9v8.4c0 .5-.4.9-.9.9h-12.7c-.5 0-.9-.4-.9-.9v-8.4c0-.6.4-.9.9-.9z"
     id="path344" />
  <path
     fill="#60605D"
     d="M136.2 65.9h16.3c.5 0 .9.4.9.9v12.3c0 .5-.4.9-.9.9h-16.3c-.5 0-.9-.4-.9-.9V66.8c0-.5.4-.9.9-.9z"
     id="path346" />
  <path
     fill="#868580"
     d="M138.1 67.3h12.7c.5 0 .9.4.9.9v8.4c0 .5-.4.9-.9.9h-12.7c-.5 0-.9-.4-.9-.9v-8.4c-.1-.6.4-.9.9-.9z"
     id="path348" />
  <path
     fill="#60605D"
     d="M155.1 65.9h16.3c.5 0 .9.4.9.9v12.3c0 .5-.4.9-.9.9h-16.3c-.5 0-.9-.4-.9-.9V66.8c0-.5.4-.9.9-.9z"
     id="path350" />
  <path
     fill="#868580"
     d="M157 67.3h12.7c.5 0 .9.4.9.9v8.4c0 .5-.4.9-.9.9H157c-.5 0-.9-.4-.9-.9v-8.4c0-.6.4-.9.9-.9z"
     id="path352" />
  <path
     fill="#60605D"
     d="M174 65.9h16.3c.5 0 .9.4.9.9v12.3c0 .5-.4.9-.9.9H174c-.5 0-.9-.4-.9-.9V66.8c.1-.5.5-.9.9-.9z"
     id="path354" />
  <path
     fill="#868580"
     d="M175.9 67.3h12.7c.5 0 .9.4.9.9v8.4c0 .5-.4.9-.9.9h-12.7c-.5 0-.9-.4-.9-.9v-8.4c0-.6.4-.9.9-.9z"
     id="path356" />
  <path
     fill="#60605D"
     d="M193 65.9h16.3c.5 0 .9.4.9.9v12.3c0 .5-.4.9-.9.9H193c-.5 0-.9-.4-.9-.9V66.8c0-.5.4-.9.9-.9z"
     id="path358" />
  <path
     fill="#868580"
     d="M194.9 67.3h12.7c.5 0 .9.4.9.9v8.4c0 .5-.4.9-.9.9h-12.7c-.5 0-.9-.4-.9-.9v-8.4c-.1-.6.4-.9.9-.9z"
     id="path360" />
  <path
     fill="#60605D"
     d="M211.9 65.9h16.3c.5 0 .9.4.9.9v12.3c0 .5-.4.9-.9.9h-16.3c-.5 0-.9-.4-.9-.9V66.8c.1-.5.4-.9.9-.9z"
     id="path362" />
  <path
     fill="#868580"
     d="M213.8 67.3h12.7c.5 0 .9.4.9.9v8.4c0 .5-.4.9-.9.9h-12.7c-.5 0-.9-.4-.9-.9v-8.4c0-.6.4-.9.9-.9z"
     id="path364" />
  <path
     fill="#60605D"
     d="M305.3 89.9h12.1c.5 0 .9.4.9.9v12.3c0 .5-.4.9-.9.9h-12.1c-.5 0-.9-.4-.9-.9V90.8c0-.5.4-.9.9-.9z"
     id="path366" />
  <path
     fill="#868580"
     d="M307.2 91.3h8.4c.5 0 .9.4.9.9v8.4c0 .5-.4.9-.9.9h-8.4c-.5 0-.9-.4-.9-.9v-8.4c-.1-.6.4-.9.9-.9z"
     id="path368" />
  <path
     fill="#60605D"
     d="M320.5 89.9h12.1c.5 0 .9.4.9.9v12.3c0 .5-.4.9-.9.9h-12.1c-.5 0-.9-.4-.9-.9V90.8c-.1-.5.4-.9.9-.9z"
     id="path370" />
  <path
     fill="#868580"
     d="M322.3 91.3h8.4c.5 0 .9.4.9.9v8.4c0 .5-.4.9-.9.9h-8.4c-.5 0-.9-.4-.9-.9v-8.4c0-.6.4-.9.9-.9z"
     id="path372" />
  <path
     fill="#60605D"
     d="M335.5 89.9h12.1c.5 0 .9.4.9.9v12.3c0 .5-.4.9-.9.9h-12.1c-.5 0-.9-.4-.9-.9V90.8c.1-.5.5-.9.9-.9z"
     id="path374" />
  <path
     fill="#868580"
     d="M337.4 91.3h8.4c.5 0 .9.4.9.9v8.4c0 .5-.4.9-.9.9h-8.4c-.5 0-.9-.4-.9-.9v-8.4c0-.6.4-.9.9-.9z"
     id="path376" />
  <path
     fill="#60605D"
     d="M350.7 89.9h12.1c.5 0 .9.4.9.9v12.3c0 .5-.4.9-.9.9h-12.1c-.5 0-.9-.4-.9-.9V90.8c0-.5.4-.9.9-.9z"
     id="path378" />
  <path
     fill="#868580"
     d="M352.6 91.3h8.4c.5 0 .9.4.9.9v8.4c0 .5-.4.9-.9.9h-8.4c-.5 0-.9-.4-.9-.9v-8.4c0-.6.4-.9.9-.9z"
     id="path380" />
  <path
     fill="#60605D"
     d="M350.7 105h12.1c.5 0 .9.4.9.9v12.3c0 .5-.4.9-.9.9h-12.1c-.5 0-.9-.4-.9-.9v-12.3c0-.5.4-.9.9-.9z"
     id="path382" />
  <path
     fill="#868580"
     d="M352.6 106.4h8.4c.5 0 .9.4.9.9v8.4c0 .5-.4.9-.9.9h-8.4c-.5 0-.9-.4-.9-.9v-8.4c0-.5.4-.9.9-.9z"
     id="path384" />
  <path
     fill="#60605D"
     d="M350.7 119.9h12.1c.5 0 .9.4.9.9v12.3c0 .5-.4.9-.9.9h-12.1c-.5 0-.9-.4-.9-.9v-12.3c0-.4.4-.9.9-.9z"
     id="path386" />
  <path
     fill="#868580"
     d="M352.6 121.3h8.4c.5 0 .9.4.9.9v8.4c0 .5-.4.9-.9.9h-8.4c-.5 0-.9-.4-.9-.9v-8.4c0-.5.4-.9.9-.9z"
     id="path388" />
  <path
     fill="#60605D"
     d="M350.7 135.4h12.1c.5 0 .9.4.9.9v27.4c0 .5-.4.9-.9.9h-12.1c-.5 0-.9-.4-.9-.9v-27.4c0-.5.4-.9.9-.9z"
     id="path390" />
  <path
     fill="#868580"
     d="M352.6 136.8h8.4c.5 0 .9.4.9.9v23.4c0 .5-.4.9-.9.9h-8.4c-.5 0-.9-.4-.9-.9v-23.4c0-.5.4-.9.9-.9z"
     id="path392" />
  <path
     fill="#777878"
     d="M7.2 5.4h356.2c.1 0 .2.1.2.2v2.1c0 .1-.1.2-.2.2H7.2c-.1-.1-.2-.2-.2-.3V5.5s.1-.1.2-.1zm0 4.6h356.2c.1 0 .2.1.2.2v2.1c0 .1-.1.2-.2.2H7.2c-.1 0-.2-.1-.2-.2v-2.1c0-.1.1-.2.2-.2zm0 4.7h356.2c.1 0 .2.1.2.2V17c0 .1-.1.2-.2.2H7.2c-.1-.1-.2-.1-.2-.2v-2.1c0-.1.1-.2.2-.2zm0 4.7h356.2c.1 0 .2.1.2.2v2.1c0 .1-.1.2-.2.2H7.2c-.1 0-.2-.1-.2-.2v-2.1c0-.2.1-.2.2-.2zm0 4.7h356.2c.1 0 .2.1.2.2v2.1c0 .1-.1.2-.2.2H7.2c-.1 0-.2-.1-.2-.2v-2.1c0-.2.1-.2.2-.2zm0 4.6h356.2c.1 0 .2.1.2.2V31c0 .1-.1.2-.2.2H7.2c-.1 0-.2-.1-.2-.2v-2.1c0-.1.1-.2.2-.2zm0 4.7h356.2c.1 0 .2.1.2.2v2.1c0 .1-.1.2-.2.2H7.2c-.1 0-.2-.1-.2-.2v-2.1c0-.1.1-.2.2-.2z"
     id="path394" />
  <path
     fill="#EAEAEA"
     d="M11.5 57.4v-8.9c0-.3.2-.6.6-.6H50c.1 0 .2 0 .2.1-.1-.1-.2-.2-.4-.2H11.9c-.3 0-.6.2-.6.6v8.9c0 .2.1.4.4.6-.1-.2-.2-.4-.2-.5z"
     id="path396" />
  <path
     fill="#777878"
     d="M50.1 47.9c.1.1.1.2.1.3V57c0 .3-.2.6-.6.6H11.7c-.1 0-.2-.1-.3-.1.1.2.3.3.5.3h37.8c.3 0 .6-.2.6-.6v-8.9c.1-.1-.1-.3-.2-.4z"
     id="path398" />
  <path
     fill="#EC2127"
     d="M22.2 51.2l-1 .2-.2-1 1-.2.2 1z"
     id="path400" />
  <path
     fill="#0B0B0B"
     d="M19.9 52H19l-.7 2.5-1-2.5H16v.1h.6v3.6h.1v-3.4l1.2 3.4h.1l.3-1.1.8-2.5v3.6h1.2v-.1h-.4V52zm-5.4-.1h-.1l-.4.9-1.1 3h.1l.4-1.1h1.2l.4 1.1h1.2v-.1h-.4l-1.3-3.8zm-1 2.6l.6-1.6.6 1.6h-1.2zm15.9 1.1H29l-1.3-3.7h-.1l-.3.9-1 3h.1l.4-1.1H28l.4 1.1h1.1v-.2zm-2.7-1.1l.6-1.6.6 1.6h-1.2zm-4.8-2.4h.5V52h-1.3v3.6h-.4v.1h1.7v-.1h-.5v-3.5zm2.7 2.4h.6v.7c0 .2-.2.4-.4.4-.5.1-1-.1-1.1-.4-.2-.7-.1-1.6-.1-2.3 0-.5.4-.9.9-.9s.9.4 1 .9v.1h.2v-.7s-.1-.1-.1-.2c-.4-.2-.9-.4-1.5-.2-1 .2-1.7 1.4-1.2 2.7.2.8 1.2 1.5 2.3 1.1.5-.2.8-.6.8-1.2v-.1h-1.4v.1zm8.2 0l.9-1.2v1.2h-.9zm1.5 1.3l.1-.1h-.1c-.1 0-.1 0-.1-.1l-.2-.1v-.1l.1-2.7H34c-.3.3-.6.8-1 1.3s-.7.9-.9 1.3l-.2.2-.1.1c-.1 0-.1.1-.1.1h-.1l-.1.1h1.1l.1-.1c-.1 0-.2 0-.2-.1-.1 0-.1-.1-.1-.1s0-.1.1-.1c0-.1.1-.1.1-.1.1-.1.1-.1.1-.2.1-.1.1-.2.2-.2h.9v.7c0 .1 0 .1-.1.1l-.1.1h-.2l-.1.1 1-.1zm4.5-2.9c-.1.1-.2.2-.4.2-.1.1-.3.1-.5.1h-.1l-.1.2h.6l-.7 1.9c0 .1-.1.1-.1.2l-.1.1c-.1 0-.1 0-.2.1H37l-.1.1h1.6l.1-.2h-.2c-.1 0-.1-.1-.2-.1H38v-.2l.6-1.6c0-.1.1-.2.1-.4.1-.2.1-.3.2-.4h-.1zm2.8.1c-.1-.1-.4-.2-.6-.2-.2 0-.3 0-.5.1-.1.1-.3.1-.4.2l-.3.3c-.1.1-.1.2-.1.3v.2c0 .1.1.1.2.1s.2-.1.3-.1c.1-.1.1-.2.1-.4v-.2l.2-.2c.1-.1.2-.1.4-.1.1 0 .2.1.3.1.1.1.1.2.1.4 0 .1-.1.3-.1.4l-.3.3c-.1.1-.2.1-.3.2-.1.1-.2.1-.4.2-.1.1-.2.1-.3.1-.1.1-.2.1-.3.2-.1.1-.2.1-.2.2l-.4.3-.1.4h2.2l.2-.4h-1.9c.1-.1.2-.2.4-.2.1-.1.3-.1.4-.2.2-.1.4-.1.5-.2.1-.1.3-.1.4-.2.2-.1.3-.2.4-.3.1-.1.2-.3.2-.5.1-.4.1-.6-.1-.8zm3 .2c-.1-.2-.4-.3-.7-.3-.2 0-.4.1-.7.1-.2.1-.4.2-.6.4-.2.2-.3.4-.4.6-.1.2-.2.5-.2.7-.1.3 0 .6.1.7.1.2.4.3.7.3.2 0 .5-.1.7-.2.2-.1.4-.2.6-.4s.3-.4.4-.6c.1-.2.2-.5.2-.7.1-.2.1-.4-.1-.6zm-.5 1.2l-.3.6c-.1.2-.3.4-.4.5s-.3.2-.5.2-.3-.1-.4-.2c-.1-.1-.1-.3-.1-.6 0-.2.1-.4.2-.6l.3-.6c.1-.2.2-.4.4-.5s.3-.2.5-.2.3.1.4.2c.1.1.1.3.1.6-.1.2-.1.4-.2.6zm3.5-1.2c-.1-.2-.4-.3-.7-.3-.2 0-.4.1-.7.1-.2.1-.4.2-.6.4-.2.2-.3.4-.4.6-.1.2-.2.5-.2.7-.1.3 0 .6.1.7.1.2.4.3.7.3.2 0 .5-.1.7-.2.2-.1.4-.2.6-.4.2-.2.3-.4.4-.6.1-.2.2-.5.2-.7 0-.2 0-.4-.1-.6zm-.5 1.2l-.3.6c-.1.2-.3.4-.4.5-.1.1-.3.2-.5.2s-.3-.1-.4-.2c-.1-.1-.1-.3-.1-.6 0-.2.1-.4.2-.6l.3-.6c.1-.2.2-.4.4-.5s.3-.2.5-.2.3.1.4.2c.1.1.1.3.1.6-.1.2-.1.4-.2.6z"
     id="path402" />
  <path
     fill="#525056"
     d="M341.7 65.4h11.1c.1 0 .1.1.1.1V67c0 .1-.1.1-.1.1h-11.1c-.1 0-.1-.1-.1-.1v-1.5s0-.1.1-.1zm0 6.5h11.1c.1 0 .1.1.1.1v1.5c0 .1-.1.1-.1.1h-11.1c-.1 0-.1-.1-.1-.1V72c0-.1 0-.1.1-.1z"
     id="path404" />
  <path
     fill="#B9D432"
     d="M341.7 78.3h11.1c.1 0 .1.1.1.1v1.5c0 .1-.1.1-.1.1h-11.1c-.1 0-.1-.1-.1-.1v-1.5s0-.1.1-.1z"
     id="path406" />
  <path
     fill="#E6E414"
     d="M351.5 79.6H343c-.2 0-.4-.2-.4-.4V79c0-.2.2-.4.4-.4h8.5c.2 0 .4.2.4.4v.2c0 .3-.2.4-.4.4z"
     id="path408" />
  <path
     fill="#777878"
     d="M253.8 74.6l4-5v-.7l-4.6 5.7m7.4-9.7v13.3c0 .5.1.9.4 1.1.1.1.2.2.5.3-.1 0-.1-.1-.1-.1-.2-.2-.3-.6-.4-1.1V65l-.4-.1zm-9.1 15v.2h-4.1l-.1.2h4.6V80c-.2-.1-.3-.1-.4-.1zm6.2-4.7h-5l-.9 1.2-1.1 1.2c-.2.2-.3.6-.4.7-.1.2-.1.4-.1.5 0 .2.1.4.3.5.1.1.2.1.3.1-.2-.1-.2-.3-.2-.4 0-.2 0-.4.1-.5.1-.2.2-.5.4-.7l1.1-1.2.9-1.2h4.7l-.1-.2zm4.3 4.6l-.1.2h-6.2l-.1.2h6.6l.1-.4c-.1.1-.2.1-.3 0zm7-11.9l-.1-1.1-2.6 10.5c-.1.4-.1.7-.1 1.1 0 .4.2.7.4.9l.4.2c-.2-.2-.4-.5-.4-.9 0-.2.1-.6.1-1.1l2.3-9.6zm4.3 8l.2-.4-1.5-10.2h-.4m13.6 0l-.1.2c-.7 0-1.3.1-1.7.5-.4.3-.7.9-.9 1.9l-2.4 9.7c-.1.6-.2 1.1-.2 1.4 0 .2.1.5.4.7.1.1.2.1.3.1-.2-.2-.2-.4-.3-.6 0-.3.1-.7.2-1.4l2.4-9.7c.2-.9.6-1.6.9-1.9.4-.3.9-.4 1.7-.4l.1-.4-.4-.1zm-3.6 14.8h-7.2l-.1.2h7.6l.1-.4h-.4v.2zM279.7 67l-8.6 13.1h-.1v.2h.5l7.9-12.1m-11.7 11.9h-4.6l-.1.2h5l.1-.4c-.1 0-.2 0-.4-.1v.3z"
     id="path410" />
  <path
     fill="none"
     d="M287 65.4l-.1.2"
     id="path412" />
  <path
     fill="#777878"
     d="M290.8 80.1h-7.1l-.1.2h7.5l.1-.4h-.4v.2zm3.4-14.8l-.1.2c-.7 0-1.2.1-1.5.4-.4.3-.6.9-.9 1.9l-2.4 9.7c-.2.7-.2 1.1-.2 1.4s.1.5.3.6c.1.1.2.1.3.1-.2-.1-.2-.3-.2-.6 0-.2.1-.7.2-1.4l2.4-9.7c.2-.9.5-1.6.9-1.9s.9-.4 1.5-.4l.1-.4-.4.1z"
     id="path414" />
  <g
     fill="#777878"
     id="g420">
    <path
       d="M308.3 65.4l-.7 4.1h-.1v.2h.4l.7-4.1s0-.4-.1-.6-.2-.1-.2-.1h-.1c0 .2.1.5.1.5zM298 78.5c.4.4.7.7 1.2.9-.2-.2-.6-.4-.8-.7-.7-.8-1.1-1.9-1.2-3.4-.1-1.7.4-3.4 1.1-4.9s2-2.7 3.1-3.5c1.1-.7 2.4-1.2 3.5-1.2.4 0 .7.1.9.1-.3-.2-.7-.4-1.3-.4-1.1 0-2.4.4-3.5 1.2s-2.4 1.9-3.1 3.5-1.1 3.2-1.1 4.9c.1 1.6.5 2.7 1.2 3.5z"
       id="path416" />
    <path
       d="M308.2 73.1c-.4 0-.7.1-.9.2-.2.1-.4.3-.5.6-.1.1-.2.5-.3 1.1l-1.1 4.5c-1.6.6-3.2 1-5 1-1.4 0-2.5-.2-3.5-.7.1.1.2.1.3.2 1 .5 2.2.7 3.6.7 1.8 0 3.5-.3 5-1l1.1-4.5c.1-.6.2-1 .3-1.1.1-.2.3-.4.5-.6.2-.1.5-.2.9-.2l.1-.4h-.4l-.1.2z"
       id="path418" />
  </g>
  <path
     fill="#777878"
     d="M310.6 79.9v.2h-4.1l-.1.2h4.6V80c-.2-.1-.3-.1-.4-.1zm9.1-15v13.3c0 .5.1.9.4 1.1.1.1.2.2.5.3-.1 0-.1-.1-.1-.1-.2-.2-.3-.6-.4-1.1V65l-.4-.1zm-6.8 9.7l4.4-5.4v-.7l-4.9 6.1m4.4.6h-5l-.9 1.2-1.1 1.2c-.2.2-.3.6-.4.7-.1.2-.1.4-.1.5 0 .2.1.4.3.5.1.1.2.1.3.1-.2-.1-.2-.3-.2-.4 0-.2 0-.4.1-.5.1-.2.2-.5.4-.7l1.1-1.2.9-1.2h4.7l-.1-.2zm4.3 4.6l-.1.2h-6.2l-.1.2h6.6l.1-.4c-.1.1-.2.1-.3 0z"
     id="path422" />
  <g
     fill="#E8E8E8"
     id="g432">
    <path
       d="M247.7 80.2c.4-.1.7-.2 1.1-.4.4-.3 1-.9 1.7-1.9l10.3-12.7h.1V65h-.5l-10.3 12.7c-.7.9-1.3 1.6-1.7 1.9-.3.2-.7.4-1.1.4l-.1.4h.4l.1-.2zm10.4-11.1l-.4.5-.1 5h-3.9l-.1.2h4.4m-1.9 5.4c.6-.1 1-.1 1.1-.2.2-.1.4-.3.6-.7.2-.3.2-.9.2-1.7v-2.2h-.4v2c0 .8-.1 1.4-.2 1.7-.2.3-.3.6-.6.7-.1.1-.5.1-1.1.2l-.1.4h.4l.1-.2zm10.7-14.8h5.1v-.2h-5.4l-.1.4h.4v-.2zm8 14.8c.8 0 1.4-.1 1.8-.5.4-.3.7-.9.9-1.9l2.6-10.6-.7 1-2.3 9.3c-.2.9-.6 1.6-.9 1.9s-1 .5-1.8.5l-.1.4h.4l.1-.1z"
       id="path424" />
    <path
       d="M273.6 76l7-10.6h4.9l.1-.2h-5.4l-6.7 10.2m-4.2-8.3l-.2.8 1.8 12.4h.3m-7.7-.1c.6 0 1.1-.1 1.4-.4.6-.4.9-1.1 1.2-1.9l2.9-11.2c-.3-.3-.6-.6-.9-.7.2.1.3.2.5.4l-2.9 11.2c-.2.9-.6 1.5-1.2 1.9-.3.2-.7.4-1.4.4l-.1.4h.4v-.1zm24-14.8h7l.1-.2h-7.4l-.1.4c.1 0 .3 0 .4.1v-.3zm-3.4 14.8c.7 0 1.3-.1 1.6-.4s.6-.9.9-1.9l2.4-9.7c.1-.6.2-1.1.2-1.4 0-.2-.1-.5-.3-.6-.1-.1-.2-.1-.2-.1.1.1.2.3.2.6s-.1.7-.2 1.4l-2.4 9.7c-.2 1-.6 1.6-.9 1.9-.3.3-.9.4-1.6.4l-.1.4h.4v-.3zm17.8-6.9h.4l.1-.2h6.1l.1-.2H302l-.1.4zm-2.4 6.3c.6.4 1.1.5 1.7.5.4 0 .9-.1 1.4-.3l1-4c.2-.7.2-1.1.2-1.3 0-.2-.1-.5-.4-.7-.1-.1-.2-.1-.3-.1.2.2.3.4.3.6 0 .2-.1.6-.2 1.3l-1 4c-.6.2-1.1.3-1.4.3-.4 0-.9-.1-1.3-.3z"
       id="path426" />
    <path
       d="M295 77.9c-.7-1.1-1.1-2.2-1.1-3.6-.1-2.9 1.1-5.2 3.6-7 1.9-1.4 4.1-2.1 6.7-2.2.2 0 .9-.1 1.7-.1.7 0 1.6 0 2.7.1 0 0 0-.1-.1-.1-.1-.1-.2-.1-.2-.1-1.2-.1-2.1-.1-2.8-.1-.9 0-1.5.1-1.7.1-2.5.1-4.7.8-6.7 2.2-2.5 1.9-3.7 4.2-3.6 7 .1 1.3.4 2.5 1.1 3.6s1.5 1.8 2.5 2.3h.1c-.9-.5-1.6-1.2-2.2-2.1z"
       id="path428" />
    <path
       d="M307.6 69.8h.4c-.1-1.3-.2-2.2-.7-2.8-.4-.4-.6-.6-1-.8.2.1.4.4.6.6.5.5.5 1.5.7 3zm7.7 10.4c.6-.1 1-.1 1.1-.2.2-.1.4-.3.6-.7.2-.3.2-.9.2-1.7v-2.1h-.4v1.9c0 .8-.1 1.4-.2 1.7-.2.3-.3.6-.6.7-.1.1-.5.1-1.1.2l-.1.4h.4l.1-.2zm-8.4 0c.4-.1.7-.2 1.1-.4.4-.3 1-.9 1.7-1.9L320 65.1h.1V65h-.5l-10.3 12.7c-.7.9-1.3 1.6-1.7 1.9-.3.2-.7.4-1.1.4l-.1.4h.4l.1-.2zm10.4-11.1l-.4.4-.1 5H313l-.2.2h4.4"
       id="path430" />
  </g>
  <path
     fill="#3B3B3B"
     d="M491.6 178.4h4.9v3.2h-4.9v-3.2zm-78.1-80l-.5.5-.2.6.1 87.5.2.4.4.3 85.2.1.6-.3.3-.5-.1-78.1h-.6v-3.6l.5.1v-1.2l-6.6-5.8-1.3-.1-.4.4h-7l-.6.6H435.3v-.4l-11.5-.1v-.4h-10.3z"
     id="path434" />
  <path
     fill="none"
     stroke="#424242"
     stroke-width=".489"
     stroke-linecap="round"
     stroke-linejoin="round"
     stroke-miterlimit="10"
     d="M412.9 99.5l.1 87.5.2.4.4.3 85.2.1.6-.3.3-.5-.1-78.1h-.6v-3.6l.5.1v-1.2l-6.6-5.8-1.3-.1-.4.4h-7l-.6.6H435.4V99l-11.5-.1v-.4l-10.3-.1-.5.5-.2.6z"
     id="path436" />
  <path
     fill="none"
     stroke="#858586"
     stroke-width=".326"
     stroke-linecap="round"
     stroke-linejoin="round"
     stroke-miterlimit="10"
     d="M423.9 98.7v28.7l.2.4.3.1H437"
     id="path438" />
  <path
     fill="#292929"
     d="M415.7 181.6h4.9v-3.2h-4.9v3.2z"
     id="path440" />
  <path
     fill="#FFF"
     d="M489.1 185.6v-47.7l-.5-.6-64.8.1-.6.4v47.8h65.9z"
     id="path442" />
  <path
     fill="#B2B2B2"
     d="M462.1 103.1h12.5v23.5h-12.5v-23.5zm-26.8-4.8v29.2l.8.6H481l.7-.8v-29h-46.4z"
     id="path444" />
  <defs
     id="defs447">
    <path
       id="a"
       d="M451.4 159.3l-.3-.5h.1l.2.5c0 .1 0 .1 0 0z" />
  </defs>
  <clipPath
     id="b">
    <use
       xlink:href="#a"
       overflow="visible"
       id="use449" />
  </clipPath>
  <g
     clip-path="url(#b)"
     id="g454">
    <path
       fill="#767273"
       d="M451.1 158.9l.3.5h-.1l-.2-.5c0-.1 0 0 0 0"
       id="path452" />
  </g>
  <path
     fill="#787575"
     d="M451.7 159l.4.5-.6-.1-.4-.5z"
     id="path456" />
  <defs
     id="defs459">
    <path
       id="c"
       d="M452 159.2l.3.5-.2-.2-.3-.5.2.2z" />
  </defs>
  <clipPath
     id="d">
    <use
       xlink:href="#c"
       overflow="visible"
       id="use461" />
  </clipPath>
  <g
     clip-path="url(#d)"
     id="g466">
    <path
       fill="#767273"
       d="M452 159.2l.3.5-.2-.2-.3-.5.2.2"
       id="path464" />
  </g>
  <defs
     id="defs469">
    <path
       id="e"
       d="M452.5 160.6l.3.5-.1-.1s-.1 0-.1.1l-.3-.5c0-.1.1-.1.1-.1 0 .1.1.1.1.1z" />
  </defs>
  <clipPath
     id="f">
    <use
       xlink:href="#e"
       overflow="visible"
       id="use471" />
  </clipPath>
  <g
     clip-path="url(#f)"
     id="g476">
    <path
       fill="#767273"
       d="M452.5 160.6l.3.5-.1-.1s-.1 0-.1.1l-.3-.5c0-.1.1-.1.1-.1 0 .1.1.1.1.1"
       id="path474" />
  </g>
  <path
     fill="#787475"
     d="M452.3 160.7l.3.5-1.5 4.6-.3-.5z"
     id="path478" />
  <defs
     id="defs481">
    <path
       id="g"
       d="M458.3 160.5l.3.5h-.1s-.1 0-.1.1l-.3-.5c0-.1.1-.2.2-.1-.1-.1 0-.1 0 0z" />
  </defs>
  <clipPath
     id="h">
    <use
       xlink:href="#g"
       overflow="visible"
       id="use483" />
  </clipPath>
  <g
     clip-path="url(#h)"
     id="g488">
    <path
       fill="#767273"
       d="M458.3 160.5l.3.5h-.1s-.1 0-.1.1l-.3-.5c0-.1.1-.2.2-.1-.1-.1 0-.1 0 0"
       id="path486" />
  </g>
  <defs
     id="defs491">
    <path
       id="i"
       d="M449.1 167.6c-.1-.2-.2-.3-.3-.5h.1l.2.5c.1.1 0 0 0 0z" />
  </defs>
  <clipPath
     id="j">
    <use
       xlink:href="#i"
       overflow="visible"
       id="use493" />
  </clipPath>
  <g
     clip-path="url(#j)"
     id="g498">
    <path
       fill="#767273"
       d="M448.9 167.1l.3.5h-.1l-.2-.5c-.1 0-.1 0 0 0"
       id="path496" />
  </g>
  <defs
     id="defs501">
    <path
       id="k"
       d="M461.7 158.7c.1.2.2.3.3.5 0 0 0 .1-.2.1-.4.1-.7.1-.9.6l-.3-.5c.1-.5.5-.5.9-.6.2 0 .2-.1.2-.1z" />
  </defs>
  <clipPath
     id="l">
    <use
       xlink:href="#k"
       overflow="visible"
       id="use503" />
  </clipPath>
  <g
     clip-path="url(#l)"
     id="g508">
    <path
       fill="#767273"
       d="M461.7 158.7l.3.5s0 .1-.2.1c-.4.1-.7.1-.9.6l-.3-.5c.1-.5.5-.5.9-.6.2 0 .2-.1.2-.1"
       id="path506" />
  </g>
  <defs
     id="defs511">
    <path
       id="m"
       d="M451.2 166.9c-.1-.2-.2-.3-.3-.5v-.1c-.1-.2-.1-.6 0-.9l.3.5c-.2.3-.2.6 0 1 0-.1 0-.1 0 0z" />
  </defs>
  <clipPath
     id="n">
    <use
       xlink:href="#m"
       overflow="visible"
       id="use513" />
  </clipPath>
  <g
     clip-path="url(#n)"
     id="g518">
    <path
       fill="#767273"
       d="M450.8 165.3l.3.5c-.1.4-.1.7 0 .9v.1l-.3-.5v-.1c-.1-.2-.1-.5 0-.9"
       id="path516" />
  </g>
  <g
     id="g522">
    <path
       fill="#787475"
       d="M450.2 167.1l.3.5-1.3.1-.3-.6z"
       id="path520" />
  </g>
  <g
     id="g526">
    <path
       fill="#787575"
       d="M454.5 158.7l.4.5.3 5.4-.3-.5z"
       id="path524" />
  </g>
  <g
     id="g530">
    <path
       fill="#787575"
       d="M451.7 167.1l.4.6-1.6-.1-.3-.5z"
       id="path528" />
  </g>
  <g
     id="g542">
    <defs
       id="defs533">
      <path
         id="o"
         d="M451.9 167c.1.2.2.3.3.5 0 .1 0 .1-.1.2l-.3-.5c.1-.1.1-.1.1-.2z" />
    </defs>
    <clipPath
       id="p">
      <use
         xlink:href="#o"
         overflow="visible"
         id="use535" />
    </clipPath>
    <g
       clip-path="url(#p)"
       id="g540">
      <path
         fill="#767273"
         d="M451.9 167l.3.5c0 .1 0 .1-.1.2l-.3-.5c.1-.1.1-.1.1-.2"
         id="path538" />
    </g>
  </g>
  <g
     id="g546">
    <path
       fill="#787475"
       d="M458.1 160.5l.4.5-4.4 6.3-.3-.5z"
       id="path544" />
  </g>
  <g
     id="g558">
    <defs
       id="defs549">
      <path
         id="q"
         d="M453.4 167.5l-.3-.5c.1.1.2.1.2.1.2 0 .4-.1.5-.3l.3.5c-.1.2-.3.3-.5.3 0 0-.1 0-.2-.1z" />
    </defs>
    <clipPath
       id="r">
      <use
         xlink:href="#q"
         overflow="visible"
         id="use551" />
    </clipPath>
    <g
       clip-path="url(#r)"
       id="g556">
      <path
         fill="#767273"
         d="M453.8 166.8l.3.5c-.1.2-.3.3-.5.3-.1 0-.2 0-.2-.1l-.3-.5c.1.1.2.1.2.1.2 0 .4-.1.5-.3"
         id="path554" />
    </g>
  </g>
  <g
     id="g570">
    <defs
       id="defs561">
      <path
         id="s"
         d="M455.9 167.6l-.3-.5h.1l.3.5c-.1.1-.1.1-.1 0z" />
    </defs>
    <clipPath
       id="t">
      <use
         xlink:href="#s"
         overflow="visible"
         id="use563" />
    </clipPath>
    <g
       clip-path="url(#t)"
       id="g568">
      <path
         fill="#767273"
         d="M455.6 167.2l.3.5h-.1l-.3-.5c0-.1.1 0 .1 0"
         id="path566" />
    </g>
  </g>
  <g
     id="g574">
    <path
       fill="#787475"
       d="M460.6 159.4l.4.5-1.6 6.4-.4-.5z"
       id="path572" />
  </g>
  <g
     id="g578">
    <path
       fill="#787475"
       d="M458 167.1l.3.5-2.3.1-.4-.5z"
       id="path576" />
  </g>
  <g
     id="g590">
    <defs
       id="defs581">
      <path
         id="u"
         d="M459.5 167l-.3-.5c-.1-.2-.2-.4-.1-.7l.3.5c-.1.2 0 .5.1.7z" />
    </defs>
    <clipPath
       id="v">
      <use
         xlink:href="#u"
         overflow="visible"
         id="use583" />
    </clipPath>
    <g
       clip-path="url(#v)"
       id="g588">
      <path
         fill="#767273"
         d="M459 165.8l.3.5c-.1.3 0 .5.1.7l-.3-.5c-.1-.2-.1-.5-.1-.7"
         id="path586" />
    </g>
  </g>
  <g
     id="g594">
    <path
       fill="#787575"
       d="M459.9 167.1l.3.6-1.9-.1-.3-.5z"
       id="path592" />
  </g>
  <g
     id="g606">
    <defs
       id="defs597">
      <path
         id="w"
         d="M460 167c.1.2.2.3.3.5 0 .1 0 .1-.1.1l-.3-.5c.1 0 .1 0 .1-.1z" />
    </defs>
    <clipPath
       id="x">
      <use
         xlink:href="#w"
         overflow="visible"
         id="use599" />
    </clipPath>
    <g
       clip-path="url(#x)"
       id="g604">
      <path
         fill="#767273"
         d="M460 167l.3.5c0 .1 0 .1-.1.1l-.3-.5c.1 0 .1 0 .1-.1"
         id="path602" />
    </g>
  </g>
  <g
     id="g610">
    <path
       fill="#242021"
       d="M458.6 158.6h2.9c.1 0 .5.1 0 .2-.4.1-.7.1-.9.6l-1.6 6.3c-.1.6.3 1.1.9 1.2.1 0 .1.2 0 .2l-1.9-.1-2.3.1c-.2 0-.2-.2 0-.2.5-.1 1-.5 1.1-.9l1.5-5.5c0-.1 0-.1-.1-.1 0 0-.1 0-.1.1l-4.3 6.3c-.1.2-.3.3-.5.3s-.3-.1-.4-.5l-.4-5.9c0-.1-.1-.1-.1-.1s-.1 0-.1.1l-1.5 4.6c-.1.4-.1.7 0 .9.1.3.5.6.9.7.2 0 .2.2 0 .2l-1.6-.1h-1.3c-.2 0-.1-.2 0-.2.5-.1 1-.6 1.2-1.2l1.9-6.2c.1-.2 0-.5-.3-.6l-.6-.1c-.1 0-.1-.2 0-.2h3.4l.3 5.4.3-.3 3.3-4.8c.1.1.2-.1.3-.2z"
       id="path608" />
  </g>
  <g
     id="g692">
    <defs
       id="defs613">
      <path
         id="y"
         d="M463.3 159.3l-.3-.5.3.5c0 .1 0 0 0 0z" />
    </defs>
    <clipPath
       id="z">
      <use
         xlink:href="#y"
         overflow="visible"
         id="use615" />
    </clipPath>
    <g
       clip-path="url(#z)"
       id="g620">
      <path
         fill="#767273"
         d="M463 158.8l.3.5-.3-.5"
         id="path618" />
    </g>
    <defs
       id="defs623">
      <path
         id="A"
         d="M463.7 159.2l.3.5c-.1-.2-.4-.3-.7-.4l-.3-.5c.3.1.6.2.7.4z" />
    </defs>
    <clipPath
       id="B">
      <use
         xlink:href="#A"
         overflow="visible"
         id="use625" />
    </clipPath>
    <g
       clip-path="url(#B)"
       id="g630">
      <path
         fill="#767273"
         d="M463.7 159.2l.3.5c-.1-.2-.4-.3-.7-.4l-.3-.5c.3.1.6.2.7.4"
         id="path628" />
    </g>
    <defs
       id="defs633">
      <path
         id="C"
         d="M467.1 158.7l.3.5c.1.1 0 .3-.2.3-.4 0-.8.3-.9.7l-.3-.5c.1-.3.5-.6.9-.7.2 0 .2-.2.2-.3z" />
    </defs>
    <clipPath
       id="D">
      <use
         xlink:href="#C"
         overflow="visible"
         id="use635" />
    </clipPath>
    <g
       clip-path="url(#D)"
       id="g640">
      <path
         fill="#767273"
         d="M467.1 158.7l.3.5c.1.1 0 .3-.2.3-.4 0-.8.3-.9.7l-.3-.5c.1-.3.5-.6.9-.7.2 0 .2-.2.2-.3"
         id="path638" />
    </g>
    <defs
       id="defs643">
      <path
         id="E"
         d="M460.6 167.6l-.3-.5h.1l.2.5z" />
    </defs>
    <clipPath
       id="F">
      <use
         xlink:href="#E"
         overflow="visible"
         id="use645" />
    </clipPath>
    <g
       clip-path="url(#F)"
       id="g650">
      <path
         fill="#767273"
         d="M460.3 167.1l.3.5h-.1l-.2-.5"
         id="path648" />
    </g>
    <g
       id="g654">
      <path
         fill="#787475"
         d="M465.9 159.6l.4.6-1.9 6.3-.3-.5z"
         id="path652" />
    </g>
    <g
       id="g658">
      <path
         fill="#787475"
         d="M462.6 167l.3.6h-2.2l-.4-.5z"
         id="path656" />
    </g>
    <g
       id="g670">
      <defs
         id="defs661">
        <path
           id="G"
           d="M464.6 167.1l-.3-.5c-.1-.2-.2-.4-.1-.6l.3.5c-.1.2-.1.4.1.6z" />
      </defs>
      <clipPath
         id="H">
        <use
           xlink:href="#G"
           overflow="visible"
           id="use663" />
      </clipPath>
      <g
         clip-path="url(#H)"
         id="g668">
        <path
           fill="#767273"
           d="M464.1 166l.3.5c0 .2 0 .4.1.6l-.3-.5c-.1-.2-.2-.4-.1-.6"
           id="path666" />
      </g>
    </g>
    <g
       id="g674">
      <path
         fill="#787575"
         d="M464.9 167.1l.3.6-2.3-.1-.3-.6z"
         id="path672" />
    </g>
    <g
       id="g686">
      <defs
         id="defs677">
        <path
           id="I"
           d="M464.9 167c.1.2.2.3.3.5 0 .1 0 .1-.1.1l-.3-.5c.2 0 .2 0 .1-.1z" />
      </defs>
      <clipPath
         id="J">
        <use
           xlink:href="#I"
           overflow="visible"
           id="use679" />
      </clipPath>
      <g
         clip-path="url(#J)"
         id="g684">
        <path
           fill="#767273"
           d="M464.9 167l.3.5c0 .1 0 .1-.1.1l-.3-.5c.2 0 .2 0 .1-.1"
           id="path682" />
      </g>
    </g>
    <g
       id="g690">
      <path
         fill="#242021"
         d="M463 158.6h3.9c.2 0 .3.3-.1.4-.4 0-.8.3-.9.7l-1.8 6.4c-.1.3.2.9.8 1 .1 0 .1.2 0 .2l-2.3-.1-2.2.1c-.1 0-.1-.2 0-.2.3-.1 1.2-.4 1.4-.9l2.1-6.4c.1-.5-.3-.7-.8-.8-.2-.2-.2-.4-.1-.4z"
         id="path688" />
    </g>
  </g>
  <g
     id="g834">
    <defs
       id="defs695">
      <path
         id="K"
         d="M447.1 158.5c.1.2.2.3.3.5 0 .1.1.1.1.2l-.3-.5c0-.1-.1-.2-.1-.2z" />
    </defs>
    <clipPath
       id="L">
      <use
         xlink:href="#K"
         overflow="visible"
         id="use697" />
    </clipPath>
    <g
       clip-path="url(#L)"
       id="g702">
      <path
         fill="#767273"
         d="M447.1 158.5l.3.5c0 .1.1.1.1.2l-.3-.5c0-.1-.1-.2-.1-.2"
         id="path700" />
    </g>
    <defs
       id="defs705">
      <path
         id="M"
         d="M445.3 160.6l.3.5h-.1l-.2-.5z" />
    </defs>
    <clipPath
       id="N">
      <use
         xlink:href="#M"
         overflow="visible"
         id="use707" />
    </clipPath>
    <g
       clip-path="url(#N)"
       id="g712">
      <path
         fill="#767273"
         d="M445.3 160.6l.3.5h-.1l-.2-.5"
         id="path710" />
    </g>
    <defs
       id="defs715">
      <path
         id="O"
         d="M445.2 160.6l.3.5c-.6.9-1.5 2-2.2 2.9l-.3-.5c.7-.8 1.6-1.9 2.2-2.9z" />
    </defs>
    <clipPath
       id="P">
      <use
         xlink:href="#O"
         overflow="visible"
         id="use717" />
    </clipPath>
    <g
       clip-path="url(#P)"
       id="g722">
      <path
         fill="#767273"
         d="M445.2 160.6l.3.5c-.6.9-1.5 2-2.2 2.9l-.3-.5c.7-.8 1.6-1.9 2.2-2.9"
         id="path720" />
    </g>
    <defs
       id="defs725">
      <path
         id="Q"
         d="M443.4 164.2l-.3-.5v-.1l.3.6c0-.1 0 0 0 0z" />
    </defs>
    <clipPath
       id="R">
      <use
         xlink:href="#Q"
         overflow="visible"
         id="use727" />
    </clipPath>
    <g
       clip-path="url(#R)"
       id="g732">
      <path
         fill="#767273"
         d="M443.1 163.6l.3.5v.1l-.3-.6"
         id="path730" />
    </g>
    <defs
       id="defs735">
      <path
         id="S"
         d="M439.5 167.6c-.1-.2-.2-.3-.3-.5h.1l.2.5c.1 0 0 0 0 0z" />
    </defs>
    <clipPath
       id="T">
      <use
         xlink:href="#S"
         overflow="visible"
         id="use737" />
    </clipPath>
    <g
       clip-path="url(#T)"
       id="g742">
      <path
         fill="#767273"
         d="M439.3 167.1l.3.5h-.1l-.2-.5c-.1 0-.1 0 0 0"
         id="path740" />
    </g>
    <path
       fill="#777474"
       d="M442.8 164.1l.4.5-1.2 1.7-.3-.6z"
       id="path744" />
    <g
       id="g748">
      <path
         fill="#787475"
         d="M440.5 166.9l.4.6-1.3.1-.3-.5z"
         id="path746" />
    </g>
    <g
       id="g760">
      <defs
         id="defs751">
        <path
           id="U"
           d="M442.1 166.9c-.1-.2-.2-.3-.3-.5-.1-.2-.2-.4 0-.6l.3.5c-.2.2-.2.4 0 .6z" />
      </defs>
      <clipPath
         id="V">
        <use
           xlink:href="#U"
           overflow="visible"
           id="use753" />
      </clipPath>
      <g
         clip-path="url(#V)"
         id="g758">
        <path
           fill="#767273"
           d="M441.7 165.7l.3.5c-.1.2-.1.4 0 .6l-.3-.5c-.1-.1-.1-.4 0-.6"
           id="path756" />
      </g>
    </g>
    <g
       id="g764">
      <path
         fill="#787475"
         d="M445.5 164.1l.3.5h-2.6l-.4-.5z"
         id="path762" />
    </g>
    <g
       id="g776">
      <defs
         id="defs767">
        <path
           id="W"
           d="M442.6 167.2l.3.5s-.3-.1-.9-.2c-.2 0-.5-.1-.8-.1h-.4l-.3-.5h.4c.4 0 .6 0 .8.1.6 0 .9.1.9.2z" />
      </defs>
      <clipPath
         id="X">
        <use
           xlink:href="#W"
           overflow="visible"
           id="use769" />
      </clipPath>
      <g
         clip-path="url(#X)"
         id="g774">
        <path
           fill="#767273"
           d="M442.6 167.2l.3.5s-.3-.1-.9-.2c-.2 0-.5-.1-.8-.1h-.4l-.3-.5h.4c.4 0 .6 0 .8.1.6 0 .9.1.9.2"
           id="path772" />
      </g>
    </g>
    <g
       id="g788">
      <defs
         id="defs779">
        <path
           id="Y"
           d="M442.7 167l.3.5c0 .1 0 .2-.1.2l-.3-.5c.1 0 .2-.2.1-.2z" />
      </defs>
      <clipPath
         id="Z">
        <use
           xlink:href="#Y"
           overflow="visible"
           id="use781" />
      </clipPath>
      <g
         clip-path="url(#Z)"
         id="g786">
        <path
           fill="#767273"
           d="M442.7 167l.3.5c0 .1 0 .2-.1.2l-.3-.5c.1 0 .2-.2.1-.2"
           id="path784" />
      </g>
    </g>
    <g
       id="g792">
      <path
         fill="#787575"
         d="M447.2 158.7l.3.5.2 7.3-.4-.5z"
         id="path790" />
    </g>
    <g
       id="g804">
      <defs
         id="defs795">
        <path
           id="aa"
           d="M447.8 167c-.1-.2-.2-.3-.3-.5-.1-.1-.1-.3-.2-.5l.3.5c.1.2.2.4.2.5z" />
      </defs>
      <clipPath
         id="ab">
        <use
           xlink:href="#aa"
           overflow="visible"
           id="use797" />
      </clipPath>
      <g
         clip-path="url(#ab)"
         id="g802">
        <path
           fill="#767273"
           d="M447.3 166l.3.5c0 .2.1.4.2.5l-.3-.5c-.1-.2-.2-.3-.2-.5"
           id="path800" />
      </g>
    </g>
    <g
       id="g816">
      <defs
         id="defs807">
        <path
           id="ac"
           d="M444.7 167.6l-.3-.5h.1c1.2-.1 1.1-.1 1.4-.1h1.1c.8.1 1.4.1 1.4.1l.3.5s-.7 0-1.4-.1h-1.1c-.3.1-.2.1-1.5.1.1 0 .1 0 0 0z" />
      </defs>
      <clipPath
         id="ad">
        <use
           xlink:href="#ac"
           overflow="visible"
           id="use809" />
      </clipPath>
      <g
         clip-path="url(#ad)"
         id="g814">
        <path
           fill="#767273"
           d="M448.3 167.1l.3.5s-.7 0-1.4-.1h-1.1c-.3 0-.2 0-1.4.1h-.1l-.3-.5h.1c1.2-.1 1.1-.1 1.4-.1h1.1c.7.1 1.4.1 1.4.1"
           id="path812" />
      </g>
    </g>
    <g
       id="g828">
      <defs
         id="defs819">
        <path
           id="ae"
           d="M448.3 167c.1.2.2.3.3.5v.1l-.3-.5s.1 0 0-.1z" />
      </defs>
      <clipPath
         id="af">
        <use
           xlink:href="#ae"
           overflow="visible"
           id="use821" />
      </clipPath>
      <g
         clip-path="url(#af)"
         id="g826">
        <path
           fill="#767273"
           d="M448.3 167l.3.5v.1l-.3-.5s.1 0 0-.1"
           id="path824" />
      </g>
    </g>
    <g
       id="g832">
      <path
         fill="#242021"
         d="M448.3 167c.1 0 0 .1 0 .2 0 0-.7 0-1.4-.1h-1.1c-.3 0-.2 0-1.4.1 0 0-.1 0-.1-.1s.1-.1.2-.1c.5-.1.7-.4.8-1 .1-.7.1-1.2.1-1.8h-2.6l-1.1 1.6c-.3.5.3 1.1 1 1.2.1.1.1.2 0 .2 0 0-.3-.1-.9-.2-.2 0-.5-.1-.8-.1h-.4l-1.3.2c-.1 0-.1-.2 0-.2.6-.1 1.4-.5 1.8-1.2l5.2-7.3c.1-.1.3-.2.4-.2.2 0 .4.1.4.4l.2 7.3c.1.7.5.9 1 1.1zm-3.6-3.3h.7l-.1-3s0-.1-.1-.1h-.1c-.6.9-1.5 2-2.2 2.9 0 .1 0 .1.1.1h.7c.5.1.7.1 1 .1"
         id="path830" />
    </g>
  </g>
  <g
     id="g942">
    <defs
       id="defs837">
      <path
         id="ag"
         d="M474.9 158.5c.1.2.2.3.3.5v.2l-.3-.5c.1-.1.1-.1 0-.2z" />
    </defs>
    <clipPath
       id="ah">
      <use
         xlink:href="#ag"
         overflow="visible"
         id="use839" />
    </clipPath>
    <g
       clip-path="url(#ah)"
       id="g844">
      <path
         fill="#767273"
         d="M474.9 158.5l.3.5v.2l-.3-.5c.1-.1.1-.1 0-.2"
         id="path842" />
    </g>
    <path
       fill="#787475"
       d="M474.9 158.7l.4.5-.6 1.5-.3-.6z"
       id="path846" />
    <defs
       id="defs849">
      <path
         id="ai"
         d="M474.4 160.8c-.1-.2-.2-.3-.3-.5 0 .1.1.1.1.1.1 0 .2-.1.2-.2l.3.5c0 .2-.1.2-.2.2 0 0-.1 0-.1-.1z" />
    </defs>
    <clipPath
       id="aj">
      <use
         xlink:href="#ai"
         overflow="visible"
         id="use851" />
    </clipPath>
    <g
       clip-path="url(#aj)"
       id="g856">
      <path
         fill="#767273"
         d="M474.4 160.1l.3.5c0 .2-.1.2-.2.2 0 0-.1 0-.1-.1l-.3-.5c0 .1.1.1.1.1 0 .1.1 0 .2-.2"
         id="path854" />
    </g>
    <defs
       id="defs859">
      <path
         id="ak"
         d="M470.9 163.8l-.3-.5s.1.1.2.1l.3.5c-.1 0-.2 0-.2-.1z" />
    </defs>
    <clipPath
       id="al">
      <use
         xlink:href="#ak"
         overflow="visible"
         id="use861" />
    </clipPath>
    <g
       clip-path="url(#al)"
       id="g866">
      <path
         fill="#767273"
         d="M470.8 163.4l.3.5c-.1 0-.2 0-.2-.1l-.3-.5s0 .1.2.1"
         id="path864" />
    </g>
    <defs
       id="defs869">
      <path
         id="am"
         d="M471.3 163.6l.3.5c-.1-.2-.3-.2-.5-.2l-.3-.5c.2 0 .4.1.5.2z" />
    </defs>
    <clipPath
       id="an">
      <use
         xlink:href="#am"
         overflow="visible"
         id="use871" />
    </clipPath>
    <g
       clip-path="url(#an)"
       id="g876">
      <path
         fill="#767273"
         d="M471.3 163.6l.3.5c-.1-.2-.3-.2-.5-.2l-.3-.5c.2 0 .4.1.5.2"
         id="path874" />
    </g>
    <g
       id="g888">
      <defs
         id="defs879">
        <path
           id="ao"
           d="M473.8 158.8c.1.2.2.3.3.5 0-.1-.1-.1-.2-.1h-.2c-.5 0-1.1.1-1.5.2-1.8.6-2.9 1.5-3.6 3.2-.7 1.5-.4 3.1 0 3.8l-.3-.5c-.5-.7-.7-2.3 0-3.8.7-1.7 1.9-2.6 3.6-3.2.5-.1 1-.2 1.5-.2h.2c.1 0 .1 0 .2.1z" />
      </defs>
      <clipPath
         id="ap">
        <use
           xlink:href="#ao"
           overflow="visible"
           id="use881" />
      </clipPath>
      <g
         clip-path="url(#ap)"
         id="g886">
        <path
           fill="#767273"
           d="M473.8 158.8l.3.5c0-.1-.1-.1-.2-.1h-.2c-.5 0-1.1.1-1.5.2-1.8.6-2.9 1.5-3.6 3.2-.7 1.5-.4 3.1 0 3.8l-.3-.5c-.5-.7-.7-2.3 0-3.8.7-1.7 1.9-2.6 3.6-3.2.5-.1 1-.2 1.5-.2h.2c.1 0 .1 0 .2.1"
           id="path884" />
      </g>
    </g>
    <g
       id="g900">
      <defs
         id="defs891">
        <path
           id="aq"
           d="M474.6 163.3l.3.5c-.6.1-.8.2-.9.4l-.3-.5c.1-.2.3-.3.9-.4z" />
      </defs>
      <clipPath
         id="ar">
        <use
           xlink:href="#aq"
           overflow="visible"
           id="use893" />
      </clipPath>
      <g
         clip-path="url(#ar)"
         id="g898">
        <path
           fill="#767273"
           d="M474.6 163.3l.3.5c-.6.1-.8.2-.9.4l-.3-.5c.1-.2.3-.3.9-.4"
           id="path896" />
      </g>
    </g>
    <g
       id="g912">
      <defs
         id="defs903">
        <path
           id="as"
           d="M474.7 163.2l.3.5s0 .1-.1.1l-.2-.6c0 .1 0 0 0 0z" />
      </defs>
      <clipPath
         id="at">
        <use
           xlink:href="#as"
           overflow="visible"
           id="use905" />
      </clipPath>
      <g
         clip-path="url(#at)"
         id="g910">
        <path
           fill="#767273"
           d="M474.7 163.2l.3.5s0 .1-.1.1l-.2-.6c0 .1 0 0 0 0"
           id="path908" />
      </g>
    </g>
    <g
       id="g924">
      <defs
         id="defs915">
        <path
           id="au"
           d="M466.5 166.1c-.1-.2-.2-.3-.3-.5.3.4.7.8 1.2 1.1.5.3 1.3.4 2 .4 1 0 2-.2 2.7-.4l.3.5c-.6.2-1.7.4-2.7.4-.8 0-1.6-.1-2-.4-.6-.3-.9-.7-1.2-1.1z" />
      </defs>
      <clipPath
         id="av">
        <use
           xlink:href="#au"
           overflow="visible"
           id="use917" />
      </clipPath>
      <g
         clip-path="url(#av)"
         id="g922">
        <path
           fill="#767273"
           d="M472 166.7l.3.5c-.6.2-1.7.4-2.7.4-.8 0-1.6-.1-2-.4-.5-.3-.9-.7-1.2-1.1l-.3-.5c.3.4.7.8 1.2 1.1.5.3 1.3.4 2 .4 1 0 2.1-.1 2.7-.4"
           id="path920" />
      </g>
    </g>
    <g
       id="g928">
      <path
         fill="#242021"
         d="M473.3 158.2c.4 0 .8 0 1.2.1.2 0 .5.2.5.4l-.6 1.5c0 .2-.1.2-.2.2s-.2-.2-.3-.6c0-.2 0-1.1-.3-1.1h-.2c-.5 0-1.1.1-1.5.2-1.8.6-2.9 1.5-3.6 3.2-.7 1.6-.4 3.3.1 3.9.3.4 1.2.7 1.8.7.4 0 .7-.1.8-.3.3-.8.5-1.8.5-2.3 0-.6-.2-.6-.6-.7-.3 0-.4-.2.2-.2h3.7c.1 0 .1.1 0 .1-.6.1-.8.2-.9.4-.2.8-.4 1.6-.8 2.4-.1.3-.7.6-.9.6-.6.2-1.7.4-2.7.4-.8 0-1.6-.1-2-.4-1.8-1.1-2.2-3.3-1.4-4.7.9-2 4.3-3.8 7.2-3.8z"
         id="path926" />
    </g>
    <g
       id="g940">
      <defs
         id="defs931">
        <path
           id="aw"
           d="M473.8 163.7l.3.5c-.2.8-.4 1.6-.8 2.4-.1.3-.7.6-.9.6l-.3-.5c.2-.1.8-.3.9-.6.3-.8.5-1.6.8-2.4z" />
      </defs>
      <clipPath
         id="ax">
        <use
           xlink:href="#aw"
           overflow="visible"
           id="use933" />
      </clipPath>
      <g
         clip-path="url(#ax)"
         id="g938">
        <path
           fill="#767273"
           d="M473.8 163.7l.3.5c-.2.8-.4 1.6-.8 2.4-.1.3-.7.6-.9.6l-.3-.5c.2-.1.8-.3.9-.6.3-.8.5-1.6.8-2.4"
           id="path936" />
      </g>
    </g>
  </g>
  <g
     id="g1084">
    <defs
       id="defs945">
      <path
         id="ay"
         d="M480.7 158.5l.3.5c0 .1.1.1.1.2l-.3-.5c-.1-.1-.1-.2-.1-.2z" />
    </defs>
    <clipPath
       id="az">
      <use
         xlink:href="#ay"
         overflow="visible"
         id="use947" />
    </clipPath>
    <g
       clip-path="url(#az)"
       id="g952">
      <path
         fill="#767273"
         d="M480.7 158.5l.3.5c0 .1.1.1.1.2l-.3-.5c-.1-.1-.1-.2-.1-.2"
         id="path950" />
    </g>
    <defs
       id="defs955">
      <path
         id="aA"
         d="M478.9 160.6l.3.5h-.1l-.2-.5c-.1 0-.1 0 0 0z" />
    </defs>
    <clipPath
       id="aB">
      <use
         xlink:href="#aA"
         overflow="visible"
         id="use957" />
    </clipPath>
    <g
       clip-path="url(#aB)"
       id="g962">
      <path
         fill="#767273"
         d="M478.9 160.6l.3.5h-.1l-.2-.5c-.1 0-.1 0 0 0"
         id="path960" />
    </g>
    <defs
       id="defs965">
      <path
         id="aC"
         d="M478.8 160.7l.3.5c-.6.9-1.5 2-2.2 2.9l-.3-.5c.7-.9 1.6-2 2.2-2.9z" />
    </defs>
    <clipPath
       id="aD">
      <use
         xlink:href="#aC"
         overflow="visible"
         id="use967" />
    </clipPath>
    <g
       clip-path="url(#aD)"
       id="g972">
      <path
         fill="#767273"
         d="M478.8 160.7l.3.5c-.6.9-1.5 2-2.2 2.9l-.3-.5c.7-.9 1.6-2 2.2-2.9"
         id="path970" />
    </g>
    <defs
       id="defs975">
      <path
         id="aE"
         d="M477 164.2l-.3-.5v-.1l.3.6z" />
    </defs>
    <clipPath
       id="aF">
      <use
         xlink:href="#aE"
         overflow="visible"
         id="use977" />
    </clipPath>
    <g
       clip-path="url(#aF)"
       id="g982">
      <path
         fill="#767273"
         d="M476.6 163.6l.3.5v.1l-.3-.6c0 .1 0 0 0 0"
         id="path980" />
    </g>
    <defs
       id="defs985">
      <path
         id="aG"
         d="M473.1 167.6l-.3-.5h.1l.2.5z" />
    </defs>
    <clipPath
       id="aH">
      <use
         xlink:href="#aG"
         overflow="visible"
         id="use987" />
    </clipPath>
    <g
       clip-path="url(#aH)"
       id="g992">
      <path
         fill="#767273"
         d="M472.8 167.1l.3.5h-.1l-.2-.5"
         id="path990" />
    </g>
    <path
       fill="#777474"
       d="M476.4 164.1l.4.5-1.2 1.7-.3-.6z"
       id="path994" />
    <g
       id="g998">
      <path
         fill="#787475"
         d="M474.1 166.9l.4.6-1.3.1-.4-.5z"
         id="path996" />
    </g>
    <g
       id="g1010">
      <defs
         id="defs1001">
        <path
           id="aI"
           d="M475.6 166.9c-.1-.2-.2-.3-.3-.5-.1-.2-.2-.4 0-.6l.3.5c-.1.2-.1.4 0 .6z" />
      </defs>
      <clipPath
         id="aJ">
        <use
           xlink:href="#aI"
           overflow="visible"
           id="use1003" />
      </clipPath>
      <g
         clip-path="url(#aJ)"
         id="g1008">
        <path
           fill="#767273"
           d="M475.3 165.7l.3.5c-.1.2-.1.4 0 .6l-.3-.5c-.2-.1-.2-.3 0-.6"
           id="path1006" />
      </g>
    </g>
    <g
       id="g1014">
      <path
         fill="#787475"
         d="M479 164.1l.4.6-2.6-.1-.4-.5z"
         id="path1012" />
    </g>
    <g
       id="g1026">
      <defs
         id="defs1017">
        <path
           id="aK"
           d="M476.2 167.2l.3.5s-.3-.1-.9-.2c-.2 0-.5-.1-.8-.1h-.4l-.3-.5h.4c.4 0 .6 0 .8.1.6 0 .9.2.9.2z" />
      </defs>
      <clipPath
         id="aL">
        <use
           xlink:href="#aK"
           overflow="visible"
           id="use1019" />
      </clipPath>
      <g
         clip-path="url(#aL)"
         id="g1024">
        <path
           fill="#767273"
           d="M476.2 167.2l.3.5s-.3-.1-.9-.2c-.2 0-.5-.1-.8-.1h-.4l-.3-.5h.4c.4 0 .6 0 .8.1.6 0 .9.2.9.2"
           id="path1022" />
      </g>
    </g>
    <g
       id="g1038">
      <defs
         id="defs1029">
        <path
           id="aM"
           d="M476.3 167c.1.2.2.3.3.5 0 .1 0 .2-.1.2l-.3-.5c.1 0 .1-.2.1-.2z" />
      </defs>
      <clipPath
         id="aN">
        <use
           xlink:href="#aM"
           overflow="visible"
           id="use1031" />
      </clipPath>
      <g
         clip-path="url(#aN)"
         id="g1036">
        <path
           fill="#767273"
           d="M476.3 167l.3.5c0 .1 0 .2-.1.2l-.3-.5c.1 0 .1-.2.1-.2"
           id="path1034" />
      </g>
    </g>
    <g
       id="g1042">
      <path
         fill="#787575"
         d="M480.7 158.7l.4.5.1 7.3-.3-.5z"
         id="path1040" />
    </g>
    <g
       id="g1054">
      <defs
         id="defs1045">
        <path
           id="aO"
           d="M481.4 167l-.3-.5c-.1-.1-.1-.3-.2-.5l.3.5c.1.2.1.4.2.5z" />
      </defs>
      <clipPath
         id="aP">
        <use
           xlink:href="#aO"
           overflow="visible"
           id="use1047" />
      </clipPath>
      <g
         clip-path="url(#aP)"
         id="g1052">
        <path
           fill="#767273"
           d="M480.9 166l.3.5c0 .2.1.4.2.5l-.3-.5c-.1-.2-.2-.3-.2-.5"
           id="path1050" />
      </g>
    </g>
    <g
       id="g1066">
      <defs
         id="defs1057">
        <path
           id="aQ"
           d="M478.3 167.6l-.3-.5h.1c1.2-.1 1.1-.1 1.4-.1h1c.8.1 1.4.1 1.4.1l.3.5s-.7 0-1.4-.1h-1c-.4.1-.2.1-1.5.1.1 0 0 0 0 0z" />
      </defs>
      <clipPath
         id="aR">
        <use
           xlink:href="#aQ"
           overflow="visible"
           id="use1059" />
      </clipPath>
      <g
         clip-path="url(#aR)"
         id="g1064">
        <path
           fill="#767273"
           d="M481.9 167.1l.3.5s-.7 0-1.4-.1h-1c-.3 0-.2 0-1.4.1h-.1l-.3-.5h.1c1.2-.1 1.1-.1 1.4-.1h1c.7.1 1.3.1 1.4.1"
           id="path1062" />
      </g>
    </g>
    <g
       id="g1078">
      <defs
         id="defs1069">
        <path
           id="aS"
           d="M481.9 167c.1.2.2.3.3.5v.1l-.3-.5v-.1z" />
      </defs>
      <clipPath
         id="aT">
        <use
           xlink:href="#aS"
           overflow="visible"
           id="use1071" />
      </clipPath>
      <g
         clip-path="url(#aT)"
         id="g1076">
        <path
           fill="#767273"
           d="M481.9 167l.3.5v.1l-.3-.5v-.1"
           id="path1074" />
      </g>
    </g>
    <g
       id="g1082">
      <path
         fill="#242021"
         d="M481.9 167c.1 0 0 .1 0 .2 0 0-.7 0-1.4-.1h-1c-.3 0-.2 0-1.4.1 0 0-.1 0-.1-.1s.1-.1.2-.1c.5-.1.7-.4.8-1 .1-.7.1-1.2.1-1.8h-2.6l-1.1 1.6c-.3.5.3 1.1 1 1.2.1.1.1.2 0 .2 0 0-.3-.1-.9-.2-.2 0-.5-.1-.8-.1h-.4l-1.3.2c-.1 0-.1-.2 0-.2.6-.1 1.4-.5 1.8-1.2l5.2-7.3c.1-.1.3-.2.4-.2.2 0 .4.1.4.4l.2 7.3c0 .7.4.9.9 1.1zm-3.6-3.3h.7l-.1-3s0-.1-.1-.1h-.1c-.6.9-1.5 2-2.2 2.9 0 .1 0 .1.1.1h.7c.4.1.7.1 1 .1"
         id="path1080" />
    </g>
  </g>
  <text
     transform="translate(482.974 167.584)"
     opacity=".78"
     fill="#231F20"
     font-family="'ArialMT'"
     font-size=".776"
     id="text1086">TM</text>
  <g
     id="g1174">
    <linearGradient
       id="aU"
       gradientUnits="userSpaceOnUse"
       x1="425.558"
       y1="912.611"
       x2="425.558"
       y2="906.018"
       gradientTransform="translate(8.4 -744.88)">
      <stop
         offset=".06"
         stop-color="#53b848"
         id="stop1088" />
      <stop
         offset=".555"
         stop-color="#65ccec"
         id="stop1090" />
      <stop
         offset=".583"
         stop-color="#61c3e7"
         id="stop1092" />
      <stop
         offset=".688"
         stop-color="#55a7d8"
         id="stop1094" />
      <stop
         offset=".793"
         stop-color="#4d92cd"
         id="stop1096" />
      <stop
         offset=".898"
         stop-color="#4886c6"
         id="stop1098" />
      <stop
         offset="1"
         stop-color="#4682c4"
         id="stop1100" />
    </linearGradient>
    <path
       fill="url(#aU)"
       stroke="#000"
       stroke-width=".032"
       d="M430.6 161.1h2.3l4.4 6.6H435z"
       id="path1103" />
    <linearGradient
       id="aV"
       gradientUnits="userSpaceOnUse"
       x1="426.739"
       y1="912.605"
       x2="437.205"
       y2="900.132"
       gradientTransform="translate(8.4 -744.88)">
      <stop
         offset="0"
         stop-color="#6ebe44"
         id="stop1105" />
      <stop
         offset=".001"
         stop-color="#6ebe44"
         id="stop1107" />
      <stop
         offset=".245"
         stop-color="#bcda20"
         id="stop1109" />
      <stop
         offset=".419"
         stop-color="#eceb09"
         id="stop1111" />
      <stop
         offset=".505"
         stop-color="#fff200"
         id="stop1113" />
      <stop
         offset=".578"
         stop-color="#fbca08"
         id="stop1115" />
      <stop
         offset=".679"
         stop-color="#f79a11"
         id="stop1117" />
      <stop
         offset=".775"
         stop-color="#f47419"
         id="stop1119" />
      <stop
         offset=".864"
         stop-color="#f1581f"
         id="stop1121" />
      <stop
         offset=".941"
         stop-color="#f04822"
         id="stop1123" />
      <stop
         offset="1"
         stop-color="#ef4223"
         id="stop1125" />
    </linearGradient>
    <path
       fill="url(#aV)"
       stroke="#000"
       stroke-width=".032"
       d="M443.3 155.3h2.4l-8.3 12.4h-2.3z"
       id="path1128" />
    <g
       id="g1172">
      <linearGradient
         id="aW"
         gradientUnits="userSpaceOnUse"
         x1="422.757"
         y1="912.611"
         x2="422.757"
         y2="906.018"
         gradientTransform="translate(8.4 -744.88)">
        <stop
           offset=".06"
           stop-color="#53b848"
           id="stop1130" />
        <stop
           offset=".555"
           stop-color="#65ccec"
           id="stop1132" />
        <stop
           offset=".583"
           stop-color="#61c3e7"
           id="stop1134" />
        <stop
           offset=".688"
           stop-color="#55a7d8"
           id="stop1136" />
        <stop
           offset=".793"
           stop-color="#4d92cd"
           id="stop1138" />
        <stop
           offset=".898"
           stop-color="#4886c6"
           id="stop1140" />
        <stop
           offset="1"
           stop-color="#4682c4"
           id="stop1142" />
      </linearGradient>
      <path
         fill="url(#aW)"
         stroke="#000"
         stroke-width=".032"
         d="M427.8 161.1h2.3l4.4 6.6h-2.3z"
         id="path1145" />
      <linearGradient
         id="aX"
         gradientUnits="userSpaceOnUse"
         x1="423.938"
         y1="912.605"
         x2="434.404"
         y2="900.132"
         gradientTransform="translate(8.4 -744.88)">
        <stop
           offset="0"
           stop-color="#6ebe44"
           id="stop1147" />
        <stop
           offset=".001"
           stop-color="#6ebe44"
           id="stop1149" />
        <stop
           offset=".245"
           stop-color="#bcda20"
           id="stop1151" />
        <stop
           offset=".419"
           stop-color="#eceb09"
           id="stop1153" />
        <stop
           offset=".505"
           stop-color="#fff200"
           id="stop1155" />
        <stop
           offset=".578"
           stop-color="#fbca08"
           id="stop1157" />
        <stop
           offset=".679"
           stop-color="#f79a11"
           id="stop1159" />
        <stop
           offset=".775"
           stop-color="#f47419"
           id="stop1161" />
        <stop
           offset=".864"
           stop-color="#f1581f"
           id="stop1163" />
        <stop
           offset=".941"
           stop-color="#f04822"
           id="stop1165" />
        <stop
           offset="1"
           stop-color="#ef4223"
           id="stop1167" />
      </linearGradient>
      <path
         fill="url(#aX)"
         stroke="#000"
         stroke-width=".032"
         d="M440.5 155.3h2.4l-8.3 12.4h-2.3z"
         id="path1170" />
    </g>
  </g>
</svg>
