<?xml version="1.0" encoding="UTF-8" standalone="no"?>
<svg
   xmlns:dc="http://purl.org/dc/elements/1.1/"
   xmlns:cc="http://creativecommons.org/ns#"
   xmlns:rdf="http://www.w3.org/1999/02/22-rdf-syntax-ns#"
   xmlns:svg="http://www.w3.org/2000/svg"
   xmlns="http://www.w3.org/2000/svg"
   xmlns:sodipodi="http://sodipodi.sourceforge.net/DTD/sodipodi-0.dtd"
   xmlns:inkscape="http://www.inkscape.org/namespaces/inkscape"
   viewBox="-261 285 118.37104 300"
   version="1.1"
   id="svg18"
   sodipodi:docname="controller.svg"
   inkscape:export-filename="controller.png"
   inkscape:export-xdpi="38.400002"
   inkscape:export-ydpi="38.400002"
   inkscape:version="1.0.2 (e86c870879, 2021-01-15)">
  <metadata
     id="metadata24">
    <rdf:RDF>
      <cc:Work
         rdf:about="">
        <dc:format>image/svg+xml</dc:format>
        <dc:type
           rdf:resource="http://purl.org/dc/dcmitype/StillImage" />
      </cc:Work>
    </rdf:RDF>
  </metadata>
  <defs
     id="defs22" />
  <sodipodi:namedview
     pagecolor="#ffffff"
     bordercolor="#666666"
     borderopacity="1"
     objecttolerance="10"
     gridtolerance="10"
     guidetolerance="10"
     inkscape:pageopacity="0"
     inkscape:pageshadow="2"
     inkscape:window-width="1920"
     inkscape:window-height="1017"
     id="namedview20"
     showgrid="false"
     inkscape:zoom="0.78666667"
     inkscape:cx="59.18552"
     inkscape:cy="150"
     inkscape:window-x="-8"
     inkscape:window-y="-8"
     inkscape:window-maximized="1"
     inkscape:current-layer="svg18"
     inkscape:document-rotation="0" />
  <path
     fill="#60605d"
     d="M-197.47059 397.1267h-8.14479v-67.87331c0-24.97737-12.62444-36.10859-40.99548-36.10859V285c32.57919 0 49.14027 14.93213 49.14027 44.25339v67.87331z"
     id="path2" />
  <path
     fill="#868580"
     d="M-188.51131 389.52489h-11.67421v-2.17195h10.72398l-.95022-2.71493h-9.77376v-2.17195h8.82353l-1.22172-3.25792h-7.60181v-2.17194h6.65158l-1.22172-3.25792h-13.57466l-1.22172 3.25792h7.19457v2.17194h-8.00905l-1.22172 3.25792h9.23077v2.17195h-9.9095l-1.08597 2.71493h10.99547v2.17195h-11.80995l-1.76471 4.88687h29.32127"
     id="path4" />
  <path
     fill="#c9c9c9"
     d="M-251.22624 392.78281h98.82353c5.42986 0 9.77375 4.34389 9.77375 9.77375v172.66968c0 5.42987-4.34389 9.77376-9.77375 9.77376h-98.82353c-5.42987 0-9.77376-4.34389-9.77376-9.77376V402.55656c0-5.42986 4.34389-9.77375 9.77376-9.77375z"
     id="path6" />
  <path
     fill="#dcdbdb"
     d="M-235.47964 428.07692h68.41629c1.76471 0 3.25792 1.49322 3.25792 3.25792v95.56561c0 1.76471-1.49321 3.25792-3.25792 3.25792h-68.41629c-1.7647 0-3.25792-1.49321-3.25792-3.25792v-95.56561c0-1.90045 1.49322-3.25792 3.25792-3.25792z"
     id="path8" />
  <path
     fill="#60605d"
     d="M-235.47964 409.20814h21.71946c1.7647 0 3.25792 1.49322 3.25792 3.25792v43.43892c0 1.7647-1.49322 3.25792-3.25792 3.25792h-21.71946c-1.7647 0-3.25792-1.49322-3.25792-3.25792v-43.43892c0-1.7647 1.49322-3.25792 3.25792-3.25792z"
     id="path10" />
  <path
     fill="#868580"
     d="M-235.47964 406.35747h21.71946c1.7647 0 3.25792 1.49321 3.25792 3.25791v43.43892c0 1.7647-1.49322 3.25792-3.25792 3.25792h-21.71946c-1.7647 0-3.25792-1.49322-3.25792-3.25792v-43.43892c0-1.90045 1.49322-3.25791 3.25792-3.25791z"
     id="path12" />
  <path
     fill="#60605d"
     d="M-188.78281 409.20814h21.71946c1.76471 0 3.25792 1.49322 3.25792 3.25792v43.43892c0 1.7647-1.49321 3.25792-3.25792 3.25792h-21.71946c-1.7647 0-3.25791-1.49322-3.25791-3.25792v-43.43892c0-1.7647 1.49321-3.25792 3.25791-3.25792z"
     id="path14" />
  <path
     fill="#868580"
     d="M-188.78281 406.35747h21.71946c1.76471 0 3.25792 1.49321 3.25792 3.25791v43.43892c0 1.7647-1.49321 3.25792-3.25792 3.25792h-21.71946c-1.7647 0-3.25791-1.49322-3.25791-3.25792v-43.43892c0-1.90045 1.49321-3.25791 3.25791-3.25791z"
     id="path16" />
</svg>
