<?xml version="1.0" encoding="UTF-8" standalone="no"?>
<svg
   xmlns:dc="http://purl.org/dc/elements/1.1/"
   xmlns:cc="http://creativecommons.org/ns#"
   xmlns:rdf="http://www.w3.org/1999/02/22-rdf-syntax-ns#"
   xmlns:svg="http://www.w3.org/2000/svg"
   xmlns="http://www.w3.org/2000/svg"
   xmlns:sodipodi="http://sodipodi.sourceforge.net/DTD/sodipodi-0.dtd"
   xmlns:inkscape="http://www.inkscape.org/namespaces/inkscape"
   viewBox="0 0 686.659 132.717"
   version="1.1"
   id="svg8"
   sodipodi:docname="logo.svg"
   inkscape:export-filename="C:\Users\ReenigneArcher\LaunchBox\Themes\RecalBigBox\Resources\Platforms\Sharp X1\logo.png"
   inkscape:export-xdpi="67.946388"
   inkscape:export-ydpi="67.946388"
   inkscape:version="0.92.4 (5da689c313, 2019-01-14)">
  <metadata
     id="metadata14">
    <rdf:RDF>
      <cc:Work
         rdf:about="">
        <dc:format>image/svg+xml</dc:format>
        <dc:type
           rdf:resource="http://purl.org/dc/dcmitype/StillImage" />
      </cc:Work>
    </rdf:RDF>
  </metadata>
  <defs
     id="defs12" />
  <sodipodi:namedview
     pagecolor="#ffffff"
     bordercolor="#666666"
     borderopacity="1"
     objecttolerance="10"
     gridtolerance="10"
     guidetolerance="10"
     inkscape:pageopacity="0"
     inkscape:pageshadow="2"
     inkscape:window-width="1920"
     inkscape:window-height="1017"
     id="namedview10"
     showgrid="false"
     inkscape:zoom="0.41359685"
     inkscape:cx="343.3295"
     inkscape:cy="66.358498"
     inkscape:window-x="-8"
     inkscape:window-y="-8"
     inkscape:window-maximized="1"
     inkscape:current-layer="svg8" />
  <text
     transform="translate(428.15 129.717)"
     fill="red"
     font-family="ArialMT"
     font-size="5"
     id="text2">I don’t like bugs!</text>
  <path
     d="M326.021 59.784L292.493 0h92.503l-58.975 59.784zM307.04 8.52l20.87 37.215L364.623 8.52H307.04zM235.148 132.717H134.343l63.751-62.555 37.054 62.555zm-79.957-8.52h65.008l-23.896-40.341-41.112 40.341z"
     id="path4" />
  <path
     d="M427.386 0l-29.444 30.803h35.777l-52.553 93.393h-33.713L276.015 0H173.742l77.039 132.717h226.767L553.887 0H427.386zM255.687 124.197L188.539 8.52h82.548l66.537 115.677h-81.937zm216.933 0h-81.678l57.347-101.914h-30.417L431.028 8.52h108.129L472.62 124.197z"
     id="path6" />
</svg>
