<?xml version="1.0" encoding="UTF-8" standalone="no"?>
<svg
   xmlns:dc="http://purl.org/dc/elements/1.1/"
   xmlns:cc="http://creativecommons.org/ns#"
   xmlns:rdf="http://www.w3.org/1999/02/22-rdf-syntax-ns#"
   xmlns:svg="http://www.w3.org/2000/svg"
   xmlns="http://www.w3.org/2000/svg"
   xmlns:sodipodi="http://sodipodi.sourceforge.net/DTD/sodipodi-0.dtd"
   xmlns:inkscape="http://www.inkscape.org/namespaces/inkscape"
   version="1.1"
   id="Capa_1"
   x="0px"
   y="0px"
   viewBox="0 0 106.9 165.7"
   xml:space="preserve"
   sodipodi:docname="controller.svg"
   inkscape:export-filename="controller.png"
   inkscape:export-xdpi="69.523239"
   inkscape:export-ydpi="69.523239"
   inkscape:version="1.0.2 (e86c870879, 2021-01-15)"><metadata
   id="metadata41"><rdf:RDF><cc:Work
       rdf:about=""><dc:format>image/svg+xml</dc:format><dc:type
         rdf:resource="http://purl.org/dc/dcmitype/StillImage" /></cc:Work></rdf:RDF></metadata><defs
   id="defs39" /><sodipodi:namedview
   pagecolor="#ffffff"
   bordercolor="#666666"
   borderopacity="1"
   objecttolerance="10"
   gridtolerance="10"
   guidetolerance="10"
   inkscape:pageopacity="0"
   inkscape:pageshadow="2"
   inkscape:window-width="1920"
   inkscape:window-height="1017"
   id="namedview37"
   showgrid="false"
   inkscape:zoom="1.4242607"
   inkscape:cx="53.450001"
   inkscape:cy="82.849998"
   inkscape:window-x="-8"
   inkscape:window-y="-8"
   inkscape:window-maximized="1"
   inkscape:current-layer="Capa_1"
   inkscape:document-rotation="0" />
<g
   id="g34">
	<path
   fill="#2B3138"
   d="M103.9,82.7l-5.7-58.3c0-3.9-3-7-6.6-7H16c-3.6,0-6.6,3.2-6.6,7c0,0-6.4,58.3-6.4,58.3   c9.9-18,28.6-31,50.2-31C75.1,51.7,94.1,64.3,103.9,82.7z"
   id="path2" />
	<path
   fill="#221A1F"
   d="M3.1,82c9.9-18,29-31,50.6-31c21.9,0,40.7,13.3,50.5,31.7c0,0,1.7,17.3,1.7,17.3C101,74.9,79.4,56,53.5,56   C27.6,56,6,74.9,1.1,100C1.1,100,3.1,82,3.1,82z"
   id="path4" />
	<ellipse
   fill="#2B3138"
   cx="53.5"
   cy="110.9"
   rx="53.5"
   ry="54.9"
   id="ellipse6" />
	<g
   id="g28">
		<g
   id="g20">
			<path
   fill="#31383F"
   d="M26.1,35.6c1.3,0.9,3,1.4,4.7,1.4c1.7,0,3.4-0.5,4.7-1.4C35.5,35.6,26.1,35.6,26.1,35.6z"
   id="path8" />
			<path
   fill="#31383F"
   d="M24.4,34.2h12.7c0.4-0.4,0.7-0.9,1-1.4H23.4C23.7,33.3,24,33.8,24.4,34.2z"
   id="path10" />
			<path
   fill="#31383F"
   d="M22.7,31.4h16c0.2-0.5,0.3-0.9,0.4-1.4c0-0.2,0.1-0.5,0.1-0.7c0,0-16.9,0-16.9,0c0,0.2,0,0.5,0.1,0.7     C22.5,30.4,22.6,30.9,22.7,31.4"
   id="path12" />
			<path
   fill="#31383F"
   d="M39.2,27.8c0-0.2,0-0.5-0.1-0.7c-0.1-0.5-0.2-1-0.4-1.4c0,0-16,0-16,0c-0.2,0.5-0.3,0.9-0.4,1.4     c0,0.2-0.1,0.5-0.1,0.7L39.2,27.8"
   id="path14" />
			<path
   fill="#31383F"
   d="M24.4,22.8h12.7c0.4,0.4,0.7,0.9,1,1.4c0,0-14.7,0-14.7,0C23.7,23.8,24,23.3,24.4,22.8z"
   id="path16" />
			<path
   fill="#31383F"
   d="M35.5,21.4c-1.3-0.9-3-1.4-4.7-1.4c-1.7,0-3.4,0.5-4.7,1.4C26.1,21.4,35.5,21.4,35.5,21.4z"
   id="path18" />
		</g>
		<g
   id="g24">
			<polygon
   fill="#221A1F"
   points="100.4,46.6 7,46.6 7.1,45.6 52.6,45.6 52.6,17.4 53.6,17.4 53.6,45.6 100.3,45.6    "
   id="polygon22" />
		</g>
		<path
   fill="#31383F"
   d="M56.9,56.2L56.9,56.2c-0.7,0-1.4,0.5-1.4,1.3L54,83.5c0,0.7,0.5,1.4,1.3,1.4h0c0.7,0,1.4-0.5,1.4-1.3    l1.4-26.1C58.2,56.9,57.6,56.2,56.9,56.2z"
   id="path26" />
	</g>
	<g
   id="g32">
		<path
   fill="#1E1B1D"
   d="M54.8,17.4h-3.1c0.4-1.5,0.9-4.8-0.5-7.8C49.5,5.6,45.1,3,40,2.8c-0.2,0-0.4-0.2-0.4-0.4l0-2.1    c0-0.3,0.2-0.5,0.5-0.5C46.3,0,51.7,3.3,54,8.4C55.7,12.1,55.3,15.5,54.8,17.4z"
   id="path30" />
	</g>
</g>
</svg>
