<?xml version="1.0" encoding="UTF-8" standalone="no"?>
<svg
   xmlns:dc="http://purl.org/dc/elements/1.1/"
   xmlns:cc="http://creativecommons.org/ns#"
   xmlns:rdf="http://www.w3.org/1999/02/22-rdf-syntax-ns#"
   xmlns:svg="http://www.w3.org/2000/svg"
   xmlns="http://www.w3.org/2000/svg"
   xmlns:sodipodi="http://sodipodi.sourceforge.net/DTD/sodipodi-0.dtd"
   xmlns:inkscape="http://www.inkscape.org/namespaces/inkscape"
   viewBox="0 0 347.869 102.59"
   version="1.1"
   id="svg110"
   sodipodi:docname="logo.svg"
   inkscape:export-filename="logo.png"
   inkscape:export-xdpi="233.94093"
   inkscape:export-ydpi="233.94093"
   inkscape:version="1.0.2 (e86c870879, 2021-01-15)">
  <metadata
     id="metadata116">
    <rdf:RDF>
      <cc:Work
         rdf:about="">
        <dc:format>image/svg+xml</dc:format>
        <dc:type
           rdf:resource="http://purl.org/dc/dcmitype/StillImage" />
      </cc:Work>
    </rdf:RDF>
  </metadata>
  <defs
     id="defs114" />
  <sodipodi:namedview
     pagecolor="#ffffff"
     bordercolor="#666666"
     borderopacity="1"
     objecttolerance="10"
     gridtolerance="10"
     guidetolerance="10"
     inkscape:pageopacity="0"
     inkscape:pageshadow="2"
     inkscape:window-width="1920"
     inkscape:window-height="1017"
     id="namedview112"
     showgrid="false"
     inkscape:zoom="0.8163993"
     inkscape:cx="173.93449"
     inkscape:cy="51.294998"
     inkscape:window-x="-8"
     inkscape:window-y="-8"
     inkscape:window-maximized="1"
     inkscape:current-layer="svg110"
     inkscape:document-rotation="0" />
  <g
     fill="#040006"
     id="g4">
    <path
       d="M276.662 27.554h-44.959a.284.284 0 0 0-.277.225l-9.38 44.267a.283.283 0 0 0 .277.342h44.959a.284.284 0 0 0 .277-.225l9.38-44.267a.283.283 0 0 0-.277-.342zM256.5 61.666a.28.28 0 0 1-.273.222h-18.4a.279.279 0 0 1-.273-.337l4.932-23.274a.28.28 0 0 1 .273-.222h18.4c.178 0 .31.164.273.337L256.5 61.666zM223.273 32.565l-5.087-4.93a.29.29 0 0 0-.201-.081h-38.714a.288.288 0 0 0-.282.229l-9.378 44.257a.288.288 0 0 0 .282.348h38.616c.06 0 .118-.019.167-.054l7.338-5.231a.287.287 0 0 0 .115-.175l2.584-12.193a.288.288 0 0 0-.081-.267l-5.29-5.127a.29.29 0 0 1 .033-.442l7.653-5.455a.287.287 0 0 0 .115-.175l2.212-10.438a.287.287 0 0 0-.082-.266zm-19.419 29.093a.289.289 0 0 1-.282.229h-18.734a.288.288 0 0 1-.282-.349l1.306-6.14a.288.288 0 0 1 .282-.228h18.726c.183 0 .32.169.282.348l-1.298 6.14zm3.627-17.116a.289.289 0 0 1-.282.229h-18.734a.289.289 0 0 1-.282-.349l1.306-6.14a.288.288 0 0 1 .282-.228h18.726c.183 0 .32.169.282.348l-1.298 6.14zM51.284 52.35l-4.199 19.815a.28.28 0 0 1-.274.222H1.552a.28.28 0 0 1-.274-.339l9.381-44.272a.28.28 0 0 1 .274-.222h12.843a.28.28 0 0 1 .274.339l-7.13 33.651a.28.28 0 0 0 .274.339H35.62a.28.28 0 0 0 .274-.222l7.18-33.883a.28.28 0 0 1 .274-.222h12.843a.28.28 0 0 1 .274.339l-2.69 12.694a.28.28 0 0 0 .392.313l84.59-38.873c.266-.122.518.194.34.426l-48.702 63.45c-.178.232.074.548.34.426l30.373-13.957a.278.278 0 0 0 .157-.197l5.17-24.4a.28.28 0 0 1 .274-.222h44.611a.28.28 0 0 1 .274.339l-2.106 9.939a.28.28 0 0 1-.274.222h-31.456a.28.28 0 0 0-.274.222l-1.304 6.156a.28.28 0 0 0 .274.339h20.307a.28.28 0 0 1 .274.339l-2.085 9.839a.28.28 0 0 1-.274.222h-20.545a.28.28 0 0 0-.274.222l-1.304 6.156a.28.28 0 0 0 .274.339h31.218a.28.28 0 0 1 .274.339l-2.106 9.939a.28.28 0 0 1-.274.222h-44.611a.28.28 0 0 1-.274-.339l1.717-8.103a.28.28 0 0 0-.392-.313L33.65 102.565c-.263.121-.513-.192-.336-.421l48.71-63.461c.178-.232-.074-.548-.34-.426L51.442 52.153a.282.282 0 0 0-.158.197zM273.529 72.039l1.215-5.733a.288.288 0 0 1 .083-.149l16.838-16.023a.29.29 0 0 0 .046-.362l-9.983-16.037a.287.287 0 0 1-.037-.212l1.216-5.738a.29.29 0 0 1 .283-.229h13.044a.29.29 0 0 1 .245.135l6.828 10.889a.289.289 0 0 0 .444.056l11.56-11a.29.29 0 0 1 .199-.08h12.966a.29.29 0 0 1 .283.349l-1.196 5.645a.288.288 0 0 1-.083.149l-16.86 16.109a.288.288 0 0 0-.045.362l10.001 15.948a.29.29 0 0 1 .038.213l-1.235 5.826a.29.29 0 0 1-.283.229h-13.044a.29.29 0 0 1-.245-.135l-6.828-10.889a.289.289 0 0 0-.444-.056l-11.56 11a.29.29 0 0 1-.199.08H273.81a.287.287 0 0 1-.281-.347z"
       id="path2" />
  </g>
  <linearGradient
     id="a"
     gradientUnits="userSpaceOnUse"
     x1="248.221"
     y1="70.387"
     x2="248.221"
     y2="25.554">
    <stop
       offset="0"
       stop-color="#d9d9d9"
       id="stop6" />
    <stop
       offset=".1"
       stop-color="#bfbfbf"
       id="stop8" />
    <stop
       offset=".2"
       stop-color="#d9d9d9"
       id="stop10" />
    <stop
       offset=".3"
       stop-color="#bfbfbf"
       id="stop12" />
    <stop
       offset=".4"
       stop-color="#d9d9d9"
       id="stop14" />
    <stop
       offset=".5"
       stop-color="#bfbfbf"
       id="stop16" />
    <stop
       offset=".6"
       stop-color="#d9d9d9"
       id="stop18" />
    <stop
       offset=".7"
       stop-color="#bfbfbf"
       id="stop20" />
    <stop
       offset=".8"
       stop-color="#d9d9d9"
       id="stop22" />
    <stop
       offset=".9"
       stop-color="#bfbfbf"
       id="stop24" />
    <stop
       offset="1"
       stop-color="#d9d9d9"
       id="stop26" />
  </linearGradient>
  <path
     d="M275.391 25.554h-44.959a.284.284 0 0 0-.277.225l-9.38 44.267a.283.283 0 0 0 .277.342h44.959a.284.284 0 0 0 .277-.225l9.38-44.267a.283.283 0 0 0-.277-.342zm-20.162 34.112a.28.28 0 0 1-.273.222h-18.4a.279.279 0 0 1-.273-.337l4.932-23.274a.28.28 0 0 1 .273-.222h18.4c.178 0 .31.164.273.337l-4.932 23.274z"
     fill="url(#a)"
     id="path29" />
  <linearGradient
     id="b"
     gradientUnits="userSpaceOnUse"
     x1="195.213"
     y1="70.387"
     x2="195.213"
     y2="25.554">
    <stop
       offset="0"
       stop-color="#d9d9d9"
       id="stop31" />
    <stop
       offset=".1"
       stop-color="#bfbfbf"
       id="stop33" />
    <stop
       offset=".2"
       stop-color="#d9d9d9"
       id="stop35" />
    <stop
       offset=".3"
       stop-color="#bfbfbf"
       id="stop37" />
    <stop
       offset=".4"
       stop-color="#d9d9d9"
       id="stop39" />
    <stop
       offset=".5"
       stop-color="#bfbfbf"
       id="stop41" />
    <stop
       offset=".6"
       stop-color="#d9d9d9"
       id="stop43" />
    <stop
       offset=".7"
       stop-color="#bfbfbf"
       id="stop45" />
    <stop
       offset=".8"
       stop-color="#d9d9d9"
       id="stop47" />
    <stop
       offset=".9"
       stop-color="#bfbfbf"
       id="stop49" />
    <stop
       offset="1"
       stop-color="#d9d9d9"
       id="stop51" />
  </linearGradient>
  <path
     d="M222.002 30.565l-5.087-4.93a.29.29 0 0 0-.201-.081H178a.288.288 0 0 0-.282.229L168.34 70.04a.288.288 0 0 0 .282.348h38.616c.06 0 .118-.019.167-.054l7.338-5.231a.287.287 0 0 0 .115-.175l2.584-12.193a.288.288 0 0 0-.081-.267l-5.29-5.127a.29.29 0 0 1 .033-.442l7.653-5.455a.287.287 0 0 0 .115-.175l2.212-10.438a.287.287 0 0 0-.082-.266zm-19.419 29.093a.289.289 0 0 1-.282.229h-18.734a.288.288 0 0 1-.282-.349l1.306-6.14a.288.288 0 0 1 .282-.228h18.726c.183 0 .32.169.282.348l-1.298 6.14zm3.627-17.116a.289.289 0 0 1-.282.229h-18.734a.289.289 0 0 1-.282-.349l1.306-6.14a.288.288 0 0 1 .282-.228h18.726c.183 0 .32.169.282.348l-1.298 6.14z"
     fill="url(#b)"
     id="path54" />
  <linearGradient
     id="c"
     gradientUnits="userSpaceOnUse"
     x1="85.165"
     y1="100.58"
     x2="85.165">
    <stop
       offset="0"
       stop-color="#d9d9d9"
       id="stop56" />
    <stop
       offset=".1"
       stop-color="#bfbfbf"
       id="stop58" />
    <stop
       offset=".2"
       stop-color="#d9d9d9"
       id="stop60" />
    <stop
       offset=".3"
       stop-color="#bfbfbf"
       id="stop62" />
    <stop
       offset=".4"
       stop-color="#d9d9d9"
       id="stop64" />
    <stop
       offset=".5"
       stop-color="#bfbfbf"
       id="stop66" />
    <stop
       offset=".6"
       stop-color="#d9d9d9"
       id="stop68" />
    <stop
       offset=".7"
       stop-color="#bfbfbf"
       id="stop70" />
    <stop
       offset=".8"
       stop-color="#d9d9d9"
       id="stop72" />
    <stop
       offset=".9"
       stop-color="#bfbfbf"
       id="stop74" />
    <stop
       offset="1"
       stop-color="#d9d9d9"
       id="stop76" />
  </linearGradient>
  <path
     d="M50.014 50.35l-4.199 19.815a.28.28 0 0 1-.274.222H.281a.28.28 0 0 1-.274-.339l9.381-44.272a.28.28 0 0 1 .274-.222h12.843a.28.28 0 0 1 .274.339l-7.13 33.651a.28.28 0 0 0 .274.339H34.35a.28.28 0 0 0 .274-.222l7.18-33.883a.28.28 0 0 1 .274-.222h12.843a.28.28 0 0 1 .274.339l-2.69 12.694a.28.28 0 0 0 .392.313L137.487.029c.266-.122.518.194.34.426l-48.703 63.45c-.178.232.074.548.34.426l30.373-13.957a.278.278 0 0 0 .157-.197l5.17-24.4a.28.28 0 0 1 .274-.222h44.611a.28.28 0 0 1 .274.339l-2.106 9.939a.28.28 0 0 1-.274.222h-31.456a.28.28 0 0 0-.274.222l-1.304 6.156a.28.28 0 0 0 .274.339h20.307a.28.28 0 0 1 .274.339l-2.085 9.839a.28.28 0 0 1-.274.222H132.86a.28.28 0 0 0-.274.222l-1.304 6.156a.28.28 0 0 0 .274.339h31.218a.28.28 0 0 1 .274.339l-2.106 9.939a.28.28 0 0 1-.274.222h-44.611a.28.28 0 0 1-.274-.339l1.717-8.103a.28.28 0 0 0-.392-.313l-84.705 38.92c-.27.124-.525-.196-.344-.431l48.694-63.44c.178-.232-.074-.548-.34-.426L50.171 50.153a.278.278 0 0 0-.157.197z"
     fill="url(#c)"
     id="path79" />
  <linearGradient
     id="d"
     gradientUnits="userSpaceOnUse"
     x1="299.872"
     y1="70.387"
     x2="299.872"
     y2="25.554">
    <stop
       offset="0"
       stop-color="#d9d9d9"
       id="stop81" />
    <stop
       offset=".1"
       stop-color="#bfbfbf"
       id="stop83" />
    <stop
       offset=".2"
       stop-color="#d9d9d9"
       id="stop85" />
    <stop
       offset=".3"
       stop-color="#bfbfbf"
       id="stop87" />
    <stop
       offset=".4"
       stop-color="#d9d9d9"
       id="stop89" />
    <stop
       offset=".5"
       stop-color="#bfbfbf"
       id="stop91" />
    <stop
       offset=".6"
       stop-color="#d9d9d9"
       id="stop93" />
    <stop
       offset=".7"
       stop-color="#bfbfbf"
       id="stop95" />
    <stop
       offset=".8"
       stop-color="#d9d9d9"
       id="stop97" />
    <stop
       offset=".9"
       stop-color="#bfbfbf"
       id="stop99" />
    <stop
       offset="1"
       stop-color="#d9d9d9"
       id="stop101" />
  </linearGradient>
  <path
     d="M272.258 70.039l1.215-5.733a.288.288 0 0 1 .083-.149l16.838-16.023a.29.29 0 0 0 .046-.362l-9.983-16.037a.287.287 0 0 1-.037-.212l1.216-5.738a.29.29 0 0 1 .283-.229h13.044a.29.29 0 0 1 .245.135l6.828 10.889a.289.289 0 0 0 .444.056l11.56-11a.29.29 0 0 1 .199-.08h12.966a.29.29 0 0 1 .283.349l-1.196 5.645a.288.288 0 0 1-.083.149L309.352 47.81a.288.288 0 0 0-.045.362l10.001 15.948a.29.29 0 0 1 .038.213l-1.235 5.826a.29.29 0 0 1-.283.229h-13.044a.29.29 0 0 1-.245-.135l-6.828-10.889a.289.289 0 0 0-.444-.056l-11.56 11a.29.29 0 0 1-.199.08h-12.966a.29.29 0 0 1-.284-.349z"
     fill="url(#d)"
     id="path104" />
  <g
     fill="#696969"
     id="g108">
    <path
       d="M334.54 26.882h-2.738l.375-1.575h7.101l-.375 1.575h-2.738l-1.147 5.551h-1.625l1.147-5.551zM345.715 27.662l-2.246 1.871h-.265l-1.545-1.871-.849 4.778h-1.739l1.256-7.125h1.55l1.854 1.843 2.602-1.843h1.536l-1.256 7.125h-1.772l.874-4.778z"
       id="path106" />
  </g>
</svg>
