<?xml version="1.0" encoding="UTF-8" standalone="no"?>
<svg
   xmlns:dc="http://purl.org/dc/elements/1.1/"
   xmlns:cc="http://creativecommons.org/ns#"
   xmlns:rdf="http://www.w3.org/1999/02/22-rdf-syntax-ns#"
   xmlns:svg="http://www.w3.org/2000/svg"
   xmlns="http://www.w3.org/2000/svg"
   xmlns:xlink="http://www.w3.org/1999/xlink"
   xmlns:sodipodi="http://sodipodi.sourceforge.net/DTD/sodipodi-0.dtd"
   xmlns:inkscape="http://www.inkscape.org/namespaces/inkscape"
   viewBox="0 0 500 244.8"
   version="1.1"
   id="svg1104"
   sodipodi:docname="consolegame.svg"
   inkscape:export-filename="consolegame.png"
   inkscape:export-xdpi="46.997963"
   inkscape:export-ydpi="46.997963"
   inkscape:version="1.0.2 (e86c870879, 2021-01-15)">
  <metadata
     id="metadata1110">
    <rdf:RDF>
      <cc:Work
         rdf:about="">
        <dc:format>image/svg+xml</dc:format>
        <dc:type
           rdf:resource="http://purl.org/dc/dcmitype/StillImage" />
      </cc:Work>
    </rdf:RDF>
  </metadata>
  <defs
     id="defs1108" />
  <sodipodi:namedview
     pagecolor="#ffffff"
     bordercolor="#666666"
     borderopacity="1"
     objecttolerance="10"
     gridtolerance="10"
     guidetolerance="10"
     inkscape:pageopacity="0"
     inkscape:pageshadow="2"
     inkscape:window-width="1920"
     inkscape:window-height="1017"
     id="namedview1106"
     showgrid="false"
     inkscape:zoom="0.568"
     inkscape:cx="250"
     inkscape:cy="122.4"
     inkscape:window-x="-8"
     inkscape:window-y="-8"
     inkscape:window-maximized="1"
     inkscape:current-layer="svg1104"
     inkscape:document-rotation="0" />
  <path
     fill="#CFD0CF"
     d="M8 118.1H1.5c-1.4 0-1.5-.2-1.5-2.3V2.2C0 .5.2 0 2.2 0h336.5c4 0 4.1.3 4.1 4.1v23.4c0 .5 0 .6-.6.6h-2.4c-.6 0-.6.2-.6.6v78.8h5.4c.7 0 .8.2.8.5v9.1c0 .8-.1 1-1.2 1H8z"
     id="path2" />
  <path
     fill="none"
     stroke="#9B9A9A"
     stroke-width="1.616"
     stroke-miterlimit="10"
     d="M4.7 118.1V56.9c0-1.8 0-3 3-3h331.6"
     id="path4" />
  <path
     fill="#CFD0CF"
     d="M10.3 243.8c-4.6 0-5.6-3.6-5.6-6.9V57c0-1.8 0-3 3-3h332.1c3 0 3 1.1 3 3v179.9c0 3.3-.9 6.9-5.6 6.9H10.3z"
     id="path6" />
  <path
     fill="#0C0C0D"
     d="M174.9 84.6h122.5c.3 0 .5.2.5.5V104c0 .3-.2.5-.5.5H174.9c-.3 0-.5-.2-.5-.5V85.1c0-.2.2-.5.5-.5zm134.4 0h24.5c.3 0 .5.2.5.5V104c0 .3-.2.5-.5.5h-24.5c-.3 0-.5-.2-.5-.5V85.1c-.1-.2.1-.5.5-.5zm-265 0h122.2c.3 0 .5.2.5.5V104c0 .3-.2.5-.5.5H44.3c-.3 0-.5-.2-.5-.5V85.1c0-.2.2-.5.5-.5zm-30 0h18.5c.3 0 .5.2.5.5V104c0 .3-.2.5-.5.5H14.3c-.3 0-.5-.2-.5-.5V85.1c-.1-.2.2-.5.5-.5zM334.7 194v19.6c0 .3-.2.5-.5.5H29.3c-.3 0-.5-.2-.5-.5v-17.1s.6-2.3-1.7-2.3H14c-.3 0-.5-.2-.5-.5V116c0-.3.2-.5.5-.5h319.8c.3 0 .5.2.5.5v18.9c0 1-.6 1.2-2.1 1.2h-15.4c-1.2 0-1.5.6-1.5 1.2v55.4c0 .3.1.5.5.5h17.9c.9-.1 1 .3 1 .8z"
     id="path8" />
  <path
     fill="#777878"
     d="M6.2 6.9h330.4c.2 0 .2.1.2.2v2.7c0 .2-.1.2-.2.2H6.2c-.1.1-.2 0-.2-.1V7.2c0-.1.1-.3.2-.3zm0 6.1h330.4c.2 0 .2.1.2.2v2.7c0 .2-.1.2-.2.2H6.2c-.2 0-.2-.1-.2-.2v-2.7c0-.1.1-.2.2-.2zm0 6.1h330.4c.2 0 .2.1.2.2V22c0 .2-.1.2-.2.2H6.2c-.1 0-.2-.1-.2-.2v-2.7c0-.1.1-.2.2-.2zm0 6h330.4c.2 0 .2.1.2.2V28c0 .2-.1.2-.2.2H6.2c-.1.1-.2 0-.2-.2v-2.7c0-.1.1-.2.2-.2zm0 6.1h330.4c.2 0 .2.1.2.2v2.7c0 .2-.1.2-.2.2H6.2c-.2 0-.2-.1-.2-.2v-2.7c0-.1.1-.2.2-.2zm0 6.1h330.4c.2 0 .2.1.2.2v2.7c0 .2-.1.2-.2.2H6.2c-.2 0-.2-.1-.2-.2v-2.7c0-.2.1-.2.2-.2zm0 6h330.4c.2 0 .2.1.2.2v2.7c0 .2-.1.2-.2.2H6.2c-.2 0-.2-.1-.2-.2v-2.7c0-.1.1-.2.2-.2z"
     id="path10" />
  <path
     fill="#9B9A9A"
     d="M197.023 155.323h15.678c.646 0 1.131.485 1.131 1.132v16c0 .647-.485 1.132-1.131 1.132h-15.678a1.105 1.105 0 0 1-1.131-1.131v-16.001c-.081-.566.485-1.132 1.131-1.132z"
     id="path12" />
  <path
     fill="#CFD0CF"
     d="M199.367 157.101h10.91c.646 0 1.13.485 1.13 1.132v10.91c0 .646-.484 1.13-1.13 1.13h-10.91a1.105 1.105 0 0 1-1.132-1.13v-10.91c0-.566.566-1.132 1.132-1.132z"
     id="path14" />
  <path
     fill="#9B9A9A"
     d="M216.338 155.323h15.677c.647 0 1.132.485 1.132 1.132v16c0 .647-.485 1.132-1.132 1.132h-15.677a1.105 1.105 0 0 1-1.132-1.131v-16.001c0-.566.485-1.132 1.132-1.132z"
     id="path16" />
  <path
     fill="#CFD0CF"
     d="M218.762 157.101h10.91c.646 0 1.131.485 1.131 1.132v10.91c0 .646-.485 1.13-1.131 1.13h-10.91a1.105 1.105 0 0 1-1.131-1.13v-10.91c-.081-.566.484-1.132 1.131-1.132z"
     id="path18" />
  <path
     fill="#9B9A9A"
     d="M235.652 155.323h15.678c.646 0 1.131.485 1.131 1.132v16c0 .647-.485 1.132-1.131 1.132h-15.678a1.105 1.105 0 0 1-1.131-1.131v-16.001c0-.566.484-1.132 1.131-1.132z"
     id="path20" />
  <path
     fill="#CFD0CF"
     d="M238.076 157.101h10.91c.647 0 1.132.485 1.132 1.132v10.91c0 .646-.485 1.13-1.132 1.13h-10.91a1.105 1.105 0 0 1-1.131-1.13v-10.91c-.08-.566.485-1.132 1.131-1.132z"
     id="path22" />
  <path
     fill="#9B9A9A"
     d="M254.966 155.323h15.678c.647 0 1.132.485 1.132 1.132v16c0 .647-.485 1.132-1.132 1.132h-15.678a1.105 1.105 0 0 1-1.131-1.131v-16.001c0-.566.485-1.132 1.131-1.132z"
     id="path24" />
  <path
     fill="#CFD0CF"
     d="M257.39 157.101h10.91c.647 0 1.132.485 1.132 1.132v10.91c0 .646-.485 1.13-1.131 1.13h-10.91a1.105 1.105 0 0 1-1.132-1.13v-10.91c-.08-.566.485-1.132 1.132-1.132z"
     id="path26" />
  <path
     fill="#9B9A9A"
     d="M274.28 155.323h15.679c.646 0 1.131.485 1.131 1.132v16c0 .647-.485 1.132-1.131 1.132H274.28a1.105 1.105 0 0 1-1.132-1.131v-16.001c0-.566.485-1.132 1.132-1.132z"
     id="path28" />
  <path
     fill="#CFD0CF"
     d="M276.705 157.101h10.91c.647 0 1.131.485 1.131 1.132v10.91c0 .646-.484 1.13-1.131 1.13h-10.91a1.105 1.105 0 0 1-1.131-1.13v-10.91c0-.566.485-1.132 1.131-1.132z"
     id="path30" />
  <path
     fill="#9B9A9A"
     d="M177.709 155.323h15.678c.646 0 1.13.485 1.13 1.132v16c0 .647-.484 1.132-1.13 1.132h-15.678a1.105 1.105 0 0 1-1.132-1.131v-16.001c-.08-.566.485-1.132 1.132-1.132z"
     id="path32" />
  <path
     fill="#CFD0CF"
     d="M180.052 157.101h10.91c.647 0 1.132.485 1.132 1.132v10.91c0 .646-.485 1.13-1.132 1.13h-10.91a1.105 1.105 0 0 1-1.131-1.13v-10.91c0-.566.485-1.132 1.131-1.132z"
     id="path34" />
  <path
     fill="#9B9A9A"
     d="M158.394 155.323h15.678c.647 0 1.132.485 1.132 1.132v16c0 .647-.485 1.132-1.132 1.132h-15.678a1.105 1.105 0 0 1-1.131-1.131v-16.001c-.08-.566.485-1.132 1.131-1.132z"
     id="path36" />
  <path
     fill="#CFD0CF"
     d="M160.738 157.101h10.91c.646 0 1.131.485 1.131 1.132v10.91c0 .646-.485 1.13-1.131 1.13h-10.91a1.105 1.105 0 0 1-1.131-1.13v-10.91c0-.566.484-1.132 1.13-1.132z"
     id="path38" />
  <path
     fill="#9B9A9A"
     d="M139.08 155.323h15.678c.646 0 1.131.485 1.131 1.132v16c0 .647-.485 1.132-1.131 1.132H139.08a1.105 1.105 0 0 1-1.131-1.131v-16.001c-.081-.566.484-1.132 1.13-1.132z"
     id="path40" />
  <path
     fill="#CFD0CF"
     d="M141.424 157.101h10.91c.646 0 1.13.485 1.13 1.132v10.91c0 .646-.484 1.13-1.13 1.13h-10.91a1.105 1.105 0 0 1-1.132-1.13v-10.91c0-.566.485-1.132 1.132-1.132z"
     id="path42" />
  <path
     fill="#9B9A9A"
     d="M119.685 155.323h15.678c.646 0 1.13.485 1.13 1.132v16c0 .647-.484 1.132-1.13 1.132h-15.678a1.105 1.105 0 0 1-1.132-1.131v-16.001c0-.566.566-1.132 1.132-1.132z"
     id="path44" />
  <path
     fill="#CFD0CF"
     d="M122.11 157.101h10.909c.646 0 1.131.485 1.131 1.132v10.91c0 .646-.485 1.13-1.131 1.13h-10.91a1.105 1.105 0 0 1-1.131-1.13v-10.91c0-.566.485-1.132 1.131-1.132z"
     id="path46" />
  <path
     fill="#9B9A9A"
     d="M100.37 155.323h15.678c.647 0 1.131.485 1.131 1.132v16c0 .647-.484 1.132-1.13 1.132H100.37a1.105 1.105 0 0 1-1.131-1.131v-16.001c0-.566.485-1.132 1.131-1.132z"
     id="path48" />
  <path
     fill="#CFD0CF"
     d="M102.795 157.101h10.91c.646 0 1.13.485 1.13 1.132v10.91c0 .646-.484 1.13-1.13 1.13h-10.91a1.105 1.105 0 0 1-1.132-1.13v-10.91c0-.566.485-1.132 1.132-1.132z"
     id="path50" />
  <path
     fill="#9B9A9A"
     d="M81.056 155.323h15.678c.646 0 1.131.485 1.131 1.132v16c0 .647-.485 1.132-1.131 1.132H81.056a1.105 1.105 0 0 1-1.132-1.131v-16.001c0-.566.485-1.132 1.132-1.132z"
     id="path52" />
  <path
     fill="#CFD0CF"
     d="M83.48 157.101h10.91c.647 0 1.131.485 1.131 1.132v10.91c0 .646-.484 1.13-1.13 1.13H83.48a1.105 1.105 0 0 1-1.132-1.13v-10.91c0-.566.485-1.132 1.131-1.132z"
     id="path54" />
  <path
     fill="#9B9A9A"
     d="M61.741 155.323H77.42c.647 0 1.132.485 1.132 1.132v16c0 .647-.485 1.132-1.132 1.132H61.741a1.105 1.105 0 0 1-1.13-1.131v-16.001c0-.566.484-1.132 1.13-1.132z"
     id="path56" />
  <path
     fill="#CFD0CF"
     d="M64.166 157.101h10.91c.646 0 1.131.485 1.131 1.132v10.91c0 .646-.485 1.13-1.131 1.13h-10.91a1.105 1.105 0 0 1-1.132-1.13v-10.91c-.08-.566.485-1.132 1.132-1.132z"
     id="path58" />
  <path
     fill="#9B9A9A"
     d="M187.326 174.8h15.677c.647 0 1.132.484 1.132 1.13v16.002c0 .646-.485 1.131-1.132 1.131h-15.677a1.105 1.105 0 0 1-1.132-1.131V175.93c0-.647.566-1.132 1.132-1.132z"
     id="path60" />
  <path
     fill="#CFD0CF"
     d="M189.75 176.577h10.91c.646 0 1.131.485 1.131 1.132v10.91c0 .646-.485 1.13-1.131 1.13h-10.91a1.105 1.105 0 0 1-1.131-1.13v-10.91c0-.647.484-1.132 1.13-1.132z"
     id="path62" />
  <path
     fill="#9B9A9A"
     d="M206.72 174.8H222.4c.646 0 1.131.484 1.131 1.13v16.002c0 .646-.485 1.131-1.131 1.131H206.72a1.105 1.105 0 0 1-1.132-1.131V175.93c-.08-.647.485-1.132 1.132-1.132z"
     id="path64" />
  <path
     fill="#CFD0CF"
     d="M209.064 176.577h10.91c.647 0 1.132.485 1.132 1.132v10.91c0 .646-.485 1.13-1.132 1.13h-10.91a1.105 1.105 0 0 1-1.131-1.13v-10.91c0-.647.485-1.132 1.131-1.132z"
     id="path66" />
  <path
     fill="#9B9A9A"
     d="M226.035 174.8h15.678c.646 0 1.131.484 1.131 1.13v16.002c0 .646-.485 1.131-1.131 1.131h-15.678a1.105 1.105 0 0 1-1.131-1.131V175.93c-.081-.647.485-1.132 1.131-1.132z"
     id="path68" />
  <path
     fill="#CFD0CF"
     d="M228.379 176.577h10.91c.646 0 1.131.485 1.131 1.132v10.91c0 .646-.485 1.13-1.131 1.13h-10.91a1.105 1.105 0 0 1-1.132-1.13v-10.91c0-.647.485-1.132 1.132-1.132z"
     id="path70" />
  <path
     fill="#9B9A9A"
     d="M245.35 174.8h15.677c.647 0 1.132.484 1.132 1.13v16.002c0 .646-.485 1.131-1.132 1.131H245.35a1.105 1.105 0 0 1-1.132-1.131V175.93c-.08-.647.485-1.132 1.132-1.132z"
     id="path72" />
  <path
     fill="#CFD0CF"
     d="M247.693 176.577h10.91c.647 0 1.131.485 1.131 1.132v10.91c0 .646-.484 1.13-1.131 1.13h-10.91a1.105 1.105 0 0 1-1.131-1.13v-10.91c0-.647.485-1.132 1.131-1.132z"
     id="path74" />
  <path
     fill="#9B9A9A"
     d="M258.845 194.195h15.678c.647 0 1.132.485 1.132 1.131v16.001c0 .647-.485 1.132-1.132 1.132h-15.678a1.105 1.105 0 0 1-1.131-1.132v-16c-.08-.567.485-1.132 1.131-1.132z"
     id="path76" />
  <path
     fill="#CFD0CF"
     d="M261.189 195.973h10.91c.646 0 1.131.484 1.131 1.131v10.91c0 .646-.485 1.131-1.131 1.131h-10.91a1.105 1.105 0 0 1-1.131-1.131v-10.83c0-.646.485-1.211 1.131-1.211z"
     id="path78" />
  <path
     fill="#9B9A9A"
     d="M278.16 194.195h15.678c.646 0 1.131.485 1.131 1.131v16.001c0 .647-.485 1.132-1.131 1.132H278.16a1.105 1.105 0 0 1-1.132-1.132v-16c-.08-.567.485-1.132 1.132-1.132z"
     id="path80" />
  <path
     fill="#CFD0CF"
     d="M280.503 195.973h10.91c.647 0 1.132.484 1.132 1.131v10.91c0 .646-.485 1.131-1.132 1.131h-10.91a1.105 1.105 0 0 1-1.131-1.131v-10.83c0-.646.566-1.211 1.131-1.211z"
     id="path82" />
  <path
     fill="#9B9A9A"
     d="M297.474 194.195h15.678c.647 0 1.131.485 1.131 1.131v16.001c0 .647-.484 1.132-1.13 1.132h-15.679a1.105 1.105 0 0 1-1.131-1.132v-16c0-.567.485-1.132 1.131-1.132z"
     id="path84" />
  <path
     fill="#CFD0CF"
     d="M299.899 195.973h10.91c.646 0 1.13.484 1.13 1.131v10.91c0 .646-.484 1.131-1.13 1.131h-10.91a1.105 1.105 0 0 1-1.132-1.131v-10.83c-.08-.646.485-1.211 1.132-1.211z"
     id="path86" />
  <path
     fill="#9B9A9A"
     d="M316.789 194.195h15.677c.647 0 1.132.485 1.132 1.131v16.001c0 .647-.485 1.132-1.132 1.132H316.79a1.105 1.105 0 0 1-1.132-1.132v-16c0-.567.485-1.132 1.132-1.132z"
     id="path88" />
  <path
     fill="#CFD0CF"
     d="M319.213 195.973h10.91c.646 0 1.131.484 1.131 1.131v10.91c0 .646-.485 1.131-1.131 1.131h-10.91a1.105 1.105 0 0 1-1.131-1.131v-10.83c-.081-.646.485-1.211 1.131-1.211z"
     id="path90" />
  <path
     fill="#9B9A9A"
     d="M297.393 174.8h15.678c.647 0 1.132.484 1.132 1.13v16.002c0 .646-.485 1.131-1.132 1.131h-15.678a1.105 1.105 0 0 1-1.13-1.131V175.93c-.082-.647.484-1.132 1.13-1.132z"
     id="path92" />
  <path
     fill="#CFD0CF"
     d="M299.737 176.577h10.91c.646 0 1.131.485 1.131 1.132v10.91c0 .646-.485 1.13-1.131 1.13h-10.91a1.105 1.105 0 0 1-1.131-1.13v-10.91c0-.647.565-1.132 1.131-1.132z"
     id="path94" />
  <path
     fill="#9B9A9A"
     d="M168.011 174.8h15.678c.646 0 1.131.484 1.131 1.13v16.002c0 .646-.485 1.131-1.131 1.131H168.01a1.105 1.105 0 0 1-1.131-1.131V175.93c0-.647.485-1.132 1.131-1.132z"
     id="path96" />
  <path
     fill="#CFD0CF"
     d="M170.436 176.577h10.91c.646 0 1.13.485 1.13 1.132v10.91c0 .646-.484 1.13-1.13 1.13h-10.91a1.105 1.105 0 0 1-1.132-1.13v-10.91c0-.647.485-1.132 1.132-1.132z"
     id="path98" />
  <path
     fill="#9B9A9A"
     d="M148.697 174.8h15.678c.646 0 1.13.484 1.13 1.13v16.002c0 .646-.484 1.131-1.13 1.131h-15.678a1.105 1.105 0 0 1-1.132-1.131V175.93c0-.647.485-1.132 1.132-1.132z"
     id="path100" />
  <path
     fill="#CFD0CF"
     d="M151.121 176.577h10.91c.646 0 1.131.485 1.131 1.132v10.91c0 .646-.485 1.13-1.131 1.13h-10.91a1.105 1.105 0 0 1-1.131-1.13v-10.91c0-.647.485-1.132 1.131-1.132z"
     id="path102" />
  <path
     fill="#9B9A9A"
     d="M129.382 174.8h15.678c.647 0 1.132.484 1.132 1.13v16.002c0 .646-.485 1.131-1.132 1.131h-15.678a1.105 1.105 0 0 1-1.131-1.131V175.93c0-.647.485-1.132 1.131-1.132z"
     id="path104" />
  <path
     fill="#CFD0CF"
     d="M131.807 176.577h10.91c.646 0 1.13.485 1.13 1.132v10.91c0 .646-.484 1.13-1.13 1.13h-10.91a1.105 1.105 0 0 1-1.132-1.13v-10.91c-.08-.647.485-1.132 1.132-1.132z"
     id="path106" />
  <path
     fill="#9B9A9A"
     d="M110.068 174.8h15.678c.646 0 1.131.484 1.131 1.13v16.002c0 .646-.485 1.131-1.131 1.131h-15.678a1.105 1.105 0 0 1-1.131-1.131V175.93c0-.647.484-1.132 1.13-1.132z"
     id="path108" />
  <path
     fill="#CFD0CF"
     d="M112.492 176.577h10.91c.647 0 1.132.485 1.132 1.132v10.91c0 .646-.485 1.13-1.132 1.13h-10.91a1.105 1.105 0 0 1-1.131-1.13v-10.91c-.08-.647.485-1.132 1.131-1.132z"
     id="path110" />
  <path
     fill="#9B9A9A"
     d="M90.753 174.8h15.678c.647 0 1.132.484 1.132 1.13v16.002c0 .646-.485 1.131-1.132 1.131H90.753a1.105 1.105 0 0 1-1.13-1.131V175.93c0-.647.484-1.132 1.13-1.132z"
     id="path112" />
  <path
     fill="#CFD0CF"
     d="M93.178 176.577h10.91c.646 0 1.131.485 1.131 1.132v10.91c0 .646-.485 1.13-1.131 1.13h-10.91a1.105 1.105 0 0 1-1.131-1.13v-10.91c-.081-.647.484-1.132 1.13-1.132z"
     id="path114" />
  <path
     fill="#9B9A9A"
     d="M71.44 174.8h15.677c.646 0 1.131.484 1.131 1.13v16.002c0 .646-.485 1.131-1.131 1.131H71.439a1.105 1.105 0 0 1-1.131-1.131V175.93c0-.647.485-1.132 1.131-1.132z"
     id="path116" />
  <path
     fill="#CFD0CF"
     d="M73.863 176.577h10.91c.647 0 1.132.485 1.132 1.132v10.91c0 .646-.485 1.13-1.132 1.13h-10.91a1.105 1.105 0 0 1-1.13-1.13v-10.91c-.082-.647.484-1.132 1.13-1.132z"
     id="path118" />
  <path
     fill="#9B9A9A"
     d="M52.125 174.8h15.677c.647 0 1.132.484 1.132 1.13v16.002c0 .646-.485 1.131-1.132 1.131H52.125a1.105 1.105 0 0 1-1.132-1.131V175.93c-.08-.647.485-1.132 1.132-1.132z"
     id="path120" />
  <path
     fill="#CFD0CF"
     d="M54.468 176.577h10.99c.647 0 1.132.485 1.132 1.132v10.91c0 .646-.485 1.13-1.131 1.13h-10.99a1.105 1.105 0 0 1-1.132-1.13v-10.91c0-.647.485-1.132 1.131-1.132z"
     id="path122" />
  <path
     fill="#9B9A9A"
     d="M81.056 194.195h149.909c.646 0 1.131.485 1.131 1.131v16.001c0 .647-.485 1.132-1.131 1.132H81.055a1.105 1.105 0 0 1-1.13-1.132v-16c0-.567.484-1.132 1.13-1.132z"
     id="path124" />
  <path
     fill="#CFD0CF"
     d="M83.48 195.973h145.141c.647 0 1.132.484 1.132 1.131v10.91c0 .646-.485 1.131-1.132 1.131H83.481a1.105 1.105 0 0 1-1.132-1.131v-10.83c0-.646.485-1.211 1.131-1.211z"
     id="path126" />
  <path
     fill="#9B9A9A"
     d="M191.528 135.928h15.678c.646 0 1.131.485 1.131 1.132v16c0 .647-.485 1.132-1.131 1.132h-15.678a1.105 1.105 0 0 1-1.132-1.131V137.06c0-.647.485-1.132 1.132-1.132z"
     id="path128" />
  <path
     fill="#CFD0CF"
     d="M193.952 137.706h10.91c.647 0 1.131.485 1.131 1.131v10.91c0 .647-.484 1.132-1.13 1.132h-10.91a1.105 1.105 0 0 1-1.132-1.132v-10.91c0-.646.485-1.13 1.131-1.13z"
     id="path130" />
  <path
     fill="#9B9A9A"
     d="M210.842 135.928h15.678c.647 0 1.131.485 1.131 1.132v16c0 .647-.484 1.132-1.13 1.132h-15.679a1.105 1.105 0 0 1-1.131-1.131V137.06c0-.647.485-1.132 1.131-1.132z"
     id="path132" />
  <path
     fill="#CFD0CF"
     d="M213.267 137.706h10.91c.646 0 1.13.485 1.13 1.131v10.91c0 .647-.484 1.132-1.13 1.132h-10.91a1.105 1.105 0 0 1-1.132-1.132v-10.91c0-.646.485-1.13 1.132-1.13z"
     id="path134" />
  <path
     fill="#9B9A9A"
     d="M230.237 135.928h15.678c.647 0 1.132.485 1.132 1.132v16c0 .647-.485 1.132-1.132 1.132h-15.678a1.105 1.105 0 0 1-1.13-1.131V137.06c-.082-.647.484-1.132 1.13-1.132z"
     id="path136" />
  <path
     fill="#CFD0CF"
     d="M232.581 137.706h10.91c.646 0 1.131.485 1.131 1.131v10.91c0 .647-.485 1.132-1.131 1.132h-10.91a1.105 1.105 0 0 1-1.131-1.132v-10.91c0-.646.485-1.13 1.131-1.13z"
     id="path138" />
  <path
     fill="#9B9A9A"
     d="M249.552 135.928h15.678c.646 0 1.131.485 1.131 1.132v16c0 .647-.485 1.132-1.131 1.132h-15.678a1.105 1.105 0 0 1-1.131-1.131V137.06c-.081-.647.484-1.132 1.13-1.132z"
     id="path140" />
  <path
     fill="#CFD0CF"
     d="M251.895 137.706h10.91c.647 0 1.132.485 1.132 1.131v10.91c0 .647-.485 1.132-1.132 1.132h-10.91a1.105 1.105 0 0 1-1.13-1.132v-10.91c0-.646.484-1.13 1.13-1.13z"
     id="path142" />
  <path
     fill="#9B9A9A"
     d="M268.866 135.928h15.678c.647 0 1.131.485 1.131 1.132v16c0 .647-.484 1.132-1.13 1.132h-15.679a1.105 1.105 0 0 1-1.131-1.131V137.06c-.08-.647.485-1.132 1.131-1.132z"
     id="path144" />
  <path
     fill="#CFD0CF"
     d="M271.21 137.706h10.91c.646 0 1.131.485 1.131 1.131v10.91c0 .647-.485 1.132-1.131 1.132h-10.91a1.105 1.105 0 0 1-1.131-1.132v-10.91c0-.646.484-1.13 1.13-1.13z"
     id="path146" />
  <path
     fill="#9B9A9A"
     d="M172.213 135.928h15.678c.647 0 1.132.485 1.132 1.132v16c0 .647-.485 1.132-1.132 1.132h-15.678a1.105 1.105 0 0 1-1.131-1.131V137.06c0-.647.485-1.132 1.131-1.132z"
     id="path148" />
  <path
     fill="#CFD0CF"
     d="M174.638 137.706h10.91c.646 0 1.131.485 1.131 1.131v10.91c0 .647-.485 1.132-1.131 1.132h-10.91a1.105 1.105 0 0 1-1.132-1.132v-10.91c0-.646.485-1.13 1.132-1.13z"
     id="path150" />
  <path
     fill="#9B9A9A"
     d="M153.222 135.928H168.9c.647 0 1.131.485 1.131 1.132v16c0 .647-.484 1.132-1.13 1.132h-15.679a1.105 1.105 0 0 1-1.131-1.131V137.06c-.08-.647.485-1.132 1.131-1.132z"
     id="path152" />
  <path
     fill="#CFD0CF"
     d="M155.566 137.706h10.91c.646 0 1.131.485 1.131 1.131v10.91c0 .647-.485 1.132-1.131 1.132h-10.91a1.105 1.105 0 0 1-1.132-1.132v-10.91c0-.646.485-1.13 1.132-1.13z"
     id="path154" />
  <path
     fill="#9B9A9A"
     d="M133.585 135.928h15.677c.647 0 1.132.485 1.132 1.132v16c0 .647-.485 1.132-1.132 1.132h-15.677a1.105 1.105 0 0 1-1.132-1.131V137.06c0-.647.485-1.132 1.132-1.132z"
     id="path156" />
  <path
     fill="#CFD0CF"
     d="M136.009 137.706h10.91c.646 0 1.131.485 1.131 1.131v10.91c0 .647-.485 1.132-1.131 1.132h-10.91a1.105 1.105 0 0 1-1.131-1.132v-10.91c-.081-.646.485-1.13 1.131-1.13z"
     id="path158" />
  <path
     fill="#9B9A9A"
     d="M114.27 135.928h15.678c.647 0 1.131.485 1.131 1.132v16c0 .647-.484 1.132-1.131 1.132H114.27a1.105 1.105 0 0 1-1.131-1.131V137.06c0-.647.485-1.132 1.131-1.132z"
     id="path160" />
  <path
     fill="#CFD0CF"
     d="M116.695 137.706h10.91c.646 0 1.13.485 1.13 1.131v10.91c0 .647-.484 1.132-1.13 1.132h-10.91a1.105 1.105 0 0 1-1.132-1.132v-10.91c-.08-.646.485-1.13 1.132-1.13z"
     id="path162" />
  <path
     fill="#9B9A9A"
     d="M94.956 135.928h15.678c.646 0 1.131.485 1.131 1.132v16c0 .647-.485 1.132-1.131 1.132H94.956a1.105 1.105 0 0 1-1.132-1.131V137.06c0-.647.485-1.132 1.132-1.132z"
     id="path164" />
  <path
     fill="#CFD0CF"
     d="M97.38 137.706h10.91c.647 0 1.131.485 1.131 1.131v10.91c0 .647-.484 1.132-1.131 1.132H97.38a1.105 1.105 0 0 1-1.131-1.132v-10.91c-.081-.646.485-1.13 1.131-1.13z"
     id="path166" />
  <path
     fill="#9B9A9A"
     d="M75.641 135.928H91.32c.647 0 1.132.485 1.132 1.132v16c0 .647-.485 1.132-1.132 1.132H75.641a1.105 1.105 0 0 1-1.131-1.131V137.06c-.08-.647.485-1.132 1.131-1.132z"
     id="path168" />
  <path
     fill="#CFD0CF"
     d="M77.985 137.706h10.91c.646 0 1.131.485 1.131 1.131v10.91c0 .647-.485 1.132-1.131 1.132h-10.91a1.105 1.105 0 0 1-1.131-1.132v-10.91c0-.646.484-1.13 1.131-1.13z"
     id="path170" />
  <path
     fill="#9B9A9A"
     d="M56.327 135.928h15.678c.646 0 1.131.485 1.131 1.132v16c0 .647-.485 1.132-1.131 1.132H56.327a1.105 1.105 0 0 1-1.131-1.131V137.06c-.081-.647.484-1.132 1.131-1.132z"
     id="path172" />
  <path
     fill="#CFD0CF"
     d="M58.67 137.706h10.91c.647 0 1.132.485 1.132 1.131v10.91c0 .647-.485 1.132-1.132 1.132H58.67a1.105 1.105 0 0 1-1.13-1.132v-10.91c0-.646.484-1.13 1.13-1.13z"
     id="path174" />
  <path
     fill="#9B9A9A"
     d="M181.507 116.533h15.678c.646 0 1.131.485 1.131 1.131v16.001c0 .647-.485 1.132-1.131 1.132h-15.678a1.105 1.105 0 0 1-1.131-1.132v-16c0-.647.484-1.132 1.131-1.132z"
     id="path176" />
  <path
     fill="#CFD0CF"
     d="M183.931 118.31h10.91c.647 0 1.132.486 1.132 1.132v10.91c0 .647-.485 1.131-1.132 1.131h-10.91a1.105 1.105 0 0 1-1.131-1.13v-10.91c0-.647.485-1.132 1.131-1.132z"
     id="path178" />
  <path
     fill="#9B9A9A"
     d="M200.902 116.533h15.678c.647 0 1.131.485 1.131 1.131v16.001c0 .647-.484 1.132-1.131 1.132h-15.678a1.105 1.105 0 0 1-1.131-1.132v-16c-.081-.647.485-1.132 1.131-1.132z"
     id="path180" />
  <path
     fill="#CFD0CF"
     d="M203.246 118.31h10.91c.646 0 1.131.486 1.131 1.132v10.91c0 .647-.485 1.131-1.131 1.131h-10.91a1.105 1.105 0 0 1-1.132-1.13v-10.91c0-.647.485-1.132 1.132-1.132z"
     id="path182" />
  <path
     fill="#9B9A9A"
     d="M220.217 116.533h15.677c.647 0 1.132.485 1.132 1.131v16.001c0 .647-.485 1.132-1.132 1.132h-15.677a1.105 1.105 0 0 1-1.132-1.132v-16c-.08-.647.485-1.132 1.132-1.132z"
     id="path184" />
  <path
     fill="#CFD0CF"
     d="M222.56 118.31h10.99c.647 0 1.132.486 1.132 1.132v10.91c0 .647-.485 1.131-1.131 1.131h-10.91a1.105 1.105 0 0 1-1.131-1.13v-10.91c-.081-.647.404-1.132 1.05-1.132z"
     id="path186" />
  <path
     fill="#9B9A9A"
     d="M239.531 116.533h15.678c.646 0 1.131.485 1.131 1.131v16.001c0 .647-.485 1.132-1.131 1.132H239.53a1.105 1.105 0 0 1-1.131-1.132v-16c-.081-.647.485-1.132 1.131-1.132z"
     id="path188" />
  <path
     fill="#CFD0CF"
     d="M241.875 118.31h10.91c.646 0 1.13.486 1.13 1.132v10.91c0 .647-.484 1.131-1.13 1.131h-10.91a1.105 1.105 0 0 1-1.132-1.13v-10.91c0-.647.485-1.132 1.132-1.132z"
     id="path190" />
  <path
     fill="#9B9A9A"
     d="M258.845 116.533h15.678c.647 0 1.132.485 1.132 1.131v16.001c0 .647-.485 1.132-1.132 1.132h-15.678a1.105 1.105 0 0 1-1.131-1.132v-16c-.08-.647.485-1.132 1.131-1.132z"
     id="path192" />
  <path
     fill="#CFD0CF"
     d="M261.189 118.31h10.91c.646 0 1.131.486 1.131 1.132v10.91c0 .647-.485 1.131-1.131 1.131h-10.91a1.105 1.105 0 0 1-1.131-1.13v-10.91c0-.647.485-1.132 1.131-1.132z"
     id="path194" />
  <path
     fill="#9B9A9A"
     d="M278.16 116.533h15.678c.646 0 1.131.485 1.131 1.131v16.001c0 .647-.485 1.132-1.131 1.132H278.16a1.105 1.105 0 0 1-1.132-1.132v-16c-.08-.647.485-1.132 1.132-1.132z"
     id="path196" />
  <path
     fill="#CFD0CF"
     d="M280.503 118.31h10.91c.647 0 1.132.486 1.132 1.132v10.91c0 .647-.485 1.131-1.132 1.131h-10.91a1.105 1.105 0 0 1-1.131-1.13v-10.91c0-.647.566-1.132 1.131-1.132z"
     id="path198" />
  <path
     fill="#9B9A9A"
     d="M162.193 116.533h15.677c.647 0 1.132.485 1.132 1.131v16.001c0 .647-.485 1.132-1.132 1.132h-15.677a1.105 1.105 0 0 1-1.132-1.132v-16c0-.647.485-1.132 1.132-1.132z"
     id="path200" />
  <path
     fill="#CFD0CF"
     d="M164.617 118.31h10.91c.646 0 1.131.486 1.131 1.132v10.91c0 .647-.485 1.131-1.131 1.131h-10.91a1.105 1.105 0 0 1-1.131-1.13v-10.91c0-.647.484-1.132 1.131-1.132z"
     id="path202" />
  <path
     fill="#9B9A9A"
     d="M142.878 116.533h15.678c.646 0 1.131.485 1.131 1.131v16.001c0 .647-.485 1.132-1.131 1.132h-15.678a1.105 1.105 0 0 1-1.131-1.132v-16c0-.647.485-1.132 1.131-1.132z"
     id="path204" />
  <path
     fill="#CFD0CF"
     d="M145.303 118.31h10.91c.646 0 1.13.486 1.13 1.132v10.91c0 .647-.484 1.131-1.13 1.131h-10.91a1.105 1.105 0 0 1-1.132-1.13v-10.91c-.08-.647.485-1.132 1.132-1.132z"
     id="path206" />
  <path
     fill="#9B9A9A"
     d="M123.564 116.533h15.678c.646 0 1.13.485 1.13 1.131v16.001c0 .647-.484 1.132-1.13 1.132h-15.678a1.105 1.105 0 0 1-1.132-1.132v-16c0-.647.485-1.132 1.132-1.132z"
     id="path208" />
  <path
     fill="#CFD0CF"
     d="M125.988 118.31h10.91c.646 0 1.131.486 1.131 1.132v10.91c0 .647-.485 1.131-1.131 1.131h-10.91a1.105 1.105 0 0 1-1.131-1.13v-10.91c-.081-.647.485-1.132 1.131-1.132z"
     id="path210" />
  <path
     fill="#9B9A9A"
     d="M104.25 116.533h15.677c.647 0 1.132.485 1.132 1.131v16.001c0 .647-.485 1.132-1.132 1.132H104.25a1.105 1.105 0 0 1-1.131-1.132v-16c0-.647.485-1.132 1.131-1.132z"
     id="path212" />
  <path
     fill="#CFD0CF"
     d="M106.674 118.31h10.91c.646 0 1.13.486 1.13 1.132v10.91c0 .647-.484 1.131-1.13 1.131h-10.91a1.105 1.105 0 0 1-1.132-1.13v-10.91c-.08-.647.485-1.132 1.132-1.132z"
     id="path214" />
  <path
     fill="#9B9A9A"
     d="M84.935 116.533h15.678c.646 0 1.131.485 1.131 1.131v16.001c0 .647-.485 1.132-1.131 1.132H84.935a1.105 1.105 0 0 1-1.131-1.132v-16c0-.647.484-1.132 1.13-1.132z"
     id="path216" />
  <path
     fill="#CFD0CF"
     d="M87.36 118.31h10.91c.646 0 1.13.486 1.13 1.132v10.91c0 .647-.484 1.131-1.13 1.131H87.36a1.105 1.105 0 0 1-1.132-1.13v-10.91c-.08-.647.485-1.132 1.131-1.132z"
     id="path218" />
  <path
     fill="#9B9A9A"
     d="M65.62 116.533h15.678c.647 0 1.132.485 1.132 1.131v16.001c0 .647-.485 1.132-1.132 1.132H65.621a1.105 1.105 0 0 1-1.132-1.132v-16c-.08-.647.485-1.132 1.132-1.132z"
     id="path220" />
  <path
     fill="#CFD0CF"
     d="M67.964 118.31h10.91c.646 0 1.131.486 1.131 1.132v10.91c0 .647-.485 1.131-1.131 1.131h-10.91a1.105 1.105 0 0 1-1.131-1.13v-10.91c0-.647.565-1.132 1.131-1.132z"
     id="path222" />
  <path
     fill="#9B9A9A"
     d="M46.306 116.533h15.678c.646 0 1.131.485 1.131 1.131v16.001c0 .647-.485 1.132-1.131 1.132H46.306a1.105 1.105 0 0 1-1.131-1.132v-16c-.081-.647.485-1.132 1.131-1.132z"
     id="path224" />
  <path
     fill="#CFD0CF"
     d="M48.65 118.31h10.91c.646 0 1.13.486 1.13 1.132v10.91c0 .647-.484 1.131-1.13 1.131H48.65a1.105 1.105 0 0 1-1.132-1.13v-10.91c0-.647.485-1.132 1.132-1.132z"
     id="path226" />
  <path
     fill="#60605D"
     d="M15.759 174.8h32.406c.646 0 1.131.484 1.131 1.13v16.002c0 .646-.485 1.131-1.131 1.131H15.759a1.105 1.105 0 0 1-1.132-1.131V175.93c-.08-.647.485-1.132 1.132-1.132z"
     id="path228" />
  <path
     fill="#868580"
     d="M18.102 176.577H45.74c.647 0 1.132.485 1.132 1.132v10.91c0 .646-.485 1.13-1.132 1.13H18.102a1.105 1.105 0 0 1-1.131-1.13v-10.91c0-.647.485-1.132 1.131-1.132z"
     id="path230" />
  <path
     fill="#60605D"
     d="M264.583 174.8h29.174c.646 0 1.131.484 1.131 1.13v16.002c0 .646-.485 1.131-1.131 1.131h-29.174a1.105 1.105 0 0 1-1.131-1.131V175.93c-.081-.647.485-1.132 1.131-1.132z"
     id="path232" />
  <path
     fill="#868580"
     d="M266.927 176.577h24.405c.647 0 1.132.485 1.132 1.132v10.91c0 .646-.485 1.13-1.132 1.13h-24.405a1.105 1.105 0 0 1-1.132-1.13v-10.91c0-.647.485-1.132 1.132-1.132z"
     id="path234" />
  <path
     fill="#60605D"
     d="M31.356 194.195h21.658c.646 0 1.131.485 1.131 1.131v16.001c0 .647-.485 1.132-1.131 1.132H31.356a1.105 1.105 0 0 1-1.132-1.132v-16c-.08-.567.485-1.132 1.132-1.132z"
     id="path236" />
  <path
     fill="#868580"
     d="M33.7 195.973h16.89c.646 0 1.13.484 1.13 1.131v10.91c0 .646-.484 1.131-1.13 1.131H33.7a1.105 1.105 0 0 1-1.132-1.131v-10.83c0-.646.485-1.211 1.131-1.211z"
     id="path238" />
  <path
     fill="#60605D"
     d="M56.327 194.195h21.658c.646 0 1.131.485 1.131 1.131v16.001c0 .647-.485 1.132-1.131 1.132H56.327a1.105 1.105 0 0 1-1.131-1.132v-16c-.081-.567.484-1.132 1.131-1.132z"
     id="path240" />
  <path
     fill="#868580"
     d="M58.67 195.973h16.89c.647 0 1.132.484 1.132 1.131v10.91c0 .646-.485 1.131-1.131 1.131H58.67a1.105 1.105 0 0 1-1.132-1.131v-10.83c0-.646.485-1.211 1.132-1.211z"
     id="path242" />
  <path
     fill="#60605D"
     d="M234.44 194.195h20.85c.646 0 1.131.485 1.131 1.131v16.001c0 .647-.485 1.132-1.131 1.132h-20.85a1.105 1.105 0 0 1-1.132-1.132v-16c-.08-.567.485-1.132 1.132-1.132z"
     id="path244" />
  <path
     fill="#868580"
     d="M236.783 195.973h16.082c.647 0 1.132.484 1.132 1.131v10.91c0 .646-.485 1.131-1.132 1.131h-16.082a1.105 1.105 0 0 1-1.131-1.131v-10.83c0-.646.485-1.211 1.131-1.211z"
     id="path246" />
  <path
     fill="#60605D"
     d="M15.759 155.323H38.79c.647 0 1.132.485 1.132 1.132v16c0 .647-.485 1.132-1.132 1.132H15.76a1.105 1.105 0 0 1-1.132-1.131v-16.001c-.08-.566.485-1.132 1.132-1.132z"
     id="path248" />
  <path
     fill="#868580"
     d="M18.102 157.101h18.264c.647 0 1.131.485 1.131 1.132v10.91c0 .646-.484 1.13-1.131 1.13H18.102a1.105 1.105 0 0 1-1.131-1.13v-10.91c0-.566.485-1.132 1.131-1.132z"
     id="path250" />
  <path
     fill="#60605D"
     d="M42.589 155.323h15.516c.646 0 1.131.485 1.131 1.132v16c0 .647-.485 1.132-1.131 1.132H42.589a1.105 1.105 0 0 1-1.132-1.131v-16.001c0-.566.485-1.132 1.132-1.132z"
     id="path252" />
  <path
     fill="#868580"
     d="M45.013 157.101h10.748c.647 0 1.132.485 1.132 1.132v10.91c0 .646-.485 1.13-1.132 1.13H45.013a1.105 1.105 0 0 1-1.131-1.13v-10.91c0-.566.485-1.132 1.131-1.132z"
     id="path254" />
  <path
     fill="#60605D"
     d="M297.474 116.533h15.516c.647 0 1.132.485 1.132 1.131v16.001c0 .647-.485 1.132-1.132 1.132h-15.516a1.105 1.105 0 0 1-1.131-1.132v-16c0-.647.485-1.132 1.131-1.132z"
     id="path256" />
  <path
     fill="#868580"
     d="M299.899 118.31h10.748c.646 0 1.131.486 1.131 1.132v10.91c0 .647-.485 1.131-1.131 1.131h-10.748a1.105 1.105 0 0 1-1.132-1.13v-10.91c-.08-.647.485-1.132 1.132-1.132z"
     id="path258" />
  <path
     fill="#60605D"
     d="M316.627 116.533h15.516c.647 0 1.132.485 1.132 1.131v16.001c0 .647-.485 1.132-1.132 1.132h-15.516a1.105 1.105 0 0 1-1.131-1.132v-16c0-.647.485-1.132 1.131-1.132z"
     id="path260" />
  <path
     fill="#868580"
     d="M319.051 118.31H329.8c.646 0 1.131.486 1.131 1.132v10.91c0 .647-.485 1.131-1.131 1.131H319.05a1.105 1.105 0 0 1-1.13-1.13v-10.91c-.082-.647.484-1.132 1.13-1.132z"
     id="path262" />
  <path
     fill="#60605D"
     d="M15.759 135.928H52.77c.647 0 1.132.485 1.132 1.132v16c0 .647-.485 1.132-1.132 1.132H15.76a1.105 1.105 0 0 1-1.132-1.131V137.06c-.08-.647.485-1.132 1.132-1.132z"
     id="path264" />
  <path
     fill="#868580"
     d="M18.102 137.706h32.245c.646 0 1.131.485 1.131 1.131v10.91c0 .647-.485 1.132-1.131 1.132H18.102a1.105 1.105 0 0 1-1.131-1.132v-10.91c0-.646.485-1.13 1.131-1.13z"
     id="path266" />
  <path
     fill="#60605D"
     d="M15.759 116.533H42.75c.647 0 1.132.485 1.132 1.131v16.001c0 .647-.485 1.132-1.132 1.132H15.76a1.105 1.105 0 0 1-1.132-1.132v-16c-.08-.647.485-1.132 1.132-1.132z"
     id="path268" />
  <path
     fill="#868580"
     d="M18.102 118.31h22.224c.646 0 1.131.486 1.131 1.132v10.91c0 .647-.485 1.131-1.131 1.131H18.102a1.105 1.105 0 0 1-1.131-1.13v-10.91c0-.647.485-1.132 1.131-1.132z"
     id="path270" />
  <path
     fill="#60605D"
     d="M288.342 135.928h24.648c.647 0 1.132.485 1.132 1.132v35.315c0 .647-.485 1.131-1.132 1.131H294a1.105 1.105 0 0 1-1.132-1.13v-15.113c0-1.94-1.212-2.586-2.99-2.586-2.425 0-2.667-1.455-2.667-2.424V137.06c0-.647.566-1.132 1.131-1.132z"
     id="path272" />
  <path
     fill="#868580"
     d="M290.686 137.625h20.042c.646 0 1.131.485 1.131 1.132v30.466c0 .647-.485 1.132-1.131 1.132h-14.385a1.105 1.105 0 0 1-1.132-1.132v-13.415c0-1.616-1.535-2.424-2.909-2.424-2.505 0-2.747-1.697-2.747-2.505v-12.122c0-.647.484-1.132 1.13-1.132z"
     id="path274" />
  <path
     fill="#60605D"
     d="M15.678 85.42h15.678c.646 0 1.131.485 1.131 1.131v16.001c0 .647-.485 1.132-1.131 1.132H15.678a1.105 1.105 0 0 1-1.132-1.132v-16c-.08-.647.485-1.132 1.132-1.132z"
     id="path276" />
  <path
     fill="#868580"
     d="M18.021 87.198h10.91c.647 0 1.132.485 1.132 1.131v10.91c0 .646-.485 1.131-1.132 1.131h-10.91a1.105 1.105 0 0 1-1.131-1.131v-10.91c0-.646.485-1.131 1.131-1.131z"
     id="path278" />
  <path
     fill="#60605D"
     d="M45.821 85.42h21.173c.647 0 1.132.485 1.132 1.131v16.001c0 .647-.485 1.132-1.132 1.132H45.821a1.105 1.105 0 0 1-1.131-1.132v-16c0-.647.485-1.132 1.131-1.132z"
     id="path280" />
  <path
     fill="#868580"
     d="M48.246 87.198H64.65c.646 0 1.131.485 1.131 1.131v10.91c0 .646-.485 1.131-1.131 1.131H48.246a1.105 1.105 0 0 1-1.132-1.131v-10.91c-.08-.646.485-1.131 1.132-1.131z"
     id="path282" />
  <path
     fill="#60605D"
     d="M70.389 85.42h21.173c.646 0 1.131.485 1.131 1.131v16.001c0 .647-.485 1.132-1.131 1.132H70.389a1.105 1.105 0 0 1-1.132-1.132v-16c-.08-.647.485-1.132 1.132-1.132z"
     id="path284" />
  <path
     fill="#868580"
     d="M72.732 87.198h16.405c.647 0 1.132.485 1.132 1.131v10.91c0 .646-.485 1.131-1.132 1.131H72.732a1.105 1.105 0 0 1-1.131-1.131v-10.91c0-.646.485-1.131 1.131-1.131z"
     id="path286" />
  <path
     fill="#60605D"
     d="M94.875 85.42h21.173c.647 0 1.131.485 1.131 1.131v16.001c0 .647-.484 1.132-1.13 1.132H94.874a1.105 1.105 0 0 1-1.131-1.132v-16c0-.647.565-1.132 1.131-1.132z"
     id="path288" />
  <path
     fill="#868580"
     d="M97.3 87.198h16.405c.646 0 1.13.485 1.13 1.131v10.91c0 .646-.484 1.131-1.13 1.131H97.299a1.105 1.105 0 0 1-1.131-1.131v-10.91c0-.646.485-1.131 1.131-1.131z"
     id="path290" />
  <path
     fill="#60605D"
     d="M119.442 85.42h21.173c.647 0 1.132.485 1.132 1.131v16.001c0 .647-.485 1.132-1.132 1.132h-21.173a1.105 1.105 0 0 1-1.131-1.132v-16c0-.647.485-1.132 1.131-1.132z"
     id="path292" />
  <path
     fill="#868580"
     d="M121.867 87.198h16.405c.646 0 1.131.485 1.131 1.131v10.91c0 .646-.485 1.131-1.131 1.131h-16.405a1.105 1.105 0 0 1-1.132-1.131v-10.91c-.08-.646.485-1.131 1.132-1.131z"
     id="path294" />
  <path
     fill="#60605D"
     d="M144.01 85.42h21.173c.646 0 1.131.485 1.131 1.131v16.001c0 .647-.485 1.132-1.131 1.132H144.01a1.105 1.105 0 0 1-1.132-1.132v-16c0-.647.485-1.132 1.132-1.132z"
     id="path296" />
  <path
     fill="#868580"
     d="M146.434 87.198h16.405c.647 0 1.131.485 1.131 1.131v10.91c0 .646-.484 1.131-1.13 1.131h-16.406a1.105 1.105 0 0 1-1.131-1.131v-10.91c-.081-.646.484-1.131 1.13-1.131z"
     id="path298" />
  <path
     fill="#60605D"
     d="M176.577 85.42h21.173c.647 0 1.132.485 1.132 1.131v16.001c0 .647-.485 1.132-1.132 1.132h-21.173a1.105 1.105 0 0 1-1.131-1.132v-16c0-.647.485-1.132 1.131-1.132z"
     id="path300" />
  <path
     fill="#868580"
     d="M179.002 87.198h16.405c.646 0 1.131.485 1.131 1.131v10.91c0 .646-.485 1.131-1.131 1.131h-16.405a1.105 1.105 0 0 1-1.132-1.131v-10.91c-.08-.646.485-1.131 1.132-1.131z"
     id="path302" />
  <path
     fill="#60605D"
     d="M201.145 85.42h21.092c.646 0 1.131.485 1.131 1.131v16.001c0 .647-.485 1.132-1.131 1.132h-21.173a1.105 1.105 0 0 1-1.132-1.132v-16c0-.647.566-1.132 1.213-1.132z"
     id="path304" />
  <path
     fill="#868580"
     d="M203.488 87.198h16.405c.647 0 1.132.485 1.132 1.131v10.91c0 .646-.485 1.131-1.132 1.131h-16.405a1.105 1.105 0 0 1-1.131-1.131v-10.91c0-.646.485-1.131 1.131-1.131z"
     id="path306" />
  <path
     fill="#60605D"
     d="M225.631 85.42h21.173c.647 0 1.132.485 1.132 1.131v16.001c0 .647-.485 1.132-1.132 1.132h-21.173a1.105 1.105 0 0 1-1.131-1.132v-16c0-.647.565-1.132 1.131-1.132z"
     id="path308" />
  <path
     fill="#868580"
     d="M228.056 87.198h16.405c.646 0 1.131.485 1.131 1.131v10.91c0 .646-.485 1.131-1.131 1.131h-16.405a1.105 1.105 0 0 1-1.132-1.131v-10.91c0-.646.485-1.131 1.132-1.131z"
     id="path310" />
  <path
     fill="#60605D"
     d="M250.198 85.42h21.174c.646 0 1.13.485 1.13 1.131v16.001c0 .647-.484 1.132-1.13 1.132h-21.174a1.105 1.105 0 0 1-1.131-1.132v-16c0-.647.485-1.132 1.131-1.132z"
     id="path312" />
  <path
     fill="#868580"
     d="M252.623 87.198h16.405c.646 0 1.131.485 1.131 1.131v10.91c0 .646-.485 1.131-1.131 1.131h-16.405a1.105 1.105 0 0 1-1.132-1.131v-10.91c-.08-.646.485-1.131 1.132-1.131z"
     id="path314" />
  <path
     fill="#60605D"
     d="M274.766 85.42h21.173c.646 0 1.131.485 1.131 1.131v16.001c0 .647-.485 1.132-1.131 1.132h-21.173a1.105 1.105 0 0 1-1.132-1.132v-16c0-.647.485-1.132 1.132-1.132z"
     id="path316" />
  <path
     fill="#868580"
     d="M277.19 87.198h16.405c.647 0 1.132.485 1.132 1.131v10.91c0 .646-.485 1.131-1.132 1.131H277.19a1.105 1.105 0 0 1-1.131-1.131v-10.91c-.081-.646.485-1.131 1.131-1.131z"
     id="path318" />
  <path
     fill="#60605D"
     d="M310.97 85.42h21.173c.647 0 1.132.485 1.132 1.131v16.001c0 .647-.485 1.132-1.132 1.132H310.97a1.105 1.105 0 0 1-1.131-1.132v-16c0-.647.485-1.132 1.131-1.132z"
     id="path320" />
  <path
     fill="#868580"
     d="M313.395 87.198H329.8c.646 0 1.131.485 1.131 1.131v10.91c0 .646-.485 1.131-1.131 1.131h-16.405a1.105 1.105 0 0 1-1.132-1.131v-10.91c0-.646.485-1.131 1.132-1.131z"
     id="path322" />
  <g
     id="g330">
    <path
       fill="#BAD532"
       d="M322.526 143.201h7.031s.081.081.081.162v2.263c0 .08 0 .161-.08.161h-7.032s-.08-.08-.08-.161v-2.263c0-.08.08-.162.08-.162z"
       id="path324" />
    <path
       fill="#525056"
       d="M322.526 162.435h7.031s.081.08.081.162v2.262c0 .081 0 .162-.08.162h-7.032s-.08-.08-.08-.162v-2.262c0-.081.08-.162.08-.162zm0 19.314h7.031s.081.081.081.162v2.263c0 .08 0 .161-.08.161h-7.032s-.08-.08-.08-.161v-2.263c0-.08.08-.162.08-.162z"
       id="path326" />
    <path
       fill="#E7E514"
       d="M328.426 145.14h-4.768c-.243 0-.485-.242-.485-.484v-.323c0-.243.242-.485.485-.485h4.768c.242 0 .485.242.485.485v.323c.08.323-.162.485-.485.485z"
       id="path328" />
  </g>
  <g
     id="g336">
    <path
       fill="#EAEAEA"
       d="M14.95 74.43V62.953a.81.81 0 0 1 .809-.808h49.053c.081 0 .243 0 .324.08-.162-.161-.324-.323-.566-.323H15.435a.81.81 0 0 0-.808.808v11.476c0 .323.162.565.485.727-.08-.162-.162-.323-.162-.485z"
       id="path332" />
    <path
       fill="#777878"
       d="M64.893 62.065c.081.08.081.242.081.404v11.475a.81.81 0 0 1-.808.808H15.112c-.162 0-.242-.08-.404-.08.162.242.404.404.647.404h49.053a.81.81 0 0 0 .808-.808V62.71c.081-.242-.08-.485-.323-.646z"
       id="path334" />
  </g>
  <path
     fill="#192753"
     d="M37.9 72l1.1-1.6.2 1.6h-1.3zm2.6 1.7l.1-.2h-.2c-.1 0-.2-.1-.2-.1l-.2-.2c0-.1-.1-.1-.1-.2l-.6-3.6h-.2c-.3.5-.6 1.1-1.1 1.8-.4.6-.8 1.3-1.1 1.9l-.2.2c-.1.1-.2.1-.2.2-.1 0-.2.1-.2.1h-.2l-.1.2h1.6l.1-.2c-.2 0-.3 0-.4-.1-.1 0-.2-.1-.2-.2 0 0 0-.1.1-.2 0-.1.1-.2.1-.2 0-.1.1-.2.2-.3.1-.2.2-.2.2-.3h1.5c.1.3.1.6.1.7v.3c0 .1 0 .1-.1.1 0 0-.1.1-.2.1h-.4l-.1.2h2zm4.6-2.3c-.2-.2-.4-.3-.7-.3-.2 0-.4 0-.6.1l-.6.3c.2-.4.4-.8.7-1.1.3-.3.7-.5 1.1-.6h.2v-.2c-.4.1-.8.2-1.1.3s-.6.4-.9.6c-.2.2-.5.6-.6 1-.2.3-.2.7-.2 1.1 0 .4.1.7.3 1s.5.3.9.3c.2 0 .5-.1.6-.2.2-.1.4-.2.6-.4s.2-.3.4-.6c.1-.2.2-.4.2-.6s-.1-.6-.3-.7zm-.7 1.8c-.2.2-.4.4-.7.4-.2 0-.4-.1-.5-.2-.1-.2-.2-.4-.2-.7 0-.2 0-.4.1-.6 0-.2.1-.2.1-.3.2-.1.2-.2.4-.2.2-.1.3-.1.5-.1s.4.1.5.2c.2.2.2.3.2.6s-.1.6-.4.9zm4.5-2.4c-.2-.2-.6-.3-1-.3-.2 0-.6.1-.8.2-.2.1-.5.2-.6.5-.2.2-.3.4-.4.7-.1.2-.2.6-.2.8 0 .3.1.6.3.9.2.2.6.3 1 .3.3 0 .6-.1.8-.2.2-.1.5-.2.6-.5.2-.2.3-.4.4-.7.1-.2.2-.6.2-.8 0-.4-.1-.7-.3-.9zm-.4 1.4l-.2.7c-.2.2-.3.5-.5.6-.2.2-.3.2-.6.2-.2 0-.4-.1-.5-.2-.1-.2-.2-.3-.2-.6 0-.2 0-.4.1-.6s.2-.5.2-.6c.1-.2.2-.4.4-.6s.4-.2.6-.2c.2 0 .4.1.5.2.1.2.2.3.2.6.1 0 .1.2 0 .5zm4.1-1.4c-.2-.2-.6-.3-1-.3-.2 0-.6.1-.8.2-.2.1-.5.2-.6.5-.2.2-.3.4-.4.7-.1.3-.2.6-.2.8 0 .3.1.6.3.9.2.2.6.3 1 .3.3 0 .6-.1.8-.2.2-.1.5-.2.6-.5.2-.2.3-.4.4-.7.1-.2.2-.6.2-.8.1-.4 0-.7-.3-.9zm-.3 1.4l-.3.7c-.2.2-.3.5-.5.6-.2.2-.3.2-.6.2s-.4-.1-.5-.2c-.1-.2-.2-.3-.2-.6 0-.2 0-.4.1-.6s.2-.5.2-.6c.1-.2.2-.4.4-.6s.4-.2.6-.2c.2 0 .4.1.5.2.1.2.2.3.2.6.2 0 .1.2.1.5zM21 63.3c-2.7 0-4.9 2.2-4.9 4.9s2.2 4.9 4.9 4.9c.6 0 1.1-.1 1.5-.2v-2.5c-.4.2-.9.4-1.4.4-1.5 0-2.7-1.2-2.7-2.6 0-1.5 1.2-2.6 2.7-2.6.5 0 1 .2 1.4.4v-2.5c-.4-.1-1-.2-1.5-.2zm3.6 4.8h-2v-1.8h3.7"
     id="path338" />
  <path
     fill="#ED2224"
     d="M24.6 68.4h-2v1.7h3.7"
     id="path340" />
  <path
     fill="#192753"
     d="M35.4 67c.4 0 .8-.2 1.1-.3.2-.2.4-.6.4-1s-.2-.7-.4-1-.6-.3-1.1-.3-.8.2-1.1.3c-.2.2-.4.6-.4 1s.2.7.4 1c.3.2.7.3 1.1.3zm0-.7c-.2 0-.3-.1-.5-.2-.1-.2-.2-.3-.2-.5s.1-.4.2-.5c.1-.2.2-.2.5-.2s.3.1.5.2c.1.2.2.3.2.5s-.1.4-.2.5c-.1.1-.3.2-.5.2zm1.9.6h.9v-1.1c0-.2.1-.5.2-.6.1-.2.2-.2.4-.2s.2.1.2.2c.1.1.1.2.1.4V67h.9v-1.1c0-.2.1-.5.2-.6.1-.2.2-.2.4-.2s.2.1.2.2c.1.1.1.2.1.4v1.4h.9v-1.5c0-.3-.1-.6-.2-.8-.2-.2-.4-.3-.7-.3-.2 0-.3 0-.5.1s-.3.2-.4.4c-.1-.2-.2-.3-.3-.4-.2-.1-.3-.2-.5-.2s-.4.1-.6.2c-.2.1-.3.2-.4.4v-.5h-.8l-.1 2.4zm4.9 0h.9v-1.1c0-.2.1-.5.2-.6.1-.2.2-.2.4-.2s.2.1.2.2c.1.1.1.2.1.4V67h.9v-1.1c0-.2.1-.5.2-.6.1-.2.2-.2.4-.2s.2.1.2.2c.1.1.1.2.1.4v1.4h.9v-1.5c0-.3-.1-.6-.2-.8-.2-.2-.4-.3-.7-.3-.2 0-.3 0-.5.1s-.3.2-.4.4c-.1-.2-.2-.3-.3-.4-.2-.1-.3-.2-.5-.2s-.4.1-.6.2c-.2.1-.3.2-.4.4v-.5h-.8l-.1 2.4zm6.3.1c.4 0 .8-.2 1.1-.3.2-.2.4-.6.4-1s-.2-.7-.4-1-.6-.3-1.1-.3c-.4 0-.8.2-1.1.3-.2.2-.4.6-.4 1s.2.7.4 1c.3.2.6.3 1.1.3zm0-.7c-.2 0-.3-.1-.5-.2-.2-.2-.2-.3-.2-.5s.1-.4.2-.5c.1-.2.2-.2.5-.2s.3.1.5.2c.1.2.2.3.2.5s-.1.4-.2.5c-.2.2-.4.2-.5.2zm4.7-3.1h-.9v1.5c-.1-.2-.2-.2-.4-.3-.2-.1-.3-.1-.5-.1-.3 0-.6.2-.8.4-.2.2-.3.6-.3.9 0 .4.1.7.3 1 .2.2.5.4.9.4.2 0 .4-.1.6-.2.2-.1.2-.2.3-.4v.5h.8v-3.7zm-2 2.4c0-.2.1-.3.2-.5s.2-.2.4-.2.3.1.4.2c.1.2.2.3.2.5s-.1.3-.2.5-.2.2-.4.2-.3-.1-.4-.2c-.2-.1-.2-.2-.2-.5zM55 67c.4 0 .8-.2 1.1-.3.2-.2.4-.6.4-1s-.2-.7-.4-1-.6-.3-1.1-.3c-.4 0-.8.2-1.1.3-.2.2-.4.6-.4 1s.2.7.4 1c.3.2.6.3 1.1.3zm0-.7c-.2 0-.3-.1-.5-.2-.1-.2-.2-.3-.2-.5s.1-.4.2-.5c.1-.2.2-.2.5-.2s.3.1.5.2c.1.2.2.3.2.5s-.1.4-.2.5c-.1.2-.3.2-.5.2zm3.8-2h-.3c-.2 0-.3.1-.5.2s-.2.2-.3.4v-.5h-.8V67h.9v-1.1c0-.2.1-.5.2-.6.1-.2.2-.2.5-.2h.3c-.1 0 0-.8 0-.8zm2.8 1.6v-.2c0-.4-.1-.7-.3-1.1-.2-.2-.6-.4-1.1-.4-.4 0-.7.2-1 .3-.2.2-.4.6-.4 1s.2.7.4 1c.2.2.6.3 1.1.3h.5c.2 0 .3-.1.5-.2V66c-.2.1-.2.2-.4.2s-.2.1-.4.1-.4 0-.6-.1-.2-.2-.2-.4l1.9.1zm-1.8-.5c0-.2.1-.2.2-.4.1-.1.2-.2.3-.2s.3.1.4.2c.1.1.1.2.1.4h-1zM32 67c-.4-.1-.6-.2-1-.6-.2-.2-.3-.5-.4-1-.2-.9.2-1.7 1-2 .3-.2.8-.2 1.3-.2.3 0 .6.1.8.1l-.1.8s-.1 0-.2-.1c-.2-.1-.3-.1-.5-.1-.3 0-.6.1-.9.2-.5.4-.5 1.4 0 1.9.3.2.9.3 1.4.2l.2-.1.1.8c-.2 0-.5.1-.9.1H32zm-3.4 1.1h35.1v.3H28.6v-.3z"
     id="path342" />
  <g
     fill="#777878"
     id="g348">
    <path
       d="M261.916 64.65l-5.253 6.466h.647l4.526-5.657m3.232-5.253v15.031c0 .566.162.97.404 1.293.162.162.323.243.566.324-.081 0-.081-.081-.081-.081-.242-.243-.404-.647-.404-1.293V60.206h-.485zm-10.344 16.97v.243h-4.687l-.081.243h5.172v-.404c-.162-.081-.242-.081-.404-.081zm7.112-5.252h-5.738l-1.05 1.293-1.132 1.455c-.243.323-.404.565-.485.889-.08.161-.08.404-.08.565 0 .243.16.404.322.566.081.08.243.162.324.162-.162-.162-.243-.324-.324-.485 0-.162 0-.404.081-.566.081-.242.243-.566.485-.889l1.131-1.455 1.051-1.293h5.334l.08-.242zm4.768 5.253l-.081.323h-7.031l-.08.243h7.434l.08-.405c0-.161-.16-.161-.322-.161zm8-13.577l-.162-1.212-2.99 11.96c-.08.485-.161.89-.161 1.213 0 .404.161.727.485 1.05.08.081.242.162.404.243-.324-.243-.485-.566-.485-1.051 0-.323 0-.727.161-1.212l2.748-10.99zm3.313-3.07h-.323l1.859 12.04.323-.484m13.254-11.557l-.081.243c-.808 0-1.455.161-1.859.565-.404.324-.727 1.051-1.05 2.102l-2.748 10.91c-.162.727-.243 1.212-.243 1.535s.162.566.404.727c.081.081.162.081.324.162-.162-.162-.324-.404-.324-.647 0-.323.081-.889.243-1.535l2.747-10.99c.243-1.051.566-1.779 1.051-2.102.404-.323 1.05-.566 1.859-.566l.161-.404h-.484zm-4.122 16.89h-8.162l-.08.243h8.646l.08-.404h-.484v.161zm-2.182-14.87l-9.778 14.87h-.162l.08.243h.486l9.05-13.739M273.15 77.42h-5.252l-.081.243h5.737l.081-.404h-.485v.161zm21.9-16.566v.161m4.284 16.405h-8.081l-.081.243h8.566l.08-.404h-.484v.161zm3.717-16.89l-.08.243c-.728 0-1.374.161-1.698.485-.404.323-.727 1.05-.97 2.1l-2.747 10.991c-.162.808-.323 1.293-.242 1.536 0 .323.161.566.404.727.08.081.161.081.323.162-.162-.162-.323-.404-.323-.647s.08-.808.242-1.535l2.748-10.91c.242-1.05.565-1.778.97-2.101s.97-.485 1.697-.485l.161-.404h-.485v-.162zm16.082.162l-.808 4.687h-.08v.243h.403l.809-4.688s0-.485-.162-.646c-.162-.162-.243-.162-.243-.162h-.08c.161.243.161.566.161.566zm-11.637 14.95c.404.404.89.728 1.293.97-.323-.161-.646-.485-.889-.727-.808-.89-1.293-2.182-1.374-3.88-.08-1.939.404-3.797 1.213-5.575.808-1.778 2.262-3.071 3.475-3.96s2.747-1.293 3.96-1.293c.484 0 .808.08 1.05.161a2.584 2.584 0 0 0-1.455-.404c-1.212 0-2.747.485-3.96 1.293-1.212.89-2.666 2.182-3.475 3.96-.808 1.778-1.293 3.637-1.212 5.576.081 1.697.566 2.99 1.374 3.88z"
       id="path344" />
    <path
       d="M318.97 69.5c-.403 0-.808.08-1.05.242a1.497 1.497 0 0 0-.566.647c-.08.161-.161.565-.323 1.293l-1.293 5.09A15.132 15.132 0 0 1 310 77.905c-1.535 0-2.828-.242-3.96-.808.081.08.243.162.324.242 1.131.566 2.424.809 4.04.809 2.02 0 3.96-.404 5.738-1.132l1.293-5.091c.162-.647.243-1.131.323-1.293.162-.242.324-.485.566-.647.243-.161.566-.242 1.05-.242l.082-.485h-.485v.243zm2.748 7.677v.242h-4.687l-.08.243h5.171v-.404c-.161-.081-.242-.081-.404-.081zm10.425-16.971v15.031c0 .566.162.97.404 1.293.162.162.324.243.566.324-.08 0-.08-.081-.08-.081-.243-.243-.405-.647-.405-1.293V60.206h-.485zm-2.828 4.04l-5.576 6.87h.646l4.93-6.142m-.485 6.95h-5.738l-1.05 1.293-1.132 1.455c-.242.323-.404.565-.485.889-.08.161-.08.404-.08.565 0 .243.161.404.323.566.08.08.242.162.323.162-.162-.162-.242-.324-.323-.485 0-.162 0-.404.08-.566.081-.242.243-.566.485-.889l1.132-1.455 1.05-1.293h5.334l.08-.242zm4.849 5.253l-.081.323h-7.03l-.082.243h7.435l.08-.405c-.08-.161-.242-.161-.322-.161z"
       id="path346" />
  </g>
  <g
     fill="#E8E8E8"
     id="g358">
    <path
       d="M250.522 77.42c.485-.082.889-.243 1.212-.486.485-.323 1.131-1.05 1.94-2.1l11.637-14.466h.161v-.243h-.566L253.27 74.591c-.808 1.05-1.535 1.778-1.94 2.101-.322.242-.727.404-1.211.485l-.081.404h.485v-.162zm11.798-12.527l-.484.566-.081 5.657h-4.283l-.243.242h4.93m-2.101 6.061c.727-.08 1.131-.161 1.293-.161.242-.081.404-.404.646-.728.162-.404.243-1.05.243-1.94v-2.424h-.404v2.263c0 .97-.081 1.616-.243 1.94-.162.404-.404.646-.646.727-.081.08-.566.08-1.293.162l-.162.404h.485l.08-.243zm12.122-16.647h5.818v-.243h-6.142l-.161.404h.485v-.161zm9.05 16.647c.89 0 1.617-.161 2.021-.565.404-.324.808-1.051 1.05-2.102l2.99-11.96-.727 1.131-2.666 10.587c-.243 1.05-.647 1.778-1.051 2.101s-1.131.566-2.02.566l-.162.404h.485l.08-.162z"
       id="path350" />
    <path
       d="M279.938 72.813l7.92-12.041h5.576l.08-.243h-6.06l-7.678 11.557m-2.91 5.576h.324l-2.182-14.95-.242.888m-6.385 13.82c.647 0 1.213-.162 1.536-.405.646-.485 1.05-1.212 1.293-2.182l3.232-12.687c-.404-.405-.727-.647-.97-.728.162.162.405.323.566.566l-3.232 12.688c-.243.97-.727 1.697-1.293 2.182-.323.242-.89.404-1.536.404l-.08.404h.484v-.243zm27.154-16.648h7.92l.08-.243h-8.404l-.162.404c.162 0 .323 0 .485.081l.08-.242zm-3.798 16.647c.888 0 1.454-.161 1.858-.485s.728-1.05.97-2.182l2.748-10.91c.161-.646.242-1.212.242-1.535s-.162-.566-.404-.727c-.08-.081-.162-.081-.323-.162.161.162.242.404.242.647 0 .323-.08.889-.242 1.535l-2.667 10.99c-.243 1.132-.647 1.86-.97 2.183-.404.323-.97.485-1.859.485l-.161.404h.485l.08-.243zm20.203-7.758h.485l.08-.242h6.95l.081-.243h-7.435l-.161.485zm-2.748 7.112c.647.404 1.293.565 2.02.565.485 0 .97-.161 1.617-.404l1.131-4.525c.162-.727.243-1.212.243-1.455 0-.323-.162-.565-.404-.808-.081-.08-.243-.162-.324-.162.243.243.324.405.404.728 0 .242-.08.727-.242 1.454l-1.131 4.526c-.647.242-1.213.404-1.617.404-.646.08-1.212-.08-1.697-.323z"
       id="path352" />
    <path
       d="M304.101 74.833c-.727-1.212-1.212-2.505-1.212-4.04-.162-3.233 1.212-5.9 4.04-8.001 2.182-1.616 4.688-2.344 7.516-2.505.243 0 .97-.081 1.94-.081.808 0 1.777 0 3.07.162 0 0 0-.081-.08-.081-.162-.162-.243-.162-.243-.162-1.374-.161-2.343-.161-3.151-.161-.97 0-1.698.08-1.94.08-2.828.162-5.334.89-7.516 2.506-2.828 2.1-4.121 4.768-4.04 8 .08 1.536.485 2.829 1.212 4.04.727 1.213 1.697 2.021 2.828 2.587-.97-.485-1.778-1.293-2.424-2.344z"
       id="path354" />
    <path
       d="M318.324 65.62h.404c-.08-1.454-.161-2.505-.808-3.151-.404-.404-.727-.728-1.131-.89.242.162.485.405.727.647.566.728.646 1.86.808 3.395zm8.728 11.8c.727-.082 1.131-.162 1.293-.162.242-.081.404-.404.646-.728.162-.404.243-1.05.243-1.94v-2.424h-.404v2.182c0 .97-.08 1.617-.243 1.94-.161.404-.404.646-.646.727-.08.081-.566.081-1.293.162l-.162.404h.485l.081-.162zm-9.536 0c.485-.082.889-.243 1.212-.486.485-.323 1.132-1.05 1.94-2.1l11.637-14.466h.161v-.243h-.565l-11.637 14.466c-.808 1.05-1.536 1.778-1.94 2.101-.323.242-.727.404-1.212.485l-.08.404h.484v-.162zm11.799-12.446l-.404.485-.081 5.657h-4.364l-.242.242h5.01"
       id="path356" />
  </g>
  <g
     id="g1102">
    <path
       fill="#3B3B3B"
       d="M489.3 232.6h6.4v4.1h-6.4v-4.1zM388.1 128.9l-.6.6-.3.8.1 113.5.3.5.5.4 110.5.1.8-.4.4-.6-.1-101.3h-.8v-4.7l.6.1v-1.6l-8.6-7.5-1.7-.1-.5.5h-9.1l-.8.8h-62.5v-.5l-14.9-.1v-.5h-13.3z"
       id="path360" />
    <path
       fill="none"
       stroke="#424242"
       stroke-width=".634"
       stroke-linecap="round"
       stroke-linejoin="round"
       stroke-miterlimit="10"
       d="M387.3 130.3l.1 113.5.3.5.5.4 110.5.1.8-.4.4-.6-.1-101.3h-.8v-4.7l.6.1v-1.6l-8.6-7.5-1.7-.1-.5.5h-9.1l-.8.8h-62.5v-.4l-14.9-.1v-.5l-13.4-.1-.6.6-.2.8z"
       id="path362" />
    <path
       fill="none"
       stroke="#858586"
       stroke-width=".422"
       stroke-linecap="round"
       stroke-linejoin="round"
       stroke-miterlimit="10"
       d="M401.5 129.3v37.2l.3.5.4.1h16.3"
       id="path364" />
    <path
       fill="#292929"
       d="M390.9 236.8h6.4v-4.1h-6.4v4.1z"
       id="path366" />
    <path
       fill="#FFF"
       d="M486.1 242v-61.9l-.6-.8-84 .1-.8.5v62h85.4v.1z"
       id="path368" />
    <path
       fill="#B2B2B2"
       d="M451.1 135h16.2v30.5h-16.2V135zm-34.8-6.2v37.9l1 .8h58.2l.9-1v-37.6h-60.1v-.1z"
       id="path370" />
    <defs
       id="defs373">
      <path
         id="a"
         d="M437.2 207.9l-.4-.6h.1l.3.6c0 .1 0 .1 0 0z" />
    </defs>
    <clipPath
       id="b">
      <use
         xlink:href="#a"
         overflow="visible"
         id="use375" />
    </clipPath>
    <g
       clip-path="url(#b)"
       id="g380">
      <path
         fill="#767273"
         d="M436.8 207.3l.4.6h-.1l-.3-.6c0-.1 0 0 0 0"
         id="path378" />
    </g>
    <path
       fill="#787575"
       d="M437.6 207.5l.5.6-.8-.1-.5-.7z"
       id="path382" />
    <defs
       id="defs385">
      <path
         id="c"
         d="M438 207.7l.4.6-.3-.3-.4-.6c0 .1.2.2.3.3z" />
    </defs>
    <clipPath
       id="d">
      <use
         xlink:href="#c"
         overflow="visible"
         id="use387" />
    </clipPath>
    <g
       clip-path="url(#d)"
       id="g392">
      <path
         fill="#767273"
         d="M438 207.7l.4.6-.3-.3-.4-.6c0 .1.2.2.3.3"
         id="path390" />
    </g>
    <defs
       id="defs395">
      <path
         id="e"
         d="M438.6 209.5l.4.6-.1-.1s-.1 0-.1.1l-.4-.6c0-.1.1-.1.1-.1 0 .1.1.1.1.1z" />
    </defs>
    <clipPath
       id="f">
      <use
         xlink:href="#e"
         overflow="visible"
         id="use397" />
    </clipPath>
    <g
       clip-path="url(#f)"
       id="g402">
      <path
         fill="#767273"
         d="M438.6 209.5l.4.6-.1-.1s-.1 0-.1.1l-.4-.6c0-.1.1-.1.1-.1 0 .1.1.1.1.1"
         id="path400" />
    </g>
    <path
       fill="#787475"
       d="M438.4 209.7l.4.6-2 6-.4-.7z"
       id="path404" />
    <defs
       id="defs407">
      <path
         id="g"
         d="M446.2 209.4l.4.6h-.1s-.1 0-.1.1l-.4-.6c-.1-.1 0-.2.2-.1-.2-.1 0-.1 0 0z" />
    </defs>
    <clipPath
       id="h">
      <use
         xlink:href="#g"
         overflow="visible"
         id="use409" />
    </clipPath>
    <g
       clip-path="url(#h)"
       id="g414">
      <path
         fill="#767273"
         d="M446.2 209.4l.4.6h-.1s-.1 0-.1.1l-.4-.6c-.1-.1 0-.2.2-.1-.2-.1 0-.1 0 0"
         id="path412" />
    </g>
    <defs
       id="defs417">
      <path
         id="i"
         d="M434.2 218.6c-.1-.3-.3-.4-.4-.6h.1l.3.6c.2.2 0 0 0 0z" />
    </defs>
    <clipPath
       id="j">
      <use
         xlink:href="#i"
         overflow="visible"
         id="use419" />
    </clipPath>
    <g
       clip-path="url(#j)"
       id="g424">
      <path
         fill="#767273"
         d="M434 218l.4.6h-.1l-.3-.6c-.2 0-.2 0 0 0"
         id="path422" />
    </g>
    <defs
       id="defs427">
      <path
         id="k"
         d="M450.6 207.1c.1.3.3.4.4.6 0 0 0 .1-.3.1-.5.1-.9.1-1.2.8l-.4-.6c.1-.6.6-.6 1.2-.8.3 0 .3-.1.3-.1z" />
    </defs>
    <clipPath
       id="l">
      <use
         xlink:href="#k"
         overflow="visible"
         id="use429" />
    </clipPath>
    <g
       clip-path="url(#l)"
       id="g434">
      <path
         fill="#767273"
         d="M450.6 207.1l.4.6s0 .1-.3.1c-.5.1-.9.1-1.2.8l-.4-.6c.1-.6.6-.6 1.2-.8.3 0 .3-.1.3-.1"
         id="path432" />
    </g>
    <defs
       id="defs437">
      <path
         id="m"
         d="M436.9 217.7c-.1-.3-.3-.4-.4-.6v-.1c-.1-.3-.1-.8 0-1.2l.4.6c-.2.4-.2.8 0 1.3 0-.1 0-.1 0 0z" />
    </defs>
    <clipPath
       id="n">
      <use
         xlink:href="#m"
         overflow="visible"
         id="use439" />
    </clipPath>
    <g
       clip-path="url(#n)"
       id="g444">
      <path
         fill="#767273"
         d="M436.4 215.6l.4.6c-.1.5-.1.9 0 1.2v.1l-.4-.6v-.1c-.1-.2-.1-.6 0-1.2"
         id="path442" />
    </g>
    <g
       id="g448">
      <path
         fill="#787475"
         d="M435.7 218l.3.6-1.6.2-.4-.8z"
         id="path446" />
    </g>
    <g
       id="g452">
      <path
         fill="#787575"
         d="M441.2 207.1l.5.6.4 7-.4-.6z"
         id="path450" />
    </g>
    <g
       id="g456">
      <path
         fill="#787575"
         d="M437.6 218l.5.8-2.1-.2-.3-.6z"
         id="path454" />
    </g>
    <g
       id="g468">
      <defs
         id="defs459">
        <path
           id="o"
           d="M437.9 217.8c.1.3.3.4.4.6 0 .1 0 .1-.1.3l-.4-.6c.1-.1.1-.1.1-.3z" />
      </defs>
      <clipPath
         id="p">
        <use
           xlink:href="#o"
           overflow="visible"
           id="use461" />
      </clipPath>
      <g
         clip-path="url(#p)"
         id="g466">
        <path
           fill="#767273"
           d="M437.9 217.8l.4.6c0 .1 0 .1-.1.3l-.4-.6c.1-.1.1-.1.1-.3"
           id="path464" />
      </g>
    </g>
    <g
       id="g472">
      <path
         fill="#787475"
         d="M445.9 209.4l.5.7-5.7 8.1-.4-.6z"
         id="path470" />
    </g>
    <g
       id="g484">
      <defs
         id="defs475">
        <path
           id="q"
           d="M439.8 218.5l-.4-.6c.1.1.3.1.3.1.3 0 .5-.1.6-.4l.4.6c-.1.3-.4.4-.6.4 0 0-.2 0-.3-.1z" />
      </defs>
      <clipPath
         id="r">
        <use
           xlink:href="#q"
           overflow="visible"
           id="use477" />
      </clipPath>
      <g
         clip-path="url(#r)"
         id="g482">
        <path
           fill="#767273"
           d="M440.3 217.6l.4.6c-.1.3-.4.4-.6.4-.1 0-.3 0-.3-.1l-.4-.6c.1.1.3.1.3.1.2 0 .5-.2.6-.4"
           id="path480" />
      </g>
    </g>
    <g
       id="g496">
      <defs
         id="defs487">
        <path
           id="s"
           d="M443 218.6l-.4-.6h.1l.4.6c-.1.2-.1.2-.1 0z" />
      </defs>
      <clipPath
         id="t">
        <use
           xlink:href="#s"
           overflow="visible"
           id="use489" />
      </clipPath>
      <g
         clip-path="url(#t)"
         id="g494">
        <path
           fill="#767273"
           d="M442.7 218.1l.4.6h-.1l-.4-.6c-.1-.1.1 0 .1 0"
           id="path492" />
      </g>
    </g>
    <g
       id="g500">
      <path
         fill="#787475"
         d="M449.1 208l.6.6-2.1 8.3-.5-.6z"
         id="path498" />
    </g>
    <g
       id="g504">
      <path
         fill="#787475"
         d="M445.8 218l.4.6-3 .2-.5-.7z"
         id="path502" />
    </g>
    <g
       id="g516">
      <defs
         id="defs507">
        <path
           id="u"
           d="M447.7 217.8l-.4-.6c-.1-.3-.3-.5-.1-.9l.4.6c-.1.3 0 .7.1.9z" />
      </defs>
      <clipPath
         id="v">
        <use
           xlink:href="#u"
           overflow="visible"
           id="use509" />
      </clipPath>
      <g
         clip-path="url(#v)"
         id="g514">
        <path
           fill="#767273"
           d="M447.1 216.3l.4.6c-.1.4 0 .6.1.9l-.4-.6c-.1-.3-.1-.6-.1-.9"
           id="path512" />
      </g>
    </g>
    <g
       id="g520">
      <path
         fill="#787575"
         d="M448.2 218l.4.8-2.4-.2-.4-.6z"
         id="path518" />
    </g>
    <g
       id="g532">
      <defs
         id="defs523">
        <path
           id="w"
           d="M448.4 217.8c.1.3.3.4.4.6 0 .1 0 .1-.1.1l-.4-.6c.1.1.1.1.1-.1z" />
      </defs>
      <clipPath
         id="x">
        <use
           xlink:href="#w"
           overflow="visible"
           id="use525" />
      </clipPath>
      <g
         clip-path="url(#x)"
         id="g530">
        <path
           fill="#767273"
           d="M448.4 217.8l.4.6c0 .1 0 .1-.1.1l-.4-.6c.1.1.1.1.1-.1"
           id="path528" />
      </g>
    </g>
    <g
       id="g536">
      <path
         fill="#242021"
         d="M446.5 207h3.8c.1 0 .6.1 0 .3-.5.1-.9.1-1.2.8l-2.1 8.2c-.1.8.4 1.4 1.2 1.6.1 0 .1.3 0 .3l-2.5-.1-3 .1c-.3 0-.3-.3 0-.3.6-.1 1.3-.6 1.4-1.2l1.9-7.1c0-.1 0-.1-.1-.1 0 0-.1 0-.1.1l-5.6 8.2c-.1.3-.4.4-.6.4-.3 0-.4-.1-.5-.6l-.5-7.7c0-.1-.1-.1-.1-.1s-.1 0-.1.1l-1.9 6c-.1.5-.1.9 0 1.2.1.4.6.8 1.2.9.3 0 .3.3 0 .3l-2.1-.1h-1.7c-.3 0-.1-.3 0-.3.6-.1 1.3-.8 1.6-1.6l2.5-8c.1-.3 0-.6-.4-.8l-.8-.1c-.1 0-.1-.3 0-.3h4.4l.4 7 .4-.4 4.3-6.2c0-.2.1-.4.2-.5z"
         id="path534" />
    </g>
    <g
       id="g618">
      <defs
         id="defs539">
        <path
           id="y"
           d="M452.6 207.9l-.4-.6.4.6c0 .1 0 0 0 0z" />
      </defs>
      <clipPath
         id="z">
        <use
           xlink:href="#y"
           overflow="visible"
           id="use541" />
      </clipPath>
      <g
         clip-path="url(#z)"
         id="g546">
        <path
           fill="#767273"
           d="M452.3 207.2l.4.6-.4-.6"
           id="path544" />
      </g>
      <defs
         id="defs549">
        <path
           id="A"
           d="M453.2 207.7l.4.6c-.1-.3-.5-.4-.9-.5l-.4-.6c.3.1.7.3.9.5z" />
      </defs>
      <clipPath
         id="B">
        <use
           xlink:href="#A"
           overflow="visible"
           id="use551" />
      </clipPath>
      <g
         clip-path="url(#B)"
         id="g556">
        <path
           fill="#767273"
           d="M453.2 207.7l.4.6c-.1-.3-.5-.4-.9-.5l-.4-.6c.3.1.7.3.9.5"
           id="path554" />
      </g>
      <defs
         id="defs559">
        <path
           id="C"
           d="M457.6 207.1l.4.6c.1.1 0 .4-.3.4-.5 0-1 .4-1.2.9l-.4-.6c.1-.4.6-.8 1.2-.9.3 0 .3-.3.3-.4z" />
      </defs>
      <clipPath
         id="D">
        <use
           xlink:href="#C"
           overflow="visible"
           id="use561" />
      </clipPath>
      <g
         clip-path="url(#D)"
         id="g566">
        <path
           fill="#767273"
           d="M457.6 207.1l.4.6c.1.1 0 .4-.3.4-.5 0-1 .4-1.2.9l-.4-.6c.1-.4.6-.8 1.2-.9.3 0 .3-.3.3-.4"
           id="path564" />
      </g>
      <defs
         id="defs569">
        <path
           id="E"
           d="M449.1 218.6l-.4-.6h.1l.3.6z" />
      </defs>
      <clipPath
         id="F">
        <use
           xlink:href="#E"
           overflow="visible"
           id="use571" />
      </clipPath>
      <g
         clip-path="url(#F)"
         id="g576">
        <path
           fill="#767273"
           d="M448.7 218l.4.6h-.1l-.3-.6"
           id="path574" />
      </g>
      <g
         id="g580">
        <path
           fill="#787475"
           d="M456 208.3l.5.7-2.4 8.2-.4-.6z"
           id="path578" />
      </g>
      <g
         id="g584">
        <path
           fill="#787475"
           d="M451.7 217.8l.4.8h-2.8l-.6-.6z"
           id="path582" />
      </g>
      <g
         id="g596">
        <defs
           id="defs587">
          <path
             id="G"
             d="M454.3 218l-.4-.6c-.1-.3-.3-.5-.1-.8l.4.6c-.1.3-.1.5.1.8z" />
        </defs>
        <clipPath
           id="H">
          <use
             xlink:href="#G"
             overflow="visible"
             id="use589" />
        </clipPath>
        <g
           clip-path="url(#H)"
           id="g594">
          <path
             fill="#767273"
             d="M453.7 216.6l.4.6c0 .3 0 .5.1.8l-.4-.6c-.1-.3-.3-.6-.1-.8"
             id="path592" />
        </g>
      </g>
      <g
         id="g600">
        <path
           fill="#787575"
           d="M454.7 218l.4.8-3-.2-.4-.8z"
           id="path598" />
      </g>
      <g
         id="g612">
        <defs
           id="defs603">
          <path
             id="I"
             d="M454.7 217.8c.1.3.3.4.4.6 0 .1 0 .1-.1.1l-.4-.6c.2.1.2.1.1-.1z" />
        </defs>
        <clipPath
           id="J">
          <use
             xlink:href="#I"
             overflow="visible"
             id="use605" />
        </clipPath>
        <g
           clip-path="url(#J)"
           id="g610">
          <path
             fill="#767273"
             d="M454.7 217.8l.4.6c0 .1 0 .1-.1.1l-.4-.6c.2.1.2.1.1-.1"
             id="path608" />
        </g>
      </g>
      <g
         id="g616">
        <path
           fill="#242021"
           d="M452.3 207h5.1c.3 0 .4.4-.1.5-.5 0-1 .4-1.2.9l-2.3 8.3c-.1.4.3 1.2 1 1.3.1 0 .1.3 0 .3l-3-.1-2.9.1c-.1 0-.1-.3 0-.3.4-.1 1.6-.5 1.8-1.2l2.7-8.3c.1-.6-.4-.9-1-1-.3-.3-.3-.5-.1-.5z"
           id="path614" />
      </g>
    </g>
    <g
       id="g760">
      <defs
         id="defs621">
        <path
           id="K"
           d="M431.6 206.8c.1.3.3.4.4.6 0 .1.1.1.1.3l-.4-.6c.1-.1-.1-.3-.1-.3z" />
      </defs>
      <clipPath
         id="L">
        <use
           xlink:href="#K"
           overflow="visible"
           id="use623" />
      </clipPath>
      <g
         clip-path="url(#L)"
         id="g628">
        <path
           fill="#767273"
           d="M431.6 206.8l.4.6c0 .1.1.1.1.3l-.4-.6c.1-.1-.1-.3-.1-.3"
           id="path626" />
      </g>
      <defs
         id="defs631">
        <path
           id="M"
           d="M429.3 209.5l.4.6h-.1l-.3-.6z" />
      </defs>
      <clipPath
         id="N">
        <use
           xlink:href="#M"
           overflow="visible"
           id="use633" />
      </clipPath>
      <g
         clip-path="url(#N)"
         id="g638">
        <path
           fill="#767273"
           d="M429.3 209.5l.4.6h-.1l-.3-.6"
           id="path636" />
      </g>
      <defs
         id="defs641">
        <path
           id="O"
           d="M429.2 209.5l.4.6c-.8 1.2-1.9 2.6-2.9 3.8l-.4-.6c.9-1 2.1-2.5 2.9-3.8z" />
      </defs>
      <clipPath
         id="P">
        <use
           xlink:href="#O"
           overflow="visible"
           id="use643" />
      </clipPath>
      <g
         clip-path="url(#P)"
         id="g648">
        <path
           fill="#767273"
           d="M429.2 209.5l.4.6c-.8 1.2-1.9 2.6-2.9 3.8l-.4-.6c.9-1 2.1-2.5 2.9-3.8"
           id="path646" />
      </g>
      <defs
         id="defs651">
        <path
           id="Q"
           d="M426.8 214.2l-.4-.6v-.1l.4.7c0-.1 0 0 0 0z" />
      </defs>
      <clipPath
         id="R">
        <use
           xlink:href="#Q"
           overflow="visible"
           id="use653" />
      </clipPath>
      <g
         clip-path="url(#R)"
         id="g658">
        <path
           fill="#767273"
           d="M426.4 213.4l.4.6v.1l-.4-.7"
           id="path656" />
      </g>
      <defs
         id="defs661">
        <path
           id="S"
           d="M421.8 218.6c-.1-.3-.3-.4-.4-.6h.1l.3.6c.1 0 0 0 0 0z" />
      </defs>
      <clipPath
         id="T">
        <use
           xlink:href="#S"
           overflow="visible"
           id="use663" />
      </clipPath>
      <g
         clip-path="url(#T)"
         id="g668">
        <path
           fill="#767273"
           d="M421.5 218l.4.6h-.1l-.3-.6c-.1 0-.1 0 0 0"
           id="path666" />
      </g>
      <path
         fill="#777474"
         d="M426.1 214.1l.5.6-1.6 2.2-.4-.7z"
         id="path670" />
      <g
         id="g674">
        <path
           fill="#787475"
           d="M423.1 217.7l.5.8-1.7.1-.4-.6z"
           id="path672" />
      </g>
      <g
         id="g686">
        <defs
           id="defs677">
          <path
             id="U"
             d="M425.1 217.7c-.1-.3-.3-.4-.4-.6-.1-.3-.3-.5 0-.8l.4.6c-.2.3-.2.6 0 .8z" />
        </defs>
        <clipPath
           id="V">
          <use
             xlink:href="#U"
             overflow="visible"
             id="use679" />
        </clipPath>
        <g
           clip-path="url(#V)"
           id="g684">
          <path
             fill="#767273"
             d="M424.6 216.2l.4.6c-.1.3-.1.5 0 .8l-.4-.6c-.1-.2-.1-.6 0-.8"
             id="path682" />
        </g>
      </g>
      <g
         id="g690">
        <path
           fill="#787475"
           d="M429.6 214.1l.3.6h-3.3l-.5-.6z"
           id="path688" />
      </g>
      <g
         id="g702">
        <defs
           id="defs693">
          <path
             id="W"
             d="M425.8 218.1l.4.6-1.2-.3c-.3 0-.6-.1-1-.1h-.5l-.4-.6h.5c.5 0 .8 0 1 .1.8 0 1.2.2 1.2.3z" />
        </defs>
        <clipPath
           id="X">
          <use
             xlink:href="#W"
             overflow="visible"
             id="use695" />
        </clipPath>
        <g
           clip-path="url(#X)"
           id="g700">
          <path
             fill="#767273"
             d="M425.8 218.1l.4.6-1.2-.3c-.3 0-.6-.1-1-.1h-.5l-.4-.6h.5c.5 0 .8 0 1 .1.8 0 1.2.2 1.2.3"
             id="path698" />
        </g>
      </g>
      <g
         id="g714">
        <defs
           id="defs705">
          <path
             id="Y"
             d="M425.9 217.8l.4.6c0 .1 0 .3-.1.3l-.4-.6c.1 0 .3-.3.1-.3z" />
        </defs>
        <clipPath
           id="Z">
          <use
             xlink:href="#Y"
             overflow="visible"
             id="use707" />
        </clipPath>
        <g
           clip-path="url(#Z)"
           id="g712">
          <path
             fill="#767273"
             d="M425.9 217.8l.4.6c0 .1 0 .3-.1.3l-.4-.6c.1 0 .3-.3.1-.3"
             id="path710" />
        </g>
      </g>
      <g
         id="g718">
        <path
           fill="#787575"
           d="M431.8 207.1l.3.6.3 9.5-.5-.6z"
           id="path716" />
      </g>
      <g
         id="g730">
        <defs
           id="defs721">
          <path
             id="aa"
             d="M432.5 217.8c-.1-.3-.3-.4-.4-.6-.1-.1-.1-.4-.3-.6l.4.6c.2.3.3.5.3.6z" />
        </defs>
        <clipPath
           id="ab">
          <use
             xlink:href="#aa"
             overflow="visible"
             id="use723" />
        </clipPath>
        <g
           clip-path="url(#ab)"
           id="g728">
          <path
             fill="#767273"
             d="M431.9 216.6l.4.6c0 .3.1.5.3.6l-.4-.6c-.2-.3-.3-.4-.3-.6"
             id="path726" />
        </g>
      </g>
      <g
         id="g742">
        <defs
           id="defs733">
          <path
             id="ac"
             d="M428.5 218.6l-.4-.6h.1c1.6-.1 1.4-.1 1.8-.1h1.4c1 .1 1.8.1 1.8.1l.4.6s-.9 0-1.8-.1h-1.4c-.3.1-.2.1-1.9.1.1 0 .1 0 0 0z" />
        </defs>
        <clipPath
           id="ad">
          <use
             xlink:href="#ac"
             overflow="visible"
             id="use735" />
        </clipPath>
        <g
           clip-path="url(#ad)"
           id="g740">
          <path
             fill="#767273"
             d="M433.2 218l.4.6s-.9 0-1.8-.1h-1.4c-.4 0-.3 0-1.8.1h-.1l-.5-.6h.1c1.6-.1 1.4-.1 1.8-.1h1.4c1 .1 1.9.1 1.9.1"
             id="path738" />
        </g>
      </g>
      <g
         id="g754">
        <defs
           id="defs745">
          <path
             id="ae"
             d="M433.2 217.8c.1.3.3.4.4.6v.1l-.4-.6c0 .1.1.1 0-.1z" />
        </defs>
        <clipPath
           id="af">
          <use
             xlink:href="#ae"
             overflow="visible"
             id="use747" />
        </clipPath>
        <g
           clip-path="url(#af)"
           id="g752">
          <path
             fill="#767273"
             d="M433.2 217.8l.4.6v.1l-.4-.6c0 .1.1.1 0-.1"
             id="path750" />
        </g>
      </g>
      <g
         id="g758">
        <path
           fill="#242021"
           d="M433.2 217.8c.1 0 0 .1 0 .3 0 0-.9 0-1.8-.1H430c-.4 0-.3 0-1.8.1 0 0-.1 0-.1-.1s.1-.1.3-.1c.6-.1.9-.5 1-1.3.1-.9.1-1.6.1-2.3h-3.4l-1.4 2.1c-.4.6.4 1.4 1.3 1.6.1.1.1.3 0 .3l-1.2-.3c-.3 0-.6-.1-1-.1h-.5l-1.7.3c-.1 0-.1-.3 0-.3.8-.1 1.8-.6 2.3-1.6l6.7-9.5c.1-.1.4-.3.5-.3.3 0 .5.1.5.5l.3 9.5c.1.8.6 1.1 1.3 1.3zm-4.7-4.2h.9l-.1-3.9s0-.1-.1-.1h-.1c-.8 1.2-1.9 2.6-2.9 3.8 0 .1 0 .1.1.1h.9c.7.1.9.1 1.3.1"
           id="path756" />
      </g>
    </g>
    <g
       id="g868">
      <defs
         id="defs763">
        <path
           id="ag"
           d="M467.7 206.8c.1.3.3.4.4.6v.3l-.4-.6c.1-.1.1-.1 0-.3z" />
      </defs>
      <clipPath
         id="ah">
        <use
           xlink:href="#ag"
           overflow="visible"
           id="use765" />
      </clipPath>
      <g
         clip-path="url(#ah)"
         id="g770">
        <path
           fill="#767273"
           d="M467.7 206.8l.4.6v.3l-.4-.6c.1-.1.1-.1 0-.3"
           id="path768" />
      </g>
      <path
         fill="#787475"
         d="M467.7 207.1l.5.6-.8 2-.4-.8z"
         id="path772" />
      <defs
         id="defs775">
        <path
           id="ai"
           d="M467 209.8c-.1-.3-.3-.4-.4-.6 0 .1.1.1.1.1.1 0 .3-.1.3-.3l.4.6c0 .3-.1.3-.3.3.1 0-.1 0-.1-.1z" />
      </defs>
      <clipPath
         id="aj">
        <use
           xlink:href="#ai"
           overflow="visible"
           id="use777" />
      </clipPath>
      <g
         clip-path="url(#aj)"
         id="g782">
        <path
           fill="#767273"
           d="M467 208.9l.4.6c0 .3-.1.3-.3.3 0 0-.1 0-.1-.1l-.4-.6c0 .1.1.1.1.1.1.1.2 0 .3-.3"
           id="path780" />
      </g>
      <defs
         id="defs785">
        <path
           id="ak"
           d="M462.5 213.7l-.4-.6s.1.1.3.1l.4.6c-.2 0-.3 0-.3-.1z" />
      </defs>
      <clipPath
         id="al">
        <use
           xlink:href="#ak"
           overflow="visible"
           id="use787" />
      </clipPath>
      <g
         clip-path="url(#al)"
         id="g792">
        <path
           fill="#767273"
           d="M462.4 213.2l.4.6c-.1 0-.3 0-.3-.1l-.4-.6s0 .1.3.1"
           id="path790" />
      </g>
      <defs
         id="defs795">
        <path
           id="am"
           d="M463 213.4l.4.6c-.1-.3-.4-.3-.6-.3l-.4-.6c.2.1.5.2.6.3z" />
      </defs>
      <clipPath
         id="an">
        <use
           xlink:href="#am"
           overflow="visible"
           id="use797" />
      </clipPath>
      <g
         clip-path="url(#an)"
         id="g802">
        <path
           fill="#767273"
           d="M463 213.4l.4.6c-.1-.3-.4-.3-.6-.3l-.4-.6c.2.1.5.2.6.3"
           id="path800" />
      </g>
      <g
         id="g814">
        <defs
           id="defs805">
          <path
             id="ao"
             d="M466.3 207.2c.1.3.3.4.4.6 0-.1-.1-.1-.3-.1h-.3c-.6 0-1.4.1-1.9.3-2.3.8-3.8 1.9-4.7 4.1-.9 1.9-.5 4 0 4.9l-.4-.6c-.6-.9-.9-3 0-4.9.9-2.2 2.5-3.4 4.7-4.1.6-.1 1.3-.3 1.9-.3h.3c.1 0 .1 0 .3.1z" />
        </defs>
        <clipPath
           id="ap">
          <use
             xlink:href="#ao"
             overflow="visible"
             id="use807" />
        </clipPath>
        <g
           clip-path="url(#ap)"
           id="g812">
          <path
             fill="#767273"
             d="M466.3 207.2l.4.6c0-.1-.1-.1-.3-.1h-.3c-.6 0-1.4.1-1.9.3-2.3.8-3.8 1.9-4.7 4.1-.9 1.9-.5 4 0 4.9l-.4-.6c-.6-.9-.9-3 0-4.9.9-2.2 2.5-3.4 4.7-4.1.6-.1 1.3-.3 1.9-.3h.3c.1 0 .1 0 .3.1"
             id="path810" />
        </g>
      </g>
      <g
         id="g826">
        <defs
           id="defs817">
          <path
             id="aq"
             d="M467.3 213.1l.4.6c-.8.1-1 .3-1.2.5l-.4-.6c.2-.3.4-.4 1.2-.5z" />
        </defs>
        <clipPath
           id="ar">
          <use
             xlink:href="#aq"
             overflow="visible"
             id="use819" />
        </clipPath>
        <g
           clip-path="url(#ar)"
           id="g824">
          <path
             fill="#767273"
             d="M467.3 213.1l.4.6c-.8.1-1 .3-1.2.5l-.4-.6c.2-.3.4-.4 1.2-.5"
             id="path822" />
        </g>
      </g>
      <g
         id="g838">
        <defs
           id="defs829">
          <path
             id="as"
             d="M467.4 212.9l.4.6s0 .1-.1.1l-.3-.7c0 .2 0 0 0 0z" />
        </defs>
        <clipPath
           id="at">
          <use
             xlink:href="#as"
             overflow="visible"
             id="use831" />
        </clipPath>
        <g
           clip-path="url(#at)"
           id="g836">
          <path
             fill="#767273"
             d="M467.4 212.9l.4.6s0 .1-.1.1l-.3-.7c0 .2 0 0 0 0"
             id="path834" />
        </g>
      </g>
      <g
         id="g850">
        <defs
           id="defs841">
          <path
             id="au"
             d="M456.8 216.7c-.1-.3-.3-.4-.4-.6.4.5.9 1 1.6 1.4.6.4 1.7.5 2.6.5 1.3 0 2.6-.3 3.5-.5l.4.6c-.8.3-2.2.5-3.5.5-1 0-2.1-.1-2.6-.5-.8-.4-1.2-.9-1.6-1.4z" />
        </defs>
        <clipPath
           id="av">
          <use
             xlink:href="#au"
             overflow="visible"
             id="use843" />
        </clipPath>
        <g
           clip-path="url(#av)"
           id="g848">
          <path
             fill="#767273"
             d="M463.9 217.5l.4.6c-.8.3-2.2.5-3.5.5-1 0-2.1-.1-2.6-.5-.6-.4-1.2-.9-1.6-1.4l-.4-.6c.4.5.9 1 1.6 1.4.6.4 1.7.5 2.6.5 1.3 0 2.7-.2 3.5-.5"
             id="path846" />
        </g>
      </g>
      <g
         id="g854">
        <path
           fill="#242021"
           d="M465.6 206.4c.5 0 1 0 1.6.1.3 0 .6.3.6.5l-.8 2c0 .3-.1.3-.3.3-.1 0-.3-.3-.4-.8 0-.3 0-1.4-.4-1.4h-.3c-.6 0-1.4.1-1.9.3-2.3.8-3.8 1.9-4.7 4.1-.9 2.1-.5 4.3.1 5.1.4.5 1.6.9 2.3.9.5 0 .9-.1 1-.4.4-1 .6-2.3.6-3 0-.8-.3-.8-.8-.9-.4 0-.5-.3.3-.3H467.2c.1 0 .1.1 0 .1-.8.1-1 .3-1.2.5-.3 1-.5 2.1-1 3.1-.1.4-.9.8-1.2.8-.8.3-2.2.5-3.5.5-1 0-2.1-.1-2.6-.5-2.3-1.4-2.9-4.3-1.8-6.1 1.5-2.5 5.9-4.9 9.7-4.9z"
           id="path852" />
      </g>
      <g
         id="g866">
        <defs
           id="defs857">
          <path
             id="aw"
             d="M466.3 213.6l.4.6c-.3 1-.5 2.1-1 3.1-.1.4-.9.8-1.2.8l-.4-.6c.3-.1 1-.4 1.2-.8.3-1.1.6-2.1 1-3.1z" />
        </defs>
        <clipPath
           id="ax">
          <use
             xlink:href="#aw"
             overflow="visible"
             id="use859" />
        </clipPath>
        <g
           clip-path="url(#ax)"
           id="g864">
          <path
             fill="#767273"
             d="M466.3 213.6l.4.6c-.3 1-.5 2.1-1 3.1-.1.4-.9.8-1.2.8l-.4-.6c.3-.1 1-.4 1.2-.8.3-1.1.6-2.1 1-3.1"
             id="path862" />
        </g>
      </g>
    </g>
    <g
       id="g1010">
      <defs
         id="defs871">
        <path
           id="ay"
           d="M475.2 206.8l.4.6c0 .1.1.1.1.3l-.4-.6c-.1-.1-.1-.3-.1-.3z" />
      </defs>
      <clipPath
         id="az">
        <use
           xlink:href="#ay"
           overflow="visible"
           id="use873" />
      </clipPath>
      <g
         clip-path="url(#az)"
         id="g878">
        <path
           fill="#767273"
           d="M475.2 206.8l.4.6c0 .1.1.1.1.3l-.4-.6c-.1-.1-.1-.3-.1-.3"
           id="path876" />
      </g>
      <defs
         id="defs881">
        <path
           id="aA"
           d="M472.9 209.5l.4.6h-.1l-.3-.6c-.2 0-.2 0 0 0z" />
      </defs>
      <clipPath
         id="aB">
        <use
           xlink:href="#aA"
           overflow="visible"
           id="use883" />
      </clipPath>
      <g
         clip-path="url(#aB)"
         id="g888">
        <path
           fill="#767273"
           d="M472.9 209.5l.4.6h-.1l-.3-.6c-.2 0-.2 0 0 0"
           id="path886" />
      </g>
      <defs
         id="defs891">
        <path
           id="aC"
           d="M472.7 209.7l.4.6c-.8 1.2-1.9 2.6-2.9 3.8l-.4-.6c1-1.2 2.2-2.7 2.9-3.8z" />
      </defs>
      <clipPath
         id="aD">
        <use
           xlink:href="#aC"
           overflow="visible"
           id="use893" />
      </clipPath>
      <g
         clip-path="url(#aD)"
         id="g898">
        <path
           fill="#767273"
           d="M472.7 209.7l.4.6c-.8 1.2-1.9 2.6-2.9 3.8l-.4-.6c1-1.2 2.2-2.7 2.9-3.8"
           id="path896" />
      </g>
      <defs
         id="defs901">
        <path
           id="aE"
           d="M470.4 214.2l-.4-.6v-.1l.4.7z" />
      </defs>
      <clipPath
         id="aF">
        <use
           xlink:href="#aE"
           overflow="visible"
           id="use903" />
      </clipPath>
      <g
         clip-path="url(#aF)"
         id="g908">
        <path
           fill="#767273"
           d="M469.9 213.4l.4.6v.1l-.4-.7c0 .2 0 0 0 0"
           id="path906" />
      </g>
      <defs
         id="defs911">
        <path
           id="aG"
           d="M465.3 218.6l-.3-.6h.1l.2.6z" />
      </defs>
      <clipPath
         id="aH">
        <use
           xlink:href="#aG"
           overflow="visible"
           id="use913" />
      </clipPath>
      <g
         clip-path="url(#aH)"
         id="g918">
        <path
           fill="#767273"
           d="M465 218l.4.6h-.1l-.3-.6"
           id="path916" />
      </g>
      <path
         fill="#777474"
         d="M469.6 214.1l.5.6-1.5 2.2-.4-.7z"
         id="path920" />
      <g
         id="g924">
        <path
           fill="#787475"
           d="M466.6 217.7l.6.8-1.7.1-.5-.6z"
           id="path922" />
      </g>
      <g
         id="g936">
        <defs
           id="defs927">
          <path
             id="aI"
             d="M468.6 217.7c-.1-.3-.3-.4-.4-.6-.1-.3-.3-.5 0-.8l.4.6c-.1.3-.1.6 0 .8z" />
        </defs>
        <clipPath
           id="aJ">
          <use
             xlink:href="#aI"
             overflow="visible"
             id="use929" />
        </clipPath>
        <g
           clip-path="url(#aJ)"
           id="g934">
          <path
             fill="#767273"
             d="M468.2 216.2l.4.6c-.1.3-.1.5 0 .8l-.4-.6c-.3-.2-.3-.4 0-.8"
             id="path932" />
        </g>
      </g>
      <g
         id="g940">
        <path
           fill="#787475"
           d="M473 214.1l.5.8-3.4-.2-.5-.6z"
           id="path938" />
      </g>
      <g
         id="g952">
        <defs
           id="defs943">
          <path
             id="aK"
             d="M469.4 218.1l.4.6-1.2-.3c-.3 0-.6-.1-1-.1h-.5l-.4-.6h.5c.5 0 .8 0 1 .1.8 0 1.2.3 1.2.3z" />
        </defs>
        <clipPath
           id="aL">
          <use
             xlink:href="#aK"
             overflow="visible"
             id="use945" />
        </clipPath>
        <g
           clip-path="url(#aL)"
           id="g950">
          <path
             fill="#767273"
             d="M469.4 218.1l.4.6-1.2-.3c-.3 0-.6-.1-1-.1h-.5l-.4-.6h.5c.5 0 .8 0 1 .1.8 0 1.2.3 1.2.3"
             id="path948" />
        </g>
      </g>
      <g
         id="g964">
        <defs
           id="defs955">
          <path
             id="aM"
             d="M469.5 217.8c.1.3.3.4.4.6 0 .1 0 .3-.1.3l-.4-.6c.1 0 .1-.3.1-.3z" />
        </defs>
        <clipPath
           id="aN">
          <use
             xlink:href="#aM"
             overflow="visible"
             id="use957" />
        </clipPath>
        <g
           clip-path="url(#aN)"
           id="g962">
          <path
             fill="#767273"
             d="M469.5 217.8l.4.6c0 .1 0 .3-.1.3l-.4-.6c.1 0 .1-.3.1-.3"
             id="path960" />
        </g>
      </g>
      <g
         id="g968">
        <path
           fill="#787575"
           d="M475.2 207.1l.5.6.2 9.5-.4-.6z"
           id="path966" />
      </g>
      <g
         id="g980">
        <defs
           id="defs971">
          <path
             id="aO"
             d="M476.1 217.8l-.4-.6c-.1-.1-.1-.4-.3-.6l.4.6c.2.3.2.5.3.6z" />
        </defs>
        <clipPath
           id="aP">
          <use
             xlink:href="#aO"
             overflow="visible"
             id="use973" />
        </clipPath>
        <g
           clip-path="url(#aP)"
           id="g978">
          <path
             fill="#767273"
             d="M475.5 216.6l.4.6c0 .3.1.5.3.6l-.4-.6c-.2-.3-.3-.4-.3-.6"
             id="path976" />
        </g>
      </g>
      <g
         id="g992">
        <defs
           id="defs983">
          <path
             id="aQ"
             d="M472.1 218.6l-.4-.6h.1c1.6-.1 1.4-.1 1.8-.1h1.2c1 .1 1.8.1 1.8.1l.4.6s-.9 0-1.8-.1H474c-.5.1-.2.1-1.9.1.1 0 0 0 0 0z" />
        </defs>
        <clipPath
           id="aR">
          <use
             xlink:href="#aQ"
             overflow="visible"
             id="use985" />
        </clipPath>
        <g
           clip-path="url(#aR)"
           id="g990">
          <path
             fill="#767273"
             d="M476.8 218l.4.6s-.9 0-1.8-.1h-1.2c-.4 0-.3 0-1.8.1h-.1l-.4-.6h.1c1.6-.1 1.4-.1 1.8-.1h1.2c.9.1 1.6.1 1.8.1"
             id="path988" />
        </g>
      </g>
      <g
         id="g1004">
        <defs
           id="defs995">
          <path
             id="aS"
             d="M476.8 217.8c.1.3.3.4.4.6v.1l-.4-.6v-.1z" />
        </defs>
        <clipPath
           id="aT">
          <use
             xlink:href="#aS"
             overflow="visible"
             id="use997" />
        </clipPath>
        <g
           clip-path="url(#aT)"
           id="g1002">
          <path
             fill="#767273"
             d="M476.8 217.8l.4.6v.1l-.4-.6v-.1"
             id="path1000" />
        </g>
      </g>
      <g
         id="g1008">
        <path
           fill="#242021"
           d="M476.8 217.8c.1 0 0 .1 0 .3 0 0-.9 0-1.8-.1h-1.2c-.4 0-.3 0-1.8.1 0 0-.1 0-.1-.1s.1-.1.3-.1c.6-.1.9-.5 1-1.3.1-.9.1-1.6.1-2.3h-3.4l-1.4 2.1c-.4.6.4 1.4 1.3 1.6.1.1.1.3 0 .3l-1.2-.3c-.3 0-.6-.1-1-.1h-.5l-1.7.3c-.1 0-.1-.3 0-.3.8-.1 1.8-.6 2.3-1.6l6.7-9.5c.1-.1.4-.3.5-.3.3 0 .5.1.5.5l.3 9.5c-.1.8.4 1.1 1.1 1.3zm-4.7-4.2h.9l-.1-3.9s0-.1-.1-.1h-.1c-.8 1.2-1.9 2.6-2.9 3.8 0 .1 0 .1.1.1H470.8c.5.1.9.1 1.3.1"
           id="path1006" />
      </g>
    </g>
    <text
       transform="translate(478.153,218.606)"
       opacity="0.78"
       fill="#231f20"
       font-family="ArialMT"
       font-size="1.006px"
       id="text1012">TM</text>
    <g
       id="g1100">
      <linearGradient
         id="aU"
         gradientUnits="userSpaceOnUse"
         x1="406.177"
         y1="-717.787"
         x2="406.177"
         y2="-709.228"
         gradientTransform="matrix(1 0 0 -1 8.4 -498.99)">
        <stop
           offset=".06"
           stop-color="#53b848"
           id="stop1014" />
        <stop
           offset=".555"
           stop-color="#65ccec"
           id="stop1016" />
        <stop
           offset=".583"
           stop-color="#61c3e7"
           id="stop1018" />
        <stop
           offset=".688"
           stop-color="#55a7d8"
           id="stop1020" />
        <stop
           offset=".793"
           stop-color="#4d92cd"
           id="stop1022" />
        <stop
           offset=".898"
           stop-color="#4886c6"
           id="stop1024" />
        <stop
           offset="1"
           stop-color="#4682c4"
           id="stop1026" />
      </linearGradient>
      <path
         fill="url(#aU)"
         stroke="#000"
         stroke-width=".042"
         d="M410.2 210.2h3l5.7 8.6h-3z"
         id="path1029" />
      <linearGradient
         id="aV"
         gradientUnits="userSpaceOnUse"
         x1="407.705"
         y1="-717.777"
         x2="421.278"
         y2="-701.601"
         gradientTransform="matrix(1 0 0 -1 8.4 -498.99)">
        <stop
           offset="0"
           stop-color="#6ebe44"
           id="stop1031" />
        <stop
           offset=".001"
           stop-color="#6ebe44"
           id="stop1033" />
        <stop
           offset=".245"
           stop-color="#bcda20"
           id="stop1035" />
        <stop
           offset=".419"
           stop-color="#eceb09"
           id="stop1037" />
        <stop
           offset=".505"
           stop-color="#fff200"
           id="stop1039" />
        <stop
           offset=".578"
           stop-color="#fbca08"
           id="stop1041" />
        <stop
           offset=".679"
           stop-color="#f79a11"
           id="stop1043" />
        <stop
           offset=".775"
           stop-color="#f47419"
           id="stop1045" />
        <stop
           offset=".864"
           stop-color="#f1581f"
           id="stop1047" />
        <stop
           offset=".941"
           stop-color="#f04822"
           id="stop1049" />
        <stop
           offset="1"
           stop-color="#ef4223"
           id="stop1051" />
      </linearGradient>
      <path
         fill="url(#aV)"
         stroke="#000"
         stroke-width=".042"
         d="M426.7 202.7h3.1l-10.7 16.1h-3z"
         id="path1054" />
      <g
         id="g1098">
        <linearGradient
           id="aW"
           gradientUnits="userSpaceOnUse"
           x1="402.546"
           y1="-717.787"
           x2="402.546"
           y2="-709.228"
           gradientTransform="matrix(1 0 0 -1 8.4 -498.99)">
          <stop
             offset=".06"
             stop-color="#53b848"
             id="stop1056" />
          <stop
             offset=".555"
             stop-color="#65ccec"
             id="stop1058" />
          <stop
             offset=".583"
             stop-color="#61c3e7"
             id="stop1060" />
          <stop
             offset=".688"
             stop-color="#55a7d8"
             id="stop1062" />
          <stop
             offset=".793"
             stop-color="#4d92cd"
             id="stop1064" />
          <stop
             offset=".898"
             stop-color="#4886c6"
             id="stop1066" />
          <stop
             offset="1"
             stop-color="#4682c4"
             id="stop1068" />
        </linearGradient>
        <path
           fill="url(#aW)"
           stroke="#000"
           stroke-width=".042"
           d="M406.6 210.2h3l5.7 8.6h-3z"
           id="path1071" />
        <linearGradient
           id="aX"
           gradientUnits="userSpaceOnUse"
           x1="404.074"
           y1="-717.777"
           x2="417.647"
           y2="-701.601"
           gradientTransform="matrix(1 0 0 -1 8.4 -498.99)">
          <stop
             offset="0"
             stop-color="#6ebe44"
             id="stop1073" />
          <stop
             offset=".001"
             stop-color="#6ebe44"
             id="stop1075" />
          <stop
             offset=".245"
             stop-color="#bcda20"
             id="stop1077" />
          <stop
             offset=".419"
             stop-color="#eceb09"
             id="stop1079" />
          <stop
             offset=".505"
             stop-color="#fff200"
             id="stop1081" />
          <stop
             offset=".578"
             stop-color="#fbca08"
             id="stop1083" />
          <stop
             offset=".679"
             stop-color="#f79a11"
             id="stop1085" />
          <stop
             offset=".775"
             stop-color="#f47419"
             id="stop1087" />
          <stop
             offset=".864"
             stop-color="#f1581f"
             id="stop1089" />
          <stop
             offset=".941"
             stop-color="#f04822"
             id="stop1091" />
          <stop
             offset="1"
             stop-color="#ef4223"
             id="stop1093" />
        </linearGradient>
        <path
           fill="url(#aX)"
           stroke="#000"
           stroke-width=".042"
           d="M423.1 202.7h3.1l-10.8 16.1h-3z"
           id="path1096" />
      </g>
    </g>
  </g>
</svg>
