<?xml version="1.0" encoding="UTF-8" standalone="no"?>
<svg
   xmlns:dc="http://purl.org/dc/elements/1.1/"
   xmlns:cc="http://creativecommons.org/ns#"
   xmlns:rdf="http://www.w3.org/1999/02/22-rdf-syntax-ns#"
   xmlns:svg="http://www.w3.org/2000/svg"
   xmlns="http://www.w3.org/2000/svg"
   xmlns:sodipodi="http://sodipodi.sourceforge.net/DTD/sodipodi-0.dtd"
   xmlns:inkscape="http://www.inkscape.org/namespaces/inkscape"
   viewBox="-261 285 157.82805 400"
   version="1.1"
   id="svg18"
   sodipodi:docname="controller.svg"
   inkscape:export-filename="controller.png"
   inkscape:export-xdpi="28.799999"
   inkscape:export-ydpi="28.799999"
   inkscape:version="1.0.2 (e86c870879, 2021-01-15)">
  <metadata
     id="metadata24">
    <rdf:RDF>
      <cc:Work
         rdf:about="">
        <dc:format>image/svg+xml</dc:format>
        <dc:type
           rdf:resource="http://purl.org/dc/dcmitype/StillImage" />
      </cc:Work>
    </rdf:RDF>
  </metadata>
  <defs
     id="defs22" />
  <sodipodi:namedview
     pagecolor="#ffffff"
     bordercolor="#666666"
     borderopacity="1"
     objecttolerance="10"
     gridtolerance="10"
     guidetolerance="10"
     inkscape:pageopacity="0"
     inkscape:pageshadow="2"
     inkscape:window-width="1920"
     inkscape:window-height="1017"
     id="namedview20"
     showgrid="false"
     inkscape:zoom="0.59"
     inkscape:cx="78.914024"
     inkscape:cy="200"
     inkscape:window-x="-8"
     inkscape:window-y="-8"
     inkscape:window-maximized="1"
     inkscape:current-layer="svg18"
     inkscape:document-rotation="0" />
  <path
     fill="#60605d"
     d="M-176.29412 434.50226h-10.85973v-90.49774c0-33.30316-16.83258-48.14479-54.66063-48.14479V285c43.43891 0 65.52036 19.9095 65.52036 59.00452v90.49774z"
     id="path2" />
  <path
     fill="#868580"
     d="M-164.34842 424.36652h-15.56561v-2.89593h14.29865l-1.26697-3.61991h-13.03168v-2.89593h11.76471l-1.62896-4.34389h-10.13575v-2.89593h8.86878l-1.62896-4.34389h-18.09955l-1.62895 4.34389h9.59276v2.89593h-10.67874l-1.62896 4.34389h12.3077v2.89593h-13.21267l-1.44797 3.61991h14.66064v2.89593h-15.74661l-2.35294 6.51583h39.09502"
     id="path4" />
  <path
     fill="#c9c9c9"
     d="M-247.96833 428.71041h131.76471c7.23982 0 13.03167 5.79185 13.03167 13.03167v230.22625c0 7.23981-5.79185 13.03167-13.03167 13.03167h-131.76471C-255.20814 685-261 679.20814-261 671.96833V441.74208c0-7.23982 5.79186-13.03167 13.03167-13.03167z"
     id="path6" />
  <path
     fill="#dcdbdb"
     d="M-226.97285 475.76923h91.22172c2.35294 0 4.34389 1.99095 4.34389 4.34389v127.42082c0 2.35294-1.99095 4.34389-4.34389 4.34389h-91.22172c-2.35294 0-4.34389-1.99095-4.34389-4.34389V480.11312c0-2.53393 1.99095-4.34389 4.34389-4.34389z"
     id="path8" />
  <path
     fill="#60605d"
     d="M-226.97285 450.61086h28.95928c2.35294 0 4.34389 1.99095 4.34389 4.34389v57.91855c0 2.35294-1.99095 4.34389-4.34389 4.34389h-28.95928c-2.35294 0-4.34389-1.99095-4.34389-4.34389v-57.91855c0-2.35294 1.99095-4.34389 4.34389-4.34389z"
     id="path10" />
  <path
     fill="#868580"
     d="M-226.97285 446.80995h28.95928c2.35294 0 4.34389 1.99095 4.34389 4.3439v57.91855c0 2.35294-1.99095 4.34389-4.34389 4.34389h-28.95928c-2.35294 0-4.34389-1.99095-4.34389-4.34389v-57.91855c0-2.53394 1.99095-4.3439 4.34389-4.3439z"
     id="path12" />
  <path
     fill="#60605d"
     d="M-164.71041 450.61086h28.95928c2.35294 0 4.34389 1.99095 4.34389 4.34389v57.91855c0 2.35294-1.99095 4.34389-4.34389 4.34389h-28.95928c-2.35294 0-4.34389-1.99095-4.34389-4.34389v-57.91855c0-2.35294 1.99095-4.34389 4.34389-4.34389z"
     id="path14" />
  <path
     fill="#868580"
     d="M-164.71041 446.80995h28.95928c2.35294 0 4.34389 1.99095 4.34389 4.3439v57.91855c0 2.35294-1.99095 4.34389-4.34389 4.34389h-28.95928c-2.35294 0-4.34389-1.99095-4.34389-4.34389v-57.91855c0-2.53394 1.99095-4.3439 4.34389-4.3439z"
     id="path16" />
</svg>
