<?xml version="1.0" encoding="UTF-8" standalone="no"?>
<svg
   xmlns:dc="http://purl.org/dc/elements/1.1/"
   xmlns:cc="http://creativecommons.org/ns#"
   xmlns:rdf="http://www.w3.org/1999/02/22-rdf-syntax-ns#"
   xmlns:svg="http://www.w3.org/2000/svg"
   xmlns="http://www.w3.org/2000/svg"
   xmlns:sodipodi="http://sodipodi.sourceforge.net/DTD/sodipodi-0.dtd"
   xmlns:inkscape="http://www.inkscape.org/namespaces/inkscape"
   viewBox="0 0 205.76 35.274"
   version="1.1"
   id="svg10"
   sodipodi:docname="logo.svg"
   inkscape:export-filename="C:\Users\ReenigneArcher\LaunchBox\Themes\RecalBigBox\Resources\Platforms\Microsoft MSX2+\logo.png"
   inkscape:export-xdpi="357.80789"
   inkscape:export-ydpi="357.80789"
   inkscape:version="0.92.4 (5da689c313, 2019-01-14)">
  <metadata
     id="metadata16">
    <rdf:RDF>
      <cc:Work
         rdf:about="">
        <dc:format>image/svg+xml</dc:format>
        <dc:type
           rdf:resource="http://purl.org/dc/dcmitype/StillImage" />
      </cc:Work>
    </rdf:RDF>
  </metadata>
  <defs
     id="defs14" />
  <sodipodi:namedview
     pagecolor="#ffffff"
     bordercolor="#666666"
     borderopacity="1"
     objecttolerance="10"
     gridtolerance="10"
     guidetolerance="10"
     inkscape:pageopacity="0"
     inkscape:pageshadow="2"
     inkscape:window-width="1920"
     inkscape:window-height="1017"
     id="namedview12"
     showgrid="false"
     inkscape:zoom="1.3802489"
     inkscape:cx="117.73239"
     inkscape:cy="17.636999"
     inkscape:window-x="-8"
     inkscape:window-y="-8"
     inkscape:window-maximized="1"
     inkscape:current-layer="svg10" />
  <text
     transform="translate(153.302 23.194)"
     fill="#c13234"
     font-family="ArialMT"
     font-size="1"
     id="text2">I don’t like bugs!</text>
  <path
     d="M159.028 25.369h9.049v-4.478h-9.049v-9.904h-4.291v9.904h-9.05v4.478h9.05v9.905h4.291zM37.683 0h87.098v35.274H37.683z"
     id="path4" />
  <path
     d="M117.89 4.965l-8.28 12.094 9.006 13.213h-8.317l-4.949-7.074-4.989 7.091h-8.262c.224-.466 9.044-13.23 9.044-13.23l-3.759-5.23-15.947.018c-.744.059-1.656-.167-2.029.672-.13.278-.187.688-.037.968.129.316.428.613.762.706l.502.038h6.383c2.958.074 5.695 1.915 6.977 4.577 1.136 2.234.969 5.285-.298 7.408-1.599 2.697-4.447 4.205-7.535 4.094H68.411s-2.718-9.808-2.736-9.825l-2.736 9.825-6.475.001-2.605-9.864-2.848 9.843h-7.164s6.587-23.706 7.015-25.27h6.049l2.847 10.57 2.903-10.57 5.936-.001 5.08 18.407h11.835c.817-.039 1.953.184 2.288-.819a1.23 1.23 0 0 0-.298-1.229c-.299-.261-.671-.334-1.061-.334l-6.364-.001c-3.015-.093-6.01-2.065-7.127-4.967-1.209-2.904-.502-6.385 1.712-8.633 1.563-1.567 3.423-2.348 5.602-2.441l20.878-.018 4.207 6.065 4.352-6.083 8.189-.001z"
     fill="#fff"
     id="path6" />
  <path
     d="M135.089 30.318c.426-2.998 8.133-4.832 8.133-11.38 0-6.238-4.34-7.826-8.133-7.826-3.792 0-7.833 2.873-7.833 7.585v1.774h5.692v-1.284c0-1.62.794-2.633 2.202-2.633s2.077.828 2.077 2.509c0 3.793-6.423 5.323-9.112 10.096-1.153 2.037-1.226 6.116-1.226 6.116h15.968v-4.956h-7.768z"
     id="path8" />
</svg>
