<?xml version="1.0" encoding="UTF-8" standalone="no"?>
<svg
   xmlns:dc="http://purl.org/dc/elements/1.1/"
   xmlns:cc="http://creativecommons.org/ns#"
   xmlns:rdf="http://www.w3.org/1999/02/22-rdf-syntax-ns#"
   xmlns:svg="http://www.w3.org/2000/svg"
   xmlns="http://www.w3.org/2000/svg"
   xmlns:sodipodi="http://sodipodi.sourceforge.net/DTD/sodipodi-0.dtd"
   xmlns:inkscape="http://www.inkscape.org/namespaces/inkscape"
   viewBox="0 0 469.698 83.542"
   version="1.1"
   id="svg10"
   sodipodi:docname="logo.svg"
   inkscape:export-filename="logo.png"
   inkscape:export-xdpi="183.94798"
   inkscape:export-ydpi="183.94798"
   inkscape:version="1.0.2 (e86c870879, 2021-01-15)">
  <metadata
     id="metadata16">
    <rdf:RDF>
      <cc:Work
         rdf:about="">
        <dc:format>image/svg+xml</dc:format>
        <dc:type
           rdf:resource="http://purl.org/dc/dcmitype/StillImage" />
      </cc:Work>
    </rdf:RDF>
  </metadata>
  <defs
     id="defs14" />
  <sodipodi:namedview
     pagecolor="#ffffff"
     bordercolor="#666666"
     borderopacity="1"
     objecttolerance="10"
     gridtolerance="10"
     guidetolerance="10"
     inkscape:pageopacity="0"
     inkscape:pageshadow="2"
     inkscape:window-width="1920"
     inkscape:window-height="1017"
     id="namedview12"
     showgrid="false"
     inkscape:window-x="-8"
     inkscape:window-y="-8"
     inkscape:window-maximized="1"
     inkscape:current-layer="svg10" />
  <g
     fill="#3c3f8b"
     id="g8">
    <path
       d="M447.483 76.858c.883 0 1.672-.063 1.672-1.122 0-.853-.77-1.01-1.5-1.01h-1.42v2.132h1.248m-1.248 3.868h-1.044v-6.88h2.625c1.622 0 2.429.598 2.429 1.954 0 1.23-.77 1.77-1.783 1.897l1.959 3.028h-1.17l-1.814-2.984h-1.201v2.985m1.262 1.534c2.7 0 4.833-2.119 4.833-4.99 0-2.826-2.133-4.958-4.833-4.958-2.732 0-4.862 2.132-4.862 4.958-.001 2.871 2.13 4.99 4.862 4.99m-6.064-4.99c0-3.424 2.779-5.953 6.064-5.953 3.253 0 6.032 2.529 6.032 5.953 0 3.456-2.779 5.985-6.032 5.985-3.285 0-6.064-2.529-6.064-5.985M100.843 42.665l-3.006-15.499-6.924 15.499h9.93m108.734 39.37h-16.402l-2.189-49.397-21.327 49.397h-10.936l-9.119-44.656-14.216 44.656H107.5l-4.193-23.876H84.349L73.595 82.035H56.46L91.642 2.196h20.233l10.756 64.525 20.961-64.525h16.225l8.019 43.744 18.597-43.744h19.687l3.457 79.839M256.61 82.035l2.736-17.133h-28.624l2.275-14.215h24.89l2.736-17.138h-25.159l2.188-14.219h28.616l2.735-17.134h-45.388l-12.761 79.839h45.756M469.698 2.196h-19.14l-16.222 26.066-10.211-26.066h-18.772l19.32 42.106-5.949 37.733h16.405l5.039-33.358 29.53-46.481"
       id="path2" />
    <path
       d="M372.292 66.835c8.678 3.884 19.303-3.735 23.724-17.013 4.426-13.28.983-27.197-7.696-31.084-8.675-3.882-19.297 3.738-23.725 17.018-4.426 13.284-.98 27.194 7.697 31.079m-24.831-31.59c5.093-22.064 23.957-36.558 42.143-32.355 18.18 4.201 28.787 25.5 23.695 47.567-5.095 22.072-23.961 36.56-42.143 32.36-18.181-4.202-28.791-25.496-23.695-47.572M21.463 9.308C5.834 18.979-1.685 33.735.317 53.779c2.325 23.262 32.446 37.919 57.967 23.158 2.23-1.297 1.358-1.091 2.188-1.831l5.104-32.441h-30.44l-2.331 14.942h12.72l-1.457 8.024c-7.291 2.92-19.688 1.824-24.977-7.66-3.345-5.998-6.449-19.4 7.66-31.716 11.48-10.026 31.352-11.845 42.835-6.554 0 0 1.459-8.392 2.551-16.23-22.056-7.651-39.19-1.275-50.674 5.837"
       id="path4" />
    <path
       d="M293.973 2.648l-12.664 79.233h36.902c15.199 0 37.418-22.401 17.19-40.706 20.802-21.525.182-38.351-10.855-38.527-8.863-.148-30.754 0-30.754 0h.181m9.045 47.936h13.746c13.025 0 12.668 15.918-1.807 15.918h-14.473l2.534-15.918m5.066-31.119h10.673c11.577 0 9.225 14.836-1.81 14.836h-11.398l2.535-14.836"
       id="path6" />
  </g>
</svg>
