<?xml version="1.0" encoding="UTF-8" standalone="no"?>
<svg
   xmlns:dc="http://purl.org/dc/elements/1.1/"
   xmlns:cc="http://creativecommons.org/ns#"
   xmlns:rdf="http://www.w3.org/1999/02/22-rdf-syntax-ns#"
   xmlns:svg="http://www.w3.org/2000/svg"
   xmlns="http://www.w3.org/2000/svg"
   xmlns:sodipodi="http://sodipodi.sourceforge.net/DTD/sodipodi-0.dtd"
   xmlns:inkscape="http://www.inkscape.org/namespaces/inkscape"
   viewBox="0 0 559.249 81.18"
   version="1.1"
   id="svg27"
   sodipodi:docname="logo.svg"
   inkscape:export-filename="logo.png"
   inkscape:export-xdpi="154.49289"
   inkscape:export-ydpi="154.49289"
   inkscape:version="1.0.2 (e86c870879, 2021-01-15)">
  <metadata
     id="metadata33">
    <rdf:RDF>
      <cc:Work
         rdf:about="">
        <dc:format>image/svg+xml</dc:format>
        <dc:type
           rdf:resource="http://purl.org/dc/dcmitype/StillImage" />
      </cc:Work>
    </rdf:RDF>
  </metadata>
  <defs
     id="defs31" />
  <sodipodi:namedview
     pagecolor="#ffffff"
     bordercolor="#666666"
     borderopacity="1"
     objecttolerance="10"
     gridtolerance="10"
     guidetolerance="10"
     inkscape:pageopacity="0"
     inkscape:pageshadow="2"
     inkscape:window-width="1920"
     inkscape:window-height="1017"
     id="namedview29"
     showgrid="false"
     inkscape:zoom="0.50782386"
     inkscape:cx="279.62451"
     inkscape:cy="40.59"
     inkscape:window-x="-8"
     inkscape:window-y="-8"
     inkscape:window-maximized="1"
     inkscape:current-layer="svg27"
     inkscape:document-rotation="0" />
  <path
     d="M559.249 75.466c0 3.154-2.15 5.714-4.801 5.714H4.801C2.15 81.18 0 78.62 0 75.466V5.715C0 2.56 2.15 0 4.801 0h549.646c2.651 0 4.801 2.56 4.801 5.715v69.751h.001z"
     id="path2" />
  <linearGradient
     id="a"
     gradientUnits="userSpaceOnUse"
     x1="908.059"
     y1="1394.493"
     x2="1316.951"
     y2="1394.493"
     gradientTransform="matrix(.672 0 0 .672 -450.241 -897.07)">
    <stop
       offset="0"
       stop-color="#f50019"
       id="stop4" />
    <stop
       offset=".276"
       stop-color="#f66d19"
       id="stop6" />
    <stop
       offset=".478"
       stop-color="#fbfa35"
       id="stop8" />
    <stop
       offset=".681"
       stop-color="#74b719"
       id="stop10" />
    <stop
       offset=".791"
       stop-color="#17710a"
       id="stop12" />
    <stop
       offset=".883"
       stop-color="#226887"
       id="stop14" />
    <stop
       offset="1"
       stop-color="#3262d9"
       id="stop16" />
  </linearGradient>
  <path
     d="M159.942 18.077h22.146c14.6 0 19.753 10.796 19.753 21.839 0 13.435-7.116 21.962-22.391 21.962h-19.507l-.001-43.801zm13.495 32.575h5.276c8.404 0 9.631-6.81 9.631-10.919 0-2.76-.859-10.43-10.613-10.43h-4.295l.001 21.349zm33.003-32.575h25.705c7.668 0 14.293 4.233 14.293 12.515 0 4.54-2.086 9.325-6.564 10.981 3.681 1.412 5.95 5.46 6.441 10.919.183 2.147.245 7.361 1.472 9.386h-13.496c-.675-2.208-.921-4.477-1.105-6.748-.368-4.172-.737-8.527-6.074-8.527h-7.179V61.88h-13.496V18.077h.003zm13.496 19.14h7.055c2.515 0 5.951-.43 5.951-4.355 0-2.76-1.533-4.355-6.687-4.355h-6.318v8.71h-.001zm46.561-19.14h13.189l15.95 43.801H281.65l-1.84-6.257h-13.926l-1.963 6.257h-13.558l16.134-43.801zm10.612 28.157l-3.926-13.496h-.123l-4.233 13.496h8.282zM329.497 57.4c-3.006 3.864-7.668 5.52-12.452 5.52-12.945 0-20.92-10.061-20.92-22.513 0-16.686 11.718-23.372 21.594-23.372 11.165 0 18.22 6.073 20.182 16.379h-12.945c-.49-3.19-3.189-5.46-6.379-5.46-9.263 0-8.957 9.754-8.957 12.76 0 4.109 1.656 11.288 9.876 11.288 3.129 0 6.318-1.595 6.993-4.846h-5.95v-9.387h17.913v24.109h-8.527l-.428-4.478zm37.787-40.366c13.313 0 22.207 9.569 22.207 22.944s-8.895 22.944-22.207 22.944c-13.312 0-22.208-9.569-22.208-22.944 0-13.374 8.896-22.944 22.208-22.944zm0 34.967c3.435 0 8.711-2.27 8.711-12.025 0-9.754-5.276-12.024-8.711-12.024-3.435 0-8.711 2.27-8.711 12.024 0 9.755 5.277 12.025 8.711 12.025zm27.972-33.924h13.803l12.76 23.434h.123V18.077h12.76v43.801h-13.128l-13.435-23.925h-.123v23.925h-12.76V18.077z"
     fill="url(#a)"
     id="path19" />
  <path
     d="M447.336 33.413c.062-5.03 2.086-8.711 5.337-11.165 3.252-2.393 7.668-3.558 12.453-3.558 12.39 0 16.502 7.361 16.502 10.981 0 8.956-5.644 8.956-5.644 9.141v.123c0 .491 6.994.491 6.994 9.999 0 5.214-3.926 13.435-17.913 13.435-19.2 0-19.263-13.496-18.956-16.687h11.657c-.062 2.27.49 3.989 1.657 5.091 1.165 1.411 2.945 1.902 5.091 1.902 3.496 0 5.704-1.288 5.704-4.784 0-3.742-2.883-4.417-5.704-4.417-1.779 0-2.639.183-3.558.306v-8.344c.919.062 1.901.245 3.558.245 2.576 0 5.828-.552 5.828-3.864 0-2.701-3.067-3.742-5.583-3.742-3.313 0-6.011 1.779-5.89 5.337l-11.533.001zm38.218 3.743c-.675-11.718 6.625-18.465 18.098-18.465 10.367 0 17.422 4.355 17.422 13.435 0 10.919-10.674 14.354-18.711 19.263v.062h19.324v10.43h-36.992c-.245-4.11.982-7.669 3.066-10.552 3.558-4.97 9.693-8.22 15.153-11.533 2.208-1.35 5.766-3.068 5.766-6.197 0-3.865-2.27-5.214-5.153-5.214-4.908 0-6.564 3.558-6.441 8.772l-11.532-.001z"
     fill="#fff"
     id="path21" />
  <path
     d="M373.437 67.356h3.887c2.562 0 3.467 1.894 3.467 3.832 0 2.359-1.249 3.854-3.931 3.854h-3.424v-7.687h.001zm2.37 5.717h.925c1.474 0 1.691-1.195 1.691-1.918 0-.484-.151-1.83-1.862-1.83h-.753l-.001 3.748c.001 0 0 0 0 0zm8.141-5.717h2.314l2.799 7.687h-2.455l-.322-1.099h-2.445l-.345 1.099h-2.379l2.833-7.687zm1.862 4.942l-.689-2.369h-.021l-.742 2.369h1.452zm4.848-2.972h-2.153v-1.971h6.675v1.971h-2.154v5.717h-2.367v-5.717h-.001zm6.731-1.97h2.314l2.799 7.687h-2.455l-.322-1.099h-2.444l-.345 1.099h-2.379l2.832-7.687zm1.862 4.942l-.689-2.369h-.021l-.742 2.369h1.452zm13.41-4.942h2.368v5.717h3.401v1.971h-5.771v-7.688h.002zm7.193 1.97h-2.152v-1.971h6.675v1.971h-2.154v5.717h-2.367v-5.717h-.002zm5.396-1.97h3.887c2.562 0 3.467 1.894 3.467 3.832 0 2.359-1.249 3.854-3.93 3.854h-3.424v-7.687zm2.369 5.717h.925c1.475 0 1.691-1.195 1.691-1.918 0-.484-.151-1.83-1.862-1.83h-.753l-.001 3.748zm6.075-.161h2.239v2.131h-2.239v-2.131z"
     fill="#dedede"
     id="path23" />
  <path
     d="M76.055 41.738h-6.642l15.812-27.385a17.184 17.184 0 0114.864-8.61h32.674l-3.321 5.752h-29.353a11.416 11.416 0 00-9.879 5.727L76.055 41.738zm17.793-22.421a7.21 7.21 0 016.241-3.625h26.929l1.437-2.488h-28.366a9.705 9.705 0 00-8.398 4.872L78.03 41.738h2.872l12.946-22.421zm2.516 10.565h22.462l3.884-6.727 1.182-2.048 2.14-3.705H100.09a5.494 5.494 0 00-4.757 2.764L82.877 41.738h6.642l6.845-11.856zm-51.039 0c-.004.047-.007.069-.005.069-.052.177-.294.687-1.141 2.108-1.789 3.004-3.62 6.757-3.621 11.819 0 9.45 7.688 17.138 17.138 17.138h65.256l-6.774 11.733h6.642l5.321-9.216a5.47 5.47 0 00.763-2.79 5.485 5.485 0 00-5.479-5.479H57.698c-6.279 0-11.386-5.108-11.386-11.386 0-3.453 1.124-6.045 2.811-8.874 1.569-2.634 1.964-3.543 1.963-5.395a5.484 5.484 0 00-5.478-5.478H26.333l3.32 5.752h15.672v-.001zm78.1 21.185H57.697c-3.963 0-7.189-3.225-7.189-7.189.001-2.19.602-4.013 2.218-6.725 1.738-2.916 2.556-4.61 2.556-7.544 0-5.334-4.34-9.675-9.676-9.675H19.1l-.937-1.621-6.286 2.842 9.728 3.119-1.07-1.853h25.071c3.964 0 7.188 3.225 7.188 7.188.001 2.232-.496 3.402-2.205 6.269-1.849 3.101-2.568 5.344-2.568 7.999 0 5.335 4.341 9.676 9.676 9.676h65.729c3.964 0 7.189 3.225 7.189 7.189a7.202 7.202 0 01-1.009 3.676l-4.809 8.33h2.871l4.084-7.073a9.677 9.677 0 001.351-4.933c-.001-5.335-4.341-9.675-9.678-9.675zM63.848 62.882h-6.642l-5.698 9.867h6.642l5.698-9.867zm-.85 9.866l5.697-9.867h-2.871l-5.697 9.867h2.871zm14.313-9.866h-6.642l-5.697 9.867h6.642l5.697-9.867zm46.114-19.278H57.979c.035-.42.216-1.052 1.157-2.632 2.045-3.43 3.608-6.445 3.608-11.364 0-9.45-7.687-17.138-17.138-17.138h-.45l-3.79 3.791-3.79-3.791H19.599l3.322 5.753h22.685c6.279 0 11.386 5.108 11.386 11.386.001 3.475-1.056 5.498-2.797 8.419-1.459 2.449-1.976 3.979-1.976 5.85a5.486 5.486 0 005.479 5.479h65.729c6.279 0 11.386 5.108 11.386 11.386 0 2.039-.546 4.041-1.58 5.789l-3.59 6.217h6.642l1.915-3.318a17.135 17.135 0 002.365-8.688c-.001-9.451-7.689-17.139-17.14-17.139zM47.048 11.74l-5.682-5.681-5.681 5.681h2.638l3.043-3.043 3.044 3.043h2.638z"
     fill="#f50019"
     id="path25" />
</svg>
