<?xml version="1.0" encoding="UTF-8" standalone="no"?>
<svg
   xmlns:dc="http://purl.org/dc/elements/1.1/"
   xmlns:cc="http://creativecommons.org/ns#"
   xmlns:rdf="http://www.w3.org/1999/02/22-rdf-syntax-ns#"
   xmlns:svg="http://www.w3.org/2000/svg"
   xmlns="http://www.w3.org/2000/svg"
   xmlns:sodipodi="http://sodipodi.sourceforge.net/DTD/sodipodi-0.dtd"
   xmlns:inkscape="http://www.inkscape.org/namespaces/inkscape"
   viewBox="0 0 899.99997 162.79242"
   version="1.1"
   id="svg22"
   sodipodi:docname="logo.svg"
   inkscape:export-filename="logo.png"
   inkscape:export-xdpi="96.122414"
   inkscape:export-ydpi="96.122414"
   inkscape:version="0.92.4 (5da689c313, 2019-01-14)"
   width="900"
   height="162.79242">
  <metadata
     id="metadata28">
    <rdf:RDF>
      <cc:Work
         rdf:about="">
        <dc:format>image/svg+xml</dc:format>
        <dc:type
           rdf:resource="http://purl.org/dc/dcmitype/StillImage" />
        <dc:title />
      </cc:Work>
    </rdf:RDF>
  </metadata>
  <defs
     id="defs26" />
  <sodipodi:namedview
     pagecolor="#ffffff"
     bordercolor="#666666"
     borderopacity="1"
     objecttolerance="10"
     gridtolerance="10"
     guidetolerance="10"
     inkscape:pageopacity="0"
     inkscape:pageshadow="2"
     inkscape:window-width="1920"
     inkscape:window-height="1017"
     id="namedview24"
     showgrid="false"
     inkscape:zoom="0.68444123"
     inkscape:cx="207.46851"
     inkscape:cy="37.526501"
     inkscape:window-x="1912"
     inkscape:window-y="-8"
     inkscape:window-maximized="1"
     inkscape:current-layer="svg22"
     fit-margin-top="0"
     fit-margin-left="0"
     fit-margin-right="0"
     fit-margin-bottom="0" />
  <path
     d="m 99.511733,50.852298 4.804347,-5.429017 V 8.875564 L 81.55238,17.647016 62.755792,51.166804 81.55238,43.961373 Z"
     id="path2"
     inkscape:connector-curvature="0"
     style="fill:#253488;stroke-width:2.16900396" />
  <path
     d="M 139.92245,101.91499 V 40.202489 l 23.07603,-8.875565 V 128.43757 L 139.92245,138.1482 105.98621,93.874492 V 152.45495 L 81.55238,162.79242 V 62.65168 l 24.43383,-9.294182 z"
     id="path4"
     inkscape:connector-curvature="0"
     style="fill:#253287;stroke-width:2.16900396" />
  <path
     d="M 44.796439,128.54168 23.182314,86.564949 v 51.687361 z"
     id="path6"
     inkscape:connector-curvature="0"
     style="fill:#253488;stroke-width:2.16900396" />
  <path
     d="M 46.258348,31.326924 57.118551,53.463779 62.757961,51.270916 81.554549,17.751129 58.790853,8.771452 Z m 53.253385,19.525374 17.334677,-19.527543 23.07604,8.875565 v 61.7125 L 105.98621,53.359667 Z"
     id="path8"
     inkscape:connector-curvature="0"
     style="fill:#238b41;stroke-width:2.16900396" />
  <path
     d="M 81.55238,162.79025 V 62.65168 L 57.118551,53.357498 V 104.10568 L 23.076033,40.202489 0,31.326924 v 97.110646 l 23.076033,9.71063 V 86.564949 l 33.936236,65.890001 z"
     id="path10"
     inkscape:connector-curvature="0"
     style="fill:#238b41;stroke-width:2.16900396" />
  <path
     d="m 23.182314,40.202489 23.076034,-8.875565 10.860203,22.136855 v 50.748181 z m 82.803896,77.793501 6.89093,9.71063 26.94119,10.44158 -33.93623,-44.273708 z"
     id="path12"
     inkscape:connector-curvature="0"
     style="fill:#c33937;stroke-width:2.16900396" />
  <path
     d="m 57.222663,53.359667 24.433829,-9.294182 24.433828,9.294182 -24.433828,9.294182 z m 82.699787,-30.908307 23.07603,8.875564 -23.07603,8.875565 -23.07604,-8.875565 z m -116.740136,0 23.076034,8.875564 L 23.182314,40.202489 0.10411219,31.326924 Z M 81.55238,0 58.788684,8.771452 81.55238,17.647016 104.31608,8.875564 Z"
     id="path14"
     inkscape:connector-curvature="0"
     style="fill:#e6b531;stroke-width:2.16900396" />
  <path
     d="m 639.26186,52.836937 h 33.6239 c 28.71545,0 37.79924,16.28922 37.79924,38.426074 0,22.867809 -14.20047,37.068279 -36.02499,37.068279 H 639.36598 V 52.836937 Z m 27.66999,58.580463 h 2.8197 c 4.48984,0 7.62188,-1.3578 9.3983,-4.48984 1.77641,-3.13204 2.08875,-8.979679 2.08875,-16.289222 0,-7.309543 -0.31234,-13.157178 -2.08875,-16.28922 -1.77425,-3.132042 -4.80435,-4.489838 -9.3983,-4.489838 h -2.8197 z m 87.92274,-60.669214 c 24.53794,0 37.06828,16.28922 37.06828,39.783871 0,23.494653 -12.11172,39.783873 -37.06828,39.783873 -24.53794,0 -37.06828,-16.28922 -37.06828,-39.783873 0,-23.494651 12.21583,-39.783871 37.06828,-39.783871 z m 0,60.250594 c 4.48984,0 7.62188,-2.08875 7.62188,-20.77906 0,-17.959353 -3.13204,-20.779058 -7.62188,-20.779058 -4.48984,0 -7.62188,2.401088 -7.62188,20.779058 0,18.37797 3.13204,20.77906 7.62188,20.77906 z m 50.22546,1.46191 c -4.80435,0 -8.97968,4.1775 -8.97968,8.97967 0,4.80218 4.1775,8.97968 8.97968,8.97968 4.80434,0 8.97967,-4.1775 8.97967,-8.97968 0.002,-4.90628 -4.07122,-8.97967 -8.97967,-8.97967 z m 0,16.28922 c -4.1775,0 -7.30955,-3.44655 -7.30955,-7.30955 0,-4.1775 3.44655,-7.30954 7.30955,-7.30954 4.1775,0 7.30954,3.44655 7.30954,7.30954 0,4.1775 -3.44438,7.30955 -7.30954,7.30955 z"
     id="path16"
     inkscape:connector-curvature="0"
     style="fill:#233387;stroke-width:2.16900396" />
  <path
     d="m 803.72442,126.24471 h -2.08875 v -9.71063 h 4.1775 c 1.77425,0 3.44655,0.73095 3.44655,2.40108 0,1.3578 -0.73096,2.08876 -2.08875,2.40109 1.77424,0.31234 1.77424,1.04329 1.77424,2.40109 0,0.73095 0.31234,1.77424 0.73096,2.40109 h -2.40109 c -0.31234,-1.04329 -0.31234,-1.77425 -0.31234,-2.81971 0,-0.73095 -0.31233,-1.3578 -1.04329,-1.3578 h -2.08875 v 3.75889 z m 0,-5.5353 h 1.77425 c 1.04329,0 1.35779,-0.31234 1.35779,-1.3578 0,-1.04329 -0.73095,-1.35779 -1.35779,-1.35779 h -1.77425 z M 255.09873,52.836937 v 43.33453 h -0.31234 l -15.24593,-43.33453 h -33.93624 v 75.496523 h 22.86781 V 84.684422 h 0.31234 l 15.24593,43.646868 h 33.93623 V 52.836937 Z m 128.22934,0 v 43.33453 h -0.31234 l -15.35004,-43.33453 h -33.93623 v 75.496523 h 22.86781 V 84.684422 h 0.31233 l 15.24593,43.646868 h 33.93624 V 52.836937 Z m 220.53565,0 v 43.33453 h -0.31234 l -15.24593,-43.33453 h -33.93623 v 75.496523 h 22.86781 V 84.684422 h 0.31233 l 15.24593,43.646868 h 33.93624 V 52.836937 Z m -283.60595,0 v 75.496523 h -28.4031 V 52.836937 Z M 432.40396,128.33346 V 73.303658 H 414.4446 V 52.836937 h 64.4281 v 20.466721 h -17.95936 v 55.029802 z m 82.80606,-55.344307 v 7.936385 h 25.99985 V 100.3468 h -25.99985 v 8.35283 h 29.13406 V 128.4354 H 487.54004 V 52.836937 h 56.07309 V 72.88504 Z"
     id="path18"
     inkscape:connector-curvature="0"
     style="fill:#233387;stroke-width:2.16900396" />
  <path
     d="m 842.88145,42.8118 h -5.22079 c -12.11172,0.730955 -16.60373,5.535299 -18.37797,11.380764 h 0.31233 c 3.13204,-2.819705 6.57859,-3.758884 11.38077,-3.758884 9.39829,0 17.95935,6.890926 17.95935,19.735767 0,12.426224 -9.39829,22.136855 -22.13685,22.136855 -17.02018,0 -24.22561,-12.842672 -24.22561,-26.626693 0,-11.068427 3.75888,-20.779058 10.44158,-26.626692 6.26626,-5.847635 14.20047,-8.66734 23.91327,-8.979677 h 5.5353 V 42.8118 Z m -15.97688,37.382784 c 3.75888,0 6.26625,-3.758884 6.26625,-8.979677 0,-4.177501 -2.08875,-8.979676 -7.30954,-8.979676 -3.13205,0 -5.5353,2.088751 -6.57859,4.489838 -0.31234,0.730955 -0.31234,1.774245 -0.31234,3.446548 0.31234,4.802174 2.71342,10.022967 7.93422,10.022967 z m 52.00187,11.068427 V 77.793497 h -25.2689 V 67.037406 l 20.0481,-36.024987 h 20.04811 v 34.66719 H 900 v 12.426224 h -6.26625 v 13.469515 h -15.24593 z m 0,-25.895738 V 54.925688 c 0,-3.758884 0.31233,-7.936386 0.31233,-12.111719 h -0.31233 c -1.77425,4.177502 -3.44655,7.936386 -5.5353,12.111719 l -4.80435,10.025136 v 0.312337 h 10.33748 z"
     id="path20"
     inkscape:connector-curvature="0"
     style="fill:#c33d3a;stroke-width:2.16900396" />
</svg>
