<?xml version="1.0" encoding="UTF-8" standalone="no"?>
<svg
   xmlns:dc="http://purl.org/dc/elements/1.1/"
   xmlns:cc="http://creativecommons.org/ns#"
   xmlns:rdf="http://www.w3.org/1999/02/22-rdf-syntax-ns#"
   xmlns:svg="http://www.w3.org/2000/svg"
   xmlns="http://www.w3.org/2000/svg"
   xmlns:sodipodi="http://sodipodi.sourceforge.net/DTD/sodipodi-0.dtd"
   xmlns:inkscape="http://www.inkscape.org/namespaces/inkscape"
   viewBox="0 0 179 179"
   version="1.1"
   id="svg36"
   sodipodi:docname="consolegame.svg"
   inkscape:export-filename="consolegame.png"
   inkscape:export-xdpi="64.357544"
   inkscape:export-ydpi="64.357544"
   inkscape:version="1.0.2 (e86c870879, 2021-01-15)">
  <metadata
     id="metadata42">
    <rdf:RDF>
      <cc:Work
         rdf:about="">
        <dc:format>image/svg+xml</dc:format>
        <dc:type
           rdf:resource="http://purl.org/dc/dcmitype/StillImage" />
      </cc:Work>
    </rdf:RDF>
  </metadata>
  <defs
     id="defs40" />
  <sodipodi:namedview
     pagecolor="#ffffff"
     bordercolor="#666666"
     borderopacity="1"
     objecttolerance="10"
     gridtolerance="10"
     guidetolerance="10"
     inkscape:pageopacity="0"
     inkscape:pageshadow="2"
     inkscape:window-width="1920"
     inkscape:window-height="1017"
     id="namedview38"
     showgrid="false"
     inkscape:zoom="1.3184358"
     inkscape:cx="89.5"
     inkscape:cy="89.5"
     inkscape:window-x="-8"
     inkscape:window-y="-8"
     inkscape:window-maximized="1"
     inkscape:current-layer="svg36"
     inkscape:document-rotation="0" />
  <g
     fill="#f4f4f4"
     id="g8">
    <path
       d="M0 22.375h11.187v145.438H0zM11.187 156.625h55.937V179H11.187zM67.125 156.625h11.188v11.188H67.125zM78.313 156.625h55.937V179H78.313zM134.25 156.625h11.187v11.188H134.25z"
       id="path2" />
    <path
       d="M134.25 145.438h22.375v11.188H134.25zM145.438 100.688h11.187v44.75h-11.187zM156.625 100.688h11.188v11.188h-11.188zM145.438 44.75h33.563v55.938h-33.563zM0 11.188h22.375v11.188H0zM145.438 22.375h11.187V44.75h-11.187z"
       id="path4" />
    <path
       d="M134.25 11.188h22.375v11.188H134.25zM11.187 0h134.25v11.188H11.187z"
       id="path6" />
  </g>
  <path
     fill="#4695d0"
     d="M11.187 22.375h123.062v123.063H11.187z"
     id="path10" />
  <path
     fill="#f4f4f4"
     d="M22.375 44.75h100.688v55.938H22.375z"
     id="path12" />
  <g
     fill="#f4f4f4"
     id="g16">
    <path
       d="M44.75 111.875h11.188v11.188H44.75zM89.5 111.875h11.188v11.188H89.5zM55.938 123.063H89.5v11.188H55.938z"
       id="path14" />
  </g>
  <g
     fill="#26356b"
     id="g20">
    <path
       d="M11.187 145.438h123.062v11.188H11.187zM22.375 33.563h100.688v11.188H22.375zM22.375 11.188H134.25v11.188H22.375z"
       id="path18" />
  </g>
  <g
     fill="#181a2b"
     id="g24">
    <path
       d="M44.75 55.938h11.188v33.563H44.75zM89.5 55.938h11.188v33.563H89.5z"
       id="path22" />
  </g>
  <g
     fill="#181a2b"
     id="g28">
    <path
       d="M156.625 55.938h11.188v33.563h-11.188zM145.438 89.5h11.187v11.188h-11.187zM134.25 22.375h11.188v123.063H134.25z"
       id="path26" />
  </g>
  <g
     id="g34">
    <g
       fill="#181a2b"
       id="g32">
      <path
         d="M22.375 156.625h33.563v11.188H22.375zM89.5 156.625h33.563v11.188H89.5z"
         id="path30" />
    </g>
  </g>
</svg>
