<?xml version="1.0" encoding="UTF-8" standalone="no"?>
<svg
   xmlns:dc="http://purl.org/dc/elements/1.1/"
   xmlns:cc="http://creativecommons.org/ns#"
   xmlns:rdf="http://www.w3.org/1999/02/22-rdf-syntax-ns#"
   xmlns:svg="http://www.w3.org/2000/svg"
   xmlns="http://www.w3.org/2000/svg"
   xmlns:sodipodi="http://sodipodi.sourceforge.net/DTD/sodipodi-0.dtd"
   xmlns:inkscape="http://www.inkscape.org/namespaces/inkscape"
   viewBox="0 0 358.903 279.14"
   version="1.1"
   id="svg451"
   sodipodi:docname="consolegame.svg"
   inkscape:export-filename="consolegame.png"
   inkscape:export-xdpi="41.269611"
   inkscape:export-ydpi="41.269611"
   inkscape:version="1.0.2 (e86c870879, 2021-01-15)">
  <metadata
     id="metadata457">
    <rdf:RDF>
      <cc:Work
         rdf:about="">
        <dc:format>image/svg+xml</dc:format>
        <dc:type
           rdf:resource="http://purl.org/dc/dcmitype/StillImage" />
      </cc:Work>
    </rdf:RDF>
  </metadata>
  <defs
     id="defs455" />
  <sodipodi:namedview
     pagecolor="#ffffff"
     bordercolor="#666666"
     borderopacity="1"
     objecttolerance="10"
     gridtolerance="10"
     guidetolerance="10"
     inkscape:pageopacity="0"
     inkscape:pageshadow="2"
     inkscape:window-width="1920"
     inkscape:window-height="1017"
     id="namedview453"
     showgrid="false"
     inkscape:zoom="0.79130012"
     inkscape:cx="179.45151"
     inkscape:cy="139.57001"
     inkscape:window-x="1912"
     inkscape:window-y="-8"
     inkscape:window-maximized="1"
     inkscape:current-layer="svg451"
     inkscape:document-rotation="0" />
  <g
     transform="translate(6.287 199.148)"
     id="g22">
    <linearGradient
       id="a"
       gradientUnits="userSpaceOnUse"
       x1="-89.923"
       y1="300.437"
       x2="-89.923"
       y2="301.774"
       gradientTransform="matrix(162.5695 0 0 -30.2899 14750.304 9156.85)">
      <stop
         offset="0"
         stop-color="#dbd0c0"
         id="stop2" />
      <stop
         offset="1"
         stop-color="#c0b598"
         id="stop4" />
    </linearGradient>
    <path
       d="M47.561 34.754a3.322 3.322 0 0 0 3.323 3.321H212.3a3.322 3.322 0 0 0 3.323-3.321V10.083a3.322 3.322 0 0 0-3.323-3.321H50.884a3.322 3.322 0 0 0-3.323 3.321v24.671z"
       fill="url(#a)"
       id="path7" />
    <g
       transform="translate(124.42 10.583)"
       id="g20">
      <linearGradient
         id="b"
         gradientUnits="userSpaceOnUse"
         x1="-210.242"
         y1="279.411"
         x2="-210.242"
         y2="280.656"
         gradientTransform="matrix(27.7838 0 0 -14.2271 5907.463 4001.427)">
        <stop
           offset="0"
           stop-color="#c2b9ab"
           id="stop9" />
        <stop
           offset="1"
           stop-color="#a89f85"
           id="stop11" />
      </linearGradient>
      <path
         d="M80.521 20.534c0 .786-.638 1.423-1.424 1.423H53.223a1.423 1.423 0 0 1-1.424-1.423V8.673c0-.786.638-1.423 1.424-1.423h25.874c.787 0 1.424.637 1.424 1.423v11.861z"
         fill="url(#b)"
         id="path14" />
      <path
         d="M77.485 17.924a.474.474 0 0 1-.475.474h-7.24a.474.474 0 0 1-.475-.474v-8.54c0-.262.212-.474.475-.474h7.24c.263 0 .475.212.475.474v8.54z"
         fill="#97876c"
         id="path16" />
      <path
         d="M75.398 11.579v-1.068h-.831V9.325h-2.136v1.186H71.6v1.068h-.831v5.456h5.46v-5.456h-.831z"
         id="path18" />
    </g>
  </g>
  <g
     transform="translate(.317)"
     id="g38">
    <linearGradient
       id="c"
       gradientUnits="userSpaceOnUse"
       x1="-84.525"
       y1="508.855"
       x2="-83.491"
       y2="508.855"
       gradientTransform="matrix(174.2033 0 0 -206.2166 14772.086 105040.977)">
      <stop
         offset="0"
         stop-color="#dbd0c0"
         id="stop24" />
      <stop
         offset="1"
         stop-color="#c0b598"
         id="stop26" />
    </linearGradient>
    <path
       d="M227.608 207.491a5.695 5.695 0 0 1-5.697 5.693H53.215a5.695 5.695 0 0 1-5.697-5.693V5.693A5.695 5.695 0 0 1 53.215 0H221.91a5.695 5.695 0 0 1 5.697 5.693v201.798h.001z"
       fill="url(#c)"
       id="path29" />
    <linearGradient
       id="d"
       gradientUnits="userSpaceOnUse"
       x1="-83.797"
       y1="508.588"
       x2="-83.265"
       y2="508.233"
       gradientTransform="matrix(166.5501 0 0 -186.0228 14123.22 94737.414)">
      <stop
         offset="0"
         stop-color="#c3b7a0"
         id="stop31" />
      <stop
         offset="1"
         stop-color="#c0b598"
         id="stop33" />
    </linearGradient>
    <path
       d="M223.651 200.374a2.373 2.373 0 0 1-2.374 2.372H53.847a2.373 2.373 0 0 1-2.374-2.372V12.811a2.373 2.373 0 0 1 2.374-2.372h167.43a2.373 2.373 0 0 1 2.374 2.372v187.563z"
       fill="url(#d)"
       id="path36" />
  </g>
  <linearGradient
     id="e"
     gradientUnits="userSpaceOnUse"
     x1="-83.636"
     y1="508.144"
     x2="-83.445"
     y2="507.182"
     gradientTransform="matrix(146.037 0 0 -110.4513 12338.012 56151.36)">
    <stop
       offset="0"
       stop-color="#97876c"
       id="stop40" />
    <stop
       offset="1"
       stop-color="#dbd0c0"
       id="stop42" />
  </linearGradient>
  <path
     d="M213.365 134.111c0 1.048-.85 1.898-1.899 1.898H64.293a1.899 1.899 0 0 1-1.899-1.898V23.723c0-1.048.85-1.898 1.899-1.898h147.173c1.049 0 1.899.85 1.899 1.898v110.388z"
     fill="url(#e)"
     id="path45" />
  <path
     d="M72.442 190.53a.95.95 0 0 1-.95.948h-9.97a.95.95 0 0 1-.95-.949v-9.963a.95.95 0 0 1 .95-.949h9.97a.95.95 0 0 1 .95.95v9.962z"
     opacity=".6"
     fill="#8b8a90"
     id="path47" />
  <path
     d="M63.552 188.773c.536.757 1.143 1.196 1.484 1.203.703.016 1.314-.459 1.818-.446a.043.043 0 0 0 .016.001h.028c.504-.014 1.115.462 1.82.445.341-.008.948-.446 1.483-1.203h-6.649"
     fill="#009ddd"
     id="path49" />
  <path
     d="M62.9 187.58c.182.447.41.85.651 1.192h6.65c.241-.343.47-.745.65-1.193h-7.95"
     fill="#944d85"
     id="path51" />
  <path
     d="M62.542 186.267c.067.467.195.908.358 1.312h7.952c.027-.067.053-.135.078-.204-.524-.164-.954-.573-1.187-1.109h-7.2"
     fill="#c45152"
     id="path53" />
  <path
     d="M62.963 183.643c-.21.336-.374.765-.44 1.312h7.068a2.032 2.032 0 0 1 .82-1.312h-7.448"
     fill="#f2bd2f"
     id="path55" />
  <path
     d="M62.522 184.955a5.136 5.136 0 0 0 .02 1.313h7.202a2.285 2.285 0 0 1-.152-1.313h-7.07"
     fill="#e19433"
     id="path57" />
  <path
     d="M66.883 182.873h-.012c-.48-.008-1.365-.494-1.993-.429-.313.032-1.312.24-1.914 1.198h7.448a2.08 2.08 0 0 1 .235-.144c-.564-.888-1.482-1.025-1.77-1.055-.63-.064-1.514.423-1.994.43"
     fill="#76b845"
     id="path59" />
  <path
     d="M68.581 180.177c-.049-.04-.94.123-1.495.741-.553.618-.518 1.558-.47 1.6.05.04.955-.102 1.495-.742.54-.639.52-1.559.47-1.599"
     fill="#76b845"
     id="path61" />
  <g
     id="g74">
    <linearGradient
       id="f"
       gradientUnits="userSpaceOnUse"
       x1="67.099"
       y1="78.917"
       x2="208.662"
       y2="78.917">
      <stop
         offset="0"
         id="stop63" />
      <stop
         offset=".5"
         stop-color="#626864"
         id="stop65" />
      <stop
         offset="1"
         id="stop67" />
    </linearGradient>
    <path
       d="M137.88 25.711c26.951 0 60.748 2.584 60.748 2.584 5.989.544 9.487 4.579 9.487 10.392 0 0 .589 26.837.544 35.753-.061 12.25-.968 48.91-.968 48.91 0 5.805-3.753 7.743-9.558 7.743l-60.253 1.028-60.253-1.028c-5.805 0-9.558-1.938-9.558-7.743 0 0-.907-36.66-.968-48.91-.045-8.916.544-35.753.544-35.753 0-5.813 3.498-9.848 9.487-10.392 0 0 33.798-2.584 60.748-2.584z"
       fill="url(#f)"
       id="path70" />
    <path
       d="M199.494 123.199H76.266a4.356 4.356 0 0 1-4.356-4.356V38.99a4.356 4.356 0 0 1 4.356-4.356h123.228a4.356 4.356 0 0 1 4.356 4.356v79.853a4.356 4.356 0 0 1-4.356 4.356z"
       fill="#bbeafe"
       id="path72" />
  </g>
  <g
     id="g135">
    <g
       transform="translate(68.885 18.358)"
       id="g85">
      <linearGradient
         id="g"
         gradientUnits="userSpaceOnUse"
         x1="-145.788"
         y1="468.287"
         x2="-146.392"
         y2="469.248"
         gradientTransform="matrix(18.8287 0 0 -12.3913 2878.231 5959.851)">
        <stop
           offset="0"
           stop-color="#dbd0c0"
           id="stop76" />
        <stop
           offset="1"
           stop-color="#c0b598"
           id="stop78" />
      </linearGradient>
      <path
         fill="url(#g)"
         d="M118.131 145.129h19.465v12.81h-19.465z"
         id="path81" />
      <path
         fill="#97876c"
         d="M118.131 145.129h19.465v12.81h-19.465z"
         id="path83" />
    </g>
    <path
       d="M137.879 167.479h69.473v6.642h-69.473z"
       id="path87" />
    <linearGradient
       id="h"
       gradientUnits="userSpaceOnUse"
       x1="-82.778"
       y1="494.279"
       x2="-82.662"
       y2="492.643"
       gradientTransform="matrix(78.7589 0 0 -17.2102 6688.9 8664.433)">
      <stop
         offset="0"
         stop-color="#c0b598"
         id="stop89" />
      <stop
         offset=".519"
         stop-color="#c1b69a"
         id="stop91" />
      <stop
         offset=".706"
         stop-color="#c5ba9f"
         id="stop93" />
      <stop
         offset=".839"
         stop-color="#cbc0a8"
         id="stop95" />
      <stop
         offset=".946"
         stop-color="#d4cab6"
         id="stop97" />
      <stop
         offset="1"
         stop-color="#dbd0c0"
         id="stop99" />
    </linearGradient>
    <path
       d="M211.466 160.995h-28.248c-1.049 0-1.899.85-1.899 1.898v2.135h-47.475c-1.049 0-1.899.85-1.899 1.898v5.931c0 1.048.85 1.898 1.899 1.898h47.475v2.135c0 1.048.85 1.898 1.899 1.898h28.248c1.049 0 1.899-.85 1.899-1.898v-13.996c0-1.049-.85-1.899-1.899-1.899zm-4.985 13.404c0 1.048-.85 1.898-1.899 1.898h-15.667a1.899 1.899 0 0 1-1.899-1.898v-2.728h-47.475a.95.95 0 0 1-.95-.949v-1.661a.95.95 0 0 1 .95-.949h47.475v-2.728c0-1.048.85-1.898 1.899-1.898h15.667c1.049 0 1.899.85 1.899 1.898v9.015z"
       fill="url(#h)"
       id="path102" />
    <ellipse
       cx="209.963"
       cy="174.299"
       rx=".515"
       ry=".514"
       fill="#afaaa0"
       id="ellipse104" />
    <ellipse
       cx="209.963"
       cy="174.121"
       rx=".515"
       ry=".514"
       id="ellipse106" />
    <linearGradient
       id="i"
       gradientUnits="userSpaceOnUse"
       x1="135.743"
       y1="174.754"
       x2="135.743"
       y2="165.028">
      <stop
         offset="0"
         stop-color="#c6b799"
         id="stop108" />
      <stop
         offset=".5"
         stop-color="#aa9b83"
         id="stop110" />
      <stop
         offset="1"
         stop-color="#c6b799"
         id="stop112" />
    </linearGradient>
    <path
       d="M139.541 168.112a.95.95 0 0 0-.95.949v1.661a.95.95 0 0 0 .95.949l-5.697 3.084a1.899 1.899 0 0 1-1.899-1.898v-5.931c0-1.048.85-1.898 1.899-1.898l5.697 3.084z"
       fill="url(#i)"
       id="path115" />
    <linearGradient
       id="j"
       gradientUnits="userSpaceOnUse"
       x1="184.472"
       y1="164.363"
       x2="185.602"
       y2="161.941">
      <stop
         offset="0"
         stop-color="#c6b799"
         id="stop117" />
      <stop
         offset=".456"
         stop-color="#aa9b83"
         id="stop119" />
      <stop
         offset="1"
         stop-color="#c6b799"
         id="stop121" />
    </linearGradient>
    <path
       d="M188.916 163.486c-1.049 0-1.899.85-1.899 1.898l-5.697-2.491c0-1.048.85-1.898 1.899-1.898l5.697 2.491z"
       fill="url(#j)"
       id="path124" />
    <linearGradient
       id="k"
       gradientUnits="userSpaceOnUse"
       x1="185.828"
       y1="178.079"
       x2="184.186"
       y2="175.234">
      <stop
         offset="0"
         stop-color="#c6b799"
         id="stop126" />
      <stop
         offset=".456"
         stop-color="#aa9b83"
         id="stop128" />
      <stop
         offset="1"
         stop-color="#c6b799"
         id="stop130" />
    </linearGradient>
    <path
       d="M187.017 174.399c0 1.048.85 1.898 1.899 1.898l-5.697 2.491a1.899 1.899 0 0 1-1.899-1.898l5.697-2.491z"
       fill="url(#k)"
       id="path133" />
  </g>
  <g
     id="g399">
    <path
       d="M275.76 261.39H0l8.002-28.991c1.098-3.454 2.949-5.02 5.849-5.02H262.35c2.596 0 4.767 2.363 4.92 5.308l8.49 28.703z"
       fill="#c0b598"
       id="path137" />
    <path
       d="M269.12 254.89H6.354a.573.573 0 0 1-.549-.738l6.653-22.095c.958-2.625 2.479-3.26 4.339-3.26H258.75a3.39 3.39 0 0 1 3.379 3.301l.026.151 7.503 21.888a.568.568 0 0 1-.538.753z"
       fill="#b7ae9e"
       stroke="#a5a097"
       stroke-width=".75"
       stroke-miterlimit="10"
       id="path139" />
    <g
       fill="#c0b598"
       stroke="#a5a097"
       stroke-miterlimit="10"
       id="g193">
      <g
         stroke-width=".5"
         id="g143">
        <path
           d="M78.604 224.702H67.573v-1.164a.43.43 0 0 1 .43-.43h10.172a.43.43 0 0 1 .43.43v1.164zM79.51 232.89l-.906-8.188H67.573l-.906 8.188z"
           id="path141" />
      </g>
      <g
         stroke-width=".523"
         id="g147">
        <path
           d="M45.145 224.702H33.094v-1.145c0-.248.201-.449.449-.449h11.153c.248 0 .449.201.449.449v1.145zM46.135 232.89l-.99-8.188H33.094l-.99 8.188z"
           id="path145" />
      </g>
      <g
         stroke-width=".5"
         id="g151">
        <path
           d="M92.792 224.702H81.76v-1.164a.43.43 0 0 1 .43-.43h10.172a.43.43 0 0 1 .43.43v1.164zM93.698 232.89l-.906-8.188H81.76l-.906 8.188z"
           id="path149" />
      </g>
      <g
         stroke-width=".5"
         id="g155">
        <path
           d="M108.01 224.702H96.979v-1.164a.43.43 0 0 1 .43-.43h10.172a.43.43 0 0 1 .43.43v1.164zM108.917 232.89l-.907-8.188H96.979l-.906 8.188z"
           id="path153" />
      </g>
      <g
         stroke-width=".5"
         id="g159">
        <path
           d="M122.323 224.702h-11.031v-1.164a.43.43 0 0 1 .43-.43h10.172a.43.43 0 0 1 .43.43v1.164zM123.229 232.89l-.906-8.188h-11.031l-.907 8.188z"
           id="path157" />
      </g>
      <g
         stroke-width=".5"
         id="g163">
        <path
           d="M137.666 224.702h-11.031v-1.164a.43.43 0 0 1 .43-.43h10.172a.43.43 0 0 1 .43.43v1.164zM138.573 232.89l-.907-8.188h-11.031l-.906 8.188z"
           id="path161" />
      </g>
      <g
         stroke-width=".5"
         id="g167">
        <path
           d="M152.656 224.702h-11.031v-1.164a.43.43 0 0 1 .43-.43h10.172a.43.43 0 0 1 .43.43v1.164zM153.562 232.89l-.906-8.188h-11.031l-.906 8.188z"
           id="path165" />
      </g>
      <g
         stroke-width=".5"
         id="g171">
        <path
           d="M167.239 224.702h-11.031v-1.164a.43.43 0 0 1 .43-.43h10.172a.43.43 0 0 1 .43.43v1.164zM168.146 232.89l-.907-8.188h-11.031l-.906 8.188z"
           id="path169" />
      </g>
      <g
         stroke-width=".5"
         id="g175">
        <path
           d="M181.489 224.702h-11.031v-1.164a.43.43 0 0 1 .43-.43h10.172a.43.43 0 0 1 .43.43v1.164zM182.396 232.89l-.907-8.188h-11.031l-.906 8.188z"
           id="path173" />
      </g>
      <g
         stroke-width=".5"
         id="g179">
        <path
           d="M196.823 224.702h-11.031v-1.164a.43.43 0 0 1 .43-.43h10.172a.43.43 0 0 1 .43.43v1.164zM197.729 232.89l-.906-8.188h-11.031l-.907 8.188z"
           id="path177" />
      </g>
      <g
         stroke-width=".5"
         id="g183">
        <path
           d="M211.521 224.702H200.49v-1.164a.43.43 0 0 1 .43-.43h10.172a.43.43 0 0 1 .43.43v1.164zM212.427 232.89l-.906-8.188H200.49l-.907 8.188z"
           id="path181" />
      </g>
      <g
         stroke-width=".5"
         id="g187">
        <path
           d="M226.875 224.702h-11.031v-1.164a.43.43 0 0 1 .43-.43h10.172a.43.43 0 0 1 .43.43v1.164zM227.781 232.89l-.906-8.188h-11.031l-.907 8.188z"
           id="path185" />
      </g>
      <g
         stroke-width=".5"
         id="g191">
        <path
           d="M241.625 224.702h-11.031v-1.164a.43.43 0 0 1 .43-.43h10.172a.43.43 0 0 1 .43.43v1.164zM242.531 232.89l-.906-8.188h-11.031l-.907 8.188z"
           id="path189" />
      </g>
    </g>
    <g
       fill="#c0b598"
       stroke="#a5a097"
       stroke-miterlimit="10"
       id="g251">
      <g
         stroke-width=".5"
         id="g197">
        <path
           d="M65.604 231.286H54.573v-1.164a.43.43 0 0 1 .43-.43h10.172a.43.43 0 0 1 .43.43v1.164zM66.51 239.473l-.906-8.187H54.573l-.906 8.187z"
           id="path195" />
      </g>
      <g
         stroke-width=".5"
         id="g201">
        <path
           d="M79.792 231.286H68.76v-1.164a.43.43 0 0 1 .43-.43h10.172a.43.43 0 0 1 .43.43v1.164zM80.698 239.473l-.906-8.187H68.76l-.906 8.187z"
           id="path199" />
      </g>
      <g
         stroke-width=".5"
         id="g205">
        <path
           d="M95.01 231.286H83.979v-1.164a.43.43 0 0 1 .43-.43h10.172a.43.43 0 0 1 .43.43v1.164zM95.917 239.473l-.907-8.187H83.979l-.906 8.187z"
           id="path203" />
      </g>
      <g
         stroke-width=".5"
         id="g209">
        <path
           d="M109.323 231.286H98.292v-1.164a.43.43 0 0 1 .43-.43h10.172a.43.43 0 0 1 .43.43v1.164zM110.229 239.473l-.906-8.187H98.292l-.907 8.187z"
           id="path207" />
      </g>
      <g
         stroke-width=".5"
         id="g213">
        <path
           d="M124.666 231.286h-11.031v-1.164a.43.43 0 0 1 .43-.43h10.172a.43.43 0 0 1 .43.43v1.164zM125.573 239.473l-.907-8.187h-11.031l-.906 8.187z"
           id="path211" />
      </g>
      <g
         stroke-width=".5"
         id="g217">
        <path
           d="M139.656 231.286h-11.031v-1.164a.43.43 0 0 1 .43-.43h10.172a.43.43 0 0 1 .43.43v1.164zM140.562 239.473l-.906-8.187h-11.031l-.906 8.187z"
           id="path215" />
      </g>
      <g
         stroke-width=".5"
         id="g221">
        <path
           d="M154.239 231.286h-11.031v-1.164a.43.43 0 0 1 .43-.43h10.172a.43.43 0 0 1 .43.43v1.164zM155.146 239.473l-.907-8.187h-11.031l-.906 8.187z"
           id="path219" />
      </g>
      <g
         stroke-width=".5"
         id="g225">
        <path
           d="M168.489 231.286h-11.031v-1.164a.43.43 0 0 1 .43-.43h10.172a.43.43 0 0 1 .43.43v1.164zM169.396 239.473l-.907-8.187h-11.031l-.906 8.187z"
           id="path223" />
      </g>
      <g
         stroke-width=".5"
         id="g229">
        <path
           d="M183.823 231.286h-11.031v-1.164a.43.43 0 0 1 .43-.43h10.172a.43.43 0 0 1 .43.43v1.164zM184.729 239.473l-.906-8.187h-11.031l-.907 8.187z"
           id="path227" />
      </g>
      <g
         stroke-width=".5"
         id="g233">
        <path
           d="M198.521 231.286H187.49v-1.164a.43.43 0 0 1 .43-.43h10.172a.43.43 0 0 1 .43.43v1.164zM199.427 239.473l-.906-8.187H187.49l-.907 8.187z"
           id="path231" />
      </g>
      <g
         stroke-width=".5"
         id="g237">
        <path
           d="M213.875 231.286h-11.031v-1.164a.43.43 0 0 1 .43-.43h10.172a.43.43 0 0 1 .43.43v1.164zM214.781 239.473l-.906-8.187h-11.031l-.907 8.187z"
           id="path235" />
      </g>
      <g
         stroke-width=".5"
         id="g241">
        <path
           d="M228.625 231.286h-11.031v-1.164a.43.43 0 0 1 .43-.43h10.172a.43.43 0 0 1 .43.43v1.164zM229.531 239.473l-.906-8.187h-11.031l-.907 8.187z"
           id="path239" />
      </g>
      <g
         stroke-width=".5"
         id="g245">
        <path
           d="M243.417 231.286h-11.031v-1.164a.43.43 0 0 1 .43-.43h10.172a.43.43 0 0 1 .43.43v1.164zM244.323 239.473l-.906-8.187h-11.032l-.906 8.187z"
           id="path243" />
      </g>
      <g
         stroke-width=".523"
         id="g249">
        <path
           d="M50.666 231.286H31.667v-1.145c0-.248.201-.449.449-.449h18.101c.248 0 .449.201.449.449v1.145zM51.656 239.473l-.99-8.187H31.667l-.99 8.187z"
           id="path247" />
      </g>
    </g>
    <g
       fill="#c0b598"
       stroke="#a5a097"
       stroke-miterlimit="10"
       id="g309">
      <g
         stroke-width=".502"
         id="g255">
        <path
           d="M67.302 235.369H56.185v-1.162c0-.238.193-.431.431-.431H66.87c.238 0 .431.193.431.431v1.162zM68.215 243.556l-.913-8.187H56.185l-.913 8.187z"
           id="path253" />
      </g>
      <g
         stroke-width=".502"
         id="g259">
        <path
           d="M81.6 235.369H70.483v-1.162c0-.238.193-.431.431-.431h10.254c.238 0 .431.193.431.431v1.162zM82.513 243.556l-.913-8.187H70.483l-.913 8.187z"
           id="path257" />
      </g>
      <g
         stroke-width=".502"
         id="g263">
        <path
           d="M96.936 235.369H85.819v-1.162c0-.238.193-.431.431-.431h10.254c.238 0 .431.193.431.431v1.162zM97.85 243.556l-.914-8.187H85.819l-.913 8.187z"
           id="path261" />
      </g>
      <g
         stroke-width=".502"
         id="g267">
        <path
           d="M111.36 235.369h-11.117v-1.162c0-.238.193-.431.431-.431h10.254c.238 0 .431.193.431.431v1.162zM112.273 243.556l-.913-8.187h-11.117l-.913 8.187z"
           id="path265" />
      </g>
      <g
         stroke-width=".502"
         id="g271">
        <path
           d="M126.822 235.369h-11.117v-1.162c0-.238.193-.431.431-.431h10.254c.238 0 .431.193.431.431v1.162zM127.736 243.556l-.914-8.187h-11.116l-.914 8.187z"
           id="path269" />
      </g>
      <g
         stroke-width=".502"
         id="g275">
        <path
           d="M141.928 235.369h-11.117v-1.162c0-.238.193-.431.431-.431h10.254c.238 0 .431.193.431.431v1.162zM142.841 243.556l-.913-8.187h-11.117l-.913 8.187z"
           id="path273" />
      </g>
      <g
         stroke-width=".502"
         id="g279">
        <path
           d="M156.625 235.369h-11.117v-1.162c0-.238.193-.431.431-.431h10.254c.238 0 .431.193.431.431v1.162zM157.538 243.556l-.913-8.187h-11.117l-.913 8.187z"
           id="path277" />
      </g>
      <g
         stroke-width=".502"
         id="g283">
        <path
           d="M170.985 235.369h-11.117v-1.162c0-.238.193-.431.431-.431h10.254c.238 0 .431.193.431.431v1.162zM171.898 243.556l-.913-8.187h-11.117l-.913 8.187z"
           id="path281" />
      </g>
      <g
         stroke-width=".502"
         id="g287">
        <path
           d="M186.437 235.369H175.32v-1.162c0-.238.193-.431.431-.431h10.254c.238 0 .431.193.431.431v1.162zM187.351 243.556l-.914-8.187h-11.116l-.914 8.187z"
           id="path285" />
      </g>
      <g
         stroke-width=".502"
         id="g291">
        <path
           d="M201.249 235.369h-11.117v-1.162c0-.238.193-.431.431-.431h10.254c.238 0 .431.193.431.431v1.162zM202.163 243.556l-.914-8.187h-11.116l-.914 8.187z"
           id="path289" />
      </g>
      <g
         stroke-width=".502"
         id="g295">
        <path
           d="M216.722 235.369h-11.117v-1.162c0-.238.193-.431.431-.431h10.254c.238 0 .431.193.431.431v1.162zM217.636 243.556l-.914-8.187h-11.116l-.914 8.187z"
           id="path293" />
      </g>
      <g
         stroke-width=".525"
         id="g301">
        <path
           d="M52.248 235.369H30.226v-1.143c0-.249.202-.451.451-.451h21.12c.249 0 .451.202.451.451v1.143z"
           id="path297" />
        <path
           d="M53.246 243.556l-.998-8.188H30.226l-.998 8.188h24.018z"
           id="path299" />
      </g>
      <g
         stroke-width=".525"
         id="g307">
        <path
           d="M245.112 235.369h-24.49v-1.143c0-.249.202-.451.451-.451h23.588c.249 0 .451.202.451.451v1.143z"
           id="path303" />
        <path
           d="M246.11 243.556l-.998-8.188h-24.49l-.998 8.188h26.486z"
           id="path305" />
      </g>
    </g>
    <g
       fill="#c0b598"
       stroke="#a5a097"
       stroke-width=".495"
       stroke-miterlimit="10"
       id="g313">
      <path
         d="M74.855 238.244H62.262v-1.169c0-.235.19-.425.425-.425H74.43c.235 0 .425.19.425.425v1.169zM75.742 246.431l-.887-8.187H62.262l-.887 8.187z"
         id="path311" />
    </g>
    <g
       fill="#c0b598"
       stroke="#a5a097"
       stroke-width=".495"
       stroke-miterlimit="10"
       id="g317">
      <path
         d="M90.167 238.244H77.574v-1.169c0-.235.19-.425.425-.425h11.743c.235 0 .425.19.425.425v1.169zM91.054 246.431l-.887-8.187H77.574l-.886 8.187z"
         id="path315" />
    </g>
    <g
       fill="#c0b598"
       stroke="#a5a097"
       stroke-width=".495"
       stroke-miterlimit="10"
       id="g321">
      <path
         d="M105.48 238.244H92.887v-1.169c0-.235.19-.425.425-.425h11.743c.235 0 .425.19.425.425v1.169zM106.367 246.431l-.887-8.187H92.887L92 246.431z"
         id="path319" />
    </g>
    <g
       fill="#c0b598"
       stroke="#a5a097"
       stroke-width=".495"
       stroke-miterlimit="10"
       id="g325">
      <path
         d="M120.792 238.244h-12.593v-1.169c0-.235.19-.425.425-.425h11.743c.235 0 .425.19.425.425v1.169zM121.679 246.431l-.887-8.187h-12.593l-.887 8.187z"
         id="path323" />
    </g>
    <g
       fill="#c0b598"
       stroke="#a5a097"
       stroke-width=".495"
       stroke-miterlimit="10"
       id="g329">
      <path
         d="M136.105 238.244h-12.593v-1.169c0-.235.19-.425.425-.425h11.743c.235 0 .425.19.425.425v1.169zM136.992 246.431l-.887-8.187h-12.593l-.887 8.187z"
         id="path327" />
    </g>
    <g
       fill="#c0b598"
       stroke="#a5a097"
       stroke-width=".495"
       stroke-miterlimit="10"
       id="g333">
      <path
         d="M151.417 238.244h-12.593v-1.169c0-.235.19-.425.425-.425h11.743c.235 0 .425.19.425.425v1.169zM152.304 246.431l-.887-8.187h-12.593l-.887 8.187z"
         id="path331" />
    </g>
    <g
       fill="#c0b598"
       stroke="#a5a097"
       stroke-width=".495"
       stroke-miterlimit="10"
       id="g337">
      <path
         d="M167.021 238.244h-12.593v-1.169c0-.235.19-.425.425-.425h11.743c.235 0 .425.19.425.425v1.169zM167.908 246.431l-.887-8.187h-12.593l-.886 8.187z"
         id="path335" />
    </g>
    <g
       fill="#c0b598"
       stroke="#a5a097"
       stroke-width=".495"
       stroke-miterlimit="10"
       id="g341">
      <path
         d="M182.5 238.244h-12.593v-1.169c0-.235.19-.425.425-.425h11.743c.235 0 .425.19.425.425v1.169zM183.387 246.431l-.887-8.187h-12.592l-.887 8.187z"
         id="path339" />
    </g>
    <g
       fill="#c0b598"
       stroke="#a5a097"
       stroke-width=".495"
       stroke-miterlimit="10"
       id="g345">
      <path
         d="M198.209 238.244h-12.593v-1.169c0-.235.19-.425.425-.425h11.743c.235 0 .425.19.425.425v1.169zM199.096 246.431l-.887-8.187h-12.593l-.887 8.187z"
         id="path343" />
    </g>
    <g
       fill="#c0b598"
       stroke="#a5a097"
       stroke-width=".495"
       stroke-miterlimit="10"
       id="g349">
      <path
         d="M214.05 238.244h-12.593v-1.169c0-.235.19-.425.425-.425h11.743c.235 0 .425.19.425.425v1.169zM214.937 246.431l-.887-8.187h-12.592l-.887 8.187z"
         id="path347" />
    </g>
    <g
       fill="#c0b598"
       stroke="#a5a097"
       stroke-width=".495"
       stroke-miterlimit="10"
       id="g353">
      <path
         d="M245.879 238.244h-29.066v-1.169c0-.235.19-.425.425-.425h28.216c.235 0 .425.19.425.425v1.169zM246.766 246.431l-.887-8.187h-29.066l-.887 8.187z"
         id="path351" />
    </g>
    <g
       fill="#c0b598"
       stroke="#a5a097"
       stroke-width=".525"
       stroke-miterlimit="10"
       id="g359">
      <path
         d="M58.544 238.244H30.156v-1.143c0-.249.202-.451.451-.451h27.487c.249 0 .451.202.451.451v1.143z"
         id="path355" />
      <path
         d="M59.542 246.431l-.998-8.188H30.156l-.998 8.188h30.384z"
         id="path357" />
    </g>
    <g
       id="g365">
      <path
         d="M54.479 242.951H42.825v-1.294c0-.228.185-.413.413-.413h11.991c.228 0 .413.185.413.413l-1.163 1.294zM55.833 251.723l-1.354-8.772H42.825l-.783 8.772z"
         fill="#c0b598"
         stroke="#a5a097"
         stroke-width=".481"
         stroke-miterlimit="10"
         id="path361" />
      <path
         d="M55.852 251.653l1.252-4.742-1.462-5.253-1.163 1.294 1.343 8.7c.003.015.026.017.03.001z"
         fill="#c0b598"
         stroke="#a5a097"
         stroke-width=".481"
         stroke-miterlimit="10"
         id="path363" />
    </g>
    <g
       id="g371">
      <path
         d="M77.417 242.951H59.762v-1.294c0-.228.185-.413.413-.413h17.991c.228 0 .413.185.413.413l-1.162 1.294zM78.771 251.723l-1.354-8.772H59.762l-.783 8.772z"
         fill="#c0b598"
         stroke="#a5a097"
         stroke-width=".481"
         stroke-miterlimit="10"
         id="path367" />
      <path
         d="M78.789 251.653l1.252-4.742-1.462-5.253-1.163 1.294 1.343 8.7c.003.015.026.017.03.001z"
         fill="#c0b598"
         stroke="#a5a097"
         stroke-width=".481"
         stroke-miterlimit="10"
         id="path369" />
    </g>
    <g
       id="g377">
      <path
         d="M221.073 242.951h11.654v-1.294a.413.413 0 0 0-.413-.413h-11.991a.413.413 0 0 0-.413.413l1.163 1.294zM219.719 251.723l1.354-8.772h11.654l.783 8.772z"
         fill="#c0b598"
         stroke="#a5a097"
         stroke-width=".481"
         stroke-miterlimit="10"
         id="path373" />
      <path
         d="M219.7 251.653l-1.252-4.742 1.462-5.253 1.163 1.294-1.343 8.7c-.003.015-.026.017-.03.001z"
         fill="#c0b598"
         stroke="#a5a097"
         stroke-width=".481"
         stroke-miterlimit="10"
         id="path375" />
    </g>
    <g
       id="g383">
      <path
         d="M198.135 242.951h17.654v-1.294a.413.413 0 0 0-.413-.413h-17.991a.413.413 0 0 0-.413.413l1.163 1.294zM196.781 251.723l1.354-8.772h17.655l.783 8.772z"
         fill="#c0b598"
         stroke="#a5a097"
         stroke-width=".481"
         stroke-miterlimit="10"
         id="path379" />
      <path
         d="M196.763 251.653l-1.252-4.742 1.462-5.253 1.163 1.294-1.343 8.7c-.003.015-.026.017-.03.001z"
         fill="#c0b598"
         stroke="#a5a097"
         stroke-width=".481"
         stroke-miterlimit="10"
         id="path381" />
    </g>
    <g
       id="g391">
      <path
         fill="#c0b598"
         stroke="#a5a097"
         stroke-width=".481"
         stroke-miterlimit="10"
         d="M193.771 251.723l-1.354-8.772H83.135l-1.343 8.7z"
         id="path385" />
      <path
         d="M193.789 251.653l1.252-4.742-1.462-5.253-1.163 1.294 1.343 8.7c.003.015.026.017.03.001zM122.217 242.951H83.135l-1.163-1.294c0-.228.185-.413.413-.413h110.781c.228 0 .413.185.413.413l-1.163 1.294h-70.199z"
         fill="#c0b598"
         stroke="#a5a097"
         stroke-width=".481"
         stroke-miterlimit="10"
         id="path387" />
      <path
         d="M81.763 251.653l-1.252-4.742 1.462-5.253 1.163 1.294-1.343 8.7c-.003.015-.026.017-.03.001z"
         fill="#c0b598"
         stroke="#a5a097"
         stroke-width=".481"
         stroke-miterlimit="10"
         id="path389" />
    </g>
    <path
       d="M274.339 275.64H1.422A1.422 1.422 0 0 1 0 274.218V261.39h275.76v12.828c0 .785-.636 1.422-1.421 1.422z"
       fill="#ccc4b2"
       id="path393" />
    <path
       d="M.621 267.609c1.15 1.375 2.113 1.211 4.498 1.211h265.87c2.385 0 3.348.165 4.498-1.211"
       fill="none"
       stroke="#afaaa2"
       stroke-miterlimit="10"
       id="path395" />
    <path
       d="M258.125 275.64H17.417l3.252 3.252a.846.846 0 0 0 .598.248h232.888a.853.853 0 0 0 .593-.24l3.377-3.26z"
       fill="#969289"
       id="path397" />
  </g>
  <g
     id="g449">
    <path
       d="M358.903 228.832V213.25h-65.89v65.89h25.744v-.188l.141-.329.259-.259.353-.141.188-.024.188.024.329.141.259.259.141.329.023.188h10.66l.023-.188.141-.329.235-.259.353-.141.188-.024.188.024.353.141.235.259.141.329.024.188H358.9v-47.162h-1.561v-3.146h1.564zm-32.933 23.646a6.27 6.27 0 1 1 0-12.542 6.27 6.27 0 0 1 0 12.542z"
       fill-rule="evenodd"
       clip-rule="evenodd"
       id="path401" />
    <path
       fill="#3c3c3c"
       d="M336.215 250.195v.189l-.142.353-.259.258-.353.142h-.376l-.33-.142-.258-.258-.142-.353-.023-.189.023-.188.142-.329.258-.259.33-.141.188-.024.188.024.353.141.259.259.142.329v.188zM325.958 257.184h.33l.612.142.823.376.871.847.377.824.117.612.024.329v12.543l-.024.329-.117.612-.377.847-.871.847-.823.377-.612.118-.33.023-.306-.023-.611-.118-.847-.377-.848-.847-.376-.847-.141-.612v-13.201l.141-.612.376-.824.848-.847.847-.376.611-.142h.306z"
       id="path403" />
    <path
       d="M332.241 246.195l-.024.659-.259 1.224-.471 1.13-.682.988-.847.847-.988.682-1.13.471-1.224.259-.659.024-.635-.024-1.224-.259-1.13-.471-1.012-.682-.847-.847-.682-.988-.471-1.13-.235-1.224-.024-.659.024-.635.235-1.224.471-1.13.682-1.012.847-.847 1.012-.682 1.13-.471 1.224-.235.635-.024.659.024 1.224.235 1.13.471.988.682.847.847.682 1.012.471 1.13.259 1.224.024.635zm1.577 0l-.024.824-.329 1.53-.588 1.388-.847 1.271-1.059 1.059-1.271.847-1.388.588-1.53.306-.824.047-.8-.047-1.53-.306-1.412-.588-1.247-.847-1.059-1.059-.847-1.271-.612-1.388-.306-1.53-.024-.824.024-.8.306-1.53.612-1.412.847-1.247 1.059-1.059 1.247-.847 1.412-.612 1.53-.306.8-.024.824.024 1.53.306 1.388.612 1.271.847 1.059 1.059.847 1.247.588 1.412.329 1.53.024.8z"
       fill-rule="evenodd"
       clip-rule="evenodd"
       fill="#3c3c3c"
       id="path405" />
    <path
       fill="#fff"
       d="M298.357 219.887h53.683v2.574h-53.683zM352.04 219.887h-53.683v-1.79c0-.433.351-.784.784-.784h52.114c.433 0 .784.351.784.784v1.79zM298.357 222.461h53.683v2.574h-53.683zM351.255 228.044h-52.114a.784.784 0 0 1-.784-.784v-2.225h53.683v2.225a.784.784 0 0 1-.785.784z"
       id="path407" />
    <g
       fill="none"
       stroke="#231f20"
       stroke-width=".123"
       stroke-miterlimit="10"
       id="g415">
      <path
         d="M315.344 219.887h.163"
         id="path409" />
      <path
         stroke-dasharray=".3219,.3219"
         d="M315.828 219.887h35.889"
         id="path411" />
      <path
         d="M351.878 219.887h.162"
         id="path413" />
    </g>
    <g
       fill="none"
       stroke="#231f20"
       stroke-width=".123"
       stroke-miterlimit="10"
       id="g423">
      <path
         d="M315.344 222.461h.163"
         id="path417" />
      <path
         stroke-dasharray=".3219,.3219"
         d="M315.828 222.461h35.889"
         id="path419" />
      <path
         d="M351.878 222.461h.162"
         id="path421" />
    </g>
    <g
       fill="none"
       stroke="#231f20"
       stroke-width=".123"
       stroke-miterlimit="10"
       id="g431">
      <path
         d="M315.344 225.035h.163"
         id="path425" />
      <path
         stroke-dasharray=".3219,.3219"
         d="M315.828 225.035h35.889"
         id="path427" />
      <path
         d="M351.878 225.035h.162"
         id="path429" />
    </g>
    <g
       id="g447">
      <path
         d="M306.16 221.827c.21.297.449.469.583.472.276.006.515-.18.713-.175h.016c.198-.005.437.18.713.175.134-.003.372-.175.582-.472h-2.606"
         fill="#009ddd"
         id="path433" />
      <path
         d="M305.905 221.359c.07.176.16.334.255.468h2.608c.095-.134.184-.292.255-.468h-3.118"
         fill="#944d85"
         id="path435" />
      <path
         d="M305.765 220.845c.026.183.076.356.14.515h3.12l.03-.08a.767.767 0 0 1-.464-.435h-2.826"
         fill="#c45152"
         id="path437" />
      <path
         d="M305.93 219.815a1.23 1.23 0 0 0-.173.515h2.772a.8.8 0 0 1 .322-.515h-2.921"
         fill="#f2bd2f"
         id="path439" />
      <path
         d="M305.757 220.33a1.975 1.975 0 0 0 .008.515h2.824a.895.895 0 0 1-.06-.515h-2.772"
         fill="#e19433"
         id="path441" />
      <path
         d="M307.467 219.514h-.005c-.188-.003-.535-.194-.782-.168a1.047 1.047 0 0 0-.751.47h2.92a.664.664 0 0 1 .093-.056.926.926 0 0 0-.694-.414c-.246-.026-.593.165-.781.168"
         fill="#76b845"
         id="path443" />
      <path
         d="M308.133 218.456c-.02-.016-.37.048-.586.29-.217.242-.203.61-.184.627.019.016.374-.04.586-.29.21-.25.203-.611.184-.627"
         fill="#76b845"
         id="path445" />
    </g>
  </g>
</svg>
