<?xml version="1.0" encoding="UTF-8" standalone="no"?>
<svg
   xmlns:dc="http://purl.org/dc/elements/1.1/"
   xmlns:cc="http://creativecommons.org/ns#"
   xmlns:rdf="http://www.w3.org/1999/02/22-rdf-syntax-ns#"
   xmlns:svg="http://www.w3.org/2000/svg"
   xmlns="http://www.w3.org/2000/svg"
   xmlns:sodipodi="http://sodipodi.sourceforge.net/DTD/sodipodi-0.dtd"
   xmlns:inkscape="http://www.inkscape.org/namespaces/inkscape"
   viewBox="0 0 168.3 335"
   version="1.1"
   id="svg30"
   sodipodi:docname="controller.svg"
   inkscape:export-filename="controller.png"
   inkscape:export-xdpi="34.377796"
   inkscape:export-ydpi="34.377796"
   inkscape:version="1.0.2 (e86c870879, 2021-01-15)">
  <metadata
     id="metadata36">
    <rdf:RDF>
      <cc:Work
         rdf:about="">
        <dc:format>image/svg+xml</dc:format>
        <dc:type
           rdf:resource="http://purl.org/dc/dcmitype/StillImage" />
      </cc:Work>
    </rdf:RDF>
  </metadata>
  <defs
     id="defs34" />
  <sodipodi:namedview
     pagecolor="#ffffff"
     bordercolor="#666666"
     borderopacity="1"
     objecttolerance="10"
     gridtolerance="10"
     guidetolerance="10"
     inkscape:pageopacity="0"
     inkscape:pageshadow="2"
     inkscape:window-width="1920"
     inkscape:window-height="1017"
     id="namedview32"
     showgrid="false"
     inkscape:zoom="0.70447761"
     inkscape:cx="84.150002"
     inkscape:cy="167.5"
     inkscape:window-x="-8"
     inkscape:window-y="-8"
     inkscape:window-maximized="1"
     inkscape:current-layer="svg30"
     inkscape:document-rotation="0" />
  <ellipse
     transform="rotate(-45.001 85.098 167.502)"
     fill="#231F20"
     cx="85.1"
     cy="167.5"
     rx="83.2"
     ry="83.2"
     id="ellipse2" />
  <g
     fill="#38383A"
     id="g6">
    <path
       d="M85.1 244.6l16.9-16.3h-8.3v-18.7H76.5v18.7h-8.3zM139.6 222l.4-23.5-5.8 5.9-13.2-13.2-12.2 12.2 13.2 13.2-5.9 5.8zM162.2 167.5l-16.3-16.9v8.3h-18.7v17.2h18.7v8.3zM139.6 113l-23.5-.4 5.9 5.8-13.2 13.2 12.2 12.2 13.2-13.2 5.8 5.9zM85.1 90.4l-16.9 16.3h8.3v18.7h17.2v-18.7h8.3zM30.6 113l-.4 23.5 5.8-5.9 13.2 13.2 12.2-12.2-13.2-13.2 5.9-5.8zM8 167.5l16.3 16.9v-8.3H43v-17.2H24.3v-8.3zM30.6 222l23.5.4-5.9-5.8 13.2-13.2-12.2-12.2L36 204.4l-5.8-5.9z"
       id="path4" />
  </g>
  <path
     fill="#6D6E70"
     d="M84.2 250.7c-45.5-.5-82.3-37.6-82.3-83.2s36.8-82.7 82.3-83.2h-.9c-46 0-83.2 37.3-83.2 83.2 0 46 37.3 83.2 83.2 83.2h.9z"
     id="path8" />
  <ellipse
     transform="rotate(-76.691 85.042 167.509)"
     fill="#9E9E9B"
     cx="85"
     cy="167.5"
     rx="28.2"
     ry="28.2"
     id="ellipse10" />
  <circle
     fill="#565656"
     cx="85"
     cy="167.5"
     r="22.4"
     id="circle12" />
  <path
     fill="#C9C9C7"
     d="M113 167.6c0-15.5-12.6-28-28-28-15.5 0-28 12.6-28 28 0 15.5 12.6 28 28 28 15.5 0 28-12.5 28-28zm-54.6-.4c0-14.8 12-26.9 26.9-26.9 14.8 0 26.9 12 26.9 26.9 0 14.8-12 26.9-26.9 26.9-14.8 0-26.9-12-26.9-26.9z"
     id="path14" />
  <path
     fill="#9A9A9B"
     d="M56.9 167.6c0 15.5 12.6 28 28 28 15.5 0 28-12.6 28-28 0-15.5-12.6-28-28-28-15.4-.1-28 12.5-28 28zm54.6.3c0 14.8-12 26.9-26.9 26.9-14.8 0-26.9-12-26.9-26.9 0-14.8 12-26.9 26.9-26.9 14.9 0 26.9 12.1 26.9 26.9z"
     id="path16" />
  <circle
     fill="#7F1322"
     cx="106.3"
     cy="167.9"
     r="38.4"
     id="circle18" />
  <circle
     fill="#7F1322"
     cx="84.2"
     cy="301.9"
     r="33.2"
     id="circle20" />
  <circle
     fill="#68101F"
     cx="84.2"
     cy="301.9"
     r="26.5"
     id="circle22" />
  <g
     id="g28">
    <circle
       fill="#7F1322"
       cx="84.2"
       cy="33.2"
       r="33.2"
       id="circle24" />
    <circle
       fill="#68101F"
       cx="84.2"
       cy="33.2"
       r="26.5"
       id="circle26" />
  </g>
</svg>
