<svg xmlns="http://www.w3.org/2000/svg" viewBox="0 0 171.16 105.162"><path d="M168.949 67.348c1.515 1.557 1.99 2.076 1.99 2.076s.259.173.216.908 0 24.178 0 24.912c0 .735-.216.735-.433.995-.216.26-1.773 2.076-1.773 2.076V67.348zM2.211 67.348C.697 68.905.221 69.424.221 69.424s-.259.173-.216.908c.043.735 0 24.178 0 24.912 0 .735.216.735.432.995s1.773 2.076 1.773 2.076V67.348z" fill="#111"/><linearGradient id="a" gradientUnits="userSpaceOnUse" x1="-475.269" y1="-218.686" x2="-474.269" y2="-218.686" gradientTransform="matrix(167.9382 0 0 -167.9382 79817.36 -36673.121)"><stop offset="0" stop-color="#181817"/><stop offset="1" stop-color="#161615"/></linearGradient><path d="M166.442 0H4.649a3.081 3.081 0 00-3.072 3.073v99.017a3.081 3.081 0 003.072 3.072h161.793a3.082 3.082 0 003.072-3.072V3.073A3.081 3.081 0 00166.442 0zM44.953 102.919a3.639 3.639 0 110-7.277 3.639 3.639 0 010 7.277zm4.723-46.234c-5.046 0-9.136-4.09-9.136-9.136s4.09-9.135 9.136-9.135a9.136 9.136 0 010 18.271zm15.638 41.821a1.32 1.32 0 01-1.316 1.316h-4.024a1.32 1.32 0 01-1.317-1.316v-3.638a1.32 1.32 0 011.317-1.316h4.024a1.32 1.32 0 011.316 1.316v3.638zm33.959-51.217c0 .07-.139.127-.308.127H72.194c-.169 0-.307-.057-.307-.127v-5.187c0-.07.138-.127.307-.127h26.771c.169 0 .308.057.308.127v5.187zm13.231 51.217a1.32 1.32 0 01-1.316 1.316h-4.024a1.32 1.32 0 01-1.317-1.316v-3.638a1.32 1.32 0 011.317-1.316h4.024c.725 0 1.316.592 1.316 1.316v3.638zm13.703 4.413a3.64 3.64 0 110-7.279 3.64 3.64 0 010 7.279zm-4.723-46.234c-5.045 0-9.135-4.09-9.135-9.136s4.09-9.135 9.135-9.135a9.135 9.135 0 110 18.271z" fill="url(#a)"/><path d="M49.676 26.788c-11.468 0-20.765 9.297-20.765 20.765s9.297 20.765 20.765 20.765 20.765-9.296 20.765-20.765c0-11.468-9.297-20.765-20.765-20.765zm0 34.231c-7.438 0-13.467-6.029-13.467-13.466 0-7.437 6.029-13.466 13.467-13.466s13.466 6.029 13.466 13.466c0 7.437-6.028 13.466-13.466 13.466zM121.484 21.123c-14.597 0-26.43 11.833-26.43 26.429s11.833 26.43 26.43 26.43 26.43-11.833 26.43-26.43-11.833-26.429-26.43-26.429zm0 39.892c-7.438 0-13.466-6.029-13.466-13.466 0-7.437 6.028-13.466 13.466-13.466 7.437 0 13.467 6.029 13.467 13.466 0 7.437-6.029 13.466-13.467 13.466z"/><path d="M121.484 37.922c-5.316 0-9.627 4.31-9.627 9.627 0 5.317 4.311 9.627 9.627 9.627 5.317 0 9.628-4.31 9.628-9.627 0-5.317-4.311-9.627-9.628-9.627zm.589 17.655v-1.753h-1.144v1.756a8.044 8.044 0 01-6.119-3.526l1.521-.878-.572-.99-1.521.878a8.018 8.018 0 01-.806-3.514c0-1.27.294-2.47.817-3.538l1.504.868.571-.99-1.5-.866a8.045 8.045 0 016.093-3.503v1.711h1.144V39.52a8.047 8.047 0 016.082 3.503l-1.484.856.572.991 1.486-.858a8.02 8.02 0 01.817 3.537 8.008 8.008 0 01-.796 3.495l-1.503-.868-.571.99 1.505.87a8.039 8.039 0 01-6.096 3.541zM49.676 37.922c-5.317 0-9.628 4.31-9.628 9.627 0 5.317 4.311 9.627 9.628 9.627s9.627-4.31 9.627-9.627c-.001-5.317-4.31-9.627-9.627-9.627zm.554 17.658v-1.756h-1.144v1.753a8.047 8.047 0 01-6.098-3.541l1.506-.87-.572-.99-1.503.868a8.019 8.019 0 01-.796-3.495 8.02 8.02 0 01.818-3.537l1.486.858.573-.99-1.483-.856a8.043 8.043 0 016.081-3.503v1.711h1.144V39.52a8.044 8.044 0 016.094 3.503l-1.501.866.572.99 1.503-.868a8.021 8.021 0 01.818 3.538c0 1.26-.29 2.452-.806 3.514l-1.522-.878-.571.99 1.521.878a8.044 8.044 0 01-6.12 3.527z" fill="#e2e2df"/><path d="M144.702 105.162c-1.052-4.787-4.57-21.569-4.946-23.224-.387-1.703-1.084-3.097-3.252-3.097H34.656c-2.168 0-2.864 1.394-3.252 3.097-.376 1.654-3.895 18.437-4.946 23.224h1.612a4919.07 4919.07 0 004.657-21.9c.535-2.563 1.084-3.097 3.252-3.097h99.202c2.167 0 2.716.534 3.251 3.097.479 2.291 3.386 16.036 4.658 21.9h1.612z" fill="#111"/><linearGradient id="b" gradientUnits="userSpaceOnUse" x1="-475.269" y1="-218.686" x2="-474.269" y2="-218.686" gradientTransform="scale(6.0511 -6.0511) rotate(-45 26.05 -684.358)"><stop offset="0" stop-color="#252525"/><stop offset="1"/></linearGradient><path d="M10.287 5.726a3.025 3.025 0 11-6.05.001 3.025 3.025 0 016.05-.001z" fill="url(#b)"/><linearGradient id="c" gradientUnits="userSpaceOnUse" x1="-475.269" y1="-218.686" x2="-474.269" y2="-218.686" gradientTransform="scale(6.0511 -6.0511) rotate(-45 7.357 -692.101)"><stop offset="0" stop-color="#252525"/><stop offset="1"/></linearGradient><circle cx="7.261" cy="99.436" r="3.025" fill="url(#c)"/><linearGradient id="d" gradientUnits="userSpaceOnUse" x1="-475.269" y1="-218.686" x2="-474.269" y2="-218.686" gradientTransform="scale(6.0511 -6.0511) rotate(-45 20.29 -723.326)"><stop offset="0" stop-color="#252525"/><stop offset="1"/></linearGradient><path d="M160.762 99.436a3.025 3.025 0 116.05 0 3.025 3.025 0 01-6.05 0z" fill="url(#d)"/><linearGradient id="e" gradientUnits="userSpaceOnUse" x1="-475.269" y1="-218.686" x2="-474.269" y2="-218.686" gradientTransform="scale(6.0511 -6.0511) rotate(-45 38.984 -715.583)"><stop offset="0" stop-color="#252525"/><stop offset="1"/></linearGradient><path d="M160.762 5.726a3.026 3.026 0 106.053 0 3.026 3.026 0 00-6.053 0z" fill="url(#e)"/><linearGradient id="f" gradientUnits="userSpaceOnUse" x1="-475.269" y1="-218.686" x2="-474.269" y2="-218.686" gradientTransform="scale(6.0511 -6.0511) rotate(-45 16.309 -706.697)"><stop offset="0" stop-color="#252525"/><stop offset="1"/></linearGradient><circle cx="85.58" cy="87" r="3.025" fill="url(#f)"/><path d="M158.833 14.732c-.144-.165-5.323-5.571-5.546-5.809-.155-.167-.408-.171-.408-.171H18.282s-.253.004-.409.171c-.223.238-5.402 5.644-5.546 5.809-.223.256-.178.418-.178.418v57.916a.44.44 0 00.439.438h145.983a.44.44 0 00.438-.438V15.151c.001 0 .046-.162-.176-.419zM132.6 47.549c0 6.114-5.002 11.116-11.116 11.116H49.676c-6.113 0-11.115-5.002-11.115-11.116s5.002-11.116 11.115-11.116h71.809c6.113 0 11.115 5.002 11.115 11.116z" fill-rule="evenodd" clip-rule="evenodd" fill="#eef3f6"/><path d="M99.39 41.635H71.77c-.175 0-.317.064-.317.143v5.836c0 .079.143.143.317.143h27.62c.174 0 .316-.064.316-.143v-5.836c.001-.079-.142-.143-.316-.143zm-.117 5.654c0 .07-.139.127-.308.127H72.194c-.169 0-.307-.057-.307-.127v-5.187c0-.07.138-.127.307-.127h26.771c.169 0 .308.057.308.127v5.187z" fill="#111"/><path d="M121.484 36.433H49.675c-6.139 0-11.115 4.977-11.115 11.116s4.977 11.116 11.115 11.116h71.809c6.14 0 11.116-4.977 11.116-11.116s-4.976-11.116-11.116-11.116zM49.658 56.685a9.153 9.153 0 110-18.306 9.153 9.153 0 010 18.306zm50.049-9.071c0 .079-.143.143-.316.143H71.77c-.175 0-.317-.064-.317-.143v-5.836c0-.079.143-.143.317-.143h27.62c.174 0 .316.064.316.143v5.836zm21.777 9.071a9.153 9.153 0 110-18.306 9.153 9.153 0 010 18.306z" fill-rule="evenodd" clip-rule="evenodd" fill="#161615"/><path d="M32.911 20.251h-1.805l4.295-7.438a4.668 4.668 0 014.038-2.339h8.875l-.902 1.563h-7.973a3.1 3.1 0 00-2.684 1.556l-3.844 6.658zm4.833-6.09a1.959 1.959 0 011.695-.984h7.314l.391-.676h-7.705c-.939 0-1.814.508-2.281 1.323l-3.711 6.427h.78l3.517-6.09zm.683 2.87h6.102l1.055-1.827.321-.556.581-1.006h-7.047c-.532 0-1.027.288-1.292.75l-3.384 5.86h1.805l1.859-3.221zm-13.864 0l-.001.019c-.015.048-.08.187-.31.573-.486.816-.983 1.835-.984 3.21a4.66 4.66 0 004.656 4.655H45.65l-1.841 3.187h1.805l1.445-2.503a1.49 1.49 0 00-1.281-2.246H27.925a3.096 3.096 0 01-3.093-3.093c0-.938.305-1.642.763-2.41.427-.716.534-.962.534-1.465a1.49 1.49 0 00-1.488-1.488h-5.235l.901 1.562 4.256-.001zm21.215 5.754H27.924a1.955 1.955 0 01-1.952-1.953c0-.595.163-1.09.603-1.827.472-.792.694-1.252.694-2.049a2.631 2.631 0 00-2.628-2.628h-7.2l-.255-.44-1.707.772 2.643.847-.291-.503h6.811c1.076 0 1.952.876 1.952 1.953 0 .606-.135.924-.599 1.703-.502.842-.698 1.452-.698 2.173a2.632 2.632 0 002.629 2.628H45.78a1.955 1.955 0 011.679 2.952l-1.307 2.263h.78l1.109-1.921c.239-.405.367-.868.367-1.34a2.634 2.634 0 00-2.63-2.63zm-16.184 3.209H27.79l-1.548 2.68h1.805l1.547-2.68zm-.23 2.681l1.548-2.68h-.78l-1.548 2.68h.78zm3.888-2.681h-1.804l-1.548 2.68h1.804l1.548-2.68zm12.526-5.236H28.001c.01-.114.059-.286.314-.715.556-.932.979-1.751.979-3.087a4.66 4.66 0 00-4.655-4.655h-.122l-1.029 1.03-1.029-1.03h-4.883l.901 1.563h6.162a3.096 3.096 0 013.093 3.093c0 .944-.287 1.494-.76 2.287-.396.665-.537 1.081-.537 1.589 0 .82.668 1.488 1.488 1.488h17.854a3.096 3.096 0 013.093 3.093c0 .554-.148 1.097-.43 1.572l-.975 1.689h1.804l.521-.901c.42-.714.643-1.53.643-2.36a4.66 4.66 0 00-4.655-4.656zm-20.746-8.655l-1.544-1.543-1.543 1.543h.717l.826-.827.827.827h.717zM24.545 68.607h1.077c.386 0 .677.126.872.379.183.233.273.538.273.92s-.091.687-.273.92c-.2.253-.49.379-.872.379h-1.077v-2.598zM25 70.834h.447c.327 0 .561-.089.701-.266.109-.145.164-.365.164-.664 0-.297-.055-.516-.164-.658-.136-.179-.369-.268-.701-.268H25v1.856zM28.017 69.665l-.178.044a.497.497 0 00-.272.326.858.858 0 00-.041.274v.896h-.414v-1.881h.389v.363h.007a.545.545 0 01.198-.283.557.557 0 01.352-.131l.156.011v.401l-.197-.02zM29.551 69.856c0-.169-.123-.256-.37-.256a.508.508 0 00-.282.075.29.29 0 00-.129.223h-.413a.584.584 0 01.283-.494c.141-.088.331-.131.573-.131.333 0 .562.099.687.291.043.07.065.155.065.258v.963l.019.11.078.032h.046l.056-.006v.287a.84.84 0 01-.265.049c-.196 0-.31-.079-.341-.231a.68.68 0 01-.291.175 1.156 1.156 0 01-.313.057.764.764 0 01-.48-.146.47.47 0 01-.185-.407c0-.209.077-.359.231-.453.101-.061.266-.104.491-.129l.215-.032.172-.03c.103-.031.153-.098.153-.205zm-.847.827l.119.187.226.058c.212 0 .363-.062.457-.19l.046-.165v-.309c-.063.042-.162.068-.299.08s-.249.032-.337.063c-.142.043-.212.136-.212.276zM31.737 69.585v-.261h.414v1.782c0 .283-.079.496-.237.635-.159.141-.388.211-.686.211-.353 0-.602-.104-.746-.31a.55.55 0 01-.094-.276h.413c.032.142.132.225.299.248l.152.009c.326 0 .487-.157.484-.468v-.279h-.006a.646.646 0 01-.238.243.726.726 0 01-.353.086c-.264 0-.467-.095-.607-.281s-.212-.417-.21-.69c.001-.275.078-.504.231-.685.153-.185.362-.275.625-.275.265 0 .448.103.552.312h.007zm-.892.226a.796.796 0 00-.11.434c0 .175.043.323.129.444.085.124.211.188.377.188s.29-.064.371-.19c.084-.127.125-.279.125-.458s-.041-.327-.125-.445c-.083-.123-.208-.184-.378-.184s-.299.073-.389.211zM32.483 70.267c0-.297.085-.536.256-.719.169-.185.401-.277.695-.277.293 0 .524.093.691.277.17.181.254.42.254.715s-.084.534-.255.719c-.17.183-.401.275-.693.275-.15 0-.284-.026-.401-.075a.828.828 0 01-.483-.518 1.18 1.18 0 01-.064-.397zm1.484-.004c0-.289-.099-.49-.295-.603-.067-.04-.147-.061-.24-.061s-.173.021-.24.061c-.191.112-.29.313-.295.603 0 .181.046.337.138.468s.223.196.396.196a.458.458 0 00.398-.194.795.795 0 00.138-.47zM34.727 69.324h.393v.276l.007.009a.682.682 0 01.586-.336c.206 0 .368.055.486.159.117.108.178.269.179.481v1.291h-.414v-1.183c-.005-.148-.036-.255-.094-.321-.059-.066-.152-.101-.283-.101a.402.402 0 00-.319.145.524.524 0 00-.126.35v1.11h-.414v-1.88zM37.884 68.607h1.077c.385 0 .676.126.872.379.183.233.273.538.273.92s-.091.687-.273.92c-.201.253-.491.379-.872.379h-1.077v-2.598zm.455 2.227h.448c.327 0 .56-.089.7-.266.109-.145.165-.365.165-.664 0-.297-.056-.516-.165-.658-.135-.179-.368-.268-.7-.268h-.448v1.856zM41.612 69.856c0-.169-.123-.256-.37-.256a.508.508 0 00-.282.075.287.287 0 00-.128.223h-.414a.586.586 0 01.283-.494c.141-.088.331-.131.573-.131.333 0 .563.099.687.291.043.07.065.155.065.258v.963l.019.11.079.032h.045l.056-.006v.287a.84.84 0 01-.265.049c-.195 0-.31-.079-.34-.231a.683.683 0 01-.292.175 1.156 1.156 0 01-.313.057.764.764 0 01-.48-.146.47.47 0 01-.185-.407c0-.209.077-.359.231-.453.102-.061.266-.104.491-.129l.215-.032.172-.03c.102-.031.153-.098.153-.205zm-.848.827l.119.187.226.058c.212 0 .363-.062.457-.19l.046-.165v-.309c-.063.042-.162.068-.299.08s-.249.032-.337.063c-.141.043-.212.136-.212.276zM43.065 71.223c-.171 0-.289-.036-.357-.108-.068-.07-.105-.193-.109-.366v-1.096h-.315v-.329h.315v-.544h.413v.544h.375v.329h-.375v.987c0 .093.008.153.025.181l.169.072.181-.014v.321a3.246 3.246 0 01-.322.023zM44.844 69.856c0-.169-.123-.256-.37-.256a.508.508 0 00-.282.075.29.29 0 00-.129.223h-.413a.584.584 0 01.283-.494c.141-.088.331-.131.573-.131.333 0 .562.099.687.291.043.07.065.155.065.258v.963l.019.11.078.032h.046l.056-.006v.287a.84.84 0 01-.265.049c-.196 0-.31-.079-.341-.231a.68.68 0 01-.291.175 1.156 1.156 0 01-.313.057.764.764 0 01-.48-.146.47.47 0 01-.185-.407c0-.209.077-.359.231-.453.101-.061.266-.104.491-.129l.215-.032.172-.03c.103-.031.153-.098.153-.205zm-.847.827l.119.187.226.058c.212 0 .363-.062.457-.19l.046-.165v-.309c-.063.042-.162.068-.299.08s-.249.032-.338.063c-.141.043-.211.136-.211.276zM46.775 68.607h.454v2.206h1.321v.392h-1.775zM49.396 71.223c-.171 0-.289-.036-.357-.108-.068-.07-.105-.193-.109-.366v-1.096h-.315v-.329h.315v-.544h.413v.544h.375v.329h-.375v.987c0 .093.008.153.025.181l.169.072.181-.014v.321a3.246 3.246 0 01-.322.023zM51.385 70.95c-.104.205-.306.308-.604.308a.824.824 0 01-.365-.079c-.215-.1-.361-.276-.438-.531a1.46 1.46 0 01-.055-.416c.002-.305.082-.542.24-.709.159-.168.348-.251.563-.251s.389.057.519.165l.119.131h.008v-.96h.413v2.598h-.393v-.256h-.007zm-.913-.209c.09.125.22.188.389.187a.443.443 0 00.39-.198.845.845 0 00.135-.488c0-.194-.046-.349-.141-.464a.479.479 0 00-.393-.177.45.45 0 00-.396.218c-.079.116-.118.269-.118.453s.045.341.134.469zM53.168 69.906c0-.382.111-.701.331-.958a1.159 1.159 0 01.913-.403c.378 0 .68.133.906.394.227.265.34.586.34.968 0 .297-.067.558-.201.787l-.168.209.335.293-.222.247-.379-.332a1.164 1.164 0 01-.584.155c-.213 0-.396-.036-.549-.106a1.192 1.192 0 01-.637-.727 1.604 1.604 0 01-.085-.527zm1.809.723c.15-.181.226-.413.226-.698s-.066-.526-.197-.721c-.132-.195-.329-.294-.592-.294-.264 0-.463.099-.595.296-.133.196-.199.43-.198.698.002.267.067.498.198.692.13.195.328.291.593.291.109 0 .206-.02.291-.062l-.261-.229.219-.251.316.278zM57.663 71.205h-.406v-.261h-.007a.579.579 0 01-.228.227.6.6 0 01-.308.087c-.248 0-.427-.061-.537-.184-.109-.124-.164-.309-.164-.558v-1.192h.413v1.152c0 .164.032.281.097.35a.324.324 0 00.245.102c.172 0 .297-.046.371-.134a.589.589 0 00.11-.378v-1.092h.413v1.881zM58.918 69.273c.147 0 .281.03.397.093a.894.894 0 01.463.597c.035.132.044.269.026.409h-1.383c0 .156.045.289.132.397.088.108.213.16.376.158.231 0 .384-.104.457-.313h.393a.756.756 0 01-.305.476.91.91 0 01-.545.167c-.288 0-.515-.091-.677-.271-.164-.183-.246-.416-.244-.703.001-.282.084-.521.251-.716a.826.826 0 01.659-.294zm.472.825c-.016-.217-.109-.369-.282-.453l-.192-.045-.196.041a.463.463 0 00-.254.263l-.044.194h.968zM60.939 69.273c.148 0 .281.03.398.093a.896.896 0 01.462.597c.035.132.045.269.026.409h-1.382c0 .156.044.289.131.397.088.108.213.16.376.158.231 0 .384-.104.457-.313h.393a.756.756 0 01-.305.476.907.907 0 01-.545.167c-.288 0-.515-.091-.677-.271-.164-.183-.246-.416-.244-.703.001-.282.085-.521.251-.716a.828.828 0 01.659-.294zm.474.825c-.017-.217-.109-.369-.283-.453l-.193-.045-.196.041a.466.466 0 00-.254.263l-.043.194h.969zM62.144 69.324h.393v.276l.007.009a.682.682 0 01.586-.336c.206 0 .368.055.486.159.117.108.178.269.179.481v1.291h-.414v-1.183c-.005-.148-.036-.255-.094-.321-.059-.066-.153-.101-.283-.101s-.237.049-.319.145a.525.525 0 00-.127.35v1.11h-.413v-1.88zM64.972 69.6c-.26 0-.389.064-.389.193 0 .09.064.156.191.202.057.021.155.045.297.072.141.028.252.057.335.083.264.088.396.253.396.493a.523.523 0 01-.275.475 1.149 1.149 0 01-.564.139c-.381 0-.636-.123-.767-.368a.629.629 0 01-.065-.289h.414c.012.121.058.205.138.253a.525.525 0 00.287.074c.188 0 .313-.038.382-.118l.037-.129c-.005-.096-.07-.168-.196-.214a2.38 2.38 0 00-.29-.068c-.259-.051-.445-.119-.561-.203-.114-.082-.172-.213-.172-.39 0-.181.089-.319.265-.417.137-.077.311-.115.52-.115.33 0 .563.103.697.312a.59.59 0 01.09.265h-.433c-.021-.096-.065-.164-.137-.196l-.2-.054zM65.948 69.324h.438l.368 1.405h.006l.355-1.405h.419l.337 1.405h.007l.382-1.405h.423l-.59 1.881h-.426l-.348-1.396h-.004l-.346 1.396h-.44zM70.109 69.856c0-.169-.123-.256-.37-.256a.508.508 0 00-.282.075.287.287 0 00-.128.223h-.414a.584.584 0 01.283-.494c.141-.088.331-.131.573-.131.333 0 .563.099.687.291.043.07.065.155.065.258v.963l.019.11.078.032h.046l.056-.006v.287a.84.84 0 01-.265.049c-.196 0-.31-.079-.341-.231a.674.674 0 01-.291.175 1.156 1.156 0 01-.313.057.764.764 0 01-.48-.146.47.47 0 01-.185-.407c0-.209.077-.359.231-.453.101-.061.266-.104.491-.129l.215-.032.172-.03c.102-.031.153-.098.153-.205zm-.848.827l.119.187.226.058c.212 0 .363-.062.457-.19l.046-.165v-.309c-.063.042-.162.068-.299.08s-.249.032-.337.063c-.141.043-.212.136-.212.276zM71.166 71.604c.104 0 .178-.05.223-.152l.04-.108.048-.145-.714-1.875h.455l.492 1.405h.007l.476-1.405h.434l-.731 1.981-.102.247-.118.202c-.104.131-.253.195-.447.197a1.97 1.97 0 01-.287-.022v-.35c.119.017.194.025.224.025zM73.926 68.607h1.793v.392h-1.337v.682h1.174v.37h-1.174v1.154h-.456zM76.781 68.936l-.157.04-.06.154v.193h.353v.329h-.353v1.552h-.414v-1.552h-.31v-.329h.311v-.157c0-.217.054-.371.16-.461a.53.53 0 01.339-.099c.146 0 .251.01.312.026v.325l-.181-.021zM77.085 70.267c0-.297.085-.536.256-.719.17-.185.401-.277.696-.277.293 0 .523.093.691.277.17.181.254.42.254.715s-.084.534-.255.719c-.171.183-.401.275-.694.275-.15 0-.283-.026-.401-.075a.826.826 0 01-.482-.518 1.156 1.156 0 01-.065-.397zm1.483-.004c0-.289-.098-.49-.295-.603a.46.46 0 00-.24-.061.459.459 0 00-.239.061c-.192.112-.29.313-.295.603a.8.8 0 00.137.468.454.454 0 00.396.196.46.46 0 00.399-.194.802.802 0 00.137-.47zM80.233 69.665l-.178.044a.497.497 0 00-.272.326.858.858 0 00-.041.274v.896h-.414v-1.881h.389v.363h.007a.545.545 0 01.198-.283.557.557 0 01.352-.131l.156.011v.401l-.197-.02zM81.359 69.273c.147 0 .281.03.397.093a.894.894 0 01.463.597c.035.132.044.269.026.409h-1.383a.61.61 0 00.132.397c.087.108.213.16.375.158.232 0 .385-.104.458-.313h.393a.753.753 0 01-.306.476.907.907 0 01-.545.167c-.288 0-.514-.091-.677-.271-.163-.183-.245-.416-.243-.703.001-.282.084-.521.251-.716a.826.826 0 01.659-.294zm.473.825c-.016-.217-.109-.369-.283-.453l-.192-.045-.197.041a.469.469 0 00-.254.263l-.043.194h.969zM83.303 69.6c-.259 0-.389.064-.389.193 0 .09.064.156.191.202.057.021.156.045.298.072.141.028.252.057.334.083.264.088.396.253.396.493a.523.523 0 01-.275.475 1.148 1.148 0 01-.563.139c-.382 0-.637-.123-.768-.368a.629.629 0 01-.064-.289h.413c.012.121.059.205.139.253.08.051.176.074.287.074.187 0 .313-.038.381-.118l.038-.129c-.006-.096-.07-.168-.197-.214a2.334 2.334 0 00-.29-.068c-.258-.051-.444-.119-.561-.203-.114-.082-.171-.213-.171-.39 0-.181.088-.319.264-.417.138-.077.312-.115.52-.115.331 0 .563.103.698.312.047.072.077.16.089.265h-.433c-.02-.096-.065-.164-.137-.196l-.2-.054zM85.042 71.223c-.17 0-.289-.036-.357-.108-.068-.07-.105-.193-.109-.366v-1.096h-.316v-.329h.314v-.544h.414v.544h.374v.329h-.374v.987a.43.43 0 00.024.181l.169.072.181-.014v.321a3.194 3.194 0 01-.32.023zM86.416 68.936l-.156.04-.061.154v.193h.354v.329h-.354v1.552h-.413v-1.552h-.312v-.329h.312v-.157c0-.217.053-.371.159-.461a.536.536 0 01.34-.099c.146 0 .251.01.311.026v.325l-.18-.021zM87.968 69.856c0-.169-.124-.256-.371-.256a.51.51 0 00-.282.075.287.287 0 00-.128.223h-.414a.586.586 0 01.283-.494c.141-.088.331-.131.573-.131.333 0 .563.099.687.291.043.07.065.155.065.258v.963l.02.11.078.032h.045l.057-.006v.287a.85.85 0 01-.266.049c-.195 0-.309-.079-.34-.231a.68.68 0 01-.291.175 1.163 1.163 0 01-.313.057.761.761 0 01-.479-.146.47.47 0 01-.186-.407c0-.209.078-.359.231-.453.102-.061.266-.104.492-.129l.215-.032.171-.03c.101-.031.153-.098.153-.205zm-.849.827l.119.187.227.058c.211 0 .363-.062.456-.19l.047-.165v-.309c-.063.042-.163.068-.3.08s-.249.032-.337.063c-.142.043-.212.136-.212.276zM89.668 69.6c-.223 0-.379.113-.467.338a.819.819 0 00-.052.297c0 .211.043.38.127.506a.414.414 0 00.373.187.427.427 0 00.302-.112.513.513 0 00.147-.315h.414c-.039.245-.132.435-.278.563-.148.131-.353.195-.616.195a.822.822 0 01-.639-.271c-.165-.183-.246-.418-.243-.711.001-.289.082-.53.243-.719.16-.188.389-.283.686-.283.229 0 .423.059.583.173.158.114.247.283.265.506h-.414c-.017-.114-.063-.202-.141-.261s-.174-.093-.29-.093zM90.851 68.607h.413v.966h.007a.608.608 0 01.228-.215.636.636 0 01.337-.085c.206 0 .368.055.487.159.117.108.178.269.179.481v1.291h-.414v-1.183c-.005-.148-.036-.255-.095-.321-.058-.066-.152-.101-.282-.101s-.237.049-.319.145a.52.52 0 00-.127.35v1.11h-.413v-2.597zM94.308 70.34c0 .188.061.329.183.42.122.09.278.136.467.136s.329-.038.418-.112a.343.343 0 00.137-.271c.001-.106-.02-.183-.065-.231l-.18-.102-.293-.083-.4-.11a1.186 1.186 0 01-.328-.132.622.622 0 01-.296-.553c0-.238.094-.424.282-.556.188-.135.417-.201.685-.201.269 0 .5.072.692.219.191.146.288.35.288.612h-.455c-.021-.307-.209-.46-.561-.46-.203 0-.348.059-.431.177l-.047.188.086.196c.056.055.13.095.222.12.284.072.534.139.75.201.162.05.287.137.374.255s.131.251.132.399a.703.703 0 01-.323.627c-.188.124-.434.188-.732.188-.3 0-.545-.074-.735-.221-.211-.165-.318-.397-.323-.707h.453zM96.136 69.324h.439l.367 1.405h.007l.354-1.405h.419l.337 1.405h.007l.383-1.405h.423l-.591 1.881h-.426l-.347-1.396h-.004l-.346 1.396h-.44zM100.299 69.856c0-.169-.124-.256-.371-.256a.514.514 0 00-.283.075.299.299 0 00-.129.223h-.412a.584.584 0 01.283-.494c.142-.088.33-.131.573-.131.333 0 .562.099.687.291.043.07.067.155.067.258v.963l.018.11.078.032h.045l.056-.006v.287a.831.831 0 01-.266.049c-.195 0-.31-.079-.34-.231a.674.674 0 01-.291.175 1.142 1.142 0 01-.313.057.766.766 0 01-.48-.146.47.47 0 01-.185-.407c0-.209.077-.359.231-.453.101-.061.265-.104.491-.129l.215-.032.173-.03c.101-.031.153-.098.153-.205zm-.849.827l.118.187.227.058c.211 0 .363-.062.456-.19l.048-.165v-.309c-.064.042-.164.068-.301.08s-.249.032-.338.063c-.14.043-.21.136-.21.276zM101.161 69.324h.392v.276l.008.009a.682.682 0 01.587-.336c.204 0 .367.055.485.159.118.108.177.269.179.481v1.291h-.413v-1.183c-.007-.148-.036-.255-.095-.321s-.152-.101-.283-.101-.237.049-.319.145a.524.524 0 00-.126.35v1.11h-.414v-1.88zM103.986 69.6c-.257 0-.388.064-.388.193 0 .09.064.156.19.202.059.021.157.045.297.072.143.028.254.057.336.083.263.088.396.253.396.493a.521.521 0 01-.275.475c-.15.088-.337.134-.564.139-.381 0-.636-.123-.767-.368a.642.642 0 01-.066-.289h.416c.012.121.056.205.137.253a.532.532 0 00.289.074c.185 0 .313-.038.379-.118l.038-.129c-.004-.096-.07-.168-.196-.214a2.315 2.315 0 00-.291-.068c-.257-.051-.444-.119-.559-.203-.116-.082-.173-.213-.173-.39 0-.181.089-.319.266-.417.137-.077.309-.115.52-.115.329 0 .563.103.697.312a.59.59 0 01.088.265h-.432c-.02-.096-.066-.164-.137-.196l-.201-.054zM105.951 69.273a.82.82 0 01.397.093.89.89 0 01.462.597c.036.132.044.269.028.409h-1.383a.61.61 0 00.132.397c.087.108.211.16.374.158.232 0 .385-.104.459-.313h.392a.756.756 0 01-.305.476.912.912 0 01-.546.167c-.287 0-.513-.091-.677-.271-.163-.183-.245-.416-.243-.703 0-.282.084-.521.251-.716a.827.827 0 01.659-.294zm.472.825c-.014-.217-.108-.369-.28-.453l-.193-.045-.196.041a.474.474 0 00-.255.263l-.042.194h.966zM108.316 69.856c0-.169-.124-.256-.369-.256a.51.51 0 00-.283.075.293.293 0 00-.129.223h-.413a.584.584 0 01.283-.494c.141-.088.331-.131.574-.131.333 0 .56.099.685.291.044.07.066.155.066.258v.963l.02.11.078.032h.044l.057-.006v.287a.855.855 0 01-.265.049c-.195 0-.31-.079-.34-.231a.68.68 0 01-.293.175 1.142 1.142 0 01-.313.057.77.77 0 01-.479-.146.474.474 0 01-.185-.407c0-.209.078-.359.23-.453.103-.061.268-.104.494-.129l.215-.032.171-.03c.1-.031.152-.098.152-.205zm-.848.827l.119.187.225.058c.213 0 .365-.062.458-.19l.046-.165v-.309c-.064.042-.162.068-.299.08s-.249.032-.338.063c-.14.043-.211.136-.211.276zM110.549 70.34c0 .188.061.329.183.42.121.09.277.136.466.136s.329-.038.42-.112a.359.359 0 00.137-.271c0-.106-.022-.183-.066-.231l-.179-.102-.295-.083-.4-.11a1.19 1.19 0 01-.327-.132.621.621 0 01-.297-.553c0-.238.095-.424.283-.556.188-.135.416-.201.685-.201s.498.072.692.219c.191.146.287.35.287.612h-.455c-.021-.307-.207-.46-.561-.46-.203 0-.348.059-.432.177l-.046.188.086.196.221.12c.285.072.534.139.751.201a.7.7 0 01.373.255.645.645 0 01.133.399.703.703 0 01-.323.627c-.188.124-.434.188-.732.188s-.544-.074-.735-.221c-.21-.165-.318-.397-.323-.707h.454zM113.301 68.607h.483l1 2.598h-.486l-.245-.688h-1.037l-.243.688h-.468l.996-2.598zm-.161 1.564h.793l-.39-1.116h-.01l-.393 1.116zM115.395 69.685c.114-.131.276-.195.493-.195.104 0 .207.022.308.064a.726.726 0 01.405.448c.034.104.053.213.053.325a.971.971 0 01-.207.626.788.788 0 01-.648.304c-.27 0-.488-.066-.652-.203-.167-.133-.255-.325-.263-.574h.413a.453.453 0 00.143.319c.082.074.19.11.327.11.31 0 .468-.187.474-.559 0-.24-.09-.403-.269-.489l-.217-.044c-.217 0-.354.08-.41.232h-.415l.272-1.394h1.317v.372h-1.008l-.122.65.006.008zM119.687 70.6h-.305v.604h-.414V70.6h-1.072v-.409l1.072-1.534h.414v1.614h.305v.329zm-.719-.329v-1.12h-.01l-.763 1.12h.773zM120.087 68.607h1.869v.392h-1.413v.682h1.308v.37h-1.308v.762h1.439v.392h-1.895zM122.37 68.607h.453v1.034h1.183v-1.034h.454v2.598h-.454v-1.17h-1.183v1.17h-.453zM137.507 70.25c0 .253-.046.483-.135.69a1.59 1.59 0 01-.889.879 1.74 1.74 0 01-.648.12c-.233 0-.452-.044-.654-.13a1.57 1.57 0 01-.868-.89c-.082-.207-.124-.434-.124-.681s.044-.474.133-.683c.177-.413.474-.706.891-.877.203-.082.416-.123.637-.123.223 0 .434.041.635.123.415.169.713.462.889.877.089.21.133.441.133.695zm-.362 0c0-.412-.124-.747-.373-1.009-.249-.261-.559-.391-.926-.391s-.677.13-.926.391c-.249.262-.373.595-.373.998s.12.739.361 1.008c.239.268.548.399.926.399.375 0 .688-.13.938-.392.249-.26.373-.595.373-1.004zm-1.222-.679c-.198 0-.349.062-.453.187a.766.766 0 00-.159.496.798.798 0 00.165.514.501.501 0 00.403.211c.154 0 .275-.036.361-.112a.466.466 0 00.154-.294h.312a.855.855 0 01-.103.294c-.158.269-.401.405-.73.405a.877.877 0 01-.359-.078.906.906 0 01-.5-.54 1.186 1.186 0 01-.066-.397c.002-.287.091-.522.263-.707.175-.185.404-.275.687-.271.209 0 .388.059.536.175.149.115.237.283.27.508h-.308a.48.48 0 00-.17-.28.461.461 0 00-.303-.111zM138.86 69.394c.299 0 .516-.074.648-.226l.092-.194h.34v2.548h-.454v-1.799h-.626v-.329zM141.384 71.13c.064.064.15.097.263.097.11 0 .199-.03.266-.089l.154-.223c.036-.088.061-.183.074-.285.012-.101.024-.192.032-.277l-.01-.008a.55.55 0 01-.229.229.668.668 0 01-.323.078.746.746 0 01-.578-.235c-.148-.156-.223-.365-.221-.62 0-.257.078-.466.233-.629.152-.162.369-.244.644-.244.482 0 .77.269.859.809.059.35.055.685-.016 1.008-.068.323-.219.561-.452.711a.825.825 0 01-.47.122.758.758 0 01-.512-.198.676.676 0 01-.239-.498h.414c.01.103.046.187.111.252zm-.157-1.341c0 .232.082.397.246.489l.199.045a.416.416 0 00.344-.155.607.607 0 00.116-.375c0-.145-.04-.27-.121-.372-.08-.1-.192-.152-.339-.152s-.257.051-.331.152a.591.591 0 00-.114.368zM142.823 70.77c0-.163.04-.299.124-.409a.61.61 0 01.34-.224v-.007a.528.528 0 01-.382-.519c0-.215.072-.384.217-.504.146-.123.346-.183.601-.183.253 0 .452.06.597.181.145.12.217.289.217.506a.52.52 0 01-.099.319.558.558 0 01-.281.2v.008c.143.036.255.11.339.222a.602.602 0 01.125.377c0 .267-.086.472-.253.618a.957.957 0 01-.646.219c-.261 0-.478-.072-.646-.215a.733.733 0 01-.253-.589zm.55.35c.093.082.209.124.348.124s.255-.042.348-.124a.44.44 0 00.138-.342c0-.146-.046-.259-.138-.337-.093-.078-.209-.118-.348-.118s-.255.04-.348.12a.409.409 0 00-.137.335.433.433 0 00.137.342zm.347-1.867a.433.433 0 00-.283.096.338.338 0 00-.118.275c0 .12.038.213.114.277a.437.437 0 00.287.094.439.439 0 00.289-.094c.074-.063.11-.152.11-.273a.353.353 0 00-.114-.279.437.437 0 00-.285-.096zM146.611 71.548h-1.738c.004-.392.19-.713.56-.966.083-.061.169-.119.26-.175.333-.211.504-.432.51-.66a.467.467 0 00-.064-.27l-.148-.137-.211-.046-.213.05c-.146.089-.223.285-.23.587h-.414c0-.289.076-.526.229-.709.154-.183.369-.273.646-.273.278 0 .491.091.645.27a.791.791 0 01.174.514c0 .261-.118.492-.357.694-.11.095-.229.184-.353.262a4.969 4.969 0 00-.277.185c-.141.106-.227.207-.257.303h1.24v.371z" fill="#f46169"/><path d="M138.891 44.059h.688l1.424 3.699h-.692l-.347-.979h-1.478l-.347.979h-.667l1.419-3.699zm-.227 2.226h1.129l-.554-1.589h-.017l-.558 1.589zM142.404 44.059c.467 0 .808.211 1.017.635.156.32.234.736.234 1.251 0 .843-.204 1.411-.618 1.707-.161.12-.373.18-.633.18s-.472-.06-.635-.18c-.412-.302-.619-.871-.619-1.707 0-.523.078-.941.234-1.251.093-.188.219-.34.385-.458.163-.119.375-.177.635-.177zm.662 1.886c0-.929-.221-1.393-.662-1.393s-.665.464-.665 1.393c0 .656.115 1.082.341 1.281.085.075.19.111.324.111.441.001.662-.464.662-1.392zM144.758 45.592c.16-.184.393-.276.701-.276.149 0 .294.03.437.091.279.12.47.333.578.641a1.4 1.4 0 01.075.46c0 .347-.099.644-.294.891-.23.288-.538.433-.923.433-.386 0-.696-.094-.932-.287-.236-.191-.36-.463-.375-.82h.589c.019.199.086.351.203.456a.682.682 0 00.467.157c.441 0 .667-.266.674-.797 0-.34-.126-.573-.382-.696a.69.69 0 00-.309-.061c-.308 0-.503.11-.584.332h-.591l.389-1.986h1.875v.529h-1.436l-.175.926.013.007zM148.162 44.059c.469 0 .807.211 1.019.635.156.32.234.736.234 1.251 0 .843-.207 1.411-.618 1.707-.163.12-.375.18-.635.18-.261 0-.472-.06-.635-.18-.412-.302-.617-.871-.617-1.707 0-.523.078-.941.235-1.251.092-.188.218-.34.382-.458.163-.119.374-.177.635-.177zm.662 1.886c0-.929-.221-1.393-.662-1.393-.442 0-.663.464-.663 1.393 0 .656.113 1.082.339 1.281a.469.469 0 00.324.111c.441.001.662-.464.662-1.392zM152.176 45.017c0 .394-.17.65-.511.771v.01a.748.748 0 01.483.312.945.945 0 01.175.555c-.003.37-.129.656-.38.86a1.402 1.402 0 01-.908.306c-.605 0-.999-.251-1.185-.747a1.568 1.568 0 01-.088-.519h.589a.848.848 0 00.163.551c.115.147.281.221.495.221.216 0 .389-.056.521-.167.134-.112.2-.272.2-.481 0-.253-.099-.429-.301-.527-.141-.069-.356-.1-.648-.091v-.468c.36.011.604-.082.735-.281a.577.577 0 00.069-.305.419.419 0 00-.159-.33.528.528 0 00-.358-.137c-.331-.002-.536.154-.619.468a.818.818 0 00-.029.271h-.592c.015-.353.127-.646.339-.881.214-.233.501-.351.862-.351.302 0 .565.082.798.247.233.169.349.406.349.713z"/></svg>