<?xml version="1.0" encoding="UTF-8" standalone="no"?>
<svg
   xmlns:dc="http://purl.org/dc/elements/1.1/"
   xmlns:cc="http://creativecommons.org/ns#"
   xmlns:rdf="http://www.w3.org/1999/02/22-rdf-syntax-ns#"
   xmlns:svg="http://www.w3.org/2000/svg"
   xmlns="http://www.w3.org/2000/svg"
   xmlns:sodipodi="http://sodipodi.sourceforge.net/DTD/sodipodi-0.dtd"
   xmlns:inkscape="http://www.inkscape.org/namespaces/inkscape"
   viewBox="0 0 559.249 81.18"
   version="1.1"
   id="svg27"
   sodipodi:docname="logo.svg"
   inkscape:version="1.0.2 (e86c870879, 2021-01-15)"
   inkscape:export-filename="logo.png"
   inkscape:export-xdpi="154.49289"
   inkscape:export-ydpi="154.49289">
  <metadata
     id="metadata33">
    <rdf:RDF>
      <cc:Work
         rdf:about="">
        <dc:format>image/svg+xml</dc:format>
        <dc:type
           rdf:resource="http://purl.org/dc/dcmitype/StillImage" />
      </cc:Work>
    </rdf:RDF>
  </metadata>
  <defs
     id="defs31" />
  <sodipodi:namedview
     pagecolor="#ffffff"
     bordercolor="#666666"
     borderopacity="1"
     objecttolerance="10"
     gridtolerance="10"
     guidetolerance="10"
     inkscape:pageopacity="0"
     inkscape:pageshadow="2"
     inkscape:window-width="1920"
     inkscape:window-height="1017"
     id="namedview29"
     showgrid="false"
     inkscape:zoom="1.8523259"
     inkscape:cx="258.40647"
     inkscape:cy="120.54586"
     inkscape:window-x="-8"
     inkscape:window-y="-8"
     inkscape:window-maximized="1"
     inkscape:current-layer="svg27"
     inkscape:document-rotation="0" />
  <path
     d="M559.249 75.466c0 3.154-2.15 5.714-4.801 5.714H4.801C2.15 81.18 0 78.62 0 75.466V5.715C0 2.56 2.15 0 4.801 0h549.646c2.651 0 4.801 2.56 4.801 5.715v69.751h.001z"
     id="path2" />
  <linearGradient
     id="a"
     gradientUnits="userSpaceOnUse"
     x1="908.059"
     y1="1394.493"
     x2="1316.951"
     y2="1394.493"
     gradientTransform="matrix(.672 0 0 .672 -450.241 -897.07)">
    <stop
       offset="0"
       stop-color="#f50019"
       id="stop4" />
    <stop
       offset=".276"
       stop-color="#f66d19"
       id="stop6" />
    <stop
       offset=".478"
       stop-color="#fbfa35"
       id="stop8" />
    <stop
       offset=".681"
       stop-color="#74b719"
       id="stop10" />
    <stop
       offset=".791"
       stop-color="#17710a"
       id="stop12" />
    <stop
       offset=".883"
       stop-color="#226887"
       id="stop14" />
    <stop
       offset="1"
       stop-color="#3262d9"
       id="stop16" />
  </linearGradient>
  <path
     d="M159.942 18.077h22.146c14.6 0 19.753 10.796 19.753 21.839 0 13.435-7.116 21.962-22.391 21.962h-19.507l-.001-43.801zm13.495 32.575h5.276c8.404 0 9.631-6.81 9.631-10.919 0-2.76-.859-10.43-10.613-10.43h-4.295l.001 21.349zm33.003-32.575h25.705c7.668 0 14.293 4.233 14.293 12.515 0 4.54-2.086 9.325-6.564 10.981 3.681 1.412 5.95 5.46 6.441 10.919.183 2.147.245 7.361 1.472 9.386h-13.496c-.675-2.208-.921-4.477-1.105-6.748-.368-4.172-.737-8.527-6.074-8.527h-7.179V61.88h-13.496V18.077h.003zm13.496 19.14h7.055c2.515 0 5.951-.43 5.951-4.355 0-2.76-1.533-4.355-6.687-4.355h-6.318v8.71h-.001zm46.561-19.14h13.189l15.95 43.801H281.65l-1.84-6.257h-13.926l-1.963 6.257h-13.558l16.134-43.801zm10.612 28.157l-3.926-13.496h-.123l-4.233 13.496h8.282zM329.497 57.4c-3.006 3.864-7.668 5.52-12.452 5.52-12.945 0-20.92-10.061-20.92-22.513 0-16.686 11.718-23.372 21.594-23.372 11.165 0 18.22 6.073 20.182 16.379h-12.945c-.49-3.19-3.189-5.46-6.379-5.46-9.263 0-8.957 9.754-8.957 12.76 0 4.109 1.656 11.288 9.876 11.288 3.129 0 6.318-1.595 6.993-4.846h-5.95v-9.387h17.913v24.109h-8.527l-.428-4.478zm37.787-40.366c13.313 0 22.207 9.569 22.207 22.944s-8.895 22.944-22.207 22.944c-13.312 0-22.208-9.569-22.208-22.944 0-13.374 8.896-22.944 22.208-22.944zm0 34.967c3.435 0 8.711-2.27 8.711-12.025 0-9.754-5.276-12.024-8.711-12.024-3.435 0-8.711 2.27-8.711 12.024 0 9.755 5.277 12.025 8.711 12.025zm27.972-33.924h13.803l12.76 23.434h.123V18.077h12.76v43.801h-13.128l-13.435-23.925h-.123v23.925h-12.76V18.077z"
     fill="url(#a)"
     id="path19" />
  <path
     d="M 445.841,72.447 V 68.56 c 0,-2.562 1.894,-3.467 3.832,-3.467 2.359,0 3.854,1.249 3.854,3.931 v 3.424 h -7.687 v -10e-4 z m 5.717,-2.37 v -0.925 c 0,-1.474 -1.195,-1.691 -1.918,-1.691 -0.484,0 -1.83,0.151 -1.83,1.862 v 0.753 l 3.748,0.001 c 0,-0.001 0,0 0,0 z m -5.717,-8.141 v -2.314 l 7.687,-2.799 v 2.455 l -1.099,0.322 v 2.445 l 1.099,0.345 v 2.379 z m 4.942,-1.862 -2.369,0.689 v 0.021 l 2.369,0.742 z m -2.972,-4.848 v 2.153 h -1.971 v -6.675 h 1.971 v 2.154 h 5.717 v 2.367 h -5.717 z m -1.97,-6.731 v -2.314 l 7.687,-2.799 v 2.455 l -1.099,0.322 v 2.444 l 1.099,0.345 v 2.379 z m 4.942,-1.862 -2.369,0.689 v 0.021 l 2.369,0.742 z m -4.942,-13.41 v -2.368 h 5.717 v -3.401 h 1.971 v 5.771 h -7.688 z m 1.97,-7.193 v 2.152 h -1.971 v -6.675 h 1.971 v 2.154 h 5.717 v 2.367 h -5.717 z m -1.97,-5.396 v -3.887 c 0,-2.562 1.894,-3.467 3.832,-3.467 2.359,0 3.854,1.249 3.854,3.93 v 3.424 h -7.687 z m 5.717,-2.369 V 17.34 c 0,-1.475 -1.195,-1.691 -1.918,-1.691 -0.484,0 -1.83,0.151 -1.83,1.862 v 0.753 z M 451.397,12.19 V 9.951 h 2.131 v 2.239 z"
     id="path23"
     inkscape:connector-curvature="0"
     style="fill:#dedede" />
  <path
     d="M76.055 41.738h-6.642l15.812-27.385a17.184 17.184 0 0114.864-8.61h32.674l-3.321 5.752h-29.353a11.416 11.416 0 00-9.879 5.727L76.055 41.738zm17.793-22.421a7.21 7.21 0 016.241-3.625h26.929l1.437-2.488h-28.366a9.705 9.705 0 00-8.398 4.872L78.03 41.738h2.872l12.946-22.421zm2.516 10.565h22.462l3.884-6.727 1.182-2.048 2.14-3.705H100.09a5.494 5.494 0 00-4.757 2.764L82.877 41.738h6.642l6.845-11.856zm-51.039 0c-.004.047-.007.069-.005.069-.052.177-.294.687-1.141 2.108-1.789 3.004-3.62 6.757-3.621 11.819 0 9.45 7.688 17.138 17.138 17.138h65.256l-6.774 11.733h6.642l5.321-9.216a5.47 5.47 0 00.763-2.79 5.485 5.485 0 00-5.479-5.479H57.698c-6.279 0-11.386-5.108-11.386-11.386 0-3.453 1.124-6.045 2.811-8.874 1.569-2.634 1.964-3.543 1.963-5.395a5.484 5.484 0 00-5.478-5.478H26.333l3.32 5.752h15.672v-.001zm78.1 21.185H57.697c-3.963 0-7.189-3.225-7.189-7.189.001-2.19.602-4.013 2.218-6.725 1.738-2.916 2.556-4.61 2.556-7.544 0-5.334-4.34-9.675-9.676-9.675H19.1l-.937-1.621-6.286 2.842 9.728 3.119-1.07-1.853h25.071c3.964 0 7.188 3.225 7.188 7.188.001 2.232-.496 3.402-2.205 6.269-1.849 3.101-2.568 5.344-2.568 7.999 0 5.335 4.341 9.676 9.676 9.676h65.729c3.964 0 7.189 3.225 7.189 7.189a7.202 7.202 0 01-1.009 3.676l-4.809 8.33h2.871l4.084-7.073a9.677 9.677 0 001.351-4.933c-.001-5.335-4.341-9.675-9.678-9.675zM63.848 62.882h-6.642l-5.698 9.867h6.642l5.698-9.867zm-.85 9.866l5.697-9.867h-2.871l-5.697 9.867h2.871zm14.313-9.866h-6.642l-5.697 9.867h6.642l5.697-9.867zm46.114-19.278H57.979c.035-.42.216-1.052 1.157-2.632 2.045-3.43 3.608-6.445 3.608-11.364 0-9.45-7.687-17.138-17.138-17.138h-.45l-3.79 3.791-3.79-3.791H19.599l3.322 5.753h22.685c6.279 0 11.386 5.108 11.386 11.386.001 3.475-1.056 5.498-2.797 8.419-1.459 2.449-1.976 3.979-1.976 5.85a5.486 5.486 0 005.479 5.479h65.729c6.279 0 11.386 5.108 11.386 11.386 0 2.039-.546 4.041-1.58 5.789l-3.59 6.217h6.642l1.915-3.318a17.135 17.135 0 002.365-8.688c-.001-9.451-7.689-17.139-17.14-17.139zM47.048 11.74l-5.682-5.681-5.681 5.681h2.638l3.043-3.043 3.044 3.043h2.638z"
     fill="#f50019"
     id="path25" />
  <g
     style="fill:#000000;stroke:none"
     transform="matrix(0.06675279,0,0,-0.06675279,466.68562,62.529605)"
     id="g6">
    <path
       d="M 208,657 C 83,621 10,501 10,329 10,186 71,74 172,30 246,-2 357,4 424,44 c 176,103 138,373 -59,417 -59,13 -71,11 -159,-26 -17,-7 -18,-5 -12,21 4,16 17,39 28,52 29,30 99,31 127,1 7.3848,-7.79507 0,0 10.99999,-14 H 444 530.18191 C 526.43772,532.5 517.25787,540.04284 489,579 437,652 312,686 208,657 Z M 341,304 c 35,-37 33,-98 -4,-130 -34,-29 -76,-31 -110,-4 -46,36 -45,111 2,147 29,22 85,16 112,-13 z"
       id="path2-1"
       inkscape:connector-curvature="0"
       sodipodi:nodetypes="csccccccccscccccccc" />
    <path
       d="m 757.49999,487.5 -135,-157.5 v -89.99999 -82.5 h 127.5 142.5 V 90.000008 22.500009 h 90 90.00001 v 67.499999 67.500002 h 45 45 v 78.21989 71.78011 h -45 -45 V 487.5 v 165 h -97.50001 -75 z M 890,385 v -75 h -66 -65 l 63,75 c 35,41 64,75 66,75 1,0 2,-34 2,-75 z"
       id="path4"
       inkscape:connector-curvature="0"
       sodipodi:nodetypes="cccccccccccccccccccccccsccccss" />
  </g>
  <path
     style="fill:#ffffff;fill-opacity:1;stroke-width:0.07479078"
     d="m 483.88164,61.801941 c -5.54616,-0.39785 -9.85209,-2.917241 -12.83939,-7.511935 -3.04123,-4.677201 -4.26106,-11.283977 -3.37018,-18.25062 0.89175,-6.972434 3.7453,-12.165582 8.38636,-15.261462 0.81873,-0.54619 2.66554,-1.45137 3.6542,-1.791133 0.91324,-0.313794 1.9451,-0.565976 3.10398,-0.758715 1.16912,-0.194448 4.7115,-0.196442 5.90835,-0.0039 4.02417,0.649283 7.22655,2.136929 9.46117,4.395248 0.72427,0.732027 2.3221,2.846159 2.98663,3.951627 0.44075,0.733576 0.82752,1.962598 0.82752,2.62975 v 0.220703 h -5.64424 -5.64432 l -0.29481,-0.399032 c -0.59359,-0.80336 -1.2498,-1.263625 -2.30211,-1.614751 -2.04959,-0.683931 -4.6235,-0.350444 -6.20544,0.804027 -0.59197,0.432051 -1.50454,1.812488 -2.00814,3.03795 -0.30815,0.749303 -0.5043,1.620618 -0.47365,2.104161 l 0.0229,0.368197 0.29928,-0.01381 c 0.17584,-0.0079 0.8542,-0.24355 1.64527,-0.570957 3.89573,-1.612458 5.32219,-1.96976 7.11702,-1.78268 2.01427,0.209953 4.31962,0.845817 5.87624,1.620804 4.19523,2.088484 6.98042,5.922251 7.87725,10.843338 0.16304,0.894979 0.22886,3.381106 0.11485,4.346857 -0.56637,4.802246 -3.15146,8.817744 -7.27844,11.305991 -2.92914,1.766023 -7.07622,2.627058 -11.2207,2.329744 z m 2.61882,-9.456833 c 1.52819,-0.360319 3.14751,-1.544718 3.86427,-2.826587 0.70444,-1.25966 0.9442,-2.743579 0.67361,-4.169737 -0.57433,-3.027441 -2.89189,-4.881597 -6.09034,-4.872088 -1.57216,0.0054 -2.56487,0.392089 -3.55978,1.389309 -1.48222,1.485254 -2.12487,3.631849 -1.71965,5.74234 0.43833,2.283001 2.13304,4.124404 4.32395,4.698469 0.67073,0.175764 1.84864,0.193745 2.50794,0.03824 z"
     id="path96"
     inkscape:connector-curvature="0" />
  <path
     style="fill:#ffffff;fill-opacity:1;stroke-width:0.07479078"
     d="m 526.30743,56.496332 v -4.487439 h -9.01244 -9.01217 v -5.746404 -5.746398 l 5.02968,-5.866922 c 2.76616,-3.226792 6.92594,-8.062038 9.24348,-10.744957 l 4.21393,-4.878067 h 5.75209 5.75193 v 11.517788 11.517785 h 2.99154 2.99176 v 4.973591 4.973584 h -2.99176 -2.99154 v 4.487439 4.487432 h -5.98332 -5.98318 z M 526.15189,38.827 c -0.01,-3.586868 -0.0898,-6.908409 -0.17377,-6.990203 -0.0318,-0.03247 -0.2633,0.159944 -0.51124,0.427315 -0.68931,0.74343 -3.76104,4.326933 -5.9622,6.955555 -1.08524,1.295742 -2.02295,2.414808 -2.08411,2.486794 -0.10573,0.124424 0.10687,0.130887 4.31301,0.130887 h 4.42422 l -0.01,-3.010348 z"
     id="path98"
     inkscape:connector-curvature="0" />
</svg>
