<?xml version="1.0" encoding="UTF-8" standalone="no"?>
<svg
   xmlns:dc="http://purl.org/dc/elements/1.1/"
   xmlns:cc="http://creativecommons.org/ns#"
   xmlns:rdf="http://www.w3.org/1999/02/22-rdf-syntax-ns#"
   xmlns:svg="http://www.w3.org/2000/svg"
   xmlns="http://www.w3.org/2000/svg"
   xmlns:sodipodi="http://sodipodi.sourceforge.net/DTD/sodipodi-0.dtd"
   xmlns:inkscape="http://www.inkscape.org/namespaces/inkscape"
   viewBox="0 0 123.152 362.538"
   version="1.1"
   id="svg41"
   sodipodi:docname="controller.svg"
   inkscape:export-filename="C:\Users\ReenigneArcher\LaunchBox\Themes\RecalBigBox\Resources\Platforms\Fairchild Channel F\controller.png"
   inkscape:export-xdpi="71.495987"
   inkscape:export-ydpi="71.495987"
   inkscape:version="0.92.4 (5da689c313, 2019-01-14)">
  <metadata
     id="metadata47">
    <rdf:RDF>
      <cc:Work
         rdf:about="">
        <dc:format>image/svg+xml</dc:format>
        <dc:type
           rdf:resource="http://purl.org/dc/dcmitype/StillImage" />
      </cc:Work>
    </rdf:RDF>
  </metadata>
  <defs
     id="defs45" />
  <sodipodi:namedview
     pagecolor="#ffffff"
     bordercolor="#666666"
     borderopacity="1"
     objecttolerance="10"
     gridtolerance="10"
     guidetolerance="10"
     inkscape:pageopacity="0"
     inkscape:pageshadow="2"
     inkscape:window-width="1920"
     inkscape:window-height="1017"
     id="namedview43"
     showgrid="false"
     inkscape:zoom="0.65096625"
     inkscape:cx="61.576"
     inkscape:cy="181.269"
     inkscape:window-x="-8"
     inkscape:window-y="-8"
     inkscape:window-maximized="1"
     inkscape:current-layer="svg41" />
  <path
     d="M4.777 28.476h98.408v2.125H4.777z"
     id="path2" />
  <linearGradient
     id="a"
     gradientUnits="userSpaceOnUse"
     x1="53.981"
     y1="28.476"
     x2="53.981">
    <stop
       offset="0"
       stop-color="#2b2724"
       id="stop4" />
    <stop
       offset="1"
       stop-color="#171517"
       id="stop6" />
  </linearGradient>
  <path
     d="M.295 28.476h107.372a20.597 20.597 0 0 0-.14-2.125c-.627-5.305-3.539-8.755-5.75-11.375-5.59-6.623-12.463-9.117-18-11.125C75.328.786 68.255.38 62.652.101c-2.387-.119-8.636-.334-16.875.75-8.526 1.122-19.362 2.538-30.5 9.5-6.705 4.191-12.906 9.083-14.75 17-.049.213-.14.602-.232 1.125z"
     fill="url(#a)"
     id="path9" />
  <linearGradient
     id="b"
     gradientUnits="userSpaceOnUse"
     x1="53.792"
     y1="30.593"
     x2="53.792"
     y2="70.226">
    <stop
       offset="0"
       stop-color="#2b2724"
       id="stop11" />
    <stop
       offset="1"
       stop-color="#171517"
       id="stop13" />
  </linearGradient>
  <path
     d="M48.527 70.226c-.296-2.707-1.167-6.414-3.625-10-2.915-4.254-6.65-6.275-9.375-7.75-3.203-1.734-5.77-2.454-9.5-3.5-7.411-2.079-8.547-1.227-13.75-3.125-4.332-1.58-7.705-2.81-10-6.125-2.123-3.067-2.402-6.59-2.238-9.122h107.545v-.01c-.449 4.834-2.665 9.252-6.378 12.066-2.577 1.954-3.508 1.356-7.054 3.567-7.295 4.549-10.199 11.757-11 14-.719 2.013-1.607 5.862-1.625 10h-33z"
     fill="url(#b)"
     id="path16" />
  <path
     fill="#171614"
     d="M51.902 70.226h25.375v9.875H51.902z"
     id="path18" />
  <path
     d="M28.423 93.976h-5.598c-7.795 0-14.173 6.378-14.173 14.173v238.154c0 7.795 6.378 14.173 14.173 14.173h86.154c7.795 0 14.173-6.378 14.173-14.173V108.149c0-7.795-6.378-14.173-14.173-14.173h-4.842a1.984 1.984 0 0 1-1.984-1.984v-9.891c0-1.1-.9-2-2-2H32.382a1.985 1.985 0 0 0-1.979 1.979v9.917a1.98 1.98 0 0 1-1.98 1.979z"
     fill="#1b1e22"
     id="path20" />
  <path
     d="M97.895 362.538h-17.86a.384.384 0 0 1-.383-.383v-1.68h18.625v1.68a.383.383 0 0 1-.382.383z"
     fill="#151314"
     id="path22" />
  <linearGradient
     id="c"
     gradientUnits="userSpaceOnUse"
     x1="66.278"
     y1="80.101"
     x2="66.278"
     y2="360.476">
    <stop
       offset="0"
       stop-color="#222224"
       id="stop24" />
    <stop
       offset=".085"
       stop-color="#191d21"
       id="stop26" />
    <stop
       offset=".871"
       stop-color="#181c20"
       id="stop28" />
    <stop
       offset=".919"
       stop-color="#181c20"
       id="stop30" />
    <stop
       offset="1"
       stop-color="#232325"
       id="stop32" />
  </linearGradient>
  <path
     d="M30.402 82.08v278.396h71.75V82.101c0-1.1-.9-2-2-2h-67.77c-1.089 0-1.98.89-1.98 1.979z"
     fill="url(#c)"
     id="path35" />
  <g
     fill="#212122"
     id="g39">
    <path
       d="M30.402 117.101h71.75v4.375h-71.75zM30.402 126.726h71.75v4.375h-71.75zM30.402 136.351h71.75v4.375h-71.75zM30.402 145.976h71.75v4.375h-71.75zM30.402 155.601h71.75v4.375h-71.75zM30.402 165.226h71.75v4.375h-71.75zM30.402 174.851h71.75v4.375h-71.75zM30.402 184.476h71.75v4.375h-71.75zM30.402 194.101h71.75v4.375h-71.75zM30.402 203.726h71.75v4.375h-71.75zM30.402 213.351h71.75v4.375h-71.75zM30.402 222.976h71.75v4.375h-71.75zM30.402 232.601h71.75v4.375h-71.75zM30.402 242.226h71.75v4.375h-71.75zM30.402 251.851h71.75v4.375h-71.75zM30.402 261.476h71.75v4.375h-71.75zM30.402 271.101h71.75v4.375h-71.75zM30.402 280.726h71.75v4.375h-71.75zM30.402 290.351h71.75v4.375h-71.75zM30.402 299.976h71.75v4.375h-71.75zM30.402 309.601h71.75v4.375h-71.75zM30.402 319.226h71.75v4.375h-71.75zM30.402 328.851h71.75v4.375h-71.75z"
       id="path37" />
  </g>
</svg>
