<?xml version="1.0" encoding="UTF-8" standalone="no"?>
<svg
   xmlns:dc="http://purl.org/dc/elements/1.1/"
   xmlns:cc="http://creativecommons.org/ns#"
   xmlns:rdf="http://www.w3.org/1999/02/22-rdf-syntax-ns#"
   xmlns:svg="http://www.w3.org/2000/svg"
   xmlns="http://www.w3.org/2000/svg"
   xmlns:sodipodi="http://sodipodi.sourceforge.net/DTD/sodipodi-0.dtd"
   xmlns:inkscape="http://www.inkscape.org/namespaces/inkscape"
   width="76.181969"
   height="200"
   version="1.1"
   id="svg257"
   sodipodi:docname="controller.svg"
   inkscape:export-filename="C:\Users\ReenigneArcher\LaunchBox\Themes\RecalBigBox\Resources\Platforms\Final Burn Alpha - Libretro\controller.png"
   inkscape:export-xdpi="129.60001"
   inkscape:export-ydpi="129.60001"
   inkscape:version="0.92.4 (5da689c313, 2019-01-14)">
  <metadata
     id="metadata261">
    <rdf:RDF>
      <cc:Work
         rdf:about="">
        <dc:format>image/svg+xml</dc:format>
        <dc:type
           rdf:resource="http://purl.org/dc/dcmitype/StillImage" />
      </cc:Work>
    </rdf:RDF>
  </metadata>
  <sodipodi:namedview
     pagecolor="#ffffff"
     bordercolor="#666666"
     borderopacity="1"
     objecttolerance="10"
     gridtolerance="10"
     guidetolerance="10"
     inkscape:pageopacity="0"
     inkscape:pageshadow="2"
     inkscape:window-width="1920"
     inkscape:window-height="1017"
     id="namedview259"
     showgrid="false"
     inkscape:zoom="1.18"
     inkscape:cx="38.090984"
     inkscape:cy="100"
     inkscape:window-x="-8"
     inkscape:window-y="-8"
     inkscape:window-maximized="1"
     inkscape:current-layer="svg257" />
  <defs
     id="defs121">
    <clipPath
       id="c">
      <path
         d="M0 445.559h168.322V0H0v445.559z"
         id="path2" />
    </clipPath>
    <clipPath
       id="d">
      <path
         d="M91.6221 364.864h53.0619v-53.061H91.6221v53.061z"
         id="path5" />
    </clipPath>
    <clipPath
       id="e">
      <path
         d="M92.3097 364.024h51.5343V312.49H92.3097v51.534z"
         id="path8" />
    </clipPath>
    <clipPath
       id="f">
      <path
         d="M84.911 371.422h66.331v-66.331H84.911v66.331z"
         id="path11" />
    </clipPath>
    <clipPath
       id="g">
      <path
         d="M7.99342 160.329H162.206V6.11584H7.99342V160.329z"
         id="path14" />
    </clipPath>
    <linearGradient
       id="h"
       x2="1"
       gradientTransform="matrix(18.023741,-18.023741,18.023741,18.023741,29.474789,171.34562)"
       gradientUnits="userSpaceOnUse">
      <stop
         offset="0"
         stop-color="#a6a8ab"
         id="stop17" />
      <stop
         offset="1"
         stop-color="#e6e7e8"
         id="stop19" />
    </linearGradient>
    <clipPath
       id="i">
      <path
         d="M0 445.559h168.322V0H0v445.559z"
         id="path22" />
    </clipPath>
    <clipPath
       id="j">
      <path
         d="M62.5988 105.659h44.8722V60.786H62.5988v44.873z"
         id="path25" />
    </clipPath>
    <clipPath
       id="k">
      <path
         d="M58.434 83.504c0 14.847 12.035 26.882 26.882 26.882 14.847 0 26.883-12.035 26.883-26.882 0-14.847-12.036-26.883-26.883-26.883S58.434 68.657 58.434 83.504m54.583-.346c0 15.49-12.557 28.047-28.047 28.047S56.923 98.648 56.923 83.158 69.48 55.111 84.97 55.111s28.047 12.557 28.047 28.047"
         id="path28" />
    </clipPath>
    <linearGradient
       id="a"
       x2="1"
       gradientTransform="matrix(39.664417,-39.664417,-39.664417,-39.664417,65.138191,102.98982)"
       gradientUnits="userSpaceOnUse">
      <stop
         offset="0"
         stop-opacity="0"
         stop-color="#fff"
         id="stop31" />
      <stop
         offset=".20751882"
         stop-color="#fff"
         id="stop33" />
      <stop
         offset=".5"
         stop-color="#fff"
         id="stop35" />
      <stop
         offset=".79248118"
         stop-color="#fff"
         id="stop37" />
      <stop
         offset="1"
         stop-opacity="0"
         stop-color="#fff"
         id="stop39" />
    </linearGradient>
    <mask
       id="m"
       width="1"
       height="1"
       x="0"
       y="0"
       maskUnits="userSpaceOnUse">
      <path
         fill="url(#a)"
         d="M-32768 32767h65535v-65535h-65535v65535z"
         id="path42" />
    </mask>
    <linearGradient
       id="l"
       x2="1"
       gradientTransform="matrix(39.664417,-39.664417,-39.664417,-39.664417,65.138191,102.98982)"
       gradientUnits="userSpaceOnUse">
      <stop
         offset="0"
         stop-color="#231f20"
         id="stop45" />
      <stop
         offset=".20751882"
         stop-color="#231f20"
         id="stop47" />
      <stop
         offset=".5"
         stop-color="#231f20"
         id="stop49" />
      <stop
         offset=".79248118"
         stop-color="#231f20"
         id="stop51" />
      <stop
         offset="1"
         stop-color="#231f20"
         id="stop53" />
    </linearGradient>
    <clipPath
       id="n">
      <path
         d="M111.507 82.812c0-14.847-12.036-26.883-26.882-26.883-14.847 0-26.883 12.036-26.883 26.883s12.036 26.883 26.883 26.883c14.846 0 26.882-12.036 26.882-26.883m-54.583.346c0-15.49 12.556-28.047 28.047-28.047 15.49 0 28.047 12.557 28.047 28.047s-12.557 28.047-28.047 28.047c-15.491 0-28.047-12.557-28.047-28.047"
         id="path56" />
    </clipPath>
    <linearGradient
       id="b"
       x2="1"
       gradientTransform="matrix(-39.664425,39.664425,39.664425,39.664425,104.80286,63.325817)"
       gradientUnits="userSpaceOnUse">
      <stop
         offset="0"
         stop-opacity="0"
         stop-color="#fff"
         id="stop59" />
      <stop
         offset=".5"
         stop-color="#fff"
         id="stop61" />
      <stop
         offset="1"
         stop-opacity="0"
         stop-color="#fff"
         id="stop63" />
    </linearGradient>
    <mask
       id="p"
       width="1"
       height="1"
       x="0"
       y="0"
       maskUnits="userSpaceOnUse">
      <path
         fill="url(#b)"
         d="M-32768 32767h65535v-65535h-65535v65535z"
         id="path66" />
    </mask>
    <linearGradient
       id="o"
       x2="1"
       gradientTransform="matrix(-39.664425,39.664425,39.664425,39.664425,104.80286,63.325817)"
       gradientUnits="userSpaceOnUse">
      <stop
         offset="0"
         stop-color="#fff"
         id="stop69" />
      <stop
         offset=".5"
         stop-color="#fff"
         id="stop71" />
      <stop
         offset="1"
         stop-color="#fff"
         id="stop73" />
    </linearGradient>
    <clipPath
       id="q">
      <path
         d="M91.9548 294.602h53.0622V241.54H91.9548v53.062z"
         id="path76" />
    </clipPath>
    <clipPath
       id="r">
      <path
         d="M92.6425 293.762h51.5335v-51.534H92.6425v51.534z"
         id="path79" />
    </clipPath>
    <clipPath
       id="s">
      <path
         d="M85.2437 301.16h66.3313v-66.331H85.2437v66.331z"
         id="path82" />
    </clipPath>
    <clipPath
       id="t">
      <path
         d="M91.1369 435.126h53.0621v-53.061H91.1369v53.061z"
         id="path85" />
    </clipPath>
    <clipPath
       id="u">
      <path
         d="M91.8246 434.286h51.5334v-51.534H91.8246v51.534z"
         id="path88" />
    </clipPath>
    <clipPath
       id="v">
      <path
         d="M84.4258 441.684h66.3312v-66.331H84.4258v66.331z"
         id="path91" />
    </clipPath>
    <clipPath
       id="w">
      <path
         d="M27.5181 329.248h53.0618v-53.062H27.5181v53.062z"
         id="path94" />
    </clipPath>
    <clipPath
       id="x">
      <path
         d="M28.2057 328.408h51.5337v-51.534H28.2057v51.534z"
         id="path97" />
    </clipPath>
    <clipPath
       id="y">
      <path
         d="M20.8069 335.806h66.3314v-66.331H20.8069v66.331z"
         id="path100" />
    </clipPath>
    <clipPath
       id="z">
      <path
         d="M27.0329 399.51h53.0618v-53.062H27.0329v53.062z"
         id="path103" />
    </clipPath>
    <clipPath
       id="A">
      <path
         d="M27.7205 398.67h51.5338v-51.534H27.7205v51.534z"
         id="path106" />
    </clipPath>
    <clipPath
       id="B">
      <path
         d="M20.3217 406.068h66.3314v-66.331H20.3217v66.331z"
         id="path109" />
    </clipPath>
    <clipPath
       id="C">
      <path
         d="M26.9564 258.304h53.0619v-53.062H26.9564v53.062z"
         id="path112" />
    </clipPath>
    <clipPath
       id="D">
      <path
         d="M27.644 257.464h51.5338V205.93H27.644v51.534z"
         id="path115" />
    </clipPath>
    <clipPath
       id="E">
      <path
         d="M20.2453 264.862h66.3314v-66.331H20.2453v66.331z"
         id="path118" />
    </clipPath>
  </defs>
  <g
     clip-path="url(#c)"
     transform="matrix(0.45259795,0,0,-0.45259795,0,200)"
     id="g149">
    <path
       fill="#c0392b"
       d="M118.153 305.0354c-18.39 0-33.298 14.908-33.298 33.298s14.908 33.298 33.298 33.298 33.298-14.908 33.298-33.298-14.908-33.298-33.298-33.298"
       id="path123" />
    <g
       clip-path="url(#d)"
       opacity=".30000299"
       id="g127">
      <path
         fill="#c0392b"
         d="M118.153 311.8026c-14.653 0-26.531 11.878-26.531 26.531 0 14.652 11.878 26.531 26.531 26.531 14.653 0 26.531-11.879 26.531-26.531 0-14.653-11.878-26.531-26.531-26.531"
         id="path125" />
    </g>
    <path
       fill="#c0392b"
       d="M118.0767 312.4901c-14.231 0-25.767 11.536-25.767 25.767s11.536 25.767 25.767 25.767 25.767-11.536 25.767-25.767-11.536-25.767-25.767-25.767"
       id="path129" />
    <path
       fill="#c0392b"
       d="M118.0767 312.4901c-14.231 0-25.767 11.536-25.767 25.767s11.536 25.767 25.767 25.767 25.767-11.536 25.767-25.767-11.536-25.767-25.767-25.767"
       id="path131" />
    <g
       clip-path="url(#e)"
       opacity=".19999701"
       id="g135">
      <path
         fill="#c0392b"
         d="M93.6971 338.575c0 13.64 11.057 24.697 24.697 24.697 13.64 0 24.698-11.057 24.698-24.697 0-13.64-11.058-24.698-24.698-24.698s-24.697 11.058-24.697 24.698m50.146-.318c0 14.231-11.536 25.767-25.766 25.767-14.231 0-25.767-11.536-25.767-25.767s11.536-25.767 25.767-25.767c14.23 0 25.766 11.536 25.766 25.767"
         id="path133" />
    </g>
    <g
       clip-path="url(#f)"
       opacity=".14999402"
       id="g139">
      <path
         fill="#c0392b"
         d="M86.6967 338.666c0 17.557 14.233 31.789 31.789 31.789 17.557 0 31.789-14.232 31.789-31.789 0-17.556-14.232-31.789-31.789-31.789-17.556 0-31.789 14.233-31.789 31.789m64.546-.409c0 18.317-14.849 33.166-33.166 33.166-18.317 0-33.166-14.849-33.166-33.166 0-18.317 14.849-33.165 33.166-33.165 18.317 0 33.166 14.848 33.166 33.165"
         id="path137" />
    </g>
    <path
       fill="#231f20"
       d="M85.0995 0c-45.962 0-83.222 37.26-83.222 83.222 0 45.963 37.26 83.222 83.222 83.222 45.962 0 83.222-37.259 83.222-83.222 0-45.962-37.26-83.222-83.222-83.222"
       id="path141" />
    <g
       clip-path="url(#g)"
       opacity=".10000598"
       id="g145">
      <path
         fill="#84849b"
         d="M85.0992 6.1158l16.896 16.323h-8.253v18.674h-17.286v-18.674h-8.252l16.895-16.323zm54.5228 22.5835l.405 23.489-5.835-5.835-13.205 13.204-12.223-12.223 13.205-13.204-5.836-5.836 23.489.405zm22.5841 54.5222l-16.323 16.896v-8.252h-18.674v-17.287h18.674v-8.252l16.323 16.895zm-22.5834 54.5226l-23.489.405 5.835-5.835-13.205-13.205 12.224-12.223 13.204 13.205 5.836-5.835-.405 23.488zm-54.5222 22.5844l-16.896-16.322h8.252v-18.675h17.287v18.674l8.252.001-16.895 16.322zm-54.5226-22.5832l-.405-23.489 5.835 5.835 13.205-13.205 12.223 12.223-13.205 13.205 5.835 5.836-23.488-.405zM7.9934 83.223l16.322-16.895v8.251h18.675v17.286h-18.674l-.001 8.253-16.322-16.895zm22.5833-54.5226l23.489-.405-5.835 5.835 13.205 13.205-12.223 12.223-13.205-13.205-5.836 5.835.405-23.488z"
         id="path143" />
    </g>
    <path
       fill="#6d6e70"
       d="M84.1609.0119c-45.529.504-82.284 37.562-82.284 83.21 0 45.649 36.755 82.707 82.284 83.211-.313.003-.625.012-.939.012-45.962 0-83.222-37.26-83.222-83.223 0-45.962 37.26-83.222 83.222-83.222.314 0 .626.009.939.012"
       id="path147" />
  </g>
  <path
     fill="url(#h)"
     d="M25.741961 162.33389c0 7.03835 5.706355 12.74471 12.744705 12.74471 7.038804 0 12.744706-5.70636 12.744706-12.74471 0-7.0388-5.705902-12.7447-12.744706-12.7447-7.03835 0-12.744705 5.7059-12.744705 12.7447"
     id="path151" />
  <g
     clip-path="url(#i)"
     transform="matrix(0.45259795,0,0,-0.45259795,0,200)"
     id="g255">
    <g
       clip-path="url(#j)"
       opacity=".30000299"
       id="g155">
      <path
         fill="#231f20"
         d="M85.035 60.786c-12.391 0-22.436 10.045-22.436 22.436s10.045 22.437 22.436 22.437 22.436-10.046 22.436-22.437c0-12.391-10.045-22.436-22.436-22.436"
         id="path153" />
    </g>
    <g
       clip-path="url(#k)"
       opacity=".14999402"
       id="g159">
      <path
         fill="url(#l)"
         d="M58.434 83.504c0 14.847 12.035 26.882 26.882 26.882 14.847 0 26.883-12.035 26.883-26.882 0-14.847-12.036-26.883-26.883-26.883S58.434 68.657 58.434 83.504m54.583-.346c0 15.49-12.557 28.047-28.047 28.047S56.923 98.648 56.923 83.158 69.48 55.111 84.97 55.111s28.047 12.557 28.047 28.047"
         mask="url(#m)"
         id="path157" />
    </g>
    <g
       clip-path="url(#n)"
       opacity=".39999402"
       id="g163">
      <path
         fill="url(#o)"
         d="M111.507 82.812c0-14.847-12.036-26.883-26.882-26.883-14.847 0-26.883 12.036-26.883 26.883s12.036 26.883 26.883 26.883c14.846 0 26.882-12.036 26.882-26.883m-54.583.346c0-15.49 12.556-28.047 28.047-28.047 15.49 0 28.047 12.557 28.047 28.047s-12.557 28.047-28.047 28.047c-15.491 0-28.047-12.557-28.047-28.047"
         mask="url(#p)"
         id="path161" />
    </g>
    <path
       fill="#c0392b"
       d="M118.4858 234.7732c-18.39 0-33.298 14.908-33.298 33.298s14.908 33.298 33.298 33.298 33.298-14.908 33.298-33.298-14.908-33.298-33.298-33.298"
       id="path165" />
    <g
       clip-path="url(#q)"
       opacity=".30000299"
       id="g169">
      <path
         fill="#c0392b"
         d="M118.4858 241.5404c-14.653 0-26.531 11.878-26.531 26.531 0 14.652 11.878 26.531 26.531 26.531 14.653 0 26.531-11.879 26.531-26.531 0-14.653-11.878-26.531-26.531-26.531"
         id="path167" />
    </g>
    <path
       fill="#c0392b"
       d="M118.4094 242.2279c-14.231 0-25.767 11.536-25.767 25.767s11.536 25.767 25.767 25.767 25.767-11.536 25.767-25.767-11.536-25.767-25.767-25.767"
       id="path171" />
    <path
       fill="#c0392b"
       d="M118.4094 242.2279c-14.231 0-25.767 11.536-25.767 25.767s11.536 25.767 25.767 25.767 25.767-11.536 25.767-25.767-11.536-25.767-25.767-25.767"
       id="path173" />
    <g
       clip-path="url(#r)"
       opacity=".19999701"
       id="g177">
      <path
         fill="#c0392b"
         d="M94.0298 268.3128c0 13.64 11.057 24.697 24.697 24.697 13.64 0 24.698-11.057 24.698-24.697 0-13.64-11.058-24.698-24.698-24.698s-24.697 11.058-24.697 24.698m50.146-.318c0 14.231-11.536 25.767-25.766 25.767-14.231 0-25.767-11.536-25.767-25.767s11.536-25.767 25.767-25.767c14.23 0 25.766 11.536 25.766 25.767"
         id="path175" />
    </g>
    <g
       clip-path="url(#s)"
       opacity=".14999402"
       id="g181">
      <path
         fill="#c0392b"
         d="M87.0294 268.4037c0 17.557 14.233 31.789 31.789 31.789 17.557 0 31.789-14.232 31.789-31.789 0-17.556-14.232-31.789-31.789-31.789-17.556 0-31.789 14.233-31.789 31.789m64.546-.409c0 18.317-14.849 33.166-33.166 33.166-18.317 0-33.166-14.849-33.166-33.166 0-18.317 14.849-33.165 33.166-33.165 18.317 0 33.166 14.848 33.166 33.165"
         id="path179" />
    </g>
    <path
       fill="#c0392b"
       d="M117.6679 375.2973c-18.39 0-33.298 14.908-33.298 33.298s14.908 33.298 33.298 33.298 33.298-14.908 33.298-33.298-14.908-33.298-33.298-33.298"
       id="path183" />
    <g
       clip-path="url(#t)"
       opacity=".30000299"
       id="g187">
      <path
         fill="#c0392b"
         d="M117.6679 382.0645c-14.653 0-26.531 11.878-26.531 26.531 0 14.652 11.878 26.531 26.531 26.531 14.653 0 26.531-11.879 26.531-26.531 0-14.653-11.878-26.531-26.531-26.531"
         id="path185" />
    </g>
    <path
       fill="#c0392b"
       d="M117.5915 382.752c-14.231 0-25.767 11.536-25.767 25.767s11.536 25.767 25.767 25.767 25.767-11.536 25.767-25.767-11.536-25.767-25.767-25.767"
       id="path189" />
    <g
       clip-path="url(#u)"
       opacity=".19999701"
       id="g193">
      <path
         fill="#c0392b"
         d="M93.2119 408.837c0 13.64 11.057 24.697 24.697 24.697 13.64 0 24.698-11.057 24.698-24.697 0-13.64-11.058-24.698-24.698-24.698s-24.697 11.058-24.697 24.698m50.146-.318c0 14.231-11.536 25.767-25.766 25.767-14.231 0-25.767-11.536-25.767-25.767s11.536-25.767 25.767-25.767c14.23 0 25.766 11.536 25.766 25.767"
         id="path191" />
    </g>
    <g
       clip-path="url(#v)"
       opacity=".14999402"
       id="g197">
      <path
         fill="#c0392b"
         d="M86.2115 408.9279c0 17.557 14.233 31.789 31.789 31.789 17.557 0 31.789-14.232 31.789-31.789 0-17.556-14.232-31.789-31.789-31.789-17.556 0-31.789 14.233-31.789 31.789m64.546-.409c0 18.317-14.849 33.166-33.166 33.166-18.317 0-33.166-14.849-33.166-33.166 0-18.317 14.849-33.165 33.166-33.165 18.317 0 33.166 14.848 33.166 33.165"
         id="path195" />
    </g>
    <path
       fill="#c0392b"
       d="M54.049 269.4192c-18.39 0-33.298 14.908-33.298 33.298s14.908 33.298 33.298 33.298 33.298-14.908 33.298-33.298-14.908-33.298-33.298-33.298"
       id="path199" />
    <g
       clip-path="url(#w)"
       opacity=".30000299"
       id="g203">
      <path
         fill="#c0392b"
         d="M54.049 276.1864c-14.653 0-26.531 11.878-26.531 26.531 0 14.652 11.878 26.531 26.531 26.531 14.653 0 26.531-11.879 26.531-26.531 0-14.653-11.878-26.531-26.531-26.531"
         id="path201" />
    </g>
    <path
       fill="#c0392b"
       d="M53.9726 276.8739c-14.231 0-25.767 11.536-25.767 25.767s11.536 25.767 25.767 25.767 25.767-11.536 25.767-25.767-11.536-25.767-25.767-25.767"
       id="path205" />
    <path
       fill="#c0392b"
       d="M53.9726 276.8739c-14.231 0-25.767 11.536-25.767 25.767s11.536 25.767 25.767 25.767 25.767-11.536 25.767-25.767-11.536-25.767-25.767-25.767"
       id="path207" />
    <g
       clip-path="url(#x)"
       opacity=".19999701"
       id="g211">
      <path
         fill="#c0392b"
         d="M29.593 302.9589c0 13.64 11.057 24.697 24.697 24.697 13.64 0 24.698-11.057 24.698-24.697 0-13.64-11.058-24.698-24.698-24.698s-24.697 11.058-24.697 24.698m50.146-.318c0 14.231-11.536 25.767-25.766 25.767-14.231 0-25.767-11.536-25.767-25.767s11.536-25.767 25.767-25.767c14.23 0 25.766 11.536 25.766 25.767"
         id="path209" />
    </g>
    <g
       clip-path="url(#y)"
       opacity=".14999402"
       id="g215">
      <path
         fill="#c0392b"
         d="M22.5926 303.0498c0 17.557 14.233 31.789 31.789 31.789 17.557 0 31.789-14.232 31.789-31.789 0-17.556-14.232-31.789-31.789-31.789-17.556 0-31.789 14.233-31.789 31.789m64.546-.409c0 18.317-14.849 33.166-33.166 33.166-18.317 0-33.166-14.849-33.166-33.166 0-18.317 14.849-33.165 33.166-33.165 18.317 0 33.166 14.848 33.166 33.165"
         id="path213" />
    </g>
    <path
       fill="#c0392b"
       d="M53.5638 339.6811c-18.39 0-33.298 14.908-33.298 33.298s14.908 33.298 33.298 33.298 33.298-14.908 33.298-33.298-14.908-33.298-33.298-33.298"
       id="path217" />
    <g
       clip-path="url(#z)"
       opacity=".30000299"
       id="g221">
      <path
         fill="#c0392b"
         d="M53.5638 346.4483c-14.653 0-26.531 11.878-26.531 26.531 0 14.652 11.878 26.531 26.531 26.531 14.653 0 26.531-11.879 26.531-26.531 0-14.653-11.878-26.531-26.531-26.531"
         id="path219" />
    </g>
    <path
       fill="#c0392b"
       d="M53.4874 347.1358c-14.231 0-25.767 11.536-25.767 25.767s11.536 25.767 25.767 25.767 25.767-11.536 25.767-25.767-11.536-25.767-25.767-25.767"
       id="path223" />
    <path
       fill="#c0392b"
       d="M53.4874 347.1358c-14.231 0-25.767 11.536-25.767 25.767s11.536 25.767 25.767 25.767 25.767-11.536 25.767-25.767-11.536-25.767-25.767-25.767"
       id="path225" />
    <g
       clip-path="url(#A)"
       opacity=".19999701"
       id="g229">
      <path
         fill="#c0392b"
         d="M29.1078 373.2208c0 13.64 11.057 24.697 24.697 24.697 13.64 0 24.698-11.057 24.698-24.697 0-13.64-11.058-24.698-24.698-24.698s-24.697 11.058-24.697 24.698m50.146-.318c0 14.231-11.536 25.767-25.766 25.767-14.231 0-25.767-11.536-25.767-25.767s11.536-25.767 25.767-25.767c14.23 0 25.766 11.536 25.766 25.767"
         id="path227" />
    </g>
    <g
       clip-path="url(#B)"
       opacity=".14999402"
       id="g233">
      <path
         fill="#c0392b"
         d="M22.1074 373.3117c0 17.557 14.233 31.789 31.789 31.789 17.557 0 31.789-14.232 31.789-31.789 0-17.556-14.232-31.789-31.789-31.789-17.556 0-31.789 14.233-31.789 31.789m64.546-.409c0 18.317-14.849 33.166-33.166 33.166-18.317 0-33.166-14.849-33.166-33.166 0-18.317 14.849-33.165 33.166-33.165 18.317 0 33.166 14.848 33.166 33.165"
         id="path231" />
    </g>
    <path
       fill="#c0392b"
       d="M53.4874 198.475c-18.39 0-33.298 14.908-33.298 33.298s14.908 33.298 33.298 33.298 33.298-14.908 33.298-33.298-14.908-33.298-33.298-33.298"
       id="path235" />
    <g
       clip-path="url(#C)"
       opacity=".30000299"
       id="g239">
      <path
         fill="#c0392b"
         d="M53.4874 205.2422c-14.653 0-26.531 11.878-26.531 26.531 0 14.652 11.878 26.531 26.531 26.531 14.653 0 26.531-11.879 26.531-26.531 0-14.653-11.878-26.531-26.531-26.531"
         id="path237" />
    </g>
    <path
       fill="#c0392b"
       d="M53.411 205.9297c-14.231 0-25.767 11.536-25.767 25.767s11.536 25.767 25.767 25.767 25.767-11.536 25.767-25.767-11.536-25.767-25.767-25.767"
       id="path241" />
    <path
       fill="#c0392b"
       d="M53.411 205.9297c-14.231 0-25.767 11.536-25.767 25.767s11.536 25.767 25.767 25.767 25.767-11.536 25.767-25.767-11.536-25.767-25.767-25.767"
       id="path243" />
    <g
       clip-path="url(#D)"
       opacity=".19999701"
       id="g247">
      <path
         fill="#c0392b"
         d="M29.0314 232.0147c0 13.64 11.057 24.697 24.697 24.697 13.64 0 24.698-11.057 24.698-24.697 0-13.64-11.058-24.698-24.698-24.698s-24.697 11.058-24.697 24.698m50.146-.318c0 14.231-11.536 25.767-25.766 25.767-14.231 0-25.767-11.536-25.767-25.767s11.536-25.767 25.767-25.767c14.23 0 25.766 11.536 25.766 25.767"
         id="path245" />
    </g>
    <g
       clip-path="url(#E)"
       opacity=".14999402"
       id="g251">
      <path
         fill="#c0392b"
         d="M22.031 232.1056c0 17.557 14.233 31.789 31.789 31.789 17.557 0 31.789-14.232 31.789-31.789 0-17.556-14.232-31.789-31.789-31.789-17.556 0-31.789 14.233-31.789 31.789m64.546-.409c0 18.317-14.849 33.165-33.166 33.165-18.317 0-33.166-14.848-33.166-33.165s14.849-33.165 33.166-33.165c18.317 0 33.166 14.848 33.166 33.165"
         id="path249" />
    </g>
    <path
       fill="#c0392b"
       d="M144.8838 83.5414c0-21.526-17.45-38.977-38.977-38.977-21.526 0-38.976 17.451-38.976 38.977 0 21.526 17.45 38.977 38.976 38.977 21.527 0 38.977-17.451 38.977-38.977"
       id="path253" />
  </g>
</svg>
