<?xml version="1.0" encoding="UTF-8" standalone="no"?>
<svg
   xmlns:dc="http://purl.org/dc/elements/1.1/"
   xmlns:cc="http://creativecommons.org/ns#"
   xmlns:rdf="http://www.w3.org/1999/02/22-rdf-syntax-ns#"
   xmlns:svg="http://www.w3.org/2000/svg"
   xmlns="http://www.w3.org/2000/svg"
   xmlns:sodipodi="http://sodipodi.sourceforge.net/DTD/sodipodi-0.dtd"
   xmlns:inkscape="http://www.inkscape.org/namespaces/inkscape"
   viewBox="0 0 458.415 138.216"
   version="1.1"
   id="svg18"
   sodipodi:docname="logo.svg"
   inkscape:export-filename="C:\Users\ReenigneArcher\LaunchBox\Themes\RecalBigBox\Resources\Platforms\Sega Naomi 2\logo.png"
   inkscape:export-xdpi="101.77677"
   inkscape:export-ydpi="101.77677"
   inkscape:version="0.92.4 (5da689c313, 2019-01-14)">
  <metadata
     id="metadata24">
    <rdf:RDF>
      <cc:Work
         rdf:about="">
        <dc:format>image/svg+xml</dc:format>
        <dc:type
           rdf:resource="http://purl.org/dc/dcmitype/StillImage" />
      </cc:Work>
    </rdf:RDF>
  </metadata>
  <defs
     id="defs22" />
  <sodipodi:namedview
     pagecolor="#ffffff"
     bordercolor="#666666"
     borderopacity="1"
     objecttolerance="10"
     gridtolerance="10"
     guidetolerance="10"
     inkscape:pageopacity="0"
     inkscape:pageshadow="2"
     inkscape:window-width="1920"
     inkscape:window-height="1017"
     id="namedview20"
     showgrid="false"
     inkscape:zoom="0.61952596"
     inkscape:cx="229.2075"
     inkscape:cy="69.108002"
     inkscape:window-x="-8"
     inkscape:window-y="-8"
     inkscape:window-maximized="1"
     inkscape:current-layer="svg18" />
  <text
     transform="translate(412.302 85.018)"
     fill="#c23435"
     font-family="ArialMT"
     font-size="1"
     id="text2">I don’t like bugs!</text>
  <path
     fill="#070308"
     d="M78.587 86.399V2.067H64.569l.229 54.229L0 2.757l.229 84.561h12.18V32.631l66.178 53.768M87.547 87.776l10.798-18.381h-9.882V56.528h16.316l29.642-53.771 47.336 85.019h-16.775l-9.65-18.381h-42.049L103.17 87.776H87.547m31.48-31.48h30.33l-15.164-27.802-15.166 27.802M301.704 87.776h-13.788V2.988l46.877 54.459L382.127 1.84v85.936h-14.706l-.229-46.185-32.63 39.292-32.858-39.063v45.956M409.012.917h13.786v86.86h-13.786zM435.895 15.393V3.215h-3.907V.917h10.803v2.298h-4.137v12.178z"
     id="path4" />
  <path
     d="M181.298 46.185C181.298 20.682 201.98 0 227.485 0s46.185 20.682 46.185 46.185c0 25.508-20.68 46.188-46.185 46.188s-46.187-20.679-46.187-46.188m46.187 32.399c17.923 0 32.399-14.476 32.399-32.399 0-17.691-14.476-32.17-32.399-32.17-17.694 0-32.172 14.479-32.172 32.17 0 17.923 14.479 32.399 32.172 32.399"
     fill="#c85433"
     id="path6" />
  <path
     fill="#070308"
     d="M451.522 15.323l-4.139-9.349v9.419h-2.757V.917h2.989l3.907 8.965 3.905-8.881h2.988v14.476h-2.757V6.059z"
     id="path8" />
  <g
     id="g16">
    <path
       fill-rule="evenodd"
       clip-rule="evenodd"
       fill="#c85433"
       d="M0 101.613h422.799v36.603H0z"
       id="path10" />
    <g
       fill="#fff"
       id="g14">
      <path
         d="M28.365 116.67v-.063c0-1.074-.323-1.808-.97-2.204-.646-.396-2.106-.596-4.379-.596h-4.144c-2.429 0-3.986.293-4.668.876-.684.585-1.025 1.82-1.025 3.707v3.236c0 1.68.386 2.831 1.157 3.457s2.294.938 4.566.938h4.113c2.043 0 3.451-.185 4.222-.556.771-.369 1.157-1.008 1.157-1.915 0-.125-.021-.334-.063-.626v-.077h-8.367v-4.708h15.764v7.648c0 2.189-.811 3.744-2.432 4.668-1.621.922-4.444 1.384-8.468 1.384h-7.913c-2.429 0-4.222-.131-5.38-.392-1.157-.259-2.137-.703-2.94-1.329a6.464 6.464 0 01-2.049-2.729c-.427-1.08-.641-2.443-.641-4.09v-6.349c0-3.336.79-5.664 2.369-6.982 1.58-1.32 4.45-1.979 8.609-1.979h7.944c2.565 0 4.457.116 5.677.346 1.22.229 2.179.615 2.877 1.156.73.563 1.269 1.323 1.619 2.276.349.955.524 2.151.524 3.589 0 .344-.003.611-.008.798-.005.188-.013.359-.023.515h-7.128zM68.228 110.14c-1.616-1.245-4.202-1.868-7.757-1.868H40.047v23.285h22.504c2.815 0 4.869-.597 6.162-1.79 1.293-1.195 1.939-3.083 1.939-5.669v-8.007c0-2.722-.808-4.704-2.424-5.951zm-4.676 11.941c0 1.314-.349 2.279-1.048 2.894-.699.615-1.804.922-3.315.922H47.147v-11.885h11.15c1.804 0 3.13.32 3.98.962.849.64 1.274 1.644 1.274 3.01v4.097zM74.952 120.22h10.54v5.958h-10.54zM113.587 122.362c1.397-.334 2.393-.99 2.987-1.97.594-.98.891-2.475.891-4.488 0-2.898-.667-4.896-2.002-5.99s-3.847-1.641-7.538-1.641H89.222v23.285h7.131V125.6h10.603c1.272 0 2.124.171 2.557.515.432.344.649.976.649 1.891v3.551h7.116v-4.769c0-1.178-.308-2.137-.923-2.877-.615-.74-1.538-1.257-2.768-1.549zm-3.934-3.26c-.381.442-1.045.664-1.994.664H96.353v-5.692h11.307c.897 0 1.548.209 1.955.626.407.417.61 1.084.61 2.002 0 1.156-.191 1.956-.572 2.4zM152.347 112.306c-.402-1.135-1.035-2.032-1.9-2.69-.772-.582-1.812-1.001-3.12-1.251s-3.286-.375-5.934-.375h-8.367c-2.638 0-4.605.125-5.904.375-1.297.25-2.338.669-3.12 1.251-.897.669-1.543 1.57-1.939 2.706-.396 1.136-.594 2.679-.594 4.629v6.349c0 1.783.198 3.214.594 4.292a5.59 5.59 0 001.939 2.62c.792.594 1.819 1.014 3.081 1.259 1.261.246 3.253.368 5.974.368h8.335c2.69 0 4.676-.122 5.958-.368 1.282-.244 2.315-.664 3.096-1.259.865-.667 1.498-1.561 1.9-2.682.401-1.12.602-2.577.602-4.37v-6.491c.001-1.772-.2-3.225-.601-4.363zm-6.607 9.258c0 1.711-.412 2.88-1.235 3.512-.824.63-2.492.946-5.004.946h-4.52c-2.502 0-4.173-.313-5.013-.938-.839-.626-1.258-1.777-1.258-3.457v-3.236c0-1.783.399-2.992 1.196-3.628.798-.636 2.479-.955 5.044-.955h4.551c2.513 0 4.181.316 5.004.947.824.63 1.235 1.801 1.235 3.51v3.299zM164.162 131.557h-6.912v-23.284h10.493l8.304 14.542 8.445-14.542h10.352v23.284h-6.88v-16.591l-9.618 16.591h-4.645l-9.539-16.591zM219.531 123.816l7.022-.015v.423c0 .876.214 1.467.641 1.774.427.308 1.324.462 2.69.462h8.93c.876 0 1.501-.149 1.877-.445.375-.298.563-.789.563-1.477 0-.699-.217-1.199-.649-1.501-.433-.302-1.364-.506-2.791-.611l-11.167-.25c-2.794-.083-4.684-.615-5.669-1.595-.986-.98-1.478-2.763-1.478-5.348 0-1.334.13-2.434.391-3.3.261-.864.678-1.583 1.251-2.157.678-.646 1.564-1.105 2.659-1.376 1.095-.271 2.877-.408 5.348-.408h10.854c2.69 0 4.626.492 5.809 1.472s1.775 2.569 1.775 4.769a13.093 13.093 0 01-.063 1.282h-6.85v-.094c0-.771-.195-1.349-.585-1.737-.393-.384-.979-.578-1.76-.578h-8.195c-1.366 0-2.268.136-2.705.407-.438.271-.657.746-.657 1.422 0 .669.198 1.15.594 1.448.396.296 1.126.487 2.189.57l11.698.188c2.669.073 4.547.672 5.636 1.798 1.09 1.126 1.635 3.05 1.635 5.771 0 1.616-.201 2.867-.602 3.753-.402.886-1.077 1.643-2.026 2.268-.626.396-1.474.679-2.55.852-1.072.171-2.627.258-4.659.258h-9.478c-3.889 0-6.49-.435-7.804-1.306-1.314-.87-1.97-2.493-1.97-4.87 0-.136.008-.363.023-.681.019-.321.042-.708.073-1.168zM270.106 131.557h-7.116v-8.367l-12.839-14.917h8.743l7.646 9.257 8.007-9.257h8.43l-12.871 14.917zM285.213 123.816l7.022-.015v.423c0 .876.213 1.467.64 1.774.427.308 1.324.462 2.69.462h8.93c.876 0 1.501-.149 1.877-.445.375-.298.563-.789.563-1.477 0-.699-.217-1.199-.649-1.501-.433-.302-1.364-.506-2.791-.611l-11.167-.25c-2.794-.083-4.683-.615-5.669-1.595-.986-.98-1.477-2.763-1.477-5.348 0-1.334.131-2.434.39-3.3.262-.864.679-1.583 1.251-2.157.679-.646 1.564-1.105 2.66-1.376 1.093-.271 2.877-.408 5.347-.408h10.855c2.69 0 4.626.492 5.809 1.472s1.775 2.569 1.775 4.769a13.093 13.093 0 01-.063 1.282h-6.85v-.094c0-.771-.195-1.349-.585-1.737-.393-.384-.979-.578-1.76-.578h-8.195c-1.366 0-2.267.136-2.705.407-.438.271-.658.746-.658 1.422 0 .669.2 1.15.596 1.448.396.296 1.126.487 2.189.57l11.698.188c2.669.073 4.547.672 5.636 1.798 1.09 1.126 1.635 3.05 1.635 5.771 0 1.616-.201 2.867-.602 3.753-.402.886-1.077 1.643-2.026 2.268-.626.396-1.474.679-2.55.852-1.072.171-2.627.258-4.659.258h-9.478c-3.887 0-6.489-.435-7.803-1.306-1.314-.87-1.97-2.493-1.97-4.87 0-.136.009-.363.024-.681.015-.321.038-.708.07-1.168zM334.298 131.557h-7.1V113.98h-9.742v-5.707h26.586v5.707h-9.744zM374.274 113.949H355.93v3.519h17.28v4.894h-17.28v3.566h18.627v5.629h-25.726v-23.284h25.443zM386.206 131.557h-6.911v-23.284h10.491l8.305 14.542 8.445-14.542h10.354v23.284h-6.881v-16.591l-9.618 16.591h-4.644l-9.541-16.591z"
         id="path12" />
    </g>
  </g>
</svg>
