<?xml version="1.0" encoding="UTF-8" standalone="no"?>
<svg
   xmlns:dc="http://purl.org/dc/elements/1.1/"
   xmlns:cc="http://creativecommons.org/ns#"
   xmlns:rdf="http://www.w3.org/1999/02/22-rdf-syntax-ns#"
   xmlns:svg="http://www.w3.org/2000/svg"
   xmlns="http://www.w3.org/2000/svg"
   xmlns:sodipodi="http://sodipodi.sourceforge.net/DTD/sodipodi-0.dtd"
   xmlns:inkscape="http://www.inkscape.org/namespaces/inkscape"
   viewBox="0 0 198.156 49.732"
   version="1.1"
   id="svg8"
   sodipodi:docname="logo.svg"
   inkscape:export-filename="C:\Users\ReenigneArcher\LaunchBox\Themes\RecalBigBox\Resources\Platforms\Microsoft MSX\logo.png"
   inkscape:export-xdpi="379.96576"
   inkscape:export-ydpi="379.96576"
   inkscape:version="0.92.4 (5da689c313, 2019-01-14)">
  <metadata
     id="metadata14">
    <rdf:RDF>
      <cc:Work
         rdf:about="">
        <dc:format>image/svg+xml</dc:format>
        <dc:type
           rdf:resource="http://purl.org/dc/dcmitype/StillImage" />
      </cc:Work>
    </rdf:RDF>
  </metadata>
  <defs
     id="defs12" />
  <sodipodi:namedview
     pagecolor="#ffffff"
     bordercolor="#666666"
     borderopacity="1"
     objecttolerance="10"
     gridtolerance="10"
     guidetolerance="10"
     inkscape:pageopacity="0"
     inkscape:pageshadow="2"
     inkscape:window-width="1920"
     inkscape:window-height="1017"
     id="namedview10"
     showgrid="false"
     inkscape:zoom="1.4332142"
     inkscape:cx="99.078003"
     inkscape:cy="24.865999"
     inkscape:window-x="-8"
     inkscape:window-y="-8"
     inkscape:window-maximized="1"
     inkscape:current-layer="svg8" />
  <text
     transform="translate(141.885 47.027)"
     fill="#b63735"
     font-family="ArialMT"
     font-size="1"
     id="text2">I don’t like bugs!</text>
  <path
     fill="#040006"
     d="M37.683 0h122.79v49.729H37.683z"
     id="path4" />
  <path
     d="M150.759 6.997l-11.674 17.05 12.697 18.628h-11.725l-6.977-9.972-7.033 9.996h-11.648c.316-.657 12.75-18.652 12.75-18.652l-5.3-7.373-22.482.026c-1.048.083-2.334-.235-2.86.947-.184.392-.263.969-.052 1.365.182.445.603.864 1.074.995l.708.053h8.999c4.17.105 8.028 2.7 9.836 6.452 1.602 3.149 1.366 7.451-.419 10.443-2.255 3.802-6.27 5.928-10.623 5.772H81.003S77.172 28.9 77.146 28.876l-3.857 13.851-9.128.002-3.673-13.906L56.473 42.7H46.374s9.286-33.421 9.89-35.626h8.528l4.013 14.901 4.092-14.901 8.368-.002 7.162 25.95h16.685c1.151-.055 2.753.259 3.226-1.155.184-.633.028-1.287-.419-1.733-.421-.368-.945-.471-1.495-.471l-8.971-.002c-4.25-.131-8.473-2.912-10.048-7.002-1.705-4.094-.708-9.001 2.413-12.17 2.203-2.209 4.826-3.311 7.898-3.441l29.434-.026 5.931 8.551 6.136-8.576h11.542z"
     fill="#fff"
     id="path6" />
</svg>
