<svg xmlns="http://www.w3.org/2000/svg" viewBox="0 0 537.287 286"><linearGradient id="a" gradientUnits="userSpaceOnUse" x1="193.333" y1="286" x2="193.333" y2="0"><stop offset="0" stop-color="#040006"/><stop offset=".08" stop-color="#191c21"/><stop offset=".92" stop-color="#191c21"/><stop offset="1" stop-color="#040006"/></linearGradient><path d="M383.844 286H2.823A2.823 2.823 0 010 283.177V2.823A2.823 2.823 0 012.823 0h381.021a2.823 2.823 0 012.823 2.823v280.354a2.823 2.823 0 01-2.823 2.823z" fill="url(#a)"/><g fill="#0c0a0c"><path d="M47.5 0h4.057v21.167H47.5zM55.959 0h4.057v21.167h-4.057zM64.418 0h4.057v21.167h-4.057zM72.877 0h4.057v21.167h-4.057zM81.336 0h4.057v21.167h-4.057zM89.796 0h4.057v21.167h-4.057zM98.255 0h4.057v21.167h-4.057zM106.714 0h4.057v21.167h-4.057zM115.173 0h4.057v21.167h-4.057zM123.632 0h4.057v21.167h-4.057zM132.091 0h4.057v21.167h-4.057zM140.55 0h4.057v21.167h-4.057zM149.009 0h4.057v21.167h-4.057zM157.468 0h4.057v21.167h-4.057zM165.928 0h4.057v21.167h-4.057zM174.387 0h4.057v21.167h-4.057zM182.846 0h4.057v21.167h-4.057zM191.305 0h4.057v21.167h-4.057zM199.764 0h4.057v21.167h-4.057zM208.223 0h4.057v21.167h-4.057zM216.682 0h4.057v21.167h-4.057zM225.141 0h4.057v21.167h-4.057zM233.6 0h4.057v21.167H233.6zM242.06 0h4.057v21.167h-4.057zM250.519 0h4.057v21.167h-4.057zM258.978 0h4.057v21.167h-4.057zM267.437 0h4.057v21.167h-4.057zM275.896 0h4.057v21.167h-4.057zM284.355 0h4.057v21.167h-4.057zM292.814 0h4.057v21.167h-4.057zM301.273 0h4.057v21.167h-4.057zM309.732 0h4.057v21.167h-4.057zM318.191 0h4.057v21.167h-4.057zM326.651 0h4.057v21.167h-4.057zM335.11 0h4.057v21.167h-4.057z"/></g><path d="M253.615 94.75H133.052a.701.701 0 01-.701-.701V55.451c0-.387.314-.701.701-.701h120.563c.387 0 .701.314.701.701V94.05a.702.702 0 01-.701.7z" fill="#111113"/><path d="M239.822 83.625h-92.977a.409.409 0 01-.409-.409V66.284c0-.226.183-.409.409-.409h92.977c.226 0 .409.183.409.409v16.931a.41.41 0 01-.409.41z" fill="#161517"/><path fill="#210f1a" d="M0 106.25h386.667V115H0zM0 141h386.667v8.75H0z"/><path fill="#141518" d="M0 257.25h386.667v2.375H0z"/><g fill="#141518"><path d="M.479 115h386.25v.691H.479zM.479 119.218h49.979v.691H.479zM296.18 119.218h10.265v.691H296.18zM336.208 119.218h50.521v.691h-50.521zM80.221 119.218h10.265v.691H80.221zM.479 123.436h386.25v.691H.479zM.479 127.654h386.25v.691H.479zM.479 131.872h386.25v.691H.479zM.479 136.09h386.25v.691H.479zM.479 140.309h386.25V141H.479z"/></g><g fill="#141518"><path d="M.479 149.75h386.25v.691H.479zM.479 158.186h386.25v.691H.479zM.479 162.404h386.25v.691H.479zM.479 166.622h386.25v.691H.479zM.479 170.84h386.25v.691H.479zM.479 175.059h386.25v.691H.479zM.479 153.968h49.979v.691H.479zM296.18 153.968h10.265v.691H296.18zM336.208 153.968h50.521v.691h-50.521zM80.221 153.968h10.265v.691H80.221zM120.25 153.968h146.167v.691H120.25z"/></g><path fill="#aaa9a9" d="M120.25 115h146.167v26H120.25z"/><g fill="#fff"><path d="M143.839 126.079c0 2.245-.446 4.063-1.336 5.455-1.123 1.74-2.851 2.602-5.184 2.584v-1.736c3.718.026 5.576-2.64 5.576-8 0-.548-.014-1.2-.044-1.957h.988v3.654zM144.159 122.425h1.612v11.693h-1.612zM152.611 134.118h-.116c-2.198 0-3.868-.892-5.01-2.675-.91-1.444-1.365-3.232-1.365-5.364v-3.654h.973c0 2.932.213 5.059.639 6.382.813 2.532 2.44 3.724 4.879 3.576v1.735z"/></g><path d="M165.749 134.098h-2.373l-.59-2.208h-3.206l-.616 2.208h-2.385l2.962-10.248a2.29 2.29 0 01.59-1.017c.269-.281.603-.428.987-.428.423 0 .795.147 1.116.455.321.308.539.682.667 1.124l2.848 10.114zm-3.604-4.348l-.949-5.004-1.052 5.004h2.001zm9.708-4.977h-2.078v9.325h-2.334v-9.325h-2.103v-2.194h6.515v2.194zm8.772 9.325h-2.373l-.59-2.208h-3.206l-.616 2.208h-2.385l2.962-10.248a2.29 2.29 0 01.59-1.017c.269-.281.603-.428.987-.428.423 0 .795.147 1.116.455.321.308.539.682.667 1.124l2.848 10.114zm-3.604-4.348l-.949-5.004-1.052 5.004h2.001zm11.927 4.348h-2.693l-2.27-4.536a5.626 5.626 0 01-.256-.602 1.393 1.393 0 01-.103-.415c0-.508.372-.923 1.141-1.244.757-.321 1.141-.736 1.141-1.217 0-.294-.103-.589-.321-.883-.218-.281-.449-.428-.705-.428h-1.334v9.325h-2.257v-9.954c0-.348.154-.696.462-1.03.308-.334.616-.495.923-.495h2.244c.872 0 1.642.334 2.296.99.654.669.987 1.432.987 2.301 0 .696-.192 1.284-.564 1.766-.372.482-.898.883-1.552 1.204l2.861 5.218zm3.219.04h-2.347v-11.519h2.347v11.519zM230.348 134.163c1.726 0 3.106-.592 4.141-1.775 1.085-1.233 1.627-2.613 1.627-4.141s-.592-2.909-1.775-4.092c-1.183-1.183-2.564-1.775-4.141-1.775-1.578 0-3.007.592-4.191 1.775-1.183 1.134-1.775 2.613-1.775 4.289 0 1.725.592 3.106 1.824 4.141 1.184 1.035 2.663 1.578 4.29 1.578zm-2.564-3.254c-.739-.641-1.085-1.479-1.085-2.465 0-.937.345-1.775 1.035-2.514.69-.739 1.528-1.085 2.564-1.085.887 0 1.676.345 2.366 1.035.69.69 1.035 1.479 1.035 2.366 0 1.085-.345 1.923-.937 2.613-.69.641-1.479.986-2.416.986-.984.001-1.872-.295-2.562-.936zM243.264 134.163c1.725 0 3.106-.592 4.141-1.775 1.085-1.233 1.627-2.613 1.627-4.141s-.592-2.909-1.775-4.092c-1.183-1.183-2.564-1.775-4.141-1.775-1.578 0-3.007.592-4.191 1.775-1.183 1.134-1.775 2.613-1.775 4.289 0 1.725.592 3.106 1.824 4.141 1.184 1.035 2.663 1.578 4.29 1.578zm-2.563-3.254c-.74-.641-1.085-1.479-1.085-2.465 0-.937.345-1.775 1.035-2.514.69-.739 1.528-1.085 2.564-1.085.887 0 1.676.345 2.366 1.035.69.69 1.035 1.479 1.035 2.366 0 1.085-.345 1.923-.937 2.613-.69.641-1.479.986-2.416.986-.985.001-1.872-.295-2.562-.936zM208.41 126.374h-2.133c.057-1.239.446-2.215 1.168-2.926.721-.711 1.646-1.066 2.777-1.066.697 0 1.313.147 1.848.441.533.294.961.719 1.281 1.273s.48 1.119.48 1.691c0 .683-.194 1.417-.583 2.203-.388.787-1.098 1.716-2.13 2.789l-1.289 1.359h4.096v2.023h-7.961v-1.047l3.555-3.625c.859-.87 1.431-1.569 1.715-2.098.283-.528.426-1.006.426-1.434 0-.442-.147-.809-.441-1.098-.295-.289-.674-.434-1.137-.434-.469 0-.859.175-1.172.523-.312.353-.479.827-.5 1.426zM221.382 127.798a3.402 3.402 0 011.593 2.915 3.48 3.48 0 01-.484 1.794 3.145 3.145 0 01-1.3 1.24c-.544.277-1.238.416-2.082.416-.905 0-1.624-.133-2.158-.4a3.058 3.058 0 01-1.281-1.214c-.32-.542-.48-1.153-.48-1.836 0-.59.129-1.128.385-1.614.256-.486.642-.92 1.155-1.301a3.686 3.686 0 01-.759-1.086 2.946 2.946 0 01-.255-1.215c0-.584.141-1.116.423-1.596.282-.48.678-.854 1.186-1.12.508-.267 1.095-.4 1.762-.4.656 0 1.233.134 1.731.404.499.269.891.652 1.178 1.147.287.495.431 1.028.431 1.597 0 .401-.075.773-.225 1.116-.15.341-.423.726-.82 1.153zm-2.28 1.141c-.514 0-.946.156-1.296.469s-.526.685-.526 1.117c0 .453.165.835.496 1.148.331.313.765.469 1.304.469.544 0 .977-.146 1.3-.439.323-.292.484-.67.484-1.133 0-.462-.168-.85-.503-1.163-.336-.312-.756-.468-1.259-.468zm-.084-4.5c-.351 0-.64.115-.866.346-.226.231-.339.526-.339.886s.119.662.358.905c.239.244.534.365.885.365.361 0 .657-.119.888-.357.232-.238.347-.547.347-.928 0-.36-.117-.653-.351-.878-.233-.226-.541-.339-.922-.339z" fill="#fff"/><path fill="none" stroke="#040006" stroke-width="1.026" stroke-miterlimit="10" d="M266.417 115h29.763v26h-29.763z"/><g fill="#fff"><path d="M271.034 116.733l1.511 5.081h-.922l-.306-1.132h-1.511l-.316 1.132h-.895l1.527-5.081h.912zm.051 3.117l-.509-1.865h-.012l-.525 1.865h1.046zM274.072 119.437v.868h-1.703v-.868h1.703zM277.348 116.733v.94h-2.133v1.088h1.957v.868h-1.957v1.246h2.178v.94h-3.066v-5.081h3.021z"/><path d="M277.245 116.733h1.03l.792 1.623.819-1.623h.974l-1.296 2.428 1.409 2.654h-1.059l-.882-1.758-.899 1.758h-.996l1.409-2.662-1.301-2.42z"/><path d="M282.716 116.733c.252 0 .467.046.645.139.177.093.321.214.433.367.111.152.192.326.243.519.051.195.076.397.076.605 0 .205-.025.405-.076.602a1.533 1.533 0 01-.243.523 1.24 1.24 0 01-.433.367 1.378 1.378 0 01-.645.138h-.934v1.823h-.889v-5.081h1.823zm-.243 2.392c.102 0 .199-.011.294-.029a.611.611 0 00.249-.11.565.565 0 00.172-.232.98.98 0 00.065-.392.976.976 0 00-.065-.39.565.565 0 00-.172-.232.611.611 0 00-.249-.11 1.417 1.417 0 00-.294-.029h-.69v1.523h.69zM287.252 116.733v.94h-2.133v1.088h1.958v.868h-1.958v1.246h2.179v.94h-3.066v-5.081h3.02zM289.64 116.733c.181 0 .344.037.489.111.145.073.27.173.373.302.104.128.183.277.237.445.055.168.082.349.082.544 0 .299-.05.559-.149.776a1.038 1.038 0 01-.489.499v.013a.656.656 0 01.271.175c.071.078.13.171.175.278.046.106.078.224.1.352.021.128.034.255.042.384l.012.285c.003.11.01.221.02.335.01.114.024.221.045.324a.837.837 0 00.094.259h-.889a2.402 2.402 0 01-.09-.577 11.264 11.264 0 00-.051-.641c-.03-.265-.095-.459-.192-.582-.099-.124-.259-.185-.481-.185h-.888v1.985h-.889v-5.081h2.178zm-.318 2.299c.204 0 .356-.057.458-.171.103-.114.153-.299.153-.556 0-.246-.051-.425-.153-.537-.102-.111-.254-.167-.458-.167h-.973v1.431h.973z"/><path d="M290.691 117.673v-.94h3.31v.94h-1.211v4.142h-.888v-4.142h-1.211z"/></g><path fill="none" stroke="#040006" stroke-width="1.026" stroke-miterlimit="10" d="M90.487 149.75h29.763v26H90.487zM306.445 149.75h29.763v26h-29.763zM266.417 149.75h29.763v26h-29.763z"/><g fill="#fff"><path d="M97.262 151.483c.253 0 .468.046.646.139.177.093.321.214.433.365.11.152.192.326.243.52.051.195.076.396.076.605 0 .204-.025.404-.076.601s-.133.372-.243.523a1.24 1.24 0 01-.433.367 1.38 1.38 0 01-.646.139h-.934v1.821h-.888v-5.08h1.822zm-.243 2.391c.102 0 .2-.009.294-.028a.601.601 0 00.249-.111.575.575 0 00.173-.23c.043-.101.064-.23.064-.392a1 1 0 00-.064-.392.597.597 0 00-.173-.232.613.613 0 00-.249-.11 1.481 1.481 0 00-.294-.028h-.69v1.522h.69zM100.373 151.483l1.511 5.08h-.922l-.306-1.132h-1.511l-.316 1.132h-.895l1.527-5.08h.912zm.051 3.116l-.509-1.864h-.012l-.525 1.864h1.046z"/><path d="M103.541 151.483c.261 0 .503.052.727.156.225.105.419.261.583.47s.292.47.385.782c.093.314.139.682.139 1.104 0 .369-.038.711-.113 1.024a2.496 2.496 0 01-.342.811 1.69 1.69 0 01-.572.536 1.588 1.588 0 01-.806.196H101.8v-5.08h1.741zm-.062 4.142a.92.92 0 00.374-.079.824.824 0 00.322-.259 1.4 1.4 0 00.227-.473c.056-.195.084-.432.084-.712 0-.255-.02-.487-.059-.694a1.602 1.602 0 00-.195-.531.931.931 0 00-.359-.338 1.18 1.18 0 00-.552-.118h-.634v3.203h.792zM107.297 151.483c.261 0 .503.052.727.156.225.105.419.261.583.47s.292.47.385.782c.093.314.139.682.139 1.104 0 .369-.038.711-.113 1.024a2.496 2.496 0 01-.342.811 1.69 1.69 0 01-.572.536 1.588 1.588 0 01-.806.196h-1.742v-5.08h1.741zm-.062 4.142a.92.92 0 00.374-.079.824.824 0 00.322-.259 1.4 1.4 0 00.227-.473c.056-.195.084-.432.084-.712 0-.255-.02-.487-.059-.694a1.602 1.602 0 00-.195-.531.931.931 0 00-.359-.338 1.18 1.18 0 00-.552-.118h-.634v3.203h.792zM110.199 151.483v4.142h1.969v.938h-2.857v-5.08h.888zM115.25 151.483v.938h-2.133v1.089h1.958v.868h-1.958v1.246h2.179v.938h-3.066v-5.08h3.02z"/></g><g fill="#fff"><path d="M272.423 155.433a.8.8 0 00.195.289.775.775 0 00.285.163c.109.036.223.054.34.054.079 0 .164-.008.255-.025a.756.756 0 00.254-.097.585.585 0 00.198-.195.581.581 0 00.079-.318.513.513 0 00-.104-.334c-.07-.086-.161-.158-.274-.214s-.241-.106-.385-.15a8.476 8.476 0 01-.436-.142c-.15-.048-.298-.106-.441-.175s-.271-.158-.385-.266a1.265 1.265 0 01-.274-.409 1.532 1.532 0 01-.104-.594c0-.261.045-.488.133-.68.089-.192.205-.352.349-.48.143-.127.305-.222.486-.285.181-.061.362-.093.543-.093.211 0 .414.03.608.09.193.058.366.155.518.287a1.4 1.4 0 01.358.51c.089.206.134.457.134.75h-.86a1.1 1.1 0 00-.076-.377.602.602 0 00-.419-.356 1.199 1.199 0 00-.303-.036.8.8 0 00-.215.029.523.523 0 00-.195.099.58.58 0 00-.144.177.57.57 0 00-.057.271c0 .099.015.18.045.242.03.061.09.118.179.171.088.052.211.103.367.156.156.052.361.118.614.199.075.02.18.054.313.103a1.404 1.404 0 01.741.676c.096.183.145.416.145.702 0 .232-.036.447-.107.647a1.427 1.427 0 01-.32.516 1.472 1.472 0 01-.525.338c-.21.081-.452.12-.728.12-.223 0-.438-.034-.647-.103s-.395-.176-.555-.323a1.571 1.571 0 01-.382-.563 2.05 2.05 0 01-.136-.811h.86c0 .173.024.319.073.437zM278.001 151.605v.938h-2.133v1.089h1.957v.868h-1.957v1.246h2.178v.938h-3.066v-5.08h3.021zM279.098 151.605v4.142h1.969v.938h-2.856v-5.08h.887zM284.149 151.605v.938h-2.133v1.089h1.957v.868h-1.957v1.246h2.178v.938h-3.066v-5.08h3.021zM286.949 152.96c-.053-.107-.119-.2-.198-.281s-.169-.144-.269-.189a.874.874 0 00-.823.078 1.08 1.08 0 00-.339.392c-.087.164-.15.349-.189.559a3.437 3.437 0 000 1.27c.039.201.103.383.189.544.086.161.199.29.339.388.14.097.31.146.51.146a.745.745 0 00.636-.314c.153-.208.246-.483.28-.825h.859a3.1 3.1 0 01-.175.86 2.133 2.133 0 01-.373.655c-.155.18-.336.318-.544.413a1.639 1.639 0 01-.684.142c-.31 0-.588-.068-.835-.203s-.455-.322-.625-.559c-.17-.237-.3-.516-.391-.837a3.804 3.804 0 01-.136-1.035c0-.38.046-.732.136-1.056.091-.326.221-.609.391-.851.17-.241.378-.432.625-.569a1.68 1.68 0 01.835-.206 1.644 1.644 0 011.162.474c.156.154.285.345.388.573.102.228.166.488.192.782h-.86a1.042 1.042 0 00-.101-.351zM287.798 152.543v-.938h3.31v.938h-1.211v4.142h-.888v-4.142h-1.211z"/></g><g fill="#fff"><path d="M315.336 151.605a1.072 1.072 0 01.862.413c.104.127.184.275.238.445.055.168.082.349.082.544 0 .299-.05.557-.15.776-.1.218-.263.384-.489.498v.015a.63.63 0 01.271.175c.072.078.13.171.176.277.045.107.078.225.099.352.021.128.035.257.043.385l.011.285c.004.109.011.22.02.334.01.114.025.222.046.324a.864.864 0 00.093.259h-.888a2.449 2.449 0 01-.091-.576 10.17 10.17 0 00-.051-.641c-.03-.266-.094-.461-.192-.584-.098-.123-.258-.185-.48-.185h-.889v1.985h-.888v-5.08h2.177zm-.316 2.298c.203 0 .356-.057.458-.171.102-.114.152-.299.152-.555 0-.246-.051-.426-.152-.537-.102-.111-.255-.167-.458-.167h-.974v1.43h.974zM319.827 151.605v.938h-2.133v1.089h1.958v.868h-1.958v1.246h2.179v.938h-3.066v-5.08h3.02z"/><path d="M320.716 155.433a.799.799 0 00.194.289.78.78 0 00.286.163c.109.036.223.054.339.054.08 0 .164-.008.255-.025a.753.753 0 00.255-.097.595.595 0 00.198-.195.581.581 0 00.079-.318.508.508 0 00-.105-.334.808.808 0 00-.273-.214 2.474 2.474 0 00-.385-.15 8.17 8.17 0 01-.436-.142c-.151-.048-.298-.106-.441-.175s-.271-.158-.385-.266a1.234 1.234 0 01-.274-.409 1.514 1.514 0 01-.104-.594c0-.261.044-.488.133-.68s.204-.352.348-.48c.144-.127.306-.222.486-.285.182-.061.362-.093.543-.093.212 0 .414.03.608.09.194.058.367.155.518.287.151.134.271.303.359.51.089.206.133.457.133.75h-.859a1.076 1.076 0 00-.077-.377.6.6 0 00-.418-.356 1.205 1.205 0 00-.303-.036.79.79 0 00-.215.029.515.515 0 00-.195.099.599.599 0 00-.145.177.582.582 0 00-.057.271c0 .099.016.18.046.242a.432.432 0 00.178.171c.089.052.211.103.368.156.156.052.36.118.613.199.075.02.18.054.314.103.134.05.267.13.398.238.132.11.246.255.342.438.097.183.145.416.145.702 0 .232-.036.447-.107.647a1.411 1.411 0 01-.319.516 1.476 1.476 0 01-.526.338c-.209.081-.451.12-.727.12-.223 0-.438-.034-.648-.103a1.506 1.506 0 01-.554-.323 1.559 1.559 0 01-.382-.563 2.032 2.032 0 01-.136-.811h.859c0 .173.024.319.074.437zM326.293 151.605v.938h-2.133v1.089h1.958v.868h-1.958v1.246h2.179v.938h-3.066v-5.08h3.02z"/><path d="M326.186 152.543v-.938h3.31v.938h-1.211v4.142h-.888v-4.142h-1.211z"/></g><g fill="#080609"><path d="M161.958 76.906h-15.523v-4.313h15.523c.242 0 .438.196.438.438v3.438a.438.438 0 01-.438.437zM224.708 76.906h15.523v-4.313h-15.523a.438.438 0 00-.438.438v3.438a.439.439 0 00.438.437zM215.792 75.625h-44.953a.289.289 0 01-.289-.289v-1.172c0-.16.129-.289.289-.289h44.953c.16 0 .289.129.289.289v1.172a.29.29 0 01-.289.289z"/></g><radialGradient id="b" cx="105.368" cy="110.625" r="7.967" gradientTransform="matrix(1 0 0 .45 0 60.844)" gradientUnits="userSpaceOnUse"><stop offset=".174" stop-color="#ab364b"/><stop offset=".28" stop-color="#893444"/><stop offset=".453" stop-color="#5c2b36"/><stop offset=".602" stop-color="#42212b"/><stop offset=".722" stop-color="#321a23"/><stop offset=".796" stop-color="#2b161f"/><stop offset=".811" stop-color="#2a161f"/><stop offset="1" stop-color="#200f19"/></radialGradient><path d="M112.944 115H97.793a3.317 3.317 0 01-3.307-3.307v-2.136a3.317 3.317 0 013.307-3.307h15.152a3.317 3.317 0 013.307 3.307v2.136a3.318 3.318 0 01-3.308 3.307z" fill="url(#b)"/><path fill="none" stroke="#040006" stroke-width="1.026" stroke-miterlimit="10" d="M90.487 115h29.763v26H90.487z"/><radialGradient id="c" cx="65.34" cy="133.792" r="7.967" gradientTransform="matrix(1 0 0 .45 0 85.169)" gradientUnits="userSpaceOnUse"><stop offset=".174" stop-color="#ab364b"/><stop offset=".28" stop-color="#893444"/><stop offset=".453" stop-color="#5c2b36"/><stop offset=".602" stop-color="#42212b"/><stop offset=".722" stop-color="#321a23"/><stop offset=".796" stop-color="#2b161f"/><stop offset=".811" stop-color="#2a161f"/><stop offset="1" stop-color="#200f19"/></radialGradient><path d="M72.916 149.75H57.764a3.317 3.317 0 01-3.307-3.307v-2.136A3.317 3.317 0 0157.764 141h15.152a3.317 3.317 0 013.307 3.307v2.136a3.317 3.317 0 01-3.307 3.307z" fill="url(#c)"/><path fill="none" stroke="#040006" stroke-width="1.026" stroke-miterlimit="10" d="M50.458 115h29.763v26H50.458z"/><g fill="#fff"><path d="M55.076 116.733l1.511 5.316h-.922l-.306-1.184h-1.511l-.316 1.184h-.895l1.527-5.316h.912zm.051 3.261l-.509-1.951h-.012l-.525 1.951h1.046zM58.114 119.562v.908h-1.703v-.908h1.703zM61.389 116.733v.983h-2.133v1.138h1.957v.908h-1.957v1.303h2.178v.983h-3.066v-5.316h3.021z"/><path d="M61.287 116.733h1.03l.792 1.698.819-1.698h.974l-1.296 2.539 1.409 2.776h-1.059l-.882-1.839-.899 1.839h-.996l1.409-2.785-1.301-2.53z"/><path d="M66.757 116.733c.252 0 .467.048.645.145.177.097.321.224.433.384.111.159.192.341.243.543a2.6 2.6 0 01.076.633c0 .215-.025.424-.076.63-.051.205-.132.388-.243.547s-.256.287-.433.384a1.33 1.33 0 01-.645.144h-.934v1.907h-.889v-5.316h1.823zm-.243 2.502c.102 0 .199-.011.294-.03a.582.582 0 00.249-.115.595.595 0 00.172-.242 1.07 1.07 0 00.065-.41c0-.168-.021-.305-.065-.408a.581.581 0 00-.172-.242.582.582 0 00-.249-.115 1.351 1.351 0 00-.294-.03h-.69v1.594h.69zM71.294 116.733v.983h-2.133v1.138h1.958v.908h-1.958v1.303h2.179v.983h-3.066v-5.316h3.02zM73.681 116.733c.181 0 .344.039.489.116.145.076.27.181.373.316.104.134.183.289.237.465a1.9 1.9 0 01.082.569c0 .313-.05.584-.149.811a1.064 1.064 0 01-.489.522v.014c.109.04.199.101.271.183.071.082.13.179.175.291.046.111.078.234.1.368.021.134.034.267.042.402l.012.298c.003.115.01.231.02.35s.024.231.045.339a.897.897 0 00.094.271h-.889a2.63 2.63 0 01-.09-.604 12.124 12.124 0 00-.051-.67c-.03-.277-.095-.48-.192-.609-.099-.13-.259-.194-.481-.194h-.888v2.077h-.889v-5.316h2.178zm-.317 2.405c.204 0 .356-.06.458-.179.103-.119.153-.313.153-.582 0-.258-.051-.444-.153-.562-.102-.116-.254-.174-.458-.174h-.973v1.497h.973z"/><path d="M74.733 117.716v-.983h3.31v.983h-1.211v4.333h-.888v-4.333h-1.211z"/></g><path fill="none" stroke="#040006" stroke-width="1.026" stroke-miterlimit="10" d="M50.458 149.75h29.763v26H50.458z"/><g fill="#fff"><path d="M55.328 155.633a1.584 1.584 0 01-.182.559 1.203 1.203 0 01-.407.434c-.177.115-.416.173-.718.173-.17 0-.334-.029-.492-.089-.159-.06-.3-.152-.425-.278-.124-.126-.225-.286-.3-.483s-.113-.435-.113-.715v-.442h.804v.228c0 .124.008.238.022.341a.867.867 0 00.079.267c.038.074.09.131.155.175a.474.474 0 00.258.064.419.419 0 00.271-.078.449.449 0 00.139-.203c.028-.083.045-.173.051-.271.006-.097.009-.191.009-.281v-3.43h.888v3.48c0 .166-.013.349-.039.549zM55.672 153.11c.091-.326.221-.609.391-.851.169-.241.378-.432.625-.569.247-.138.524-.206.834-.206.313 0 .592.069.837.206.245.138.453.328.623.569.169.242.3.525.39.851.091.324.136.676.136 1.056 0 .371-.045.715-.136 1.035-.09.32-.221.6-.39.837-.17.237-.378.424-.623.559s-.523.203-.837.203c-.31 0-.587-.068-.834-.203s-.456-.322-.625-.559c-.17-.237-.3-.516-.391-.837a3.765 3.765 0 01-.136-1.035c.001-.38.046-.732.136-1.056zm.812 1.68c.04.201.103.383.189.544s.2.29.34.388c.14.097.309.146.509.146s.369-.049.509-.146c.14-.098.253-.226.34-.388s.149-.343.189-.544a3.437 3.437 0 000-1.27c-.04-.209-.103-.394-.189-.559s-.2-.294-.34-.392a.87.87 0 00-.509-.146.87.87 0 00-.509.146c-.14.098-.253.228-.34.392s-.149.349-.189.559c-.039.209-.06.425-.06.647 0 .212.021.42.06.623zM59.242 151.605h.995l.945 2.007.938-2.007h.99l-1.499 3.13v1.95h-.888v-1.977l-1.481-3.103zM63.694 155.433a.8.8 0 00.195.289.775.775 0 00.285.163c.109.036.223.054.34.054.079 0 .164-.008.255-.025a.756.756 0 00.254-.097.585.585 0 00.198-.195.581.581 0 00.079-.318.513.513 0 00-.104-.334c-.07-.086-.161-.158-.274-.214s-.241-.106-.385-.15a8.476 8.476 0 01-.436-.142c-.15-.048-.298-.106-.441-.175s-.271-.158-.385-.266a1.265 1.265 0 01-.274-.409 1.532 1.532 0 01-.104-.594c0-.261.045-.488.133-.68.089-.192.205-.352.349-.48.143-.127.305-.222.486-.285.181-.061.362-.093.543-.093.211 0 .414.03.608.09.193.058.366.155.518.287a1.4 1.4 0 01.358.51c.089.206.134.457.134.75h-.86a1.1 1.1 0 00-.076-.377.602.602 0 00-.419-.356 1.199 1.199 0 00-.303-.036.8.8 0 00-.215.029.523.523 0 00-.195.099.58.58 0 00-.144.177.57.57 0 00-.057.271c0 .099.015.18.045.242.03.061.09.118.179.171.088.052.211.103.367.156.156.052.361.118.614.199.075.02.18.054.313.103a1.404 1.404 0 01.741.676c.096.183.145.416.145.702 0 .232-.036.447-.107.647a1.427 1.427 0 01-.32.516 1.472 1.472 0 01-.525.338c-.21.081-.452.12-.728.12-.223 0-.438-.034-.647-.103s-.395-.176-.555-.323a1.571 1.571 0 01-.382-.563 2.05 2.05 0 01-.136-.811h.86c0 .173.024.319.073.437z"/><path d="M65.934 152.543v-.938h3.309v.938h-1.21v4.142h-.889v-4.142h-1.21zM70.16 151.605v5.08h-.889v-5.08h.889zM73.095 152.96c-.053-.107-.119-.2-.198-.281s-.169-.144-.269-.189a.874.874 0 00-.823.078 1.08 1.08 0 00-.339.392c-.087.164-.15.349-.189.559a3.437 3.437 0 000 1.27c.039.201.103.383.189.544.086.161.199.29.339.388.14.097.31.146.51.146a.745.745 0 00.636-.314c.153-.208.246-.483.28-.825h.859a3.1 3.1 0 01-.175.86 2.133 2.133 0 01-.373.655c-.155.18-.336.318-.544.413a1.639 1.639 0 01-.684.142c-.31 0-.588-.068-.835-.203s-.455-.322-.625-.559c-.17-.237-.3-.516-.391-.837a3.804 3.804 0 01-.136-1.035c0-.38.046-.732.136-1.056.091-.326.221-.609.391-.851.17-.241.378-.432.625-.569a1.68 1.68 0 01.835-.206 1.644 1.644 0 011.162.474c.156.154.285.345.388.573.102.228.166.488.192.782h-.86a1.042 1.042 0 00-.101-.351zM75.149 151.605v2.106l1.578-2.106h1.108l-1.578 2.007 1.731 3.073h-1.114l-1.217-2.283-.509.647v1.636h-.888v-5.08h.889z"/></g><radialGradient id="d" cx="321.327" cy="110.625" r="7.967" gradientTransform="matrix(1 0 0 .45 0 60.844)" gradientUnits="userSpaceOnUse"><stop offset=".174" stop-color="#ab364b"/><stop offset=".28" stop-color="#893444"/><stop offset=".453" stop-color="#5c2b36"/><stop offset=".602" stop-color="#42212b"/><stop offset=".722" stop-color="#321a23"/><stop offset=".796" stop-color="#2b161f"/><stop offset=".811" stop-color="#2a161f"/><stop offset="1" stop-color="#200f19"/></radialGradient><path d="M328.903 115h-15.152a3.317 3.317 0 01-3.307-3.307v-2.136a3.317 3.317 0 013.307-3.307h15.152a3.317 3.317 0 013.307 3.307v2.136a3.317 3.317 0 01-3.307 3.307z" fill="url(#d)"/><path fill="none" stroke="#040006" stroke-width="1.026" stroke-miterlimit="10" d="M306.445 115h29.763v26h-29.763z"/><g fill="#fff"><path d="M311.068 116.854c.192 0 .368.021.526.065.158.042.294.113.407.209a.95.95 0 01.263.388c.063.161.094.361.094.598 0 .255-.046.47-.139.641-.093.171-.229.31-.41.42.249.09.435.248.558.473.122.226.184.498.184.815 0 .255-.04.478-.119.666-.079.187-.186.34-.319.458a1.301 1.301 0 01-.458.263 1.67 1.67 0 01-.529.086h-1.957v-5.081h1.899zm-.113 2.056a.55.55 0 00.391-.143c.102-.094.152-.249.152-.462a.71.71 0 00-.051-.291c-.033-.077-.079-.136-.136-.179s-.121-.071-.195-.089a1.005 1.005 0 00-.229-.025h-.832v1.189h.9zm.051 2.157c.086 0 .169-.011.248-.032s.149-.057.21-.107a.525.525 0 00.144-.203.853.853 0 00.054-.327c0-.262-.058-.447-.175-.559a.638.638 0 00-.464-.168h-.968v1.395h.951zM314.327 119.558v.868h-1.703v-.868h1.703zM315.463 116.854l1.686 3.408h.012v-3.408h.831v5.081h-.888l-1.68-3.402h-.012v3.402h-.832v-5.081h.883zM318.297 118.359c.091-.324.221-.608.391-.85.169-.242.378-.432.625-.569s.524-.206.834-.206c.313 0 .592.069.837.206s.453.327.623.569c.169.242.3.525.39.85.091.326.136.678.136 1.058 0 .369-.045.715-.136 1.035-.09.32-.221.598-.39.837-.17.237-.378.422-.623.559a1.703 1.703 0 01-.837.203c-.31 0-.587-.068-.834-.203a1.865 1.865 0 01-.625-.559c-.17-.238-.3-.516-.391-.837a3.775 3.775 0 01-.136-1.035 3.99 3.99 0 01.136-1.058zm.812 1.679c.04.201.103.384.189.544.087.161.2.291.34.388.14.098.309.147.509.147s.369-.049.509-.147c.14-.097.253-.226.34-.388a1.92 1.92 0 00.189-.544 3.45 3.45 0 000-1.271 2.032 2.032 0 00-.189-.559 1.078 1.078 0 00-.34-.39c-.14-.098-.309-.146-.509-.146s-.369.048-.509.146c-.14.097-.253.228-.34.39a1.989 1.989 0 00-.189.559c-.039.209-.06.425-.06.649 0 .213.021.421.06.622zM323.179 121.935l-1.307-5.081h.911l.899 3.572h.011l.911-3.572h.916l-1.34 5.081h-1.001z"/><path d="M326.319 116.854v5.081h-.889v-5.081h.889zM329.254 118.209a1.108 1.108 0 00-.197-.281.872.872 0 00-.269-.188.762.762 0 00-.314-.068c-.2 0-.369.048-.509.146-.14.097-.253.228-.34.39a1.989 1.989 0 00-.189.559c-.039.209-.06.425-.06.649 0 .213.021.421.06.622.04.201.103.384.189.544.087.161.2.291.34.388.14.098.309.147.509.147a.748.748 0 00.637-.314c.152-.209.246-.484.279-.826h.86a3.085 3.085 0 01-.176.862 2.13 2.13 0 01-.373.654 1.55 1.55 0 01-.543.413 1.625 1.625 0 01-.685.143c-.31 0-.587-.068-.834-.203a1.865 1.865 0 01-.625-.559c-.17-.238-.3-.516-.391-.837a3.775 3.775 0 01-.136-1.035c0-.38.045-.732.136-1.058.091-.324.221-.608.391-.85.169-.242.378-.432.625-.569s.524-.206.834-.206a1.625 1.625 0 011.162.472c.157.155.286.345.388.573s.166.488.192.784h-.859a1.072 1.072 0 00-.102-.352zM333.441 116.854v.94h-2.133v1.088h1.957v.868h-1.957v1.246h2.178v.94h-3.066v-5.081h3.021z"/></g><g fill="#fff"><path d="M95.11 116.854c.192 0 .368.021.526.065.158.042.294.113.407.209a.95.95 0 01.263.388c.063.161.094.361.094.598 0 .255-.046.47-.139.641-.093.171-.229.31-.41.42.249.09.435.248.558.473.122.226.184.498.184.815 0 .255-.04.478-.119.666-.079.187-.186.34-.319.458a1.301 1.301 0 01-.458.263 1.67 1.67 0 01-.529.086h-1.957v-5.081h1.899zm-.114 2.056a.55.55 0 00.391-.143c.102-.094.152-.249.152-.462a.71.71 0 00-.051-.291c-.033-.077-.079-.136-.136-.179s-.121-.071-.195-.089a1.005 1.005 0 00-.229-.025h-.832v1.189h.9zm.052 2.157c.086 0 .169-.011.248-.032s.149-.057.21-.107a.525.525 0 00.144-.203.853.853 0 00.054-.327c0-.262-.058-.447-.175-.559a.638.638 0 00-.464-.168h-.968v1.395h.951zM98.368 119.558v.868h-1.703v-.868h1.703zM99.505 116.854l1.686 3.408h.012v-3.408h.831v5.081h-.888l-1.68-3.402h-.012v3.402h-.832v-5.081h.883zM102.339 118.359c.091-.324.221-.608.391-.85.169-.242.378-.432.625-.569s.524-.206.834-.206c.313 0 .592.069.837.206s.453.327.623.569c.169.242.3.525.39.85.091.326.136.678.136 1.058 0 .369-.045.715-.136 1.035-.09.32-.221.598-.39.837-.17.237-.378.422-.623.559a1.703 1.703 0 01-.837.203c-.31 0-.587-.068-.834-.203a1.865 1.865 0 01-.625-.559c-.17-.238-.3-.516-.391-.837a3.775 3.775 0 01-.136-1.035c0-.381.045-.733.136-1.058zm.812 1.679c.04.201.103.384.189.544.087.161.2.291.34.388.14.098.309.147.509.147s.369-.049.509-.147c.14-.097.253-.226.34-.388a1.92 1.92 0 00.189-.544 3.45 3.45 0 000-1.271 2.032 2.032 0 00-.189-.559 1.078 1.078 0 00-.34-.39c-.14-.098-.309-.146-.509-.146s-.369.048-.509.146c-.14.097-.253.228-.34.39a1.989 1.989 0 00-.189.559c-.039.209-.06.425-.06.649 0 .213.021.421.06.622zM107.221 121.935l-1.307-5.081h.911l.899 3.572h.011l.911-3.572h.916l-1.34 5.081h-1.001z"/><path d="M110.361 116.854v5.081h-.889v-5.081h.889zM113.296 118.209a1.108 1.108 0 00-.197-.281.872.872 0 00-.269-.188.762.762 0 00-.314-.068c-.2 0-.369.048-.509.146-.14.097-.253.228-.34.39a1.989 1.989 0 00-.189.559c-.039.209-.06.425-.06.649 0 .213.021.421.06.622.04.201.103.384.189.544.087.161.2.291.34.388.14.098.309.147.509.147a.748.748 0 00.637-.314c.152-.209.246-.484.279-.826h.86a3.085 3.085 0 01-.176.862 2.13 2.13 0 01-.373.654 1.55 1.55 0 01-.543.413 1.625 1.625 0 01-.685.143c-.31 0-.587-.068-.834-.203a1.865 1.865 0 01-.625-.559c-.17-.238-.3-.516-.391-.837a3.775 3.775 0 01-.136-1.035c0-.38.045-.732.136-1.058.091-.324.221-.608.391-.85.169-.242.378-.432.625-.569s.524-.206.834-.206a1.625 1.625 0 011.162.472c.157.155.286.345.388.573s.166.488.192.784h-.859a1.072 1.072 0 00-.102-.352zM117.483 116.854v.94h-2.133v1.088h1.957v.868h-1.957v1.246h2.178v.94h-3.066v-5.081h3.021z"/></g><g><path d="M535.417 286h-93.198a1.875 1.875 0 01-1.87-1.87V169.912c0-1.029.842-1.87 1.87-1.87h93.198c1.029 0 1.87.842 1.87 1.87V284.13c0 1.028-.841 1.87-1.87 1.87z" fill="#21272b"/><path d="M530.757 280.102h-83.878a1.687 1.687 0 01-1.683-1.683V175.623c0-.926.757-1.683 1.683-1.683h83.878c.926 0 1.683.757 1.683 1.683v102.796c0 .926-.757 1.683-1.683 1.683z" fill="#1a181b"/><linearGradient id="e" gradientUnits="userSpaceOnUse" x1="488.818" y1="260.901" x2="488.818" y2="197.842"><stop offset="0" stop-color="#b6b9a6"/><stop offset=".5" stop-color="#b5b7a5"/><stop offset=".6" stop-color="#507a36"/><stop offset=".7" stop-color="#a17440"/><stop offset=".706" stop-color="#906a3f"/><stop offset=".722" stop-color="#6f553b"/><stop offset=".739" stop-color="#574534"/><stop offset=".758" stop-color="#44382e"/><stop offset=".779" stop-color="#362d28"/><stop offset=".804" stop-color="#2a2422"/><stop offset=".836" stop-color="#211e1e"/><stop offset=".879" stop-color="#1b1a1b"/><stop offset="1" stop-color="#1a181b"/></linearGradient><path d="M453.682 197.842h70.273c.667 0 1.212.546 1.212 1.212v60.634c0 .667-.546 1.212-1.212 1.212h-70.273a1.216 1.216 0 01-1.212-1.212v-60.634a1.214 1.214 0 011.212-1.212z" fill="url(#e)"/><path d="M457.797 259.435h-.696l-.287-1.038h-1.281l-.298 1.038h-.696l1.149-4.086c.088-.316.246-.475.475-.475.25 0 .42.159.508.475l1.126 4.086zm1.977-11.983c0 1.9-.339 3.439-1.016 4.616-.854 1.473-2.169 2.202-3.943 2.187v-1.469c2.827.022 4.241-2.234 4.241-6.77 0-.449-.011-1.001-.033-1.657h.751v3.093zm-3.17 10.271l-.442-1.59-.442 1.59h.884zm3.082-2.176h-.906v3.887h-.696v-3.887h-.906v-.674h2.507v.674zm2.65 3.888h-.718l-.276-1.038h-1.281l-.287 1.038h-.718l1.149-4.086c.088-.316.254-.475.497-.475.235 0 .39.159.464.475l1.17 4.086zm-1.093-5.18h-1.226v-9.895h1.226v9.895zm-.111 3.468l-.431-1.59-.453 1.59h.884zm5.312-3.468h-.088c-1.672 0-2.942-.755-3.81-2.264-.692-1.222-1.038-2.735-1.038-4.539v-3.092h.74c0 2.481.162 4.281.486 5.4.618 2.143 1.855 3.152 3.711 3.026v1.469zm-1.203 5.18h-.806a9.362 9.362 0 01-.364-.453 23.452 23.452 0 01-.353-.475c-.28-.405-.42-.747-.42-1.027 0-.235.188-.46.563-.674.383-.206.574-.431.574-.674 0-.39-.188-.585-.563-.585h-.685v3.887h-.674v-4.086c0-.316.151-.475.453-.475h.906c.324 0 .614.121.872.364.258.236.387.516.387.839 0 .692-.379 1.16-1.138 1.403l1.248 1.956zm.927 0h-.685v-4.561h.685v4.561zM468.334 253.856c.196 0 .382.027.557.08.175.054.326.138.455.255.128.116.221.25.276.4.056.15.084.313.084.489 0 .187-.031.366-.093.537a1.113 1.113 0 01-.279.435 1.223 1.223 0 01-.473.271 1.983 1.983 0 01-1.156.015c-.178-.052-.332-.131-.462-.237s-.226-.238-.288-.397a1.37 1.37 0 01-.094-.505c0-.19.035-.374.103-.55.07-.176.17-.324.301-.443.132-.119.291-.207.479-.263.189-.058.385-.087.59-.087zm-.005.275c-.163 0-.318.022-.466.066a.94.94 0 00-.62.574 1.204 1.204 0 00-.076.427c0 .143.028.277.082.401a.833.833 0 00.231.309.913.913 0 00.355.177 1.719 1.719 0 00.895-.009.896.896 0 00.598-.549 1.231 1.231 0 00.006-.819.792.792 0 00-.212-.322.864.864 0 00-.353-.195 1.618 1.618 0 00-.44-.06zm-.686 1.674c.025-.232.043-.46.051-.684.008-.225.012-.45.012-.677l.218.003c.045 0 .107-.001.187-.004.079-.003.155-.005.228-.005.153 0 .262.008.329.024a.45.45 0 01.165.074.302.302 0 01.095.117.412.412 0 01-.003.324.349.349 0 01-.109.138.55.55 0 01-.172.093c.033.085.078.186.136.304.058.117.103.214.136.291-.099-.002-.181-.002-.244-.002l-.246.002-.067-.214-.029-.087-.183-.478a.826.826 0 00.131.012.396.396 0 00.126-.02.165.165 0 00.087-.062.152.152 0 00.028-.087.113.113 0 00-.023-.07.128.128 0 00-.073-.043.664.664 0 00-.157-.013 2.67 2.67 0 00-.134.004c-.009.112-.017.287-.023.527-.007.24-.011.416-.011.53a7.582 7.582 0 00-.231-.004l-.224.007z"/></g></svg>