<svg xmlns="http://www.w3.org/2000/svg" viewBox="0 0 96.939 117.958"><path d="M95.068 117.958H1.87a1.875 1.875 0 01-1.87-1.87V1.87C0 .842.842 0 1.87 0h93.198c1.029 0 1.87.842 1.87 1.87v114.218a1.874 1.874 0 01-1.87 1.87z" fill="#21272b"/><path d="M90.409 112.06H6.53a1.687 1.687 0 01-1.683-1.683V7.581c0-.926.757-1.683 1.683-1.683h83.878c.926 0 1.683.757 1.683 1.683v102.796a1.687 1.687 0 01-1.682 1.683z" fill="#1a181b"/><linearGradient id="a" gradientUnits="userSpaceOnUse" x1="48.469" y1="92.859" x2="48.469" y2="29.8"><stop offset="0" stop-color="#b6b9a6"/><stop offset=".5" stop-color="#b5b7a5"/><stop offset=".6" stop-color="#507a36"/><stop offset=".7" stop-color="#a17440"/><stop offset=".706" stop-color="#906a3f"/><stop offset=".722" stop-color="#6f553b"/><stop offset=".739" stop-color="#574534"/><stop offset=".758" stop-color="#44382e"/><stop offset=".779" stop-color="#362d28"/><stop offset=".804" stop-color="#2a2422"/><stop offset=".836" stop-color="#211e1e"/><stop offset=".879" stop-color="#1b1a1b"/><stop offset="1" stop-color="#1a181b"/></linearGradient><path d="M13.333 29.8h70.273c.667 0 1.212.546 1.212 1.212v60.634c0 .667-.546 1.212-1.212 1.212H13.333a1.216 1.216 0 01-1.212-1.212V31.012c0-.666.545-1.212 1.212-1.212z" fill="url(#a)"/><path d="M17.448 91.393h-.696l-.287-1.038h-1.281l-.298 1.038h-.696l1.149-4.086c.088-.316.246-.475.475-.475.25 0 .42.159.508.475l1.126 4.086zm1.977-11.983c0 1.9-.339 3.439-1.016 4.616-.854 1.473-2.169 2.202-3.943 2.187v-1.469c2.827.022 4.241-2.234 4.241-6.77 0-.449-.011-1.001-.033-1.657h.751v3.093zm-3.169 10.271l-.442-1.59-.442 1.59h.884zm3.081-2.175h-.906v3.887h-.696v-3.887h-.905v-.674h2.507v.674zm2.65 3.887h-.717l-.276-1.038h-1.281l-.287 1.038h-.718l1.149-4.086c.088-.316.254-.475.497-.475.235 0 .39.159.464.475l1.169 4.086zm-1.093-5.18h-1.226v-9.895h1.226v9.895zm-.11 3.468l-.431-1.59-.453 1.59h.884zm5.312-3.468h-.088c-1.672 0-2.942-.754-3.81-2.264-.692-1.222-1.038-2.735-1.038-4.539v-3.092h.74c0 2.481.162 4.282.486 5.4.618 2.143 1.855 3.152 3.711 3.026v1.469zm-1.204 5.18h-.806a10.01 10.01 0 01-.364-.453 23.452 23.452 0 01-.353-.475c-.28-.405-.42-.747-.42-1.027 0-.235.188-.46.563-.674.383-.206.574-.431.574-.674 0-.39-.188-.585-.563-.585h-.685v3.887h-.674v-4.086c0-.316.151-.475.453-.475h.906c.324 0 .614.121.872.364.258.236.387.516.387.839 0 .692-.38 1.16-1.138 1.403l1.248 1.956zm.928 0h-.685v-4.561h.685v4.561zM27.985 85.815c.196 0 .382.027.557.08.175.054.326.138.455.255s.221.25.276.4.084.313.084.489c0 .187-.031.366-.093.537a1.113 1.113 0 01-.279.435 1.223 1.223 0 01-.473.271 2.02 2.02 0 01-1.156.015 1.297 1.297 0 01-.462-.237.947.947 0 01-.288-.397 1.37 1.37 0 01-.094-.505c0-.19.035-.374.103-.55.07-.176.17-.324.301-.443.131-.119.291-.207.479-.263.189-.059.386-.087.59-.087zm-.005.275c-.163 0-.318.022-.466.066a.94.94 0 00-.62.574 1.204 1.204 0 00-.076.427c0 .143.028.277.082.401a.833.833 0 00.231.309c.099.082.218.141.355.177a1.713 1.713 0 00.895-.009.896.896 0 00.598-.549 1.231 1.231 0 00.006-.819.792.792 0 00-.212-.322.864.864 0 00-.353-.195 1.575 1.575 0 00-.44-.06zm-.686 1.673c.025-.232.043-.46.051-.684.008-.224.012-.45.012-.677l.218.003c.045 0 .107-.001.187-.004a6.09 6.09 0 01.228-.005c.153 0 .262.008.329.024.067.017.122.041.165.074s.075.072.095.117a.412.412 0 01-.003.324.349.349 0 01-.109.138.55.55 0 01-.172.093c.033.085.078.186.136.304.058.117.103.214.136.291-.099-.002-.181-.002-.244-.002l-.246.002-.067-.214-.029-.087-.183-.478a.826.826 0 00.131.012.396.396 0 00.126-.02.165.165 0 00.087-.062.152.152 0 00.028-.087.113.113 0 00-.023-.07.128.128 0 00-.073-.043.664.664 0 00-.157-.013 2.67 2.67 0 00-.134.004c-.009.112-.017.287-.023.527-.007.24-.011.416-.011.53a7.582 7.582 0 00-.231-.004l-.224.007z"/></svg>