<?xml version="1.0" encoding="UTF-8" standalone="no"?>
<svg
   xmlns:dc="http://purl.org/dc/elements/1.1/"
   xmlns:cc="http://creativecommons.org/ns#"
   xmlns:rdf="http://www.w3.org/1999/02/22-rdf-syntax-ns#"
   xmlns:svg="http://www.w3.org/2000/svg"
   xmlns="http://www.w3.org/2000/svg"
   xmlns:sodipodi="http://sodipodi.sourceforge.net/DTD/sodipodi-0.dtd"
   xmlns:inkscape="http://www.inkscape.org/namespaces/inkscape"
   width="400"
   height="73.737633"
   version="1.1"
   id="svg8"
   sodipodi:docname="logo.svg"
   inkscape:export-filename="logo.png"
   inkscape:export-xdpi="216"
   inkscape:export-ydpi="216"
   inkscape:version="1.0.2 (e86c870879, 2021-01-15)">
  <metadata
     id="metadata14">
    <rdf:RDF>
      <cc:Work
         rdf:about="">
        <dc:format>image/svg+xml</dc:format>
        <dc:type
           rdf:resource="http://purl.org/dc/dcmitype/StillImage" />
      </cc:Work>
    </rdf:RDF>
  </metadata>
  <defs
     id="defs12" />
  <sodipodi:namedview
     pagecolor="#ffffff"
     bordercolor="#666666"
     borderopacity="1"
     objecttolerance="10"
     gridtolerance="10"
     guidetolerance="10"
     inkscape:pageopacity="0"
     inkscape:pageshadow="2"
     inkscape:window-width="1920"
     inkscape:window-height="1017"
     id="namedview10"
     showgrid="false"
     inkscape:zoom="0.71"
     inkscape:cx="200"
     inkscape:cy="36.868816"
     inkscape:window-x="-8"
     inkscape:window-y="-8"
     inkscape:window-maximized="1"
     inkscape:current-layer="svg8"
     inkscape:document-rotation="0" />
  <path
     d="M400 59.626515c0 7.761113-6.35 14.111114-14.11111 14.111114H14.111114C6.3500015 73.737629 0 67.387628 0 59.626515v-45.5154C0 6.350002 6.3500015 0 14.111114 0H385.88889C393.65 0 400 6.350002 400 14.111115v45.5154z"
     id="path2" />
  <path
     fill="red"
     d="M305.23187 48.653712l-34.20675 12.404375h34.42477l13.09088-7.227007m-45.25364-40.975149h40.63719l54.10554 27.429185h-21.21747l-14.91827-6.858002-9.19763 3.742267"
     id="path4" />
  <path
     fill="#fc0"
     d="M348.96998 25.421879l34.21098-12.398731H348.7576l-13.09017 7.221363m45.25223 40.975148h-40.63649l-54.10624-27.429184h21.21676l14.91969 6.858707 9.19691-3.742973m-314.691958-24.3833h26.934589v32.914174H16.818332zm0 36.943603h69.020283v10.076041H16.818332zM60.58607 12.522909h31.989896l21.884224 18.469332-15.818561 11.605686m2.348791 1.828801v15.116531h25.25255V44.426728l48.82304-31.903819h-23.5705L102.6767 44.426728m75.75764-26.868973l26.93459 16.792931v25.192573h-26.93459m3.36409-47.02035l69.02522 47.02035h15.1511V12.51797h-13.1311v33.070102l-49.15677-33.065163"
     id="path6" />
</svg>
