<?xml version="1.0" encoding="UTF-8" standalone="no"?>
<svg
   xmlns:dc="http://purl.org/dc/elements/1.1/"
   xmlns:cc="http://creativecommons.org/ns#"
   xmlns:rdf="http://www.w3.org/1999/02/22-rdf-syntax-ns#"
   xmlns:svg="http://www.w3.org/2000/svg"
   xmlns="http://www.w3.org/2000/svg"
   xmlns:sodipodi="http://sodipodi.sourceforge.net/DTD/sodipodi-0.dtd"
   xmlns:inkscape="http://www.inkscape.org/namespaces/inkscape"
   viewBox="0 0 120.7 260.4"
   version="1.1"
   id="svg554"
   sodipodi:docname="controller.svg"
   inkscape:export-filename="C:\Users\ReenigneArcher\LaunchBox\Themes\RecalBigBox\Resources\Platforms\Mattel Intellivision\controller.png"
   inkscape:export-xdpi="99.539169"
   inkscape:export-ydpi="99.539169"
   inkscape:version="0.92.4 (5da689c313, 2019-01-14)">
  <metadata
     id="metadata560">
    <rdf:RDF>
      <cc:Work
         rdf:about="">
        <dc:format>image/svg+xml</dc:format>
        <dc:type
           rdf:resource="http://purl.org/dc/dcmitype/StillImage" />
      </cc:Work>
    </rdf:RDF>
  </metadata>
  <defs
     id="defs558" />
  <sodipodi:namedview
     pagecolor="#ffffff"
     bordercolor="#666666"
     borderopacity="1"
     objecttolerance="10"
     gridtolerance="10"
     guidetolerance="10"
     inkscape:pageopacity="0"
     inkscape:pageshadow="2"
     inkscape:window-width="1920"
     inkscape:window-height="1017"
     id="namedview556"
     showgrid="false"
     inkscape:zoom="0.90629802"
     inkscape:cx="60.349998"
     inkscape:cy="130.2"
     inkscape:window-x="-8"
     inkscape:window-y="-8"
     inkscape:window-maximized="1"
     inkscape:current-layer="svg554" />
  <g
     opacity=".5"
     id="g296">
    <circle
       fill="#FFF"
       cx="60.3"
       cy="212"
       r="28.3"
       id="circle2" />
    <circle
       fill="#FEFEFE"
       cx="60.3"
       cy="212"
       r="28.3"
       id="circle4" />
    <circle
       fill="#FDFDFD"
       cx="60.3"
       cy="212"
       r="28.3"
       id="circle6" />
    <circle
       fill="#FCFCFC"
       cx="60.3"
       cy="212"
       r="28.3"
       id="circle8" />
    <circle
       fill="#FBFBFB"
       cx="60.3"
       cy="211.9"
       r="28.3"
       id="circle10" />
    <circle
       fill="#FAFAFA"
       cx="60.3"
       cy="211.9"
       r="28.3"
       id="circle12" />
    <circle
       fill="#F9F9F9"
       cx="60.3"
       cy="211.9"
       r="28.3"
       id="circle14" />
    <circle
       fill="#F8F8F8"
       cx="60.3"
       cy="211.9"
       r="28.2"
       id="circle16" />
    <circle
       fill="#F7F7F7"
       cx="60.3"
       cy="211.9"
       r="28.2"
       id="circle18" />
    <circle
       fill="#F6F6F6"
       cx="60.3"
       cy="211.9"
       r="28.2"
       id="circle20" />
    <circle
       fill="#F5F5F5"
       cx="60.3"
       cy="211.9"
       r="28.2"
       id="circle22" />
    <circle
       fill="#F4F4F4"
       cx="60.3"
       cy="211.8"
       r="28.2"
       id="circle24" />
    <circle
       fill="#F3F3F3"
       cx="60.3"
       cy="211.8"
       r="28.2"
       id="circle26" />
    <circle
       fill="#F2F2F2"
       cx="60.3"
       cy="211.8"
       r="28.2"
       id="circle28" />
    <circle
       fill="#F1F1F1"
       cx="60.3"
       cy="211.8"
       r="28.1"
       id="circle30" />
    <circle
       fill="#F0F0F0"
       cx="60.3"
       cy="211.8"
       r="28.1"
       id="circle32" />
    <circle
       fill="#EFEFEF"
       cx="60.3"
       cy="211.8"
       r="28.1"
       id="circle34" />
    <circle
       fill="#EEE"
       cx="60.3"
       cy="211.8"
       r="28.1"
       id="circle36" />
    <circle
       fill="#EDEDED"
       cx="60.3"
       cy="211.7"
       r="28.1"
       id="circle38" />
    <circle
       fill="#ECECED"
       cx="60.3"
       cy="211.7"
       r="28.1"
       id="circle40" />
    <circle
       fill="#EBEBEC"
       cx="60.3"
       cy="211.7"
       r="28.1"
       id="circle42" />
    <circle
       fill="#EAEAEB"
       cx="60.3"
       cy="211.7"
       r="28"
       id="circle44" />
    <circle
       fill="#E9E9EA"
       cx="60.3"
       cy="211.7"
       r="28"
       id="circle46" />
    <circle
       fill="#E8E8E9"
       cx="60.3"
       cy="211.7"
       r="28"
       id="circle48" />
    <circle
       fill="#E7E7E8"
       cx="60.3"
       cy="211.7"
       r="28"
       id="circle50" />
    <circle
       fill="#E6E6E7"
       cx="60.3"
       cy="211.6"
       r="28"
       id="circle52" />
    <circle
       fill="#E5E5E6"
       cx="60.3"
       cy="211.6"
       r="28"
       id="circle54" />
    <circle
       fill="#E4E4E5"
       cx="60.3"
       cy="211.6"
       r="28"
       id="circle56" />
    <circle
       fill="#E3E3E4"
       cx="60.3"
       cy="211.6"
       r="27.9"
       id="circle58" />
    <circle
       fill="#E2E2E3"
       cx="60.3"
       cy="211.6"
       r="27.9"
       id="circle60" />
    <circle
       fill="#E1E1E2"
       cx="60.3"
       cy="211.6"
       r="27.9"
       id="circle62" />
    <circle
       fill="#E0E0E1"
       cx="60.3"
       cy="211.6"
       r="27.9"
       id="circle64" />
    <circle
       fill="#DFDFE0"
       cx="60.3"
       cy="211.5"
       r="27.9"
       id="circle66" />
    <circle
       fill="#DEDEDF"
       cx="60.3"
       cy="211.5"
       r="27.9"
       id="circle68" />
    <circle
       fill="#DDDDDE"
       cx="60.3"
       cy="211.5"
       r="27.9"
       id="circle70" />
    <circle
       fill="#DCDCDD"
       cx="60.3"
       cy="211.5"
       r="27.8"
       id="circle72" />
    <circle
       fill="#DBDBDC"
       cx="60.3"
       cy="211.5"
       r="27.8"
       id="circle74" />
    <circle
       fill="#DADADB"
       cx="60.3"
       cy="211.5"
       r="27.8"
       id="circle76" />
    <circle
       fill="#D9D9DA"
       cx="60.3"
       cy="211.5"
       r="27.8"
       id="circle78" />
    <circle
       fill="#D8D8D9"
       cx="60.3"
       cy="211.4"
       r="27.8"
       id="circle80" />
    <circle
       fill="#D7D7D8"
       cx="60.3"
       cy="211.4"
       r="27.8"
       id="circle82" />
    <circle
       fill="#D6D6D7"
       cx="60.3"
       cy="211.4"
       r="27.8"
       id="circle84" />
    <circle
       fill="#D5D5D6"
       cx="60.3"
       cy="211.4"
       r="27.7"
       id="circle86" />
    <circle
       fill="#D4D4D5"
       cx="60.3"
       cy="211.4"
       r="27.7"
       id="circle88" />
    <circle
       fill="#D3D3D4"
       cx="60.3"
       cy="211.4"
       r="27.7"
       id="circle90" />
    <circle
       fill="#D2D2D3"
       cx="60.3"
       cy="211.4"
       r="27.7"
       id="circle92" />
    <circle
       fill="#D1D1D2"
       cx="60.3"
       cy="211.3"
       r="27.7"
       id="circle94" />
    <circle
       fill="#D0D0D1"
       cx="60.3"
       cy="211.3"
       r="27.7"
       id="circle96" />
    <circle
       fill="#CFCFD0"
       cx="60.3"
       cy="211.3"
       r="27.7"
       id="circle98" />
    <circle
       fill="#CECECF"
       cx="60.3"
       cy="211.3"
       r="27.6"
       id="circle100" />
    <circle
       fill="#CDCDCE"
       cx="60.3"
       cy="211.3"
       r="27.6"
       id="circle102" />
    <circle
       fill="#CCCCCD"
       cx="60.3"
       cy="211.3"
       r="27.6"
       id="circle104" />
    <circle
       fill="#CBCBCC"
       cx="60.3"
       cy="211.3"
       r="27.6"
       id="circle106" />
    <circle
       fill="#CACACB"
       cx="60.3"
       cy="211.2"
       r="27.6"
       id="circle108" />
    <circle
       fill="#C9C9CA"
       cx="60.3"
       cy="211.2"
       r="27.6"
       id="circle110" />
    <circle
       fill="#C8C8CA"
       cx="60.3"
       cy="211.2"
       r="27.6"
       id="circle112" />
    <circle
       fill="#C7C7C9"
       cx="60.3"
       cy="211.2"
       r="27.5"
       id="circle114" />
    <circle
       fill="#C6C6C8"
       cx="60.3"
       cy="211.2"
       r="27.5"
       id="circle116" />
    <circle
       fill="#C5C5C7"
       cx="60.3"
       cy="211.2"
       r="27.5"
       id="circle118" />
    <circle
       fill="#C4C4C6"
       cx="60.3"
       cy="211.2"
       r="27.5"
       id="circle120" />
    <circle
       fill="#C3C3C5"
       cx="60.3"
       cy="211.1"
       r="27.5"
       id="circle122" />
    <circle
       fill="#C2C2C4"
       cx="60.3"
       cy="211.1"
       r="27.5"
       id="circle124" />
    <circle
       fill="#C1C1C3"
       cx="60.3"
       cy="211.1"
       r="27.5"
       id="circle126" />
    <circle
       fill="#C0C0C2"
       cx="60.3"
       cy="211.1"
       r="27.4"
       id="circle128" />
    <circle
       fill="#BFBFC1"
       cx="60.3"
       cy="211.1"
       r="27.4"
       id="circle130" />
    <circle
       fill="#BEBEC0"
       cx="60.3"
       cy="211.1"
       r="27.4"
       id="circle132" />
    <circle
       fill="#BDBDBF"
       cx="60.3"
       cy="211.1"
       r="27.4"
       id="circle134" />
    <circle
       fill="#BCBCBE"
       cx="60.3"
       cy="211"
       r="27.4"
       id="circle136" />
    <circle
       fill="#BBBBBD"
       cx="60.3"
       cy="211"
       r="27.4"
       id="circle138" />
    <circle
       fill="#BABABC"
       cx="60.3"
       cy="211"
       r="27.4"
       id="circle140" />
    <circle
       fill="#B9B9BB"
       cx="60.3"
       cy="211"
       r="27.3"
       id="circle142" />
    <circle
       fill="#B8B8BA"
       cx="60.3"
       cy="211"
       r="27.3"
       id="circle144" />
    <circle
       fill="#B7B7B9"
       cx="60.3"
       cy="211"
       r="27.3"
       id="circle146" />
    <circle
       fill="#B6B7B8"
       cx="60.3"
       cy="211"
       r="27.3"
       id="circle148" />
    <circle
       fill="#B5B6B7"
       cx="60.3"
       cy="210.9"
       r="27.3"
       id="circle150" />
    <circle
       fill="#B4B5B6"
       cx="60.3"
       cy="210.9"
       r="27.3"
       id="circle152" />
    <circle
       fill="#B3B4B5"
       cx="60.3"
       cy="210.9"
       r="27.3"
       id="circle154" />
    <circle
       fill="#B2B3B4"
       cx="60.3"
       cy="210.9"
       r="27.2"
       id="circle156" />
    <circle
       fill="#B1B2B3"
       cx="60.3"
       cy="210.9"
       r="27.2"
       id="circle158" />
    <circle
       fill="#B0B1B2"
       cx="60.3"
       cy="210.9"
       r="27.2"
       id="circle160" />
    <circle
       fill="#AFB0B1"
       cx="60.3"
       cy="210.8"
       r="27.2"
       id="circle162" />
    <circle
       fill="#AEAFB0"
       cx="60.3"
       cy="210.8"
       r="27.2"
       id="circle164" />
    <circle
       fill="#ADAEAF"
       cx="60.3"
       cy="210.8"
       r="27.2"
       id="circle166" />
    <circle
       fill="#ACADAE"
       cx="60.3"
       cy="210.8"
       r="27.1"
       id="circle168" />
    <circle
       fill="#ABACAD"
       cx="60.3"
       cy="210.8"
       r="27.1"
       id="circle170" />
    <circle
       fill="#AAABAC"
       cx="60.3"
       cy="210.8"
       r="27.1"
       id="circle172" />
    <circle
       fill="#A9AAAB"
       cx="60.3"
       cy="210.8"
       r="27.1"
       id="circle174" />
    <circle
       fill="#A8A9AA"
       cx="60.3"
       cy="210.7"
       r="27.1"
       id="circle176" />
    <circle
       fill="#A7A8A9"
       cx="60.3"
       cy="210.7"
       r="27.1"
       id="circle178" />
    <circle
       fill="#A6A7A8"
       cx="60.3"
       cy="210.7"
       r="27.1"
       id="circle180" />
    <circle
       fill="#A5A6A7"
       cx="60.3"
       cy="210.7"
       r="27"
       id="circle182" />
    <circle
       fill="#A4A5A6"
       cx="60.3"
       cy="210.7"
       r="27"
       id="circle184" />
    <circle
       fill="#A3A4A6"
       cx="60.3"
       cy="210.7"
       r="27"
       id="circle186" />
    <circle
       fill="#A2A3A5"
       cx="60.3"
       cy="210.7"
       r="27"
       id="circle188" />
    <circle
       fill="#A1A2A4"
       cx="60.3"
       cy="210.6"
       r="27"
       id="circle190" />
    <circle
       fill="#A0A1A3"
       cx="60.3"
       cy="210.6"
       r="27"
       id="circle192" />
    <circle
       fill="#9FA0A2"
       cx="60.3"
       cy="210.6"
       r="27"
       id="circle194" />
    <circle
       fill="#9E9FA1"
       cx="60.3"
       cy="210.6"
       r="26.9"
       id="circle196" />
    <circle
       fill="#9D9EA0"
       cx="60.3"
       cy="210.6"
       r="26.9"
       id="circle198" />
    <circle
       fill="#9C9D9F"
       cx="60.3"
       cy="210.6"
       r="26.9"
       id="circle200" />
    <circle
       fill="#9B9C9E"
       cx="60.3"
       cy="210.6"
       r="26.9"
       id="circle202" />
    <circle
       fill="#9A9B9D"
       cx="60.3"
       cy="210.5"
       r="26.9"
       id="circle204" />
    <circle
       fill="#999A9C"
       cx="60.3"
       cy="210.5"
       r="26.9"
       id="circle206" />
    <circle
       fill="#98999B"
       cx="60.3"
       cy="210.5"
       r="26.9"
       id="circle208" />
    <circle
       fill="#97989A"
       cx="60.3"
       cy="210.5"
       r="26.8"
       id="circle210" />
    <circle
       fill="#969799"
       cx="60.3"
       cy="210.5"
       r="26.8"
       id="circle212" />
    <circle
       fill="#959698"
       cx="60.3"
       cy="210.5"
       r="26.8"
       id="circle214" />
    <circle
       fill="#949597"
       cx="60.3"
       cy="210.5"
       r="26.8"
       id="circle216" />
    <circle
       fill="#939496"
       cx="60.3"
       cy="210.4"
       r="26.8"
       id="circle218" />
    <circle
       fill="#929395"
       cx="60.3"
       cy="210.4"
       r="26.8"
       id="circle220" />
    <circle
       fill="#919294"
       cx="60.3"
       cy="210.4"
       r="26.8"
       id="circle222" />
    <circle
       fill="#909193"
       cx="60.3"
       cy="210.4"
       r="26.7"
       id="circle224" />
    <circle
       fill="#8F9092"
       cx="60.3"
       cy="210.4"
       r="26.7"
       id="circle226" />
    <circle
       fill="#8E8F91"
       cx="60.3"
       cy="210.4"
       r="26.7"
       id="circle228" />
    <circle
       fill="#8D8E90"
       cx="60.3"
       cy="210.4"
       r="26.7"
       id="circle230" />
    <circle
       fill="#8C8D8F"
       cx="60.3"
       cy="210.3"
       r="26.7"
       id="circle232" />
    <circle
       fill="#8B8C8E"
       cx="60.3"
       cy="210.3"
       r="26.7"
       id="circle234" />
    <circle
       fill="#8A8B8D"
       cx="60.3"
       cy="210.3"
       r="26.7"
       id="circle236" />
    <circle
       fill="#898A8C"
       cx="60.3"
       cy="210.3"
       r="26.6"
       id="circle238" />
    <circle
       fill="#88898B"
       cx="60.3"
       cy="210.3"
       r="26.6"
       id="circle240" />
    <circle
       fill="#87888A"
       cx="60.3"
       cy="210.3"
       r="26.6"
       id="circle242" />
    <circle
       fill="#868789"
       cx="60.3"
       cy="210.3"
       r="26.6"
       id="circle244" />
    <circle
       fill="#858688"
       cx="60.3"
       cy="210.2"
       r="26.6"
       id="circle246" />
    <circle
       fill="#848587"
       cx="60.3"
       cy="210.2"
       r="26.6"
       id="circle248" />
    <circle
       fill="#838486"
       cx="60.3"
       cy="210.2"
       r="26.6"
       id="circle250" />
    <circle
       fill="#828385"
       cx="60.3"
       cy="210.2"
       r="26.5"
       id="circle252" />
    <circle
       fill="#818284"
       cx="60.3"
       cy="210.2"
       r="26.5"
       id="circle254" />
    <circle
       fill="#808183"
       cx="60.3"
       cy="210.2"
       r="26.5"
       id="circle256" />
    <circle
       fill="#7F8083"
       cx="60.3"
       cy="210.2"
       r="26.5"
       id="circle258" />
    <circle
       fill="#7E7F82"
       cx="60.3"
       cy="210.1"
       r="26.5"
       id="circle260" />
    <circle
       fill="#7D7E81"
       cx="60.3"
       cy="210.1"
       r="26.5"
       id="circle262" />
    <circle
       fill="#7C7D80"
       cx="60.3"
       cy="210.1"
       r="26.5"
       id="circle264" />
    <circle
       fill="#7B7C7F"
       cx="60.3"
       cy="210.1"
       r="26.4"
       id="circle266" />
    <circle
       fill="#7A7B7E"
       cx="60.3"
       cy="210.1"
       r="26.4"
       id="circle268" />
    <circle
       fill="#797A7D"
       cx="60.3"
       cy="210.1"
       r="26.4"
       id="circle270" />
    <circle
       fill="#78797C"
       cx="60.3"
       cy="210.1"
       r="26.4"
       id="circle272" />
    <circle
       fill="#77787B"
       cx="60.3"
       cy="210"
       r="26.4"
       id="circle274" />
    <circle
       fill="#76777A"
       cx="60.3"
       cy="210"
       r="26.4"
       id="circle276" />
    <circle
       fill="#757679"
       cx="60.3"
       cy="210"
       r="26.4"
       id="circle278" />
    <circle
       fill="#747578"
       cx="60.3"
       cy="210"
       r="26.3"
       id="circle280" />
    <circle
       fill="#737477"
       cx="60.3"
       cy="210"
       r="26.3"
       id="circle282" />
    <circle
       fill="#727376"
       cx="60.3"
       cy="210"
       r="26.3"
       id="circle284" />
    <circle
       fill="#717275"
       cx="60.3"
       cy="210"
       r="26.3"
       id="circle286" />
    <circle
       fill="#707174"
       cx="60.3"
       cy="209.9"
       r="26.3"
       id="circle288" />
    <circle
       fill="#6F7073"
       cx="60.3"
       cy="209.9"
       r="26.3"
       id="circle290" />
    <circle
       fill="#6E6F72"
       cx="60.3"
       cy="209.9"
       r="26.3"
       id="circle292" />
    <circle
       fill="#6D6E71"
       cx="60.3"
       cy="209.9"
       r="26.2"
       id="circle294" />
  </g>
  <path
     fill="#1B1E20"
     d="M1.5 98.5h-.4C.5 98.5 0 98 0 97.4V76.3c0-.6.5-1.1 1.1-1.1h.4v23.3zM1.5 125.4h-.4c-.6 0-1.1-.5-1.1-1.1v-21.1c0-.6.5-1.1 1.1-1.1h.4v23.3zM119.2 75.2h.4c.6 0 1.1.5 1.1 1.1v21.1c0 .6-.5 1.1-1.1 1.1h-.4V75.2zM119.2 102.1h.4c.6 0 1.1.5 1.1 1.1v21.1c0 .6-.5 1.1-1.1 1.1h-.4v-23.3z"
     id="path298" />
  <linearGradient
     id="a"
     gradientUnits="userSpaceOnUse"
     x1="60.333"
     y1="260.417"
     x2="60.333">
    <stop
       offset=".031"
       stop-color="#261c19"
       id="stop300" />
    <stop
       offset=".156"
       stop-color="#261c19"
       id="stop302" />
    <stop
       offset=".885"
       stop-color="#261c19"
       id="stop304" />
    <stop
       offset=".936"
       stop-color="#231917"
       id="stop306" />
    <stop
       offset=".977"
       stop-color="#191110"
       id="stop308" />
    <stop
       offset=".987"
       stop-color="#150e0d"
       id="stop310" />
    <stop
       offset=".988"
       stop-color="#1d1513"
       id="stop312" />
    <stop
       offset=".991"
       stop-color="#241a18"
       id="stop314" />
    <stop
       offset="1"
       stop-color="#261c19"
       id="stop316" />
  </linearGradient>
  <path
     fill="url(#a)"
     d="M1.5 254.5V7.2c0-2.1 1.7-3.7 3.7-3.7h6.3V.7c0-.4.3-.7.7-.7h96.2c.4 0 .7.3.7.7v2.7h6.3c2.1 0 3.8 1.7 3.8 3.8v248c0 2.4-1.6 4.4-3.7 5-.5.1-1 .2-1.5.2H6.8c-.5 0-1-.1-1.5-.2-2.2-.6-3.7-2.7-3.7-5v-.7z"
     id="path319" />
  <linearGradient
     id="b"
     gradientUnits="userSpaceOnUse"
     x1="17.834"
     y1="212"
     x2="102.834"
     y2="212">
    <stop
       offset="0"
       stop-color="#150e0d"
       id="stop321" />
    <stop
       offset=".061"
       stop-color="#1f1615"
       id="stop323" />
    <stop
       offset=".156"
       stop-color="#261b1a"
       id="stop325" />
    <stop
       offset=".413"
       stop-color="#281d1b"
       id="stop327" />
    <stop
       offset=".498"
       stop-color="#241d1c"
       id="stop329" />
    <stop
       offset=".645"
       stop-color="#261d1c"
       id="stop331" />
    <stop
       offset=".669"
       stop-color="#281d1b"
       id="stop333" />
    <stop
       offset=".827"
       stop-color="#251a19"
       id="stop335" />
    <stop
       offset=".954"
       stop-color="#1b1311"
       id="stop337" />
    <stop
       offset="1"
       stop-color="#150e0d"
       id="stop339" />
  </linearGradient>
  <circle
     fill="url(#b)"
     cx="60.3"
     cy="212"
     r="42.5"
     id="circle342" />
  <circle
     fill="#2A201F"
     cx="60.3"
     cy="212"
     r="35.3"
     id="circle344" />
  <circle
     fill="#020101"
     cx="60.3"
     cy="212"
     r="31.7"
     id="circle346" />
  <circle
     fill="#1E1514"
     cx="60.3"
     cy="212"
     r="30.8"
     id="circle348" />
  <path
     fill="#211715"
     d="M6.4 50.5c0-9.5 7.8-18.3 17.3-18.3h73.5c9.5 0 17.3 8.8 17.3 18.3M114.3 151c0 9.5-7.8 18.3-17.3 18.3H23.6c-9.5 0-17.3-8.8-17.3-18.3"
     id="path350" />
  <path
     fill="#3B3130"
     d="M114.3 50.5c0-9.5-7.8-17.3-17.3-17.3H23.6c-9.5 0-17.3 7.8-17.3 17.3v100.2c0 9.5 7.8 17.3 17.3 17.3h73.5c9.5 0 17.3-7.8 17.3-17.3V50.5z"
     id="path352" />
  <path
     fill="#4A3937"
     d="M97.2 165.9H23.4c-7.5 0-13.6-6.1-13.6-13.6V49c0-7.5 6.1-13.6 13.6-13.6h73.8c7.5 0 13.6 6.1 13.6 13.6v103.3c0 7.5-6.1 13.6-13.6 13.6z"
     id="path354" />
  <path
     fill="#2D2223"
     d="M95.9 163.2H24.7c-6.6 0-12-5.4-12-12V50.3c0-6.6 5.4-12 12-12h71.2c6.6 0 12 5.4 12 12v100.9c0 6.6-5.4 12-12 12z"
     id="path356" />
  <path
     fill="#D4C1A0"
     d="M95.6 156.9H25.1c-3.3 0-6-2.7-6-6V50.6c0-3.3 2.7-6 6-6h70.5c3.3 0 6 2.7 6 6V151c0 3.2-2.7 5.9-6 5.9z"
     id="path358" />
  <path
     fill="#682C00"
     d="M95.6 157.1H25.1c-3.4 0-6.1-2.7-6.1-6.1V50.6c0-3.4 2.7-6.1 6.1-6.1h70.5c3.4 0 6.1 2.7 6.1 6.1V151c0 3.3-2.8 6.1-6.1 6.1zM25.1 44.8c-3.2 0-5.9 2.6-5.9 5.9V151c0 3.2 2.6 5.9 5.9 5.9h70.5c3.2 0 5.9-2.6 5.9-5.9V50.6c0-3.2-2.6-5.9-5.9-5.9H25.1z"
     id="path360" />
  <path
     fill="#2E251A"
     d="M41.5 71.5H24.4c-1.7 0-3.2-1.4-3.2-3.2v-17c0-1.7 1.4-3.2 3.2-3.2h17.1c1.7 0 3.2 1.4 3.2 3.2v17.1c-.1 1.7-1.5 3.1-3.2 3.1z"
     id="path362" />
  <path
     fill="#D3C09E"
     d="M32.9 69.7c3.8 0 6.7-.6 8.3-1.4 1.4-.6 1.5-3.2 1.5-8.4s-.2-7.8-1.5-8.4c-1.5-.8-4.5-1.4-8.2-1.4-3.8 0-6.7.6-8.2 1.4-1.3.7-1.5 3.3-1.5 8.4s.2 7.8 1.5 8.4c1.4.8 4.3 1.4 8.1 1.4z"
     id="path364" />
  <path
     fill="#D2B892"
     d="M24.9 59.5v.3c0 4.4 3.6 8 8 8s8-3.6 8-8v-.3c-.2-4.3-3.7-7.7-8-7.7s-7.8 3.4-8 7.7z"
     id="path366" />
  <path
     fill="none"
     stroke="#682C00"
     stroke-width=".25"
     stroke-miterlimit="10"
     d="M68.6 71.5H51.5c-1.7 0-3.2-1.4-3.2-3.2v-17c0-1.7 1.4-3.2 3.2-3.2h17.1c1.7 0 3.2 1.4 3.2 3.2v17.1c-.1 1.7-1.5 3.1-3.2 3.1z"
     id="path368" />
  <path
     fill="#2C2316"
     d="M68.6 71.5H51.5c-1.7 0-3.2-1.4-3.2-3.2v-17c0-1.7 1.4-3.2 3.2-3.2h17.1c1.7 0 3.2 1.4 3.2 3.2v17.1c-.1 1.7-1.5 3.1-3.2 3.1z"
     id="path370" />
  <path
     fill="#D3C09E"
     d="M60 69.7c3.8 0 6.7-.6 8.3-1.4 1.4-.6 1.5-3.2 1.5-8.4s-.2-7.8-1.5-8.4c-1.6-1-4.5-1.5-8.3-1.5-3.8 0-6.7.6-8.2 1.4-1.3.7-1.5 3.3-1.5 8.4s.2 7.8 1.5 8.4c1.5.9 4.4 1.5 8.2 1.5z"
     id="path372" />
  <circle
     fill="#D2B892"
     cx="60"
     cy="59.8"
     r="8"
     id="circle374" />
  <path
     fill="#2C2316"
     d="M95.7 71.5H78.6c-1.7 0-3.2-1.4-3.2-3.2v-17c0-1.7 1.4-3.2 3.2-3.2h17.1c1.7 0 3.2 1.4 3.2 3.2v17.1c0 1.7-1.5 3.1-3.2 3.1z"
     id="path376" />
  <path
     fill="#D3C09E"
     d="M87.1 69.7c3.8 0 6.7-.6 8.3-1.4 1.4-.6 1.5-3.2 1.5-8.4s-.2-7.8-1.5-8.4c-1.5-.8-4.5-1.4-8.2-1.4-3.8 0-6.7.6-8.2 1.4-1.3.7-1.5 3.3-1.5 8.4s.2 7.8 1.5 8.4c1.4.8 4.3 1.4 8.1 1.4z"
     id="path378" />
  <circle
     fill="#D2B892"
     cx="87.1"
     cy="59.8"
     r="8"
     id="circle380" />
  <path
     fill="#2C2316"
     d="M41.5 98.6H24.4c-1.7 0-3.2-1.4-3.2-3.2v-17c0-1.7 1.4-3.2 3.2-3.2h17.1c1.7 0 3.2 1.4 3.2 3.2v17.1c-.1 1.7-1.5 3.1-3.2 3.1z"
     id="path382" />
  <path
     fill="#D3C09E"
     d="M32.9 96.8c3.8 0 6.7-.6 8.3-1.4 1.4-.6 1.5-3.2 1.5-8.4s-.2-7.8-1.5-8.4c-1.5-.8-4.5-1.4-8.2-1.4-3.8 0-6.7.6-8.2 1.4-1.3.7-1.5 3.3-1.5 8.4s.2 7.8 1.5 8.4c1.4.8 4.3 1.4 8.1 1.4z"
     id="path384" />
  <circle
     fill="#D2B892"
     cx="32.9"
     cy="86.9"
     r="8"
     id="circle386" />
  <path
     fill="#2C2316"
     d="M68.6 98.6H51.5c-1.7 0-3.2-1.4-3.2-3.2v-17c0-1.7 1.4-3.2 3.2-3.2h17.1c1.7 0 3.2 1.4 3.2 3.2v17.1c-.1 1.7-1.5 3.1-3.2 3.1z"
     id="path388" />
  <path
     fill="#D3C09E"
     d="M60 96.8c3.8 0 6.7-.6 8.3-1.4 1.4-.6 1.5-3.2 1.5-8.4s-.2-7.8-1.5-8.4c-1.5-.8-4.5-1.4-8.2-1.4-3.8 0-6.7.6-8.2 1.4-1.3.7-1.5 3.3-1.5 8.4s.2 7.8 1.5 8.4c1.4.8 4.3 1.4 8.1 1.4z"
     id="path390" />
  <circle
     fill="#D2B892"
     cx="60"
     cy="86.9"
     r="8"
     id="circle392" />
  <path
     fill="#2C2316"
     d="M95.7 98.6H78.6c-1.7 0-3.2-1.4-3.2-3.2v-17c0-1.7 1.4-3.2 3.2-3.2h17.1c1.7 0 3.2 1.4 3.2 3.2v17.1c0 1.7-1.5 3.1-3.2 3.1z"
     id="path394" />
  <path
     fill="#D3C09E"
     d="M87.1 96.8c3.8 0 6.7-.6 8.3-1.4 1.4-.6 1.5-3.2 1.5-8.4s-.2-7.8-1.5-8.4c-1.5-.8-4.5-1.4-8.2-1.4-3.8 0-6.7.6-8.2 1.4-1.3.7-1.5 3.3-1.5 8.4s.2 7.8 1.5 8.4c1.4.8 4.3 1.4 8.1 1.4z"
     id="path396" />
  <circle
     fill="#D2B892"
     cx="87.1"
     cy="86.9"
     r="8"
     id="circle398" />
  <path
     fill="#2C2316"
     d="M41.5 125.8H24.4c-1.7 0-3.2-1.4-3.2-3.2v-17.1c0-1.7 1.4-3.2 3.2-3.2h17.1c1.7 0 3.2 1.4 3.2 3.2v17.1c-.1 1.8-1.5 3.2-3.2 3.2z"
     id="path400" />
  <path
     fill="#D3C09E"
     d="M32.9 123.9c3.8 0 6.7-.6 8.3-1.4 1.4-.6 1.5-3.2 1.5-8.4s-.2-7.8-1.5-8.4c-1.5-.8-4.5-1.4-8.2-1.4-3.8 0-6.7.6-8.2 1.4-1.3.7-1.5 3.3-1.5 8.4s.2 7.8 1.5 8.4c1.4.8 4.3 1.4 8.1 1.4z"
     id="path402" />
  <circle
     fill="#D2B892"
     cx="32.9"
     cy="114.1"
     r="8"
     id="circle404" />
  <path
     fill="#2C2316"
     d="M68.6 125.8H51.5c-1.7 0-3.2-1.4-3.2-3.2v-17.1c0-1.7 1.4-3.2 3.2-3.2h17.1c1.7 0 3.2 1.4 3.2 3.2v17.1c-.1 1.8-1.5 3.2-3.2 3.2z"
     id="path406" />
  <path
     fill="#D3C09E"
     d="M60 123.9c3.8 0 6.7-.6 8.3-1.4 1.4-.6 1.5-3.2 1.5-8.4s-.2-7.8-1.5-8.4c-1.5-.8-4.5-1.4-8.2-1.4-3.8 0-6.7.6-8.2 1.4-1.3.7-1.5 3.3-1.5 8.4s.2 7.8 1.5 8.4c1.4.8 4.3 1.4 8.1 1.4z"
     id="path408" />
  <circle
     fill="#D2B892"
     cx="60"
     cy="114.1"
     r="8"
     id="circle410" />
  <path
     fill="#2C2316"
     d="M95.7 125.8H78.6c-1.7 0-3.2-1.4-3.2-3.2v-17.1c0-1.7 1.4-3.2 3.2-3.2h17.1c1.7 0 3.2 1.4 3.2 3.2v17.1c0 1.8-1.5 3.2-3.2 3.2z"
     id="path412" />
  <path
     fill="#D3C09E"
     d="M87.1 123.9c3.8 0 6.7-.6 8.3-1.4 1.4-.6 1.5-3.2 1.5-8.4s-.2-7.8-1.5-8.4c-1.5-.8-4.5-1.4-8.2-1.4-3.8 0-6.7.6-8.2 1.4-1.3.7-1.5 3.3-1.5 8.4s.2 7.8 1.5 8.4c1.4.8 4.3 1.4 8.1 1.4z"
     id="path414" />
  <circle
     fill="#D2B892"
     cx="87.1"
     cy="114.1"
     r="8"
     id="circle416" />
  <path
     fill="#2C2316"
     d="M41.5 152.9H24.4c-1.7 0-3.2-1.4-3.2-3.2v-17.1c0-1.7 1.4-3.2 3.2-3.2h17.1c1.7 0 3.2 1.4 3.2 3.2v17.1c-.1 1.8-1.5 3.2-3.2 3.2z"
     id="path418" />
  <path
     fill="#D3C09E"
     d="M32.9 151c3.8 0 6.7-.6 8.3-1.4 1.4-.6 1.5-3.2 1.5-8.4s-.2-7.8-1.5-8.4c-1.5-.8-4.5-1.4-8.2-1.4-3.8 0-6.7.6-8.2 1.4-1.3.7-1.5 3.3-1.5 8.4s.2 7.8 1.5 8.4c1.4.9 4.3 1.4 8.1 1.4z"
     id="path420" />
  <circle
     fill="#D2B892"
     cx="32.9"
     cy="141.2"
     r="8"
     id="circle422" />
  <path
     fill="#2C2316"
     d="M68.6 152.9H51.5c-1.7 0-3.2-1.4-3.2-3.2v-17.1c0-1.7 1.4-3.2 3.2-3.2h17.1c1.7 0 3.2 1.4 3.2 3.2v17.1c-.1 1.8-1.5 3.2-3.2 3.2z"
     id="path424" />
  <path
     fill="#D3C09E"
     d="M60 151c3.8 0 6.7-.6 8.3-1.4 1.4-.6 1.5-3.2 1.5-8.4s-.2-7.8-1.5-8.4c-1.5-.8-4.5-1.4-8.2-1.4-3.8 0-6.7.6-8.2 1.4-1.3.7-1.5 3.3-1.5 8.4s.2 7.8 1.5 8.4c1.4.9 4.3 1.4 8.1 1.4z"
     id="path426" />
  <circle
     fill="#D2B892"
     cx="60"
     cy="141.2"
     r="8"
     id="circle428" />
  <path
     fill="#2C2316"
     d="M95.7 152.9H78.6c-1.7 0-3.2-1.4-3.2-3.2v-17.1c0-1.7 1.4-3.2 3.2-3.2h17.1c1.7 0 3.2 1.4 3.2 3.2v17.1c0 1.8-1.5 3.2-3.2 3.2z"
     id="path430" />
  <path
     fill="#D3C09E"
     d="M87.1 151c3.8 0 6.7-.6 8.3-1.4 1.4-.6 1.5-3.2 1.5-8.4s-.2-7.8-1.5-8.4c-1.5-.8-4.5-1.4-8.2-1.4-3.8 0-6.7.6-8.2 1.4-1.3.7-1.5 3.3-1.5 8.4s.2 7.8 1.5 8.4c1.4.9 4.3 1.4 8.1 1.4z"
     id="path432" />
  <circle
     fill="#D2B892"
     cx="87.1"
     cy="141.2"
     r="8"
     id="circle434" />
  <path
     fill="#C8AB7A"
     d="M27 59.3c2.1-.1 4.9-.1 5.9-.1s3.8.1 5.9.1c1 0 1.8.1 2.1.2v.3c0 4.4-3.6 8-8 8s-8-3.6-8-8v-.3c.4-.1 1.2-.1 2.1-.2z"
     id="path436" />
  <path
     fill="#CDB487"
     d="M27 59.4c0 3.2 2.6 5.9 5.9 5.9s5.9-2.7 5.9-5.9c-2.1-.1-4.9-.1-5.9-.1s-3.8 0-5.9.1"
     id="path438" />
  <path
     fill="#312A20"
     d="M32.2 57.3h2.3v5h-1.4v-3.9h-.3l-1.6 1.3-.8-.8 1.8-1.6z"
     id="path440" />
  <path
     fill="#C8AB7A"
     d="M54.2 59.3c2.1-.1 4.9-.1 5.9-.1s3.8.1 5.9.1c1 0 1.8.1 2.1.2v.3c0 4.4-3.6 8-8 8s-8-3.6-8-8v-.3c.3-.1 1.1-.1 2.1-.2z"
     id="path442" />
  <path
     fill="#CDB487"
     d="M54.2 59.4c0 3.2 2.6 5.9 5.9 5.9s5.9-2.7 5.9-5.9c-2.1-.1-4.9-.1-5.9-.1s-3.9 0-5.9.1"
     id="path444" />
  <path
     fill="#312A20"
     d="M61 59.3c.1 0 .3 0 .3-.1.1-.1.2-.2.2-.4s0-.3-.1-.4c-.1-.1-.2-.1-.4-.1h-1.8c-.2 0-.4.1-.6.2-.1.1-.2.2-.2.4h-1.3v-.6c0-.3.1-.6.4-.8.2-.2.6-.3 1-.3h3c.4 0 .7.1 1 .3.3.2.4.5.4.8v.7c0 .5-.1.8-.4 1.1-.2.2-.6.3-1 .3H59c-.1 0-.3 0-.3.1-.1.1-.1.2-.1.3v.4H63v1.1h-5.8v-1.8c0-.3.1-.6.4-.8.3-.2.6-.3 1.1-.3H61z"
     id="path446" />
  <path
     fill="#C8AB7A"
     d="M81.3 59.3c2.1-.1 4.9-.1 5.9-.1s3.8.1 5.9.1c1 0 1.8.1 2.1.2v.3c0 4.4-3.6 8-8 8s-8-3.6-8-8v-.3c.3-.1 1.1-.1 2.1-.2z"
     id="path448" />
  <path
     fill="#CDB487"
     d="M81.3 59.4c0 3.2 2.6 5.9 5.9 5.9s5.9-2.7 5.9-5.9c-2.1-.1-4.9-.1-5.9-.1s-3.9 0-5.9.1"
     id="path450" />
  <path
     fill="#312A20"
     d="M89.6 59.5c-.1.2-.2.3-.3.3.1.1.2.2.3.4 0 .1.1.3.1.4v.6c0 .3-.1.6-.4.8s-.6.3-1 .3h-3c-.4 0-.8-.1-1-.3-.2-.2-.4-.5-.4-.8v-.6h1.3c0 .2.1.3.2.4s.3.2.5.2h1.8c.1 0 .3 0 .4-.1.1-.1.1-.2.1-.4 0-.1 0-.3-.1-.3-.1-.1-.2-.1-.3-.1H86.4v-1h1.3c.1 0 .3 0 .3-.1.1-.1.1-.2.1-.4s0-.3-.1-.4c-.1-.1-.2-.1-.4-.1H86c-.2 0-.4.1-.5.2s-.2.2-.2.4H84v-.6c0-.3.1-.6.4-.8.2-.2.6-.3 1-.3h3c.4 0 .7.1 1 .3s.4.5.4.8v.7c-.1.2-.1.3-.2.5z"
     id="path452" />
  <path
     fill="#C8AB7A"
     d="M27 86.6c2.1-.1 4.9-.1 5.9-.1s3.8.1 5.9.1c1 0 1.8.1 2.1.2v.3c0 4.4-3.6 8-8 8s-8-3.6-8-8v-.3c.4-.1 1.2-.2 2.1-.2z"
     id="path454" />
  <path
     fill="#CDB487"
     d="M27 86.6c0 3.2 2.6 5.9 5.9 5.9s5.9-2.7 5.9-5.9c-2.1-.1-4.9-.1-5.9-.1s-3.8 0-5.9.1"
     id="path456" />
  <path
     fill="#312A20"
     d="M29.8 86.7l3.2-2.3h2.2v2.9h.8v1h-.8v1.1h-1.4v-1.1h-4v-1.6zm4 .6v-1.8h-.2l-2.5 1.6v.2h2.7z"
     id="path458" />
  <path
     fill="#C8AB7A"
     d="M54.2 86.5c2.1-.1 4.9-.1 5.9-.1s3.8.1 5.9.1c1 0 1.8.1 2.1.2v.3c0 4.4-3.6 8-8 8s-8-3.6-8-8v-.3c.3-.1 1.1-.2 2.1-.2z"
     id="path460" />
  <path
     fill="#CDB487"
     d="M54.2 86.5c0 3.2 2.6 5.9 5.9 5.9s5.9-2.7 5.9-5.9c-2.1-.1-4.9-.1-5.9-.1s-3.9 0-5.9.1"
     id="path462" />
  <path
     fill="#312A20"
     d="M57.1 87.5v-3.1h5.8v1.1h-4.4v.9c.1-.1.1-.1.2-.1h2.8c.4 0 .7.1 1 .3.3.2.4.6.4 1v.8c0 .3-.1.6-.4.8-.2.2-.6.3-1 .3h-3c-.4 0-.8-.1-1-.3-.3-.2-.4-.5-.4-.8v-.2h1.4c0 .1 0 .1.1.2h2.5c.2 0 .3 0 .4-.1 0-.1.1-.2.1-.4s0-.3-.1-.4c-.1-.1-.2-.2-.3-.2H59c-.1 0-.2 0-.3.1l-.2.2h-1.4z"
     id="path464" />
  <path
     fill="#C8AB7A"
     d="M81.3 86.6c2.1-.1 4.9-.1 5.9-.1s3.8.1 5.9.1c1 0 1.8.1 2.1.2v.3c0 4.4-3.6 8-8 8s-8-3.6-8-8v-.3c.3-.1 1.1-.2 2.1-.2z"
     id="path466" />
  <path
     fill="#CDB487"
     d="M81.3 86.6c0 3.2 2.6 5.9 5.9 5.9s5.9-2.7 5.9-5.9c-2.1-.1-4.9-.1-5.9-.1s-3.9 0-5.9.1"
     id="path468" />
  <path
     fill="#312A20"
     d="M88.1 85.6c-.1 0-.2-.1-.3-.1h-2.1c-.1 0-.3 0-.3.1-.1.1-.1.2-.1.3v.6c.1-.1.1-.1.2-.1h2.8c.4 0 .7.1 1 .3.3.2.4.6.4 1v.6c0 .3-.1.6-.4.8-.2.2-.6.3-1 .3h-3c-.5 0-.8-.1-1.1-.3-.2-.2-.4-.5-.4-.8v-2.8c0-.4.1-.7.4-.8.2-.2.6-.3 1.1-.3h3c.4 0 .7.1 1 .3.3.2.4.5.4.8v.3h-1.4c0-.1-.1-.2-.2-.2zm.1 1.9c-.1-.1-.2-.1-.3-.1h-2.1c-.1 0-.2 0-.3.1s-.1.2-.1.4 0 .3.1.4c.1.1.2.1.4.1H88c.1 0 .2 0 .3-.1s.1-.2.1-.4c-.1-.2-.1-.3-.2-.4z"
     id="path470" />
  <path
     fill="#C8AB7A"
     d="M27 113.5c2.1-.1 4.9-.1 5.9-.1s3.8.1 5.9.1c1 0 1.8.1 2.1.2v.3c0 4.4-3.6 8-8 8s-8-3.6-8-8v-.3c.4-.1 1.2-.2 2.1-.2z"
     id="path472" />
  <path
     fill="#CDB487"
     d="M27 113.5c0 3.2 2.6 5.9 5.9 5.9s5.9-2.7 5.9-5.9c-2.1-.1-4.9-.1-5.9-.1s-3.8 0-5.9.1"
     id="path474" />
  <path
     fill="#312A20"
     d="M35.6 111.3h.2v1.1l-2.9 3.9H31l3-3.9h-4v-1.1h5.6z"
     id="path476" />
  <path
     fill="#C8AB7A"
     d="M54.1 113.9c2.1-.1 4.9-.1 5.9-.1s3.8.1 5.9.1c1 0 1.8.1 2.1.2v.3c0 4.4-3.6 8-8 8s-8-3.6-8-8v-.3c.4-.1 1.2-.2 2.1-.2z"
     id="path478" />
  <path
     fill="#CDB487"
     d="M54.1 113.9c0 3.2 2.6 5.9 5.9 5.9s5.9-2.7 5.9-5.9c-2.1-.1-4.9-.1-5.9-.1s-3.8 0-5.9.1"
     id="path480" />
  <path
     fill="#312A20"
     d="M57.3 113.5c-.1-.1-.2-.3-.2-.5v-.6c0-.3.1-.6.4-.8.2-.2.6-.3 1-.3h3c.5 0 .8.1 1.1.3.2.2.4.5.4.8v.6c0 .3-.1.5-.2.6-.1.1-.2.2-.4.3.3.1.4.2.5.3s.1.3.1.4v.6c0 .4-.1.7-.4.8-.2.2-.6.3-1.1.3h-3c-.4 0-.7-.1-1-.3-.3-.2-.4-.5-.4-.8v-.6c0-.2.1-.4.3-.6 0 0 .1-.1.3-.2-.2-.1-.3-.2-.4-.3zm1.3 1.6c.1.1.2.1.4.1h2c.1 0 .3 0 .4-.1s.1-.2.1-.3c0-.2 0-.3-.1-.4s-.2-.1-.3-.1H59c-.2 0-.3 0-.4.1s-.1.2-.1.3c0 .2 0 .3.1.4zm.4-1.8h2.1c.1 0 .3 0 .3-.1.1-.1.1-.2.1-.3 0-.2 0-.3-.1-.4-.1-.1-.2-.1-.4-.1h-2c-.2 0-.3 0-.3.1-.1.1-.1.2-.1.4-.1.3.1.4.4.4z"
     id="path482" />
  <path
     fill="#C8AB7A"
     d="M81.3 113.5c2.1-.1 4.9-.1 5.9-.1s3.8.1 5.9.1c1 0 1.8.1 2.1.2v.3c0 4.4-3.6 8-8 8s-8-3.6-8-8v-.3c.3-.1 1.1-.2 2.1-.2z"
     id="path484" />
  <path
     fill="#CDB487"
     d="M81.3 113.5c0 3.2 2.6 5.9 5.9 5.9s5.9-2.7 5.9-5.9c-2.1-.1-4.9-.1-5.9-.1s-3.9 0-5.9.1"
     id="path486" />
  <path
     fill="#312A20"
     d="M85.5 115.1c.1 0 .2.1.3.1h2.1c.1 0 .3 0 .3-.1s.1-.2.1-.4v-.6l-.2.2h-2.8c-.4 0-.7-.1-1-.3-.3-.2-.4-.6-.4-1v-.6c0-.3.1-.6.4-.8.2-.2.6-.3 1-.3h3c.5 0 .8.1 1.1.3.2.2.4.5.4.8v2.8c0 .4-.1.7-.4.8-.2.2-.6.3-1.1.3h-3c-.4 0-.7-.1-1-.3-.3-.2-.4-.5-.4-.8v-.3h1.4l.2.2zm0-1.9c.1.1.2.1.3.1h2.1c.1 0 .2 0 .3-.1.1-.1.1-.2.1-.3 0-.2 0-.3-.1-.4s-.2-.1-.4-.1h-2.1c-.1 0-.2 0-.3.1-.1.1-.1.2-.1.4.1.1.1.2.2.3z"
     id="path488" />
  <path
     fill="#C8AB7A"
     d="M27 140.6c2.1-.1 4.9-.1 5.9-.1s3.8.1 5.9.1c1 0 1.8.1 2.1.2v.3c0 4.4-3.6 8-8 8s-8-3.6-8-8v-.3c.4-.1 1.2-.1 2.1-.2z"
     id="path490" />
  <path
     fill="#CDB487"
     d="M27 140.6c0 3.2 2.6 5.9 5.9 5.9s5.9-2.7 5.9-5.9c-2.1-.1-4.9-.1-5.9-.1s-3.8 0-5.9.1"
     id="path492" />
  <path
     fill="#312A20"
     d="M29.4 141.4v.4c0 .2-.1.3-.2.4-.1.1-.2.2-.4.2h-1.7c-.2 0-.3-.1-.4-.2-.1-.1-.2-.3-.2-.4v-1.6c0-.2.1-.3.2-.4.1-.1.2-.2.4-.2h1.7c.2 0 .3.1.4.2.1.1.2.3.2.5v.4h-.8c0-.1 0-.1-.1-.2 0 0-.1-.1-.2-.1h-.8c-.1 0-.2 0-.2.1 0 0-.1.1-.1.2v.7c0 .1 0 .2.1.2 0 0 .1.1.2.1h.8c.1 0 .2 0 .2-.1s.1-.1.1-.2h.8zM30.4 138.2v4.3h-.8v-4.3h.8zM31.7 141.4c0 .1 0 .2.1.2 0 0 .1.1.2.1h.8c.1 0 .2 0 .2-.1 0 0 .1-.1.1-.2h.8v.4c0 .2-.1.3-.2.5-.1.1-.2.2-.4.2h-1.7c-.2 0-.3-.1-.4-.2-.1-.1-.2-.3-.2-.4v-1.6c0-.2.1-.3.2-.4.1-.1.2-.2.4-.2h1.7c.2 0 .3.1.4.2.1.1.2.3.2.5v.9h-2.1v.1zm1.3-.7c0-.1 0-.2-.1-.3 0-.1-.1-.1-.2-.1h-.8c-.1 0-.2 0-.2.1s-.1.2-.1.3H33zM36 142.4c-.1.1-.2.1-.3.1h-1.1c-.2 0-.3-.1-.4-.2-.1-.1-.1-.3-.1-.5v-.4c0-.2.1-.4.2-.5.1-.1.2-.2.4-.2H36c.1 0 .1.1.2.2v-.5c0-.1 0-.2-.1-.2 0 0-.1-.1-.2-.1h-1l-.1.1h-.7v-.2c0-.2.1-.3.2-.4.1-.1.3-.2.5-.2h1.5c.2 0 .3.1.4.2.1.1.2.3.2.5v2.2h-.8v-.3c0 .3-.1.3-.1.4zm-.9-1.1c-.1 0-.1 0-.1.1s-.1.1-.1.2 0 .1.1.2l.1.1h.8c.1 0 .2 0 .2-.1.1-.1.1-.1.1-.2s0-.1-.1-.2-.1-.1-.2-.1h-.8zM39 140.7c0-.2-.1-.3-.3-.3h-.3c-.1 0-.2 0-.2.1-.1.1-.1.2-.1.4v1.5h-.8v-2.9h.8v.4c0-.1.1-.2.2-.3.1-.1.2-.1.3-.1h.6c.2 0 .3.1.4.2.1.1.2.3.2.5v.6H39v-.1z"
     id="path494" />
  <path
     fill="#C8AB7A"
     d="M54.1 140.6c2.1-.1 4.9-.1 5.9-.1s3.8.1 5.9.1c1 0 1.8.1 2.1.2v.3c0 4.4-3.6 8-8 8s-8-3.6-8-8v-.3c.4-.1 1.2-.1 2.1-.2z"
     id="path496" />
  <path
     fill="#CDB487"
     d="M54.1 140.6c0 3.2 2.6 5.9 5.9 5.9s5.9-2.7 5.9-5.9c-2.1-.1-4.9-.1-5.9-.1s-3.8 0-5.9.1"
     id="path498" />
  <path
     fill="#312A20"
     d="M63.1 142.1c0 .3-.1.6-.4.8s-.6.3-1 .3h-3.4c-.4 0-.7-.1-1-.3-.3-.2-.4-.5-.4-.8v-2.8c0-.3.1-.5.4-.8s.6-.3 1-.3h3.4c.4 0 .8.1 1 .3.3.2.4.5.4.8V142.1zm-1.7-2.6c-.2-.1-.4-.2-.6-.2h-1.7c-.2 0-.4.1-.6.2-.2.1-.3.3-.3.4v1.7c0 .2.1.3.2.4.2.1.4.2.6.2h1.7c.2 0 .4-.1.6-.2.2-.1.2-.2.2-.4v-1.7c.2-.1.1-.3-.1-.4z"
     id="path500" />
  <path
     fill="#C8AB7A"
     d="M81.3 140.6c2.1-.1 4.9-.1 5.9-.1s3.8.1 5.9.1c1 0 1.8.1 2.1.2v.3c0 4.4-3.6 8-8 8s-8-3.6-8-8v-.3c.3-.1 1.1-.1 2.1-.2z"
     id="path502" />
  <path
     fill="#CDB487"
     d="M81.3 140.6c0 3.2 2.6 5.9 5.9 5.9s5.9-2.7 5.9-5.9c-2.1-.1-4.9-.1-5.9-.1s-3.9 0-5.9.1"
     id="path504" />
  <path
     fill="#312A20"
     d="M81 141.3c0 .1 0 .2.1.2 0 0 .1.1.2.1h.7c.1 0 .1 0 .2-.1 0-.1.1-.1.1-.2h.7v.5c0 .2-.1.4-.2.5-.1.1-.2.2-.4.2h-1.5c-.1 0-.3-.1-.4-.2-.1-.1-.1-.3-.1-.5V140c0-.2.1-.3.2-.5.1-.1.2-.2.4-.2h1.5c.2 0 .3.1.4.2.1.1.1.3.1.5v1h-2v.3zm1.2-.8c0-.2 0-.3-.1-.3 0-.1-.1-.1-.2-.1h-.7c-.1 0-.1 0-.2.1 0 .1-.1.2-.1.3h1.3zM85 140.5c0-.1 0-.2-.1-.2 0 0-.1-.1-.2-.1H84c-.2 0-.2.1-.2.3v2h-.7v-3.2h.7v.4c0-.1.1-.2.2-.3.1-.1.2-.1.3-.1h.9c.1 0 .3.1.4.2.1.1.2.3.2.5v2.5H85v-2zM87.1 138.5v.8h1.1v.9h-1.1v1.1c0 .1 0 .2.1.2 0 0 .1.1.2.1s.2 0 .2-.1c0 0 .1-.1.1-.2v-.2h.7v.2c0 .4-.1.7-.2.9-.1.2-.3.3-.5.3h-.6c-.2 0-.4-.1-.5-.3-.1-.2-.2-.5-.2-.9v-1.1h-.3v-.9h.3v-.8h.7zM89.5 141.3c0 .1 0 .2.1.2 0 0 .1.1.2.1h.7c.1 0 .1 0 .2-.1 0-.1.1-.1.1-.2h.7v.5c0 .2-.1.4-.2.5-.1.1-.2.2-.4.2h-1.5c-.1 0-.3-.1-.4-.2-.1-.1-.1-.3-.1-.5V140c0-.2.1-.3.2-.5.1-.1.2-.2.4-.2H91c.2 0 .3.1.4.2.1.1.1.3.1.5v1h-1.9v.3zm1.1-.8c0-.2 0-.3-.1-.3 0-.1-.1-.1-.2-.1h-.7c-.1 0-.1 0-.2.1 0 .1-.1.2-.1.3h1.3zM93.2 140.5c0-.2-.1-.3-.2-.3h-.3c-.1 0-.2.1-.2.2-.1.1-.1.3-.1.4v1.7h-.7v-3.2h.7v.4c0-.1.1-.2.2-.3.1-.1.2-.1.3-.1h.5c.1 0 .3.1.4.2.1.1.2.3.2.5v.7h-.7v-.2z"
     id="path506" />
  <linearGradient
     id="c"
     gradientUnits="userSpaceOnUse"
     x1="60.333"
     x2="60.333"
     y2="3.417">
    <stop
       offset=".031"
       stop-color="#261c19"
       id="stop508" />
    <stop
       offset=".052"
       stop-color="#3c312f"
       id="stop510" />
    <stop
       offset=".083"
       stop-color="#564a49"
       id="stop512" />
    <stop
       offset=".115"
       stop-color="#685c5c"
       id="stop514" />
    <stop
       offset=".148"
       stop-color="#736767"
       id="stop516" />
    <stop
       offset=".184"
       stop-color="#776a6b"
       id="stop518" />
    <stop
       offset=".201"
       stop-color="#6e6162"
       id="stop520" />
    <stop
       offset=".259"
       stop-color="#534949"
       id="stop522" />
    <stop
       offset=".323"
       stop-color="#3e3535"
       id="stop524" />
    <stop
       offset=".394"
       stop-color="#2f2727"
       id="stop526" />
    <stop
       offset=".479"
       stop-color="#271f1f"
       id="stop528" />
    <stop
       offset=".611"
       stop-color="#241d1c"
       id="stop530" />
    <stop
       offset=".652"
       stop-color="#1e1716"
       id="stop532" />
    <stop
       offset=".744"
       stop-color="#17100f"
       id="stop534" />
    <stop
       offset="1"
       stop-color="#150e0d"
       id="stop536" />
  </linearGradient>
  <path
     fill="url(#c)"
     d="M11.5 3.4V.7c0-.4.3-.7.7-.7h96.2c.4 0 .7.3.7.7v2.7"
     id="path539" />
  <linearGradient
     id="d"
     gradientUnits="userSpaceOnUse"
     x1="60.333"
     y1="260.417"
     x2="60.333"
     y2="254.5">
    <stop
       offset=".031"
       stop-color="#261c19"
       id="stop541" />
    <stop
       offset=".14"
       stop-color="#241815"
       id="stop543" />
    <stop
       offset=".389"
       stop-color="#221412"
       id="stop545" />
    <stop
       offset="1"
       stop-color="#261c19"
       id="stop547" />
  </linearGradient>
  <path
     fill="url(#d)"
     d="M1.5 254.5h117.7v.7c0 2.4-1.6 4.4-3.7 5-.5.1-1 .2-1.5.2H6.8c-.5 0-1-.1-1.5-.2-2.2-.6-3.7-2.7-3.7-5-.1 0-.1-.7-.1-.7z"
     id="path550" />
  <circle
     fill="#D4C1A0"
     cx="60.3"
     cy="212"
     r="28.3"
     id="circle552" />
</svg>
